G04 #@! TF.GenerationSoftware,KiCad,Pcbnew,(5.0.0)*
G04 #@! TF.CreationDate,2019-08-28T15:04:53-04:00*
G04 #@! TF.ProjectId,Tiny-er T,54696E792D657220542E6B696361645F,rev?*
G04 #@! TF.SameCoordinates,Original*
G04 #@! TF.FileFunction,Copper,L2,Bot,Signal*
G04 #@! TF.FilePolarity,Positive*
%FSLAX46Y46*%
G04 Gerber Fmt 4.6, Leading zero omitted, Abs format (unit mm)*
G04 Created by KiCad (PCBNEW (5.0.0)) date 08/28/19 15:04:53*
%MOMM*%
%LPD*%
G01*
G04 APERTURE LIST*
G04 #@! TA.AperFunction,NonConductor*
%ADD10C,0.200000*%
G04 #@! TD*
G04 #@! TA.AperFunction,SMDPad,CuDef*
%ADD11R,0.600000X1.550000*%
G04 #@! TD*
G04 #@! TA.AperFunction,SMDPad,CuDef*
%ADD12R,1.000000X2.750000*%
G04 #@! TD*
G04 #@! TA.AperFunction,ComponentPad*
%ADD13O,2.500000X3.000000*%
G04 #@! TD*
G04 #@! TA.AperFunction,SMDPad,CuDef*
%ADD14R,4.500000X4.500000*%
G04 #@! TD*
G04 #@! TA.AperFunction,ComponentPad*
%ADD15R,1.000000X1.000000*%
G04 #@! TD*
G04 #@! TA.AperFunction,ComponentPad*
%ADD16O,1.000000X1.000000*%
G04 #@! TD*
G04 #@! TA.AperFunction,SMDPad,CuDef*
%ADD17R,1.000000X2.000000*%
G04 #@! TD*
G04 #@! TA.AperFunction,SMDPad,CuDef*
%ADD18R,0.300000X0.850000*%
G04 #@! TD*
G04 #@! TA.AperFunction,SMDPad,CuDef*
%ADD19R,0.850000X0.300000*%
G04 #@! TD*
G04 #@! TA.AperFunction,SMDPad,CuDef*
%ADD20R,1.000000X0.800000*%
G04 #@! TD*
G04 #@! TA.AperFunction,SMDPad,CuDef*
%ADD21R,0.700000X1.500000*%
G04 #@! TD*
G04 #@! TA.AperFunction,ViaPad*
%ADD22C,0.700000*%
G04 #@! TD*
G04 #@! TA.AperFunction,Conductor*
%ADD23C,0.140000*%
G04 #@! TD*
G04 APERTURE END LIST*
D10*
X128859085Y-77595104D02*
X129125752Y-77214152D01*
X129316228Y-77595104D02*
X129316228Y-76795104D01*
X129011466Y-76795104D01*
X128935276Y-76833200D01*
X128897180Y-76871295D01*
X128859085Y-76947485D01*
X128859085Y-77061771D01*
X128897180Y-77137961D01*
X128935276Y-77176057D01*
X129011466Y-77214152D01*
X129316228Y-77214152D01*
X128516228Y-77176057D02*
X128249561Y-77176057D01*
X128135276Y-77595104D02*
X128516228Y-77595104D01*
X128516228Y-76795104D01*
X128135276Y-76795104D01*
X127906704Y-76795104D02*
X127640038Y-77595104D01*
X127373371Y-76795104D01*
X126078133Y-77595104D02*
X126535276Y-77595104D01*
X126306704Y-77595104D02*
X126306704Y-76795104D01*
X126382895Y-76909390D01*
X126459085Y-76985580D01*
X126535276Y-77023676D01*
X125735276Y-77518914D02*
X125697180Y-77557009D01*
X125735276Y-77595104D01*
X125773371Y-77557009D01*
X125735276Y-77518914D01*
X125735276Y-77595104D01*
X124935276Y-77595104D02*
X125392419Y-77595104D01*
X125163847Y-77595104D02*
X125163847Y-76795104D01*
X125240038Y-76909390D01*
X125316228Y-76985580D01*
X125392419Y-77023676D01*
X128979371Y-80057552D02*
X128979371Y-80390885D01*
X129503180Y-80533742D02*
X129503180Y-80057552D01*
X128503180Y-80057552D01*
X128503180Y-80533742D01*
X129455561Y-80914695D02*
X129503180Y-81057552D01*
X129503180Y-81295647D01*
X129455561Y-81390885D01*
X129407942Y-81438504D01*
X129312704Y-81486123D01*
X129217466Y-81486123D01*
X129122228Y-81438504D01*
X129074609Y-81390885D01*
X129026990Y-81295647D01*
X128979371Y-81105171D01*
X128931752Y-81009933D01*
X128884133Y-80962314D01*
X128788895Y-80914695D01*
X128693657Y-80914695D01*
X128598419Y-80962314D01*
X128550800Y-81009933D01*
X128503180Y-81105171D01*
X128503180Y-81343266D01*
X128550800Y-81486123D01*
X129598419Y-82581361D02*
X129550800Y-82486123D01*
X129455561Y-82390885D01*
X129312704Y-82248028D01*
X129265085Y-82152790D01*
X129265085Y-82057552D01*
X129503180Y-82105171D02*
X129455561Y-82009933D01*
X129360323Y-81914695D01*
X129169847Y-81867076D01*
X128836514Y-81867076D01*
X128646038Y-81914695D01*
X128550800Y-82009933D01*
X128503180Y-82105171D01*
X128503180Y-82295647D01*
X128550800Y-82390885D01*
X128646038Y-82486123D01*
X128836514Y-82533742D01*
X129169847Y-82533742D01*
X129360323Y-82486123D01*
X129455561Y-82390885D01*
X129503180Y-82295647D01*
X129503180Y-82105171D01*
X128503180Y-82962314D02*
X129312704Y-82962314D01*
X129407942Y-83009933D01*
X129455561Y-83057552D01*
X129503180Y-83152790D01*
X129503180Y-83343266D01*
X129455561Y-83438504D01*
X129407942Y-83486123D01*
X129312704Y-83533742D01*
X128503180Y-83533742D01*
X129503180Y-84009933D02*
X128503180Y-84009933D01*
X129503180Y-85057552D02*
X129026990Y-84724219D01*
X129503180Y-84486123D02*
X128503180Y-84486123D01*
X128503180Y-84867076D01*
X128550800Y-84962314D01*
X128598419Y-85009933D01*
X128693657Y-85057552D01*
X128836514Y-85057552D01*
X128931752Y-85009933D01*
X128979371Y-84962314D01*
X129026990Y-84867076D01*
X129026990Y-84486123D01*
X128979371Y-85486123D02*
X128979371Y-85819457D01*
X129503180Y-85962314D02*
X129503180Y-85486123D01*
X128503180Y-85486123D01*
X128503180Y-85962314D01*
X128979371Y-86390885D02*
X128979371Y-86724219D01*
X129503180Y-86867076D02*
X129503180Y-86390885D01*
X128503180Y-86390885D01*
X128503180Y-86867076D01*
X129407942Y-87295647D02*
X129455561Y-87343266D01*
X129503180Y-87295647D01*
X129455561Y-87248028D01*
X129407942Y-87295647D01*
X129503180Y-87295647D01*
X129407942Y-88343266D02*
X129455561Y-88295647D01*
X129503180Y-88152790D01*
X129503180Y-88057552D01*
X129455561Y-87914695D01*
X129360323Y-87819457D01*
X129265085Y-87771838D01*
X129074609Y-87724219D01*
X128931752Y-87724219D01*
X128741276Y-87771838D01*
X128646038Y-87819457D01*
X128550800Y-87914695D01*
X128503180Y-88057552D01*
X128503180Y-88152790D01*
X128550800Y-88295647D01*
X128598419Y-88343266D01*
X128503180Y-88962314D02*
X128503180Y-89152790D01*
X128550800Y-89248028D01*
X128646038Y-89343266D01*
X128836514Y-89390885D01*
X129169847Y-89390885D01*
X129360323Y-89343266D01*
X129455561Y-89248028D01*
X129503180Y-89152790D01*
X129503180Y-88962314D01*
X129455561Y-88867076D01*
X129360323Y-88771838D01*
X129169847Y-88724219D01*
X128836514Y-88724219D01*
X128646038Y-88771838D01*
X128550800Y-88867076D01*
X128503180Y-88962314D01*
X129503180Y-89819457D02*
X128503180Y-89819457D01*
X129217466Y-90152790D01*
X128503180Y-90486123D01*
X129503180Y-90486123D01*
X128455561Y-91676600D02*
X129741276Y-90819457D01*
X128503180Y-91867076D02*
X128503180Y-92438504D01*
X129503180Y-92152790D02*
X128503180Y-92152790D01*
D11*
G04 #@! TO.P,U1,8*
G04 #@! TO.N,VCC*
X116195000Y-121500000D03*
G04 #@! TO.P,U1,7*
G04 #@! TO.N,OE*
X117460000Y-121500000D03*
G04 #@! TO.P,U1,6*
G04 #@! TO.N,DATA*
X118730000Y-121500000D03*
G04 #@! TO.P,U1,5*
G04 #@! TO.N,SW1*
X120000000Y-121500000D03*
G04 #@! TO.P,U1,4*
G04 #@! TO.N,GND*
X120000000Y-114500000D03*
G04 #@! TO.P,U1,3*
G04 #@! TO.N,CLK*
X118730000Y-114500000D03*
G04 #@! TO.P,U1,2*
G04 #@! TO.N,REG*
X117460000Y-114500000D03*
G04 #@! TO.P,U1,1*
G04 #@! TO.N,RST*
X116190000Y-114500000D03*
G04 #@! TD*
D12*
G04 #@! TO.P,SW1,1*
G04 #@! TO.N,SW1*
X112000000Y-97620000D03*
X112000000Y-103380000D03*
G04 #@! TO.P,SW1,2*
G04 #@! TO.N,GND*
X108000000Y-103380000D03*
X108000000Y-97620000D03*
G04 #@! TD*
D13*
G04 #@! TO.P,J1,2*
G04 #@! TO.N,Net-(J1-Pad2)*
X100500000Y-81826100D03*
X122100000Y-81826100D03*
D14*
G04 #@! TO.P,J1,1*
G04 #@! TO.N,GND*
X111300000Y-81826100D03*
G04 #@! TD*
D15*
G04 #@! TO.P,J2,1*
G04 #@! TO.N,RST*
X100660000Y-118600000D03*
D16*
G04 #@! TO.P,J2,2*
G04 #@! TO.N,REG*
X100660000Y-117330000D03*
G04 #@! TO.P,J2,3*
G04 #@! TO.N,CLK*
X101930000Y-118600000D03*
G04 #@! TO.P,J2,4*
G04 #@! TO.N,GND*
X101930000Y-117330000D03*
G04 #@! TO.P,J2,5*
G04 #@! TO.N,SW1*
X103200000Y-118600000D03*
G04 #@! TO.P,J2,6*
G04 #@! TO.N,DATA*
X103200000Y-117330000D03*
G04 #@! TO.P,J2,7*
G04 #@! TO.N,OE*
X104470000Y-118600000D03*
G04 #@! TO.P,J2,8*
G04 #@! TO.N,VCC*
X104470000Y-117330000D03*
G04 #@! TD*
D17*
G04 #@! TO.P,U3,8*
G04 #@! TO.N,GND*
X124500000Y-87500000D03*
D18*
G04 #@! TO.P,U3,1*
G04 #@! TO.N,Net-(D10-Pad2)*
X124750000Y-85800000D03*
G04 #@! TO.P,U3,16*
G04 #@! TO.N,VCC*
X124250000Y-85800000D03*
D19*
G04 #@! TO.P,U3,15*
G04 #@! TO.N,Net-(D9-Pad2)*
X123300000Y-86250000D03*
G04 #@! TO.P,U3,14*
G04 #@! TO.N,Net-(U2-Pad9)*
X123300000Y-86750000D03*
G04 #@! TO.P,U3,13*
G04 #@! TO.N,OE*
X123300000Y-87250000D03*
G04 #@! TO.P,U3,12*
G04 #@! TO.N,REG*
X123300000Y-87750000D03*
G04 #@! TO.P,U3,11*
G04 #@! TO.N,CLK*
X123300000Y-88250000D03*
G04 #@! TO.P,U3,10*
G04 #@! TO.N,VCC*
X123300000Y-88750000D03*
D18*
G04 #@! TO.P,U3,9*
G04 #@! TO.N,Net-(U3-Pad9)*
X124250000Y-89200000D03*
G04 #@! TO.P,U3,8*
G04 #@! TO.N,GND*
X124750000Y-89200000D03*
D19*
G04 #@! TO.P,U3,7*
G04 #@! TO.N,Net-(D16-Pad2)*
X125700000Y-88750000D03*
G04 #@! TO.P,U3,6*
G04 #@! TO.N,Net-(D15-Pad2)*
X125700000Y-88250000D03*
G04 #@! TO.P,U3,5*
G04 #@! TO.N,Net-(D14-Pad2)*
X125700000Y-87750000D03*
G04 #@! TO.P,U3,4*
G04 #@! TO.N,Net-(D13-Pad2)*
X125700000Y-87250000D03*
G04 #@! TO.P,U3,3*
G04 #@! TO.N,Net-(D12-Pad2)*
X125700000Y-86750000D03*
G04 #@! TO.P,U3,2*
G04 #@! TO.N,Net-(D11-Pad2)*
X125700000Y-86250000D03*
G04 #@! TD*
D17*
G04 #@! TO.P,U4,8*
G04 #@! TO.N,GND*
X110000000Y-111000000D03*
D18*
G04 #@! TO.P,U4,1*
G04 #@! TO.N,Net-(D18-Pad2)*
X110250000Y-109300000D03*
G04 #@! TO.P,U4,16*
G04 #@! TO.N,VCC*
X109750000Y-109300000D03*
D19*
G04 #@! TO.P,U4,15*
G04 #@! TO.N,Net-(D17-Pad2)*
X108800000Y-109750000D03*
G04 #@! TO.P,U4,14*
G04 #@! TO.N,Net-(U3-Pad9)*
X108800000Y-110250000D03*
G04 #@! TO.P,U4,13*
G04 #@! TO.N,OE*
X108800000Y-110750000D03*
G04 #@! TO.P,U4,12*
G04 #@! TO.N,REG*
X108800000Y-111250000D03*
G04 #@! TO.P,U4,11*
G04 #@! TO.N,CLK*
X108800000Y-111750000D03*
G04 #@! TO.P,U4,10*
G04 #@! TO.N,VCC*
X108800000Y-112250000D03*
D18*
G04 #@! TO.P,U4,9*
G04 #@! TO.N,Net-(U4-Pad9)*
X109750000Y-112700000D03*
G04 #@! TO.P,U4,8*
G04 #@! TO.N,GND*
X110250000Y-112700000D03*
D19*
G04 #@! TO.P,U4,7*
G04 #@! TO.N,Net-(D24-Pad2)*
X111200000Y-112250000D03*
G04 #@! TO.P,U4,6*
G04 #@! TO.N,Net-(D23-Pad2)*
X111200000Y-111750000D03*
G04 #@! TO.P,U4,5*
G04 #@! TO.N,Net-(D22-Pad2)*
X111200000Y-111250000D03*
G04 #@! TO.P,U4,4*
G04 #@! TO.N,Net-(D21-Pad2)*
X111200000Y-110750000D03*
G04 #@! TO.P,U4,3*
G04 #@! TO.N,Net-(D20-Pad2)*
X111200000Y-110250000D03*
G04 #@! TO.P,U4,2*
G04 #@! TO.N,Net-(D19-Pad2)*
X111200000Y-109750000D03*
G04 #@! TD*
D17*
G04 #@! TO.P,U5,8*
G04 #@! TO.N,GND*
X110000000Y-118200000D03*
D18*
G04 #@! TO.P,U5,1*
G04 #@! TO.N,Net-(D26-Pad2)*
X109750000Y-119900000D03*
G04 #@! TO.P,U5,16*
G04 #@! TO.N,VCC*
X110250000Y-119900000D03*
D19*
G04 #@! TO.P,U5,15*
G04 #@! TO.N,Net-(D25-Pad2)*
X111200000Y-119450000D03*
G04 #@! TO.P,U5,14*
G04 #@! TO.N,Net-(U4-Pad9)*
X111200000Y-118950000D03*
G04 #@! TO.P,U5,13*
G04 #@! TO.N,OE*
X111200000Y-118450000D03*
G04 #@! TO.P,U5,12*
G04 #@! TO.N,REG*
X111200000Y-117950000D03*
G04 #@! TO.P,U5,11*
G04 #@! TO.N,CLK*
X111200000Y-117450000D03*
G04 #@! TO.P,U5,10*
G04 #@! TO.N,VCC*
X111200000Y-116950000D03*
D18*
G04 #@! TO.P,U5,9*
G04 #@! TO.N,Net-(U5-Pad9)*
X110250000Y-116500000D03*
G04 #@! TO.P,U5,8*
G04 #@! TO.N,GND*
X109750000Y-116500000D03*
D19*
G04 #@! TO.P,U5,7*
G04 #@! TO.N,Net-(D32-Pad2)*
X108800000Y-116950000D03*
G04 #@! TO.P,U5,6*
G04 #@! TO.N,Net-(D31-Pad2)*
X108800000Y-117450000D03*
G04 #@! TO.P,U5,5*
G04 #@! TO.N,Net-(D30-Pad2)*
X108800000Y-117950000D03*
G04 #@! TO.P,U5,4*
G04 #@! TO.N,Net-(D29-Pad2)*
X108800000Y-118450000D03*
G04 #@! TO.P,U5,3*
G04 #@! TO.N,Net-(D28-Pad2)*
X108800000Y-118950000D03*
G04 #@! TO.P,U5,2*
G04 #@! TO.N,Net-(D27-Pad2)*
X108800000Y-119450000D03*
G04 #@! TD*
D17*
G04 #@! TO.P,U6,8*
G04 #@! TO.N,GND*
X95500000Y-87500000D03*
D18*
G04 #@! TO.P,U6,1*
G04 #@! TO.N,Net-(D34-Pad2)*
X95750000Y-85800000D03*
G04 #@! TO.P,U6,16*
G04 #@! TO.N,VCC*
X95250000Y-85800000D03*
D19*
G04 #@! TO.P,U6,15*
G04 #@! TO.N,Net-(D33-Pad2)*
X94300000Y-86250000D03*
G04 #@! TO.P,U6,14*
G04 #@! TO.N,Net-(U5-Pad9)*
X94300000Y-86750000D03*
G04 #@! TO.P,U6,13*
G04 #@! TO.N,OE*
X94300000Y-87250000D03*
G04 #@! TO.P,U6,12*
G04 #@! TO.N,REG*
X94300000Y-87750000D03*
G04 #@! TO.P,U6,11*
G04 #@! TO.N,CLK*
X94300000Y-88250000D03*
G04 #@! TO.P,U6,10*
G04 #@! TO.N,VCC*
X94300000Y-88750000D03*
D18*
G04 #@! TO.P,U6,9*
G04 #@! TO.N,N/C*
X95250000Y-89200000D03*
G04 #@! TO.P,U6,8*
G04 #@! TO.N,GND*
X95750000Y-89200000D03*
D19*
G04 #@! TO.P,U6,7*
G04 #@! TO.N,N/C*
X96700000Y-88750000D03*
G04 #@! TO.P,U6,6*
X96700000Y-88250000D03*
G04 #@! TO.P,U6,5*
G04 #@! TO.N,Net-(D38-Pad2)*
X96700000Y-87750000D03*
G04 #@! TO.P,U6,4*
G04 #@! TO.N,Net-(D37-Pad2)*
X96700000Y-87250000D03*
G04 #@! TO.P,U6,3*
G04 #@! TO.N,Net-(D36-Pad2)*
X96700000Y-86750000D03*
G04 #@! TO.P,U6,2*
G04 #@! TO.N,Net-(D35-Pad2)*
X96700000Y-86250000D03*
G04 #@! TD*
D20*
G04 #@! TO.P,POWER0,*
G04 #@! TO.N,*
X90800000Y-80430000D03*
X98100000Y-80430000D03*
X98100000Y-78220000D03*
X90800000Y-78220000D03*
D21*
G04 #@! TO.P,POWER0,3*
G04 #@! TO.N,N/C*
X96700000Y-81080000D03*
G04 #@! TO.P,POWER0,2*
G04 #@! TO.N,Net-(J1-Pad2)*
X95200000Y-81080000D03*
G04 #@! TO.P,POWER0,1*
G04 #@! TO.N,VCC*
X92200000Y-81080000D03*
G04 #@! TD*
D22*
G04 #@! TO.N,Net-(D1-Pad2)*
X97438400Y-79536400D03*
X107016200Y-77348600D03*
G04 #@! TO.N,Net-(D6-Pad2)*
X108190400Y-79406100D03*
X106899600Y-83460100D03*
G04 #@! TO.N,Net-(D9-Pad2)*
X125616700Y-83599800D03*
G04 #@! TO.N,Net-(D10-Pad2)*
X126319900Y-84725200D03*
G04 #@! TO.N,Net-(D11-Pad2)*
X127350000Y-85909700D03*
G04 #@! TO.N,Net-(D12-Pad2)*
X127507100Y-89106300D03*
G04 #@! TO.N,Net-(D13-Pad2)*
X123993900Y-91283600D03*
G04 #@! TO.N,Net-(D14-Pad2)*
X126646700Y-87750000D03*
G04 #@! TO.N,Net-(D15-Pad2)*
X120401100Y-88669300D03*
G04 #@! TO.N,Net-(D16-Pad2)*
X115240900Y-86255600D03*
G04 #@! TO.N,Net-(D17-Pad2)*
X112749900Y-106017900D03*
G04 #@! TO.N,Net-(D18-Pad2)*
X113030000Y-107003100D03*
G04 #@! TO.N,Net-(D19-Pad2)*
X113362700Y-107846800D03*
G04 #@! TO.N,Net-(D20-Pad2)*
X114206300Y-107807100D03*
G04 #@! TO.N,Net-(D21-Pad2)*
X113456500Y-110173600D03*
G04 #@! TO.N,Net-(D22-Pad2)*
X112634000Y-111132300D03*
G04 #@! TO.N,Net-(D23-Pad2)*
X114449000Y-111802200D03*
G04 #@! TO.N,Net-(D24-Pad2)*
X114090500Y-112634100D03*
G04 #@! TO.N,GND*
X111911600Y-113040500D03*
X123371200Y-89835300D03*
X97574000Y-89144900D03*
X112239800Y-86948200D03*
X107001000Y-80058500D03*
G04 #@! TO.N,VCC*
X111626300Y-115169300D03*
X111460400Y-116301500D03*
X116319400Y-120170000D03*
X111189900Y-108006500D03*
X114362900Y-84992500D03*
X111146900Y-87843800D03*
X110226400Y-76914700D03*
G04 #@! TO.N,CLK*
X112135700Y-117086100D03*
X110890000Y-78795300D03*
X115801800Y-81010400D03*
X115801800Y-84400100D03*
G04 #@! TO.N,Net-(D25-Pad2)*
X112046300Y-120473400D03*
G04 #@! TO.N,Net-(D26-Pad2)*
X109112900Y-120535300D03*
G04 #@! TO.N,Net-(D27-Pad2)*
X108176600Y-120523400D03*
G04 #@! TO.N,Net-(D28-Pad2)*
X104487800Y-115601400D03*
G04 #@! TO.N,Net-(D29-Pad2)*
X107257100Y-116656400D03*
G04 #@! TO.N,Net-(D30-Pad2)*
X107583500Y-117500200D03*
G04 #@! TO.N,Net-(D31-Pad2)*
X108195900Y-116257100D03*
G04 #@! TO.N,Net-(D32-Pad2)*
X107159400Y-115079500D03*
G04 #@! TO.N,Net-(D33-Pad2)*
X107535800Y-87227200D03*
G04 #@! TO.N,Net-(D34-Pad2)*
X106079000Y-87302800D03*
G04 #@! TO.N,Net-(D35-Pad2)*
X104802100Y-85957900D03*
G04 #@! TO.N,Net-(D36-Pad2)*
X102805600Y-86238200D03*
G04 #@! TO.N,Net-(D37-Pad2)*
X98500000Y-86595400D03*
G04 #@! TO.N,Net-(D38-Pad2)*
X98279200Y-88545900D03*
G04 #@! TO.N,SW1*
X110244900Y-107240800D03*
G04 #@! TO.N,RST*
X113832300Y-116473500D03*
G04 #@! TO.N,DATA*
X108091300Y-80627200D03*
X102549700Y-115062600D03*
G04 #@! TO.N,REG*
X110038700Y-78835900D03*
X116355500Y-118608400D03*
G04 #@! TO.N,Net-(U2-Pad9)*
X112387100Y-78493000D03*
G04 #@! TO.N,Net-(U4-Pad9)*
X112878800Y-115623400D03*
X114447500Y-119011500D03*
G04 #@! TO.N,Net-(U5-Pad9)*
X109564100Y-115178800D03*
X109564100Y-87278000D03*
G04 #@! TO.N,OE*
X109099400Y-79085800D03*
X109037900Y-85431000D03*
X106586200Y-110787200D03*
X115202600Y-83391300D03*
G04 #@! TD*
D23*
G04 #@! TO.N,Net-(D1-Pad2)*
X97438400Y-79536400D02*
X99066100Y-79536400D01*
X99066100Y-79536400D02*
X101253900Y-77348600D01*
X101253900Y-77348600D02*
X107016200Y-77348600D01*
G04 #@! TO.N,Net-(D6-Pad2)*
X106899600Y-83460100D02*
X106407200Y-82967700D01*
X106407200Y-82967700D02*
X106407200Y-79860100D01*
X106407200Y-79860100D02*
X106861200Y-79406100D01*
X106861200Y-79406100D02*
X108190400Y-79406100D01*
G04 #@! TO.N,Net-(D9-Pad2)*
X123300000Y-86250000D02*
X123300000Y-85639400D01*
X123300000Y-85639400D02*
X125339600Y-83599800D01*
X125339600Y-83599800D02*
X125616700Y-83599800D01*
G04 #@! TO.N,Net-(D10-Pad2)*
X124750000Y-85164700D02*
X125880400Y-85164700D01*
X125880400Y-85164700D02*
X126319900Y-84725200D01*
X124750000Y-85800000D02*
X124750000Y-85164700D01*
G04 #@! TO.N,Net-(D11-Pad2)*
X126335300Y-86250000D02*
X126675600Y-85909700D01*
X126675600Y-85909700D02*
X127350000Y-85909700D01*
X125700000Y-86250000D02*
X126335300Y-86250000D01*
G04 #@! TO.N,Net-(D12-Pad2)*
X127507100Y-89106300D02*
X127507100Y-87417100D01*
X127507100Y-87417100D02*
X126840000Y-86750000D01*
X126840000Y-86750000D02*
X126335300Y-86750000D01*
X125700000Y-86750000D02*
X126335300Y-86750000D01*
G04 #@! TO.N,Net-(D13-Pad2)*
X125700000Y-87250000D02*
X126335300Y-87250000D01*
X126335300Y-87250000D02*
X126395700Y-87189600D01*
X126395700Y-87189600D02*
X126880500Y-87189600D01*
X126880500Y-87189600D02*
X127226700Y-87535800D01*
X127226700Y-87535800D02*
X127226700Y-88594000D01*
X127226700Y-88594000D02*
X124537100Y-91283600D01*
X124537100Y-91283600D02*
X123993900Y-91283600D01*
G04 #@! TO.N,Net-(D14-Pad2)*
X125700000Y-87750000D02*
X126646700Y-87750000D01*
G04 #@! TO.N,Net-(D15-Pad2)*
X125700000Y-88250000D02*
X126335300Y-88250000D01*
X126335300Y-88250000D02*
X126335300Y-89056000D01*
X126335300Y-89056000D02*
X124710600Y-90680700D01*
X124710600Y-90680700D02*
X122412500Y-90680700D01*
X122412500Y-90680700D02*
X120401100Y-88669300D01*
G04 #@! TO.N,Net-(D16-Pad2)*
X125700000Y-88750000D02*
X125700000Y-89294800D01*
X125700000Y-89294800D02*
X124594500Y-90400300D01*
X124594500Y-90400300D02*
X123122900Y-90400300D01*
X123122900Y-90400300D02*
X118978200Y-86255600D01*
X118978200Y-86255600D02*
X115240900Y-86255600D01*
G04 #@! TO.N,Net-(D17-Pad2)*
X108800000Y-109750000D02*
X108800000Y-109195500D01*
X108800000Y-109195500D02*
X110194400Y-107801100D01*
X110194400Y-107801100D02*
X110476900Y-107801100D01*
X110476900Y-107801100D02*
X112260100Y-106017900D01*
X112260100Y-106017900D02*
X112749900Y-106017900D01*
G04 #@! TO.N,Net-(D18-Pad2)*
X110250000Y-108664700D02*
X111368400Y-108664700D01*
X111368400Y-108664700D02*
X113030000Y-107003100D01*
X110250000Y-109300000D02*
X110250000Y-108664700D01*
G04 #@! TO.N,Net-(D19-Pad2)*
X111835300Y-109750000D02*
X113362700Y-108222600D01*
X113362700Y-108222600D02*
X113362700Y-107846800D01*
X111200000Y-109750000D02*
X111835300Y-109750000D01*
G04 #@! TO.N,Net-(D20-Pad2)*
X111200000Y-110250000D02*
X111835300Y-110250000D01*
X111835300Y-110250000D02*
X111835300Y-110178100D01*
X111835300Y-110178100D02*
X114206300Y-107807100D01*
G04 #@! TO.N,Net-(D21-Pad2)*
X111200000Y-110750000D02*
X111835300Y-110750000D01*
X111835300Y-110750000D02*
X112411700Y-110173600D01*
X112411700Y-110173600D02*
X113456500Y-110173600D01*
G04 #@! TO.N,Net-(D22-Pad2)*
X111200000Y-111250000D02*
X111835300Y-111250000D01*
X112634000Y-111132300D02*
X111953000Y-111132300D01*
X111953000Y-111132300D02*
X111835300Y-111250000D01*
G04 #@! TO.N,Net-(D23-Pad2)*
X111200000Y-111750000D02*
X111835300Y-111750000D01*
X111835300Y-111750000D02*
X111895700Y-111810400D01*
X111895700Y-111810400D02*
X114440800Y-111810400D01*
X114440800Y-111810400D02*
X114449000Y-111802200D01*
G04 #@! TO.N,Net-(D24-Pad2)*
X111835300Y-112250000D02*
X113706400Y-112250000D01*
X113706400Y-112250000D02*
X114090500Y-112634100D01*
X111200000Y-112250000D02*
X111835300Y-112250000D01*
G04 #@! TO.N,GND*
X109750000Y-116500000D02*
X109750000Y-115864700D01*
X101930000Y-117330000D02*
X104746000Y-114514000D01*
X104746000Y-114514000D02*
X107764000Y-114514000D01*
X107764000Y-114514000D02*
X109114700Y-115864700D01*
X109114700Y-115864700D02*
X109750000Y-115864700D01*
X112239800Y-86948200D02*
X111300000Y-86008400D01*
X111300000Y-86008400D02*
X111300000Y-81826100D01*
X108000000Y-96034700D02*
X108000000Y-92195500D01*
X108000000Y-92195500D02*
X112239800Y-87955700D01*
X112239800Y-87955700D02*
X112239800Y-86948200D01*
X111911600Y-113204000D02*
X111780300Y-113335300D01*
X111780300Y-113335300D02*
X110250000Y-113335300D01*
X120000000Y-113514700D02*
X119689300Y-113204000D01*
X119689300Y-113204000D02*
X111911600Y-113204000D01*
X111911600Y-113204000D02*
X111911600Y-113040500D01*
X110250000Y-112700000D02*
X110250000Y-113335300D01*
X120000000Y-114500000D02*
X120000000Y-113514700D01*
X124750000Y-89835300D02*
X123371200Y-89835300D01*
X110000000Y-111000000D02*
X110250000Y-111250000D01*
X110250000Y-111250000D02*
X110250000Y-112700000D01*
X95831800Y-89118200D02*
X97547300Y-89118200D01*
X97547300Y-89118200D02*
X97574000Y-89144900D01*
X124750000Y-89200000D02*
X124750000Y-89835300D01*
X124500000Y-87500000D02*
X124750000Y-87750000D01*
X124750000Y-87750000D02*
X124750000Y-89200000D01*
X95831800Y-89118200D02*
X95750000Y-89200000D01*
X95831800Y-89118200D02*
X95831800Y-87831800D01*
X95831800Y-87831800D02*
X95500000Y-87500000D01*
X108839700Y-81826100D02*
X108839700Y-80531300D01*
X108839700Y-80531300D02*
X108366900Y-80058500D01*
X108366900Y-80058500D02*
X107001000Y-80058500D01*
X111300000Y-81826100D02*
X108839700Y-81826100D01*
X108000000Y-97620000D02*
X108000000Y-96034700D01*
X110000000Y-118200000D02*
X109750000Y-117950000D01*
X109750000Y-117950000D02*
X109750000Y-116500000D01*
X108000000Y-99205300D02*
X108000000Y-103380000D01*
X108000000Y-97620000D02*
X108000000Y-99205300D01*
G04 #@! TO.N,VCC*
X108800000Y-112250000D02*
X108800000Y-112814000D01*
X108800000Y-112814000D02*
X111155300Y-115169300D01*
X111155300Y-115169300D02*
X111626300Y-115169300D01*
X111460400Y-116301500D02*
X111200000Y-116561900D01*
X111200000Y-116561900D02*
X111200000Y-116950000D01*
X116195000Y-120514700D02*
X116195000Y-120294400D01*
X116195000Y-120294400D02*
X116319400Y-120170000D01*
X110250000Y-120535300D02*
X110792600Y-121077900D01*
X110792600Y-121077900D02*
X115121400Y-121077900D01*
X115121400Y-121077900D02*
X115684600Y-120514700D01*
X115684600Y-120514700D02*
X116195000Y-120514700D01*
X109750000Y-108664700D02*
X110110600Y-108304100D01*
X110110600Y-108304100D02*
X110892300Y-108304100D01*
X110892300Y-108304100D02*
X111189900Y-108006500D01*
X109750000Y-109300000D02*
X109750000Y-108664700D01*
X110250000Y-120535300D02*
X109683900Y-121101400D01*
X109683900Y-121101400D02*
X107900700Y-121101400D01*
X107900700Y-121101400D02*
X105460700Y-118661400D01*
X105460700Y-118661400D02*
X105460700Y-118320700D01*
X105460700Y-118320700D02*
X104470000Y-117330000D01*
X122664700Y-88750000D02*
X118907200Y-84992500D01*
X118907200Y-84992500D02*
X114362900Y-84992500D01*
X106848600Y-87367800D02*
X106848600Y-86763900D01*
X106848600Y-86763900D02*
X105196500Y-85111800D01*
X105196500Y-85111800D02*
X95302900Y-85111800D01*
X95302900Y-85111800D02*
X95250000Y-85164700D01*
X92462700Y-82040300D02*
X92602900Y-82040300D01*
X92602900Y-82040300D02*
X92773700Y-81869500D01*
X92773700Y-81869500D02*
X92773700Y-81558700D01*
X92773700Y-81558700D02*
X97564900Y-76767500D01*
X97564900Y-76767500D02*
X110079200Y-76767500D01*
X110079200Y-76767500D02*
X110226400Y-76914700D01*
X92200000Y-82040300D02*
X92462700Y-82040300D01*
X92462700Y-82040300D02*
X92462700Y-87548000D01*
X92462700Y-87548000D02*
X93664700Y-88750000D01*
X93982400Y-88750000D02*
X93982400Y-88880500D01*
X93982400Y-88880500D02*
X94954500Y-89852600D01*
X94954500Y-89852600D02*
X97817200Y-89852600D01*
X97817200Y-89852600D02*
X100700000Y-86969800D01*
X100700000Y-86969800D02*
X104914300Y-86969800D01*
X104914300Y-86969800D02*
X105848400Y-87903900D01*
X105848400Y-87903900D02*
X106312500Y-87903900D01*
X106312500Y-87903900D02*
X106848600Y-87367800D01*
X106848600Y-87367800D02*
X107324600Y-87843800D01*
X107324600Y-87843800D02*
X111146900Y-87843800D01*
X123300000Y-88750000D02*
X122664700Y-88750000D01*
X93982400Y-88750000D02*
X93664700Y-88750000D01*
X94300000Y-88750000D02*
X93982400Y-88750000D01*
X116195000Y-121500000D02*
X116195000Y-120514700D01*
X110250000Y-119900000D02*
X110250000Y-120535300D01*
X95250000Y-85800000D02*
X95250000Y-85164700D01*
X124250000Y-85164700D02*
X125196400Y-84218300D01*
X125196400Y-84218300D02*
X125844200Y-84218300D01*
X125844200Y-84218300D02*
X126191200Y-83871300D01*
X126191200Y-83871300D02*
X126191200Y-83341900D01*
X126191200Y-83341900D02*
X119764000Y-76914700D01*
X119764000Y-76914700D02*
X110226400Y-76914700D01*
X124250000Y-85800000D02*
X124250000Y-85164700D01*
X92200000Y-81080000D02*
X92200000Y-82040300D01*
G04 #@! TO.N,CLK*
X94300000Y-88250000D02*
X93664700Y-88250000D01*
X93664700Y-88250000D02*
X92805800Y-87391100D01*
X92805800Y-87391100D02*
X92805800Y-85523200D01*
X92805800Y-85523200D02*
X94758900Y-83570100D01*
X94758900Y-83570100D02*
X101090300Y-83570100D01*
X101090300Y-83570100D02*
X106466500Y-78193900D01*
X106466500Y-78193900D02*
X110288600Y-78193900D01*
X110288600Y-78193900D02*
X110890000Y-78795300D01*
X112174500Y-116223200D02*
X111692500Y-115741200D01*
X111692500Y-115741200D02*
X111327100Y-115741200D01*
X111327100Y-115741200D02*
X108164700Y-112578800D01*
X108164700Y-112578800D02*
X108164700Y-111750000D01*
X112135700Y-117086100D02*
X112135700Y-116262000D01*
X112135700Y-116262000D02*
X112174500Y-116223200D01*
X112174500Y-116223200D02*
X113073400Y-116223200D01*
X113073400Y-116223200D02*
X115781900Y-113514700D01*
X115781900Y-113514700D02*
X118730000Y-113514700D01*
X111835300Y-117450000D02*
X112135700Y-117149600D01*
X112135700Y-117149600D02*
X112135700Y-117086100D01*
X111200000Y-117450000D02*
X111835300Y-117450000D01*
X108800000Y-111750000D02*
X108164700Y-111750000D01*
X118730000Y-114500000D02*
X118730000Y-113514700D01*
X115801800Y-81010400D02*
X113864000Y-79072600D01*
X113864000Y-79072600D02*
X111167300Y-79072600D01*
X111167300Y-79072600D02*
X110890000Y-78795300D01*
X122664700Y-88250000D02*
X122597000Y-88250000D01*
X122597000Y-88250000D02*
X118747100Y-84400100D01*
X118747100Y-84400100D02*
X115801800Y-84400100D01*
X123300000Y-88250000D02*
X122664700Y-88250000D01*
G04 #@! TO.N,Net-(D25-Pad2)*
X111200000Y-119450000D02*
X111835300Y-119450000D01*
X111835300Y-119450000D02*
X111835300Y-120262400D01*
X111835300Y-120262400D02*
X112046300Y-120473400D01*
G04 #@! TO.N,Net-(D26-Pad2)*
X109750000Y-120535300D02*
X109112900Y-120535300D01*
X109750000Y-119900000D02*
X109750000Y-120535300D01*
G04 #@! TO.N,Net-(D27-Pad2)*
X108164700Y-119450000D02*
X108164700Y-120511500D01*
X108164700Y-120511500D02*
X108176600Y-120523400D01*
X108800000Y-119450000D02*
X108164700Y-119450000D01*
G04 #@! TO.N,Net-(D28-Pad2)*
X108164700Y-118950000D02*
X107836400Y-118950000D01*
X107836400Y-118950000D02*
X104487800Y-115601400D01*
X108800000Y-118950000D02*
X108164700Y-118950000D01*
G04 #@! TO.N,Net-(D29-Pad2)*
X108800000Y-118450000D02*
X107732900Y-118450000D01*
X107732900Y-118450000D02*
X107023100Y-117740200D01*
X107023100Y-117740200D02*
X107023100Y-116890400D01*
X107023100Y-116890400D02*
X107257100Y-116656400D01*
G04 #@! TO.N,Net-(D30-Pad2)*
X108164700Y-117950000D02*
X107714900Y-117500200D01*
X107714900Y-117500200D02*
X107583500Y-117500200D01*
X108800000Y-117950000D02*
X108164700Y-117950000D01*
G04 #@! TO.N,Net-(D31-Pad2)*
X108164700Y-117450000D02*
X108164700Y-116288300D01*
X108164700Y-116288300D02*
X108195900Y-116257100D01*
X108800000Y-117450000D02*
X108164700Y-117450000D01*
G04 #@! TO.N,Net-(D32-Pad2)*
X108800000Y-116950000D02*
X108800000Y-116021000D01*
X108800000Y-116021000D02*
X107858500Y-115079500D01*
X107858500Y-115079500D02*
X107159400Y-115079500D01*
G04 #@! TO.N,Net-(D33-Pad2)*
X107535800Y-87227200D02*
X107535800Y-87040300D01*
X107535800Y-87040300D02*
X105327000Y-84831500D01*
X105327000Y-84831500D02*
X95135400Y-84831500D01*
X95135400Y-84831500D02*
X94300000Y-85666900D01*
X94300000Y-85666900D02*
X94300000Y-86250000D01*
G04 #@! TO.N,Net-(D34-Pad2)*
X95750000Y-85800000D02*
X96157800Y-85392200D01*
X96157800Y-85392200D02*
X105078800Y-85392200D01*
X105078800Y-85392200D02*
X106079000Y-86392400D01*
X106079000Y-86392400D02*
X106079000Y-87302800D01*
G04 #@! TO.N,Net-(D35-Pad2)*
X97335300Y-86250000D02*
X97907500Y-85677800D01*
X97907500Y-85677800D02*
X104522000Y-85677800D01*
X104522000Y-85677800D02*
X104802100Y-85957900D01*
X96700000Y-86250000D02*
X97335300Y-86250000D01*
G04 #@! TO.N,Net-(D36-Pad2)*
X97335300Y-86750000D02*
X98050200Y-86035100D01*
X98050200Y-86035100D02*
X102602500Y-86035100D01*
X102602500Y-86035100D02*
X102805600Y-86238200D01*
X96700000Y-86750000D02*
X97335300Y-86750000D01*
G04 #@! TO.N,Net-(D37-Pad2)*
X96700000Y-87250000D02*
X97845400Y-87250000D01*
X97845400Y-87250000D02*
X98500000Y-86595400D01*
G04 #@! TO.N,Net-(D38-Pad2)*
X97335300Y-87750000D02*
X97483300Y-87750000D01*
X97483300Y-87750000D02*
X98279200Y-88545900D01*
X96700000Y-87750000D02*
X97335300Y-87750000D01*
G04 #@! TO.N,SW1*
X112000000Y-105397200D02*
X112000000Y-104965300D01*
X110244900Y-107240800D02*
X112000000Y-105485700D01*
X112000000Y-105485700D02*
X112000000Y-105397200D01*
X120000000Y-120514700D02*
X120527100Y-119987600D01*
X120527100Y-119987600D02*
X120527100Y-113643800D01*
X120527100Y-113643800D02*
X119803700Y-112920400D01*
X119803700Y-112920400D02*
X115356600Y-112920400D01*
X115356600Y-112920400D02*
X115150800Y-112714600D01*
X115150800Y-112714600D02*
X115150800Y-107555100D01*
X115150800Y-107555100D02*
X112992900Y-105397200D01*
X112992900Y-105397200D02*
X112000000Y-105397200D01*
X112000000Y-103380000D02*
X112000000Y-104965300D01*
X120000000Y-121500000D02*
X120000000Y-120514700D01*
X112000000Y-103380000D02*
X112000000Y-97620000D01*
G04 #@! TO.N,RST*
X116190000Y-115485300D02*
X115201800Y-116473500D01*
X115201800Y-116473500D02*
X113832300Y-116473500D01*
X116190000Y-114500000D02*
X116190000Y-115485300D01*
G04 #@! TO.N,DATA*
X102549700Y-115062600D02*
X101905700Y-115062600D01*
X101905700Y-115062600D02*
X99949600Y-117018700D01*
X99949600Y-117018700D02*
X99949600Y-119238800D01*
X99949600Y-119238800D02*
X103495400Y-122784600D01*
X103495400Y-122784600D02*
X118430700Y-122784600D01*
X118430700Y-122784600D02*
X118730000Y-122485300D01*
X108091300Y-80627200D02*
X108091300Y-83612600D01*
X108091300Y-83612600D02*
X111724300Y-87245600D01*
X111724300Y-87245600D02*
X111724300Y-88074700D01*
X111724300Y-88074700D02*
X104982300Y-94816700D01*
X104982300Y-94816700D02*
X104982300Y-112630000D01*
X104982300Y-112630000D02*
X102549700Y-115062600D01*
X118730000Y-121500000D02*
X118730000Y-122485300D01*
G04 #@! TO.N,REG*
X93664700Y-87750000D02*
X93086200Y-87171500D01*
X93086200Y-87171500D02*
X93086200Y-85639300D01*
X93086200Y-85639300D02*
X94875100Y-83850400D01*
X94875100Y-83850400D02*
X101621800Y-83850400D01*
X101621800Y-83850400D02*
X106949800Y-78522400D01*
X106949800Y-78522400D02*
X109725200Y-78522400D01*
X109725200Y-78522400D02*
X110038700Y-78835900D01*
X114603200Y-83951700D02*
X114603200Y-80294000D01*
X114603200Y-80294000D02*
X113674900Y-79365700D01*
X113674900Y-79365700D02*
X110568500Y-79365700D01*
X110568500Y-79365700D02*
X110038700Y-78835900D01*
X94300000Y-87750000D02*
X93664700Y-87750000D01*
X114603200Y-83951700D02*
X115434600Y-83951700D01*
X115434600Y-83951700D02*
X115547300Y-83839000D01*
X115547300Y-83839000D02*
X118582300Y-83839000D01*
X118582300Y-83839000D02*
X122493300Y-87750000D01*
X122493300Y-87750000D02*
X123300000Y-87750000D01*
X106208800Y-111347500D02*
X106024100Y-111162800D01*
X106024100Y-111162800D02*
X106024100Y-110411600D01*
X106024100Y-110411600D02*
X109164800Y-107270900D01*
X109164800Y-107270900D02*
X109164800Y-91427200D01*
X109164800Y-91427200D02*
X113717400Y-86874600D01*
X113717400Y-86874600D02*
X113717400Y-84837500D01*
X113717400Y-84837500D02*
X114603200Y-83951700D01*
X111835300Y-117950000D02*
X115836700Y-117950000D01*
X106208800Y-111347500D02*
X108067200Y-111347500D01*
X108067200Y-111347500D02*
X108164700Y-111250000D01*
X100660000Y-117330000D02*
X101909700Y-116080300D01*
X101909700Y-116080300D02*
X102329200Y-116080300D01*
X102329200Y-116080300D02*
X106208800Y-112200700D01*
X106208800Y-112200700D02*
X106208800Y-111347500D01*
X108800000Y-111250000D02*
X108164700Y-111250000D01*
X115836700Y-117950000D02*
X117460000Y-116326700D01*
X117460000Y-116326700D02*
X117460000Y-114500000D01*
X116355500Y-118608400D02*
X115836700Y-118089600D01*
X115836700Y-118089600D02*
X115836700Y-117950000D01*
X111200000Y-117950000D02*
X111835300Y-117950000D01*
G04 #@! TO.N,Net-(U2-Pad9)*
X123300000Y-86750000D02*
X122664700Y-86750000D01*
X122664700Y-86750000D02*
X114407700Y-78493000D01*
X114407700Y-78493000D02*
X112387100Y-78493000D01*
G04 #@! TO.N,Net-(U3-Pad9)*
X108164700Y-110250000D02*
X108164700Y-109434300D01*
X108164700Y-109434300D02*
X109445200Y-108153800D01*
X109445200Y-108153800D02*
X109445200Y-97961300D01*
X109445200Y-97961300D02*
X114392100Y-93014400D01*
X114392100Y-93014400D02*
X114392100Y-86304200D01*
X114392100Y-86304200D02*
X115006200Y-85690100D01*
X115006200Y-85690100D02*
X118809100Y-85690100D01*
X118809100Y-85690100D02*
X122319000Y-89200000D01*
X122319000Y-89200000D02*
X124250000Y-89200000D01*
X108800000Y-110250000D02*
X108164700Y-110250000D01*
G04 #@! TO.N,Net-(U4-Pad9)*
X112878800Y-115623400D02*
X111741600Y-114486200D01*
X111741600Y-114486200D02*
X110900900Y-114486200D01*
X110900900Y-114486200D02*
X109750000Y-113335300D01*
X109750000Y-112700000D02*
X109750000Y-113335300D01*
X111200000Y-118950000D02*
X114386000Y-118950000D01*
X114386000Y-118950000D02*
X114447500Y-119011500D01*
G04 #@! TO.N,Net-(U5-Pad9)*
X110250000Y-115864700D02*
X109564100Y-115178800D01*
X110250000Y-116500000D02*
X110250000Y-115864700D01*
X93664700Y-86750000D02*
X93664700Y-85905700D01*
X93664700Y-85905700D02*
X95019200Y-84551200D01*
X95019200Y-84551200D02*
X106837300Y-84551200D01*
X106837300Y-84551200D02*
X109564100Y-87278000D01*
X94300000Y-86750000D02*
X93664700Y-86750000D01*
G04 #@! TO.N,Net-(J1-Pad2)*
X120639700Y-81826100D02*
X116727100Y-77913500D01*
X116727100Y-77913500D02*
X105872900Y-77913500D01*
X105872900Y-77913500D02*
X101960300Y-81826100D01*
X100500000Y-81826100D02*
X99039700Y-81826100D01*
X95200000Y-81080000D02*
X95200000Y-82040300D01*
X95200000Y-82040300D02*
X98825500Y-82040300D01*
X98825500Y-82040300D02*
X99039700Y-81826100D01*
X100500000Y-81826100D02*
X101960300Y-81826100D01*
X122100000Y-81826100D02*
X120639700Y-81826100D01*
G04 #@! TO.N,OE*
X93664700Y-87250000D02*
X93384400Y-86969700D01*
X93384400Y-86969700D02*
X93384400Y-85769300D01*
X93384400Y-85769300D02*
X95023000Y-84130700D01*
X95023000Y-84130700D02*
X105551900Y-84130700D01*
X105551900Y-84130700D02*
X106126900Y-83555700D01*
X106126900Y-83555700D02*
X106126900Y-79744000D01*
X106126900Y-79744000D02*
X107025100Y-78845800D01*
X107025100Y-78845800D02*
X108859400Y-78845800D01*
X108859400Y-78845800D02*
X109099400Y-79085800D01*
X109037900Y-85431000D02*
X107627300Y-84020400D01*
X107627300Y-84020400D02*
X106591600Y-84020400D01*
X106591600Y-84020400D02*
X106126900Y-83555700D01*
X117460000Y-121500000D02*
X117460000Y-122485300D01*
X104470000Y-118600000D02*
X105180300Y-118600000D01*
X105180300Y-118600000D02*
X105180300Y-118777600D01*
X105180300Y-118777600D02*
X108888000Y-122485300D01*
X108888000Y-122485300D02*
X117460000Y-122485300D01*
X106586200Y-110787200D02*
X108127500Y-110787200D01*
X108127500Y-110787200D02*
X108164700Y-110750000D01*
X108800000Y-110750000D02*
X108164700Y-110750000D01*
X117460000Y-121500000D02*
X117460000Y-120514700D01*
X117460000Y-120514700D02*
X115395300Y-118450000D01*
X115395300Y-118450000D02*
X111200000Y-118450000D01*
X115202600Y-83391300D02*
X118531100Y-83391300D01*
X118531100Y-83391300D02*
X122389800Y-87250000D01*
X122389800Y-87250000D02*
X123300000Y-87250000D01*
X94300000Y-87250000D02*
X93664700Y-87250000D01*
G04 #@! TD*
M02*
