G04 #@! TF.GenerationSoftware,KiCad,Pcbnew,(5.0.0)*
G04 #@! TF.CreationDate,2019-08-28T15:04:53-04:00*
G04 #@! TF.ProjectId,Tiny-er T,54696E792D657220542E6B696361645F,rev?*
G04 #@! TF.SameCoordinates,Original*
G04 #@! TF.FileFunction,Paste,Bot*
G04 #@! TF.FilePolarity,Positive*
%FSLAX46Y46*%
G04 Gerber Fmt 4.6, Leading zero omitted, Abs format (unit mm)*
G04 Created by KiCad (PCBNEW (5.0.0)) date 08/28/19 15:04:53*
%MOMM*%
%LPD*%
G01*
G04 APERTURE LIST*
%ADD10C,0.150000*%
%ADD11C,0.100000*%
%ADD12R,0.600000X1.550000*%
%ADD13R,1.000000X2.750000*%
%ADD14R,4.500000X4.500000*%
%ADD15R,1.000000X2.000000*%
%ADD16R,0.300000X0.850000*%
%ADD17R,0.850000X0.300000*%
%ADD18R,1.000000X0.800000*%
%ADD19R,0.700000X1.500000*%
G04 APERTURE END LIST*
D10*
G04 #@! TO.C,U3*
G36*
X126025000Y-88825000D02*
X126025000Y-88675000D01*
X125375000Y-88675000D01*
X125375000Y-88825000D01*
X126025000Y-88825000D01*
G37*
X126025000Y-88825000D02*
X126025000Y-88675000D01*
X125375000Y-88675000D01*
X125375000Y-88825000D01*
X126025000Y-88825000D01*
G36*
X126025000Y-88325000D02*
X126025000Y-88175000D01*
X125375000Y-88175000D01*
X125375000Y-88325000D01*
X126025000Y-88325000D01*
G37*
X126025000Y-88325000D02*
X126025000Y-88175000D01*
X125375000Y-88175000D01*
X125375000Y-88325000D01*
X126025000Y-88325000D01*
G36*
X126025000Y-87825000D02*
X126025000Y-87675000D01*
X125375000Y-87675000D01*
X125375000Y-87825000D01*
X126025000Y-87825000D01*
G37*
X126025000Y-87825000D02*
X126025000Y-87675000D01*
X125375000Y-87675000D01*
X125375000Y-87825000D01*
X126025000Y-87825000D01*
G36*
X126025000Y-87325000D02*
X126025000Y-87175000D01*
X125375000Y-87175000D01*
X125375000Y-87325000D01*
X126025000Y-87325000D01*
G37*
X126025000Y-87325000D02*
X126025000Y-87175000D01*
X125375000Y-87175000D01*
X125375000Y-87325000D01*
X126025000Y-87325000D01*
G36*
X126025000Y-86825000D02*
X126025000Y-86675000D01*
X125375000Y-86675000D01*
X125375000Y-86825000D01*
X126025000Y-86825000D01*
G37*
X126025000Y-86825000D02*
X126025000Y-86675000D01*
X125375000Y-86675000D01*
X125375000Y-86825000D01*
X126025000Y-86825000D01*
G36*
X126025000Y-86325000D02*
X126025000Y-86175000D01*
X125375000Y-86175000D01*
X125375000Y-86325000D01*
X126025000Y-86325000D01*
G37*
X126025000Y-86325000D02*
X126025000Y-86175000D01*
X125375000Y-86175000D01*
X125375000Y-86325000D01*
X126025000Y-86325000D01*
G36*
X124825000Y-85475000D02*
X124675000Y-85475000D01*
X124675000Y-86125000D01*
X124825000Y-86125000D01*
X124825000Y-85475000D01*
G37*
X124825000Y-85475000D02*
X124675000Y-85475000D01*
X124675000Y-86125000D01*
X124825000Y-86125000D01*
X124825000Y-85475000D01*
G36*
X124325000Y-85475000D02*
X124175000Y-85475000D01*
X124175000Y-86125000D01*
X124325000Y-86125000D01*
X124325000Y-85475000D01*
G37*
X124325000Y-85475000D02*
X124175000Y-85475000D01*
X124175000Y-86125000D01*
X124325000Y-86125000D01*
X124325000Y-85475000D01*
G36*
X123625000Y-86325000D02*
X123625000Y-86175000D01*
X122975000Y-86175000D01*
X122975000Y-86325000D01*
X123625000Y-86325000D01*
G37*
X123625000Y-86325000D02*
X123625000Y-86175000D01*
X122975000Y-86175000D01*
X122975000Y-86325000D01*
X123625000Y-86325000D01*
G36*
X123625000Y-86825000D02*
X123625000Y-86675000D01*
X122975000Y-86675000D01*
X122975000Y-86825000D01*
X123625000Y-86825000D01*
G37*
X123625000Y-86825000D02*
X123625000Y-86675000D01*
X122975000Y-86675000D01*
X122975000Y-86825000D01*
X123625000Y-86825000D01*
G36*
X123625000Y-87325000D02*
X123625000Y-87175000D01*
X122975000Y-87175000D01*
X122975000Y-87325000D01*
X123625000Y-87325000D01*
G37*
X123625000Y-87325000D02*
X123625000Y-87175000D01*
X122975000Y-87175000D01*
X122975000Y-87325000D01*
X123625000Y-87325000D01*
G36*
X123625000Y-87825000D02*
X123625000Y-87675000D01*
X122975000Y-87675000D01*
X122975000Y-87825000D01*
X123625000Y-87825000D01*
G37*
X123625000Y-87825000D02*
X123625000Y-87675000D01*
X122975000Y-87675000D01*
X122975000Y-87825000D01*
X123625000Y-87825000D01*
G36*
X123625000Y-88325000D02*
X123625000Y-88175000D01*
X122975000Y-88175000D01*
X122975000Y-88325000D01*
X123625000Y-88325000D01*
G37*
X123625000Y-88325000D02*
X123625000Y-88175000D01*
X122975000Y-88175000D01*
X122975000Y-88325000D01*
X123625000Y-88325000D01*
G36*
X123625000Y-88825000D02*
X123625000Y-88675000D01*
X122975000Y-88675000D01*
X122975000Y-88825000D01*
X123625000Y-88825000D01*
G37*
X123625000Y-88825000D02*
X123625000Y-88675000D01*
X122975000Y-88675000D01*
X122975000Y-88825000D01*
X123625000Y-88825000D01*
G36*
X124325000Y-88875000D02*
X124175000Y-88875000D01*
X124175000Y-89525000D01*
X124325000Y-89525000D01*
X124325000Y-88875000D01*
G37*
X124325000Y-88875000D02*
X124175000Y-88875000D01*
X124175000Y-89525000D01*
X124325000Y-89525000D01*
X124325000Y-88875000D01*
G36*
X124825000Y-88875000D02*
X124675000Y-88875000D01*
X124675000Y-89525000D01*
X124825000Y-89525000D01*
X124825000Y-88875000D01*
G37*
X124825000Y-88875000D02*
X124675000Y-88875000D01*
X124675000Y-89525000D01*
X124825000Y-89525000D01*
X124825000Y-88875000D01*
D11*
G36*
X124300000Y-86900000D02*
X124300000Y-88100000D01*
X124700000Y-88100000D01*
X124700000Y-86900000D01*
X124300000Y-86900000D01*
G37*
D10*
G04 #@! TO.C,U4*
G36*
X111525000Y-112325000D02*
X111525000Y-112175000D01*
X110875000Y-112175000D01*
X110875000Y-112325000D01*
X111525000Y-112325000D01*
G37*
X111525000Y-112325000D02*
X111525000Y-112175000D01*
X110875000Y-112175000D01*
X110875000Y-112325000D01*
X111525000Y-112325000D01*
G36*
X111525000Y-111825000D02*
X111525000Y-111675000D01*
X110875000Y-111675000D01*
X110875000Y-111825000D01*
X111525000Y-111825000D01*
G37*
X111525000Y-111825000D02*
X111525000Y-111675000D01*
X110875000Y-111675000D01*
X110875000Y-111825000D01*
X111525000Y-111825000D01*
G36*
X111525000Y-111325000D02*
X111525000Y-111175000D01*
X110875000Y-111175000D01*
X110875000Y-111325000D01*
X111525000Y-111325000D01*
G37*
X111525000Y-111325000D02*
X111525000Y-111175000D01*
X110875000Y-111175000D01*
X110875000Y-111325000D01*
X111525000Y-111325000D01*
G36*
X111525000Y-110825000D02*
X111525000Y-110675000D01*
X110875000Y-110675000D01*
X110875000Y-110825000D01*
X111525000Y-110825000D01*
G37*
X111525000Y-110825000D02*
X111525000Y-110675000D01*
X110875000Y-110675000D01*
X110875000Y-110825000D01*
X111525000Y-110825000D01*
G36*
X111525000Y-110325000D02*
X111525000Y-110175000D01*
X110875000Y-110175000D01*
X110875000Y-110325000D01*
X111525000Y-110325000D01*
G37*
X111525000Y-110325000D02*
X111525000Y-110175000D01*
X110875000Y-110175000D01*
X110875000Y-110325000D01*
X111525000Y-110325000D01*
G36*
X111525000Y-109825000D02*
X111525000Y-109675000D01*
X110875000Y-109675000D01*
X110875000Y-109825000D01*
X111525000Y-109825000D01*
G37*
X111525000Y-109825000D02*
X111525000Y-109675000D01*
X110875000Y-109675000D01*
X110875000Y-109825000D01*
X111525000Y-109825000D01*
G36*
X110325000Y-108975000D02*
X110175000Y-108975000D01*
X110175000Y-109625000D01*
X110325000Y-109625000D01*
X110325000Y-108975000D01*
G37*
X110325000Y-108975000D02*
X110175000Y-108975000D01*
X110175000Y-109625000D01*
X110325000Y-109625000D01*
X110325000Y-108975000D01*
G36*
X109825000Y-108975000D02*
X109675000Y-108975000D01*
X109675000Y-109625000D01*
X109825000Y-109625000D01*
X109825000Y-108975000D01*
G37*
X109825000Y-108975000D02*
X109675000Y-108975000D01*
X109675000Y-109625000D01*
X109825000Y-109625000D01*
X109825000Y-108975000D01*
G36*
X109125000Y-109825000D02*
X109125000Y-109675000D01*
X108475000Y-109675000D01*
X108475000Y-109825000D01*
X109125000Y-109825000D01*
G37*
X109125000Y-109825000D02*
X109125000Y-109675000D01*
X108475000Y-109675000D01*
X108475000Y-109825000D01*
X109125000Y-109825000D01*
G36*
X109125000Y-110325000D02*
X109125000Y-110175000D01*
X108475000Y-110175000D01*
X108475000Y-110325000D01*
X109125000Y-110325000D01*
G37*
X109125000Y-110325000D02*
X109125000Y-110175000D01*
X108475000Y-110175000D01*
X108475000Y-110325000D01*
X109125000Y-110325000D01*
G36*
X109125000Y-110825000D02*
X109125000Y-110675000D01*
X108475000Y-110675000D01*
X108475000Y-110825000D01*
X109125000Y-110825000D01*
G37*
X109125000Y-110825000D02*
X109125000Y-110675000D01*
X108475000Y-110675000D01*
X108475000Y-110825000D01*
X109125000Y-110825000D01*
G36*
X109125000Y-111325000D02*
X109125000Y-111175000D01*
X108475000Y-111175000D01*
X108475000Y-111325000D01*
X109125000Y-111325000D01*
G37*
X109125000Y-111325000D02*
X109125000Y-111175000D01*
X108475000Y-111175000D01*
X108475000Y-111325000D01*
X109125000Y-111325000D01*
G36*
X109125000Y-111825000D02*
X109125000Y-111675000D01*
X108475000Y-111675000D01*
X108475000Y-111825000D01*
X109125000Y-111825000D01*
G37*
X109125000Y-111825000D02*
X109125000Y-111675000D01*
X108475000Y-111675000D01*
X108475000Y-111825000D01*
X109125000Y-111825000D01*
G36*
X109125000Y-112325000D02*
X109125000Y-112175000D01*
X108475000Y-112175000D01*
X108475000Y-112325000D01*
X109125000Y-112325000D01*
G37*
X109125000Y-112325000D02*
X109125000Y-112175000D01*
X108475000Y-112175000D01*
X108475000Y-112325000D01*
X109125000Y-112325000D01*
G36*
X109825000Y-112375000D02*
X109675000Y-112375000D01*
X109675000Y-113025000D01*
X109825000Y-113025000D01*
X109825000Y-112375000D01*
G37*
X109825000Y-112375000D02*
X109675000Y-112375000D01*
X109675000Y-113025000D01*
X109825000Y-113025000D01*
X109825000Y-112375000D01*
G36*
X110325000Y-112375000D02*
X110175000Y-112375000D01*
X110175000Y-113025000D01*
X110325000Y-113025000D01*
X110325000Y-112375000D01*
G37*
X110325000Y-112375000D02*
X110175000Y-112375000D01*
X110175000Y-113025000D01*
X110325000Y-113025000D01*
X110325000Y-112375000D01*
D11*
G36*
X109800000Y-110400000D02*
X109800000Y-111600000D01*
X110200000Y-111600000D01*
X110200000Y-110400000D01*
X109800000Y-110400000D01*
G37*
D10*
G04 #@! TO.C,U5*
G36*
X108475000Y-116875000D02*
X108475000Y-117025000D01*
X109125000Y-117025000D01*
X109125000Y-116875000D01*
X108475000Y-116875000D01*
G37*
X108475000Y-116875000D02*
X108475000Y-117025000D01*
X109125000Y-117025000D01*
X109125000Y-116875000D01*
X108475000Y-116875000D01*
G36*
X108475000Y-117375000D02*
X108475000Y-117525000D01*
X109125000Y-117525000D01*
X109125000Y-117375000D01*
X108475000Y-117375000D01*
G37*
X108475000Y-117375000D02*
X108475000Y-117525000D01*
X109125000Y-117525000D01*
X109125000Y-117375000D01*
X108475000Y-117375000D01*
G36*
X108475000Y-117875000D02*
X108475000Y-118025000D01*
X109125000Y-118025000D01*
X109125000Y-117875000D01*
X108475000Y-117875000D01*
G37*
X108475000Y-117875000D02*
X108475000Y-118025000D01*
X109125000Y-118025000D01*
X109125000Y-117875000D01*
X108475000Y-117875000D01*
G36*
X108475000Y-118375000D02*
X108475000Y-118525000D01*
X109125000Y-118525000D01*
X109125000Y-118375000D01*
X108475000Y-118375000D01*
G37*
X108475000Y-118375000D02*
X108475000Y-118525000D01*
X109125000Y-118525000D01*
X109125000Y-118375000D01*
X108475000Y-118375000D01*
G36*
X108475000Y-118875000D02*
X108475000Y-119025000D01*
X109125000Y-119025000D01*
X109125000Y-118875000D01*
X108475000Y-118875000D01*
G37*
X108475000Y-118875000D02*
X108475000Y-119025000D01*
X109125000Y-119025000D01*
X109125000Y-118875000D01*
X108475000Y-118875000D01*
G36*
X108475000Y-119375000D02*
X108475000Y-119525000D01*
X109125000Y-119525000D01*
X109125000Y-119375000D01*
X108475000Y-119375000D01*
G37*
X108475000Y-119375000D02*
X108475000Y-119525000D01*
X109125000Y-119525000D01*
X109125000Y-119375000D01*
X108475000Y-119375000D01*
G36*
X109675000Y-120225000D02*
X109825000Y-120225000D01*
X109825000Y-119575000D01*
X109675000Y-119575000D01*
X109675000Y-120225000D01*
G37*
X109675000Y-120225000D02*
X109825000Y-120225000D01*
X109825000Y-119575000D01*
X109675000Y-119575000D01*
X109675000Y-120225000D01*
G36*
X110175000Y-120225000D02*
X110325000Y-120225000D01*
X110325000Y-119575000D01*
X110175000Y-119575000D01*
X110175000Y-120225000D01*
G37*
X110175000Y-120225000D02*
X110325000Y-120225000D01*
X110325000Y-119575000D01*
X110175000Y-119575000D01*
X110175000Y-120225000D01*
G36*
X110875000Y-119375000D02*
X110875000Y-119525000D01*
X111525000Y-119525000D01*
X111525000Y-119375000D01*
X110875000Y-119375000D01*
G37*
X110875000Y-119375000D02*
X110875000Y-119525000D01*
X111525000Y-119525000D01*
X111525000Y-119375000D01*
X110875000Y-119375000D01*
G36*
X110875000Y-118875000D02*
X110875000Y-119025000D01*
X111525000Y-119025000D01*
X111525000Y-118875000D01*
X110875000Y-118875000D01*
G37*
X110875000Y-118875000D02*
X110875000Y-119025000D01*
X111525000Y-119025000D01*
X111525000Y-118875000D01*
X110875000Y-118875000D01*
G36*
X110875000Y-118375000D02*
X110875000Y-118525000D01*
X111525000Y-118525000D01*
X111525000Y-118375000D01*
X110875000Y-118375000D01*
G37*
X110875000Y-118375000D02*
X110875000Y-118525000D01*
X111525000Y-118525000D01*
X111525000Y-118375000D01*
X110875000Y-118375000D01*
G36*
X110875000Y-117875000D02*
X110875000Y-118025000D01*
X111525000Y-118025000D01*
X111525000Y-117875000D01*
X110875000Y-117875000D01*
G37*
X110875000Y-117875000D02*
X110875000Y-118025000D01*
X111525000Y-118025000D01*
X111525000Y-117875000D01*
X110875000Y-117875000D01*
G36*
X110875000Y-117375000D02*
X110875000Y-117525000D01*
X111525000Y-117525000D01*
X111525000Y-117375000D01*
X110875000Y-117375000D01*
G37*
X110875000Y-117375000D02*
X110875000Y-117525000D01*
X111525000Y-117525000D01*
X111525000Y-117375000D01*
X110875000Y-117375000D01*
G36*
X110875000Y-116875000D02*
X110875000Y-117025000D01*
X111525000Y-117025000D01*
X111525000Y-116875000D01*
X110875000Y-116875000D01*
G37*
X110875000Y-116875000D02*
X110875000Y-117025000D01*
X111525000Y-117025000D01*
X111525000Y-116875000D01*
X110875000Y-116875000D01*
G36*
X110175000Y-116825000D02*
X110325000Y-116825000D01*
X110325000Y-116175000D01*
X110175000Y-116175000D01*
X110175000Y-116825000D01*
G37*
X110175000Y-116825000D02*
X110325000Y-116825000D01*
X110325000Y-116175000D01*
X110175000Y-116175000D01*
X110175000Y-116825000D01*
G36*
X109675000Y-116825000D02*
X109825000Y-116825000D01*
X109825000Y-116175000D01*
X109675000Y-116175000D01*
X109675000Y-116825000D01*
G37*
X109675000Y-116825000D02*
X109825000Y-116825000D01*
X109825000Y-116175000D01*
X109675000Y-116175000D01*
X109675000Y-116825000D01*
D11*
G36*
X110200000Y-118800000D02*
X110200000Y-117600000D01*
X109800000Y-117600000D01*
X109800000Y-118800000D01*
X110200000Y-118800000D01*
G37*
D10*
G04 #@! TO.C,U6*
G36*
X97025000Y-88825000D02*
X97025000Y-88675000D01*
X96375000Y-88675000D01*
X96375000Y-88825000D01*
X97025000Y-88825000D01*
G37*
X97025000Y-88825000D02*
X97025000Y-88675000D01*
X96375000Y-88675000D01*
X96375000Y-88825000D01*
X97025000Y-88825000D01*
G36*
X97025000Y-88325000D02*
X97025000Y-88175000D01*
X96375000Y-88175000D01*
X96375000Y-88325000D01*
X97025000Y-88325000D01*
G37*
X97025000Y-88325000D02*
X97025000Y-88175000D01*
X96375000Y-88175000D01*
X96375000Y-88325000D01*
X97025000Y-88325000D01*
G36*
X97025000Y-87825000D02*
X97025000Y-87675000D01*
X96375000Y-87675000D01*
X96375000Y-87825000D01*
X97025000Y-87825000D01*
G37*
X97025000Y-87825000D02*
X97025000Y-87675000D01*
X96375000Y-87675000D01*
X96375000Y-87825000D01*
X97025000Y-87825000D01*
G36*
X97025000Y-87325000D02*
X97025000Y-87175000D01*
X96375000Y-87175000D01*
X96375000Y-87325000D01*
X97025000Y-87325000D01*
G37*
X97025000Y-87325000D02*
X97025000Y-87175000D01*
X96375000Y-87175000D01*
X96375000Y-87325000D01*
X97025000Y-87325000D01*
G36*
X97025000Y-86825000D02*
X97025000Y-86675000D01*
X96375000Y-86675000D01*
X96375000Y-86825000D01*
X97025000Y-86825000D01*
G37*
X97025000Y-86825000D02*
X97025000Y-86675000D01*
X96375000Y-86675000D01*
X96375000Y-86825000D01*
X97025000Y-86825000D01*
G36*
X97025000Y-86325000D02*
X97025000Y-86175000D01*
X96375000Y-86175000D01*
X96375000Y-86325000D01*
X97025000Y-86325000D01*
G37*
X97025000Y-86325000D02*
X97025000Y-86175000D01*
X96375000Y-86175000D01*
X96375000Y-86325000D01*
X97025000Y-86325000D01*
G36*
X95825000Y-85475000D02*
X95675000Y-85475000D01*
X95675000Y-86125000D01*
X95825000Y-86125000D01*
X95825000Y-85475000D01*
G37*
X95825000Y-85475000D02*
X95675000Y-85475000D01*
X95675000Y-86125000D01*
X95825000Y-86125000D01*
X95825000Y-85475000D01*
G36*
X95325000Y-85475000D02*
X95175000Y-85475000D01*
X95175000Y-86125000D01*
X95325000Y-86125000D01*
X95325000Y-85475000D01*
G37*
X95325000Y-85475000D02*
X95175000Y-85475000D01*
X95175000Y-86125000D01*
X95325000Y-86125000D01*
X95325000Y-85475000D01*
G36*
X94625000Y-86325000D02*
X94625000Y-86175000D01*
X93975000Y-86175000D01*
X93975000Y-86325000D01*
X94625000Y-86325000D01*
G37*
X94625000Y-86325000D02*
X94625000Y-86175000D01*
X93975000Y-86175000D01*
X93975000Y-86325000D01*
X94625000Y-86325000D01*
G36*
X94625000Y-86825000D02*
X94625000Y-86675000D01*
X93975000Y-86675000D01*
X93975000Y-86825000D01*
X94625000Y-86825000D01*
G37*
X94625000Y-86825000D02*
X94625000Y-86675000D01*
X93975000Y-86675000D01*
X93975000Y-86825000D01*
X94625000Y-86825000D01*
G36*
X94625000Y-87325000D02*
X94625000Y-87175000D01*
X93975000Y-87175000D01*
X93975000Y-87325000D01*
X94625000Y-87325000D01*
G37*
X94625000Y-87325000D02*
X94625000Y-87175000D01*
X93975000Y-87175000D01*
X93975000Y-87325000D01*
X94625000Y-87325000D01*
G36*
X94625000Y-87825000D02*
X94625000Y-87675000D01*
X93975000Y-87675000D01*
X93975000Y-87825000D01*
X94625000Y-87825000D01*
G37*
X94625000Y-87825000D02*
X94625000Y-87675000D01*
X93975000Y-87675000D01*
X93975000Y-87825000D01*
X94625000Y-87825000D01*
G36*
X94625000Y-88325000D02*
X94625000Y-88175000D01*
X93975000Y-88175000D01*
X93975000Y-88325000D01*
X94625000Y-88325000D01*
G37*
X94625000Y-88325000D02*
X94625000Y-88175000D01*
X93975000Y-88175000D01*
X93975000Y-88325000D01*
X94625000Y-88325000D01*
G36*
X94625000Y-88825000D02*
X94625000Y-88675000D01*
X93975000Y-88675000D01*
X93975000Y-88825000D01*
X94625000Y-88825000D01*
G37*
X94625000Y-88825000D02*
X94625000Y-88675000D01*
X93975000Y-88675000D01*
X93975000Y-88825000D01*
X94625000Y-88825000D01*
G36*
X95325000Y-88875000D02*
X95175000Y-88875000D01*
X95175000Y-89525000D01*
X95325000Y-89525000D01*
X95325000Y-88875000D01*
G37*
X95325000Y-88875000D02*
X95175000Y-88875000D01*
X95175000Y-89525000D01*
X95325000Y-89525000D01*
X95325000Y-88875000D01*
G36*
X95825000Y-88875000D02*
X95675000Y-88875000D01*
X95675000Y-89525000D01*
X95825000Y-89525000D01*
X95825000Y-88875000D01*
G37*
X95825000Y-88875000D02*
X95675000Y-88875000D01*
X95675000Y-89525000D01*
X95825000Y-89525000D01*
X95825000Y-88875000D01*
D11*
G36*
X95300000Y-86900000D02*
X95300000Y-88100000D01*
X95700000Y-88100000D01*
X95700000Y-86900000D01*
X95300000Y-86900000D01*
G37*
G04 #@! TD*
D12*
G04 #@! TO.C,U1*
X116195000Y-121500000D03*
X117460000Y-121500000D03*
X118730000Y-121500000D03*
X120000000Y-121500000D03*
X120000000Y-114500000D03*
X118730000Y-114500000D03*
X117460000Y-114500000D03*
X116190000Y-114500000D03*
G04 #@! TD*
D13*
G04 #@! TO.C,SW1*
X112000000Y-97620000D03*
X112000000Y-103380000D03*
X108000000Y-103380000D03*
X108000000Y-97620000D03*
G04 #@! TD*
D14*
G04 #@! TO.C,J1*
X111300000Y-81826100D03*
G04 #@! TD*
D15*
G04 #@! TO.C,U3*
X124500000Y-87500000D03*
D16*
X124750000Y-85800000D03*
X124250000Y-85800000D03*
D17*
X123300000Y-86250000D03*
X123300000Y-86750000D03*
X123300000Y-87250000D03*
X123300000Y-87750000D03*
X123300000Y-88250000D03*
X123300000Y-88750000D03*
D16*
X124250000Y-89200000D03*
X124750000Y-89200000D03*
D17*
X125700000Y-88750000D03*
X125700000Y-88250000D03*
X125700000Y-87750000D03*
X125700000Y-87250000D03*
X125700000Y-86750000D03*
X125700000Y-86250000D03*
G04 #@! TD*
D15*
G04 #@! TO.C,U4*
X110000000Y-111000000D03*
D16*
X110250000Y-109300000D03*
X109750000Y-109300000D03*
D17*
X108800000Y-109750000D03*
X108800000Y-110250000D03*
X108800000Y-110750000D03*
X108800000Y-111250000D03*
X108800000Y-111750000D03*
X108800000Y-112250000D03*
D16*
X109750000Y-112700000D03*
X110250000Y-112700000D03*
D17*
X111200000Y-112250000D03*
X111200000Y-111750000D03*
X111200000Y-111250000D03*
X111200000Y-110750000D03*
X111200000Y-110250000D03*
X111200000Y-109750000D03*
G04 #@! TD*
D15*
G04 #@! TO.C,U5*
X110000000Y-118200000D03*
D16*
X109750000Y-119900000D03*
X110250000Y-119900000D03*
D17*
X111200000Y-119450000D03*
X111200000Y-118950000D03*
X111200000Y-118450000D03*
X111200000Y-117950000D03*
X111200000Y-117450000D03*
X111200000Y-116950000D03*
D16*
X110250000Y-116500000D03*
X109750000Y-116500000D03*
D17*
X108800000Y-116950000D03*
X108800000Y-117450000D03*
X108800000Y-117950000D03*
X108800000Y-118450000D03*
X108800000Y-118950000D03*
X108800000Y-119450000D03*
G04 #@! TD*
D15*
G04 #@! TO.C,U6*
X95500000Y-87500000D03*
D16*
X95750000Y-85800000D03*
X95250000Y-85800000D03*
D17*
X94300000Y-86250000D03*
X94300000Y-86750000D03*
X94300000Y-87250000D03*
X94300000Y-87750000D03*
X94300000Y-88250000D03*
X94300000Y-88750000D03*
D16*
X95250000Y-89200000D03*
X95750000Y-89200000D03*
D17*
X96700000Y-88750000D03*
X96700000Y-88250000D03*
X96700000Y-87750000D03*
X96700000Y-87250000D03*
X96700000Y-86750000D03*
X96700000Y-86250000D03*
G04 #@! TD*
D18*
G04 #@! TO.C,POWER0*
X90800000Y-80430000D03*
X98100000Y-80430000D03*
X98100000Y-78220000D03*
X90800000Y-78220000D03*
D19*
X96700000Y-81080000D03*
X95200000Y-81080000D03*
X92200000Y-81080000D03*
G04 #@! TD*
M02*
