G04 #@! TF.GenerationSoftware,KiCad,Pcbnew,(5.0.0)*
G04 #@! TF.CreationDate,2019-08-28T15:04:53-04:00*
G04 #@! TF.ProjectId,Tiny-er T,54696E792D657220542E6B696361645F,rev?*
G04 #@! TF.SameCoordinates,Original*
G04 #@! TF.FileFunction,Copper,L1,Top,Signal*
G04 #@! TF.FilePolarity,Positive*
%FSLAX46Y46*%
G04 Gerber Fmt 4.6, Leading zero omitted, Abs format (unit mm)*
G04 Created by KiCad (PCBNEW (5.0.0)) date 08/28/19 15:04:53*
%MOMM*%
%LPD*%
G01*
G04 APERTURE LIST*
G04 #@! TA.AperFunction,SMDPad,CuDef*
%ADD10R,0.800000X0.900000*%
G04 #@! TD*
G04 #@! TA.AperFunction,SMDPad,CuDef*
%ADD11R,0.700000X1.300000*%
G04 #@! TD*
G04 #@! TA.AperFunction,ComponentPad*
%ADD12O,2.500000X3.000000*%
G04 #@! TD*
G04 #@! TA.AperFunction,ComponentPad*
%ADD13R,1.000000X1.000000*%
G04 #@! TD*
G04 #@! TA.AperFunction,ComponentPad*
%ADD14O,1.000000X1.000000*%
G04 #@! TD*
G04 #@! TA.AperFunction,SMDPad,CuDef*
%ADD15R,2.000000X1.000000*%
G04 #@! TD*
G04 #@! TA.AperFunction,SMDPad,CuDef*
%ADD16R,0.850000X0.300000*%
G04 #@! TD*
G04 #@! TA.AperFunction,SMDPad,CuDef*
%ADD17R,0.300000X0.850000*%
G04 #@! TD*
G04 #@! TA.AperFunction,SMDPad,CuDef*
%ADD18R,1.000000X1.250000*%
G04 #@! TD*
G04 #@! TA.AperFunction,ViaPad*
%ADD19C,0.700000*%
G04 #@! TD*
G04 #@! TA.AperFunction,Conductor*
%ADD20C,0.140000*%
G04 #@! TD*
G04 APERTURE END LIST*
D10*
G04 #@! TO.P,D1,1*
G04 #@! TO.N,GND*
X91600000Y-91000000D03*
G04 #@! TO.P,D1,2*
G04 #@! TO.N,Net-(D1-Pad2)*
X93700000Y-91000000D03*
G04 #@! TD*
G04 #@! TO.P,D2,1*
G04 #@! TO.N,GND*
X91600000Y-86000000D03*
G04 #@! TO.P,D2,2*
G04 #@! TO.N,Net-(D2-Pad2)*
X93700000Y-86000000D03*
G04 #@! TD*
G04 #@! TO.P,D3,1*
G04 #@! TO.N,GND*
X91600000Y-82000000D03*
G04 #@! TO.P,D3,2*
G04 #@! TO.N,Net-(D3-Pad2)*
X93700000Y-82000000D03*
G04 #@! TD*
G04 #@! TO.P,D4,1*
G04 #@! TO.N,GND*
X91600000Y-78000000D03*
G04 #@! TO.P,D4,2*
G04 #@! TO.N,Net-(D4-Pad2)*
X93700000Y-78000000D03*
G04 #@! TD*
G04 #@! TO.P,D5,1*
G04 #@! TO.N,GND*
X98600000Y-78000000D03*
G04 #@! TO.P,D5,2*
G04 #@! TO.N,Net-(D5-Pad2)*
X100700000Y-78000000D03*
G04 #@! TD*
G04 #@! TO.P,D6,1*
G04 #@! TO.N,GND*
X106100000Y-78000000D03*
G04 #@! TO.P,D6,2*
G04 #@! TO.N,Net-(D6-Pad2)*
X108200000Y-78000000D03*
G04 #@! TD*
G04 #@! TO.P,D7,1*
G04 #@! TO.N,GND*
X113300000Y-78000000D03*
G04 #@! TO.P,D7,2*
G04 #@! TO.N,Net-(D7-Pad2)*
X115400000Y-78000000D03*
G04 #@! TD*
G04 #@! TO.P,D8,1*
G04 #@! TO.N,GND*
X120100000Y-78000000D03*
G04 #@! TO.P,D8,2*
G04 #@! TO.N,Net-(D8-Pad2)*
X122200000Y-78000000D03*
G04 #@! TD*
G04 #@! TO.P,D9,1*
G04 #@! TO.N,GND*
X126300000Y-78000000D03*
G04 #@! TO.P,D9,2*
G04 #@! TO.N,Net-(D9-Pad2)*
X128400000Y-78000000D03*
G04 #@! TD*
G04 #@! TO.P,D10,1*
G04 #@! TO.N,GND*
X126350000Y-82000000D03*
G04 #@! TO.P,D10,2*
G04 #@! TO.N,Net-(D10-Pad2)*
X128450000Y-82000000D03*
G04 #@! TD*
G04 #@! TO.P,D11,1*
G04 #@! TO.N,GND*
X126300000Y-86000000D03*
G04 #@! TO.P,D11,2*
G04 #@! TO.N,Net-(D11-Pad2)*
X128400000Y-86000000D03*
G04 #@! TD*
G04 #@! TO.P,D12,1*
G04 #@! TO.N,GND*
X126300000Y-91000000D03*
G04 #@! TO.P,D12,2*
G04 #@! TO.N,Net-(D12-Pad2)*
X128400000Y-91000000D03*
G04 #@! TD*
G04 #@! TO.P,D13,1*
G04 #@! TO.N,GND*
X121000000Y-91000000D03*
G04 #@! TO.P,D13,2*
G04 #@! TO.N,Net-(D13-Pad2)*
X123100000Y-91000000D03*
G04 #@! TD*
G04 #@! TO.P,D14,1*
G04 #@! TO.N,GND*
X121000000Y-86000000D03*
G04 #@! TO.P,D14,2*
G04 #@! TO.N,Net-(D14-Pad2)*
X123100000Y-86000000D03*
G04 #@! TD*
G04 #@! TO.P,D15,1*
G04 #@! TO.N,GND*
X116500000Y-86000000D03*
G04 #@! TO.P,D15,2*
G04 #@! TO.N,Net-(D15-Pad2)*
X118600000Y-86000000D03*
G04 #@! TD*
G04 #@! TO.P,D16,1*
G04 #@! TO.N,GND*
X112250000Y-86000000D03*
G04 #@! TO.P,D16,2*
G04 #@! TO.N,Net-(D16-Pad2)*
X114350000Y-86000000D03*
G04 #@! TD*
G04 #@! TO.P,D17,1*
G04 #@! TO.N,GND*
X112200000Y-90000000D03*
G04 #@! TO.P,D17,2*
G04 #@! TO.N,Net-(D17-Pad2)*
X114300000Y-90000000D03*
G04 #@! TD*
G04 #@! TO.P,D18,1*
G04 #@! TO.N,GND*
X112250000Y-95000000D03*
G04 #@! TO.P,D18,2*
G04 #@! TO.N,Net-(D18-Pad2)*
X114350000Y-95000000D03*
G04 #@! TD*
G04 #@! TO.P,D19,1*
G04 #@! TO.N,GND*
X112250000Y-100000000D03*
G04 #@! TO.P,D19,2*
G04 #@! TO.N,Net-(D19-Pad2)*
X114350000Y-100000000D03*
G04 #@! TD*
G04 #@! TO.P,D20,1*
G04 #@! TO.N,GND*
X112200000Y-105000000D03*
G04 #@! TO.P,D20,2*
G04 #@! TO.N,Net-(D20-Pad2)*
X114300000Y-105000000D03*
G04 #@! TD*
G04 #@! TO.P,D21,1*
G04 #@! TO.N,GND*
X112250000Y-109800000D03*
G04 #@! TO.P,D21,2*
G04 #@! TO.N,Net-(D21-Pad2)*
X114350000Y-109800000D03*
G04 #@! TD*
G04 #@! TO.P,D22,1*
G04 #@! TO.N,GND*
X112200000Y-114000000D03*
G04 #@! TO.P,D22,2*
G04 #@! TO.N,Net-(D22-Pad2)*
X114300000Y-114000000D03*
G04 #@! TD*
G04 #@! TO.P,D23,1*
G04 #@! TO.N,GND*
X117900000Y-114000000D03*
G04 #@! TO.P,D23,2*
G04 #@! TO.N,Net-(D23-Pad2)*
X120000000Y-114000000D03*
G04 #@! TD*
G04 #@! TO.P,D24,1*
G04 #@! TO.N,GND*
X117900000Y-122000000D03*
G04 #@! TO.P,D24,2*
G04 #@! TO.N,Net-(D24-Pad2)*
X120000000Y-122000000D03*
G04 #@! TD*
G04 #@! TO.P,D25,1*
G04 #@! TO.N,GND*
X112200000Y-122000000D03*
G04 #@! TO.P,D25,2*
G04 #@! TO.N,Net-(D25-Pad2)*
X114300000Y-122000000D03*
G04 #@! TD*
G04 #@! TO.P,D26,1*
G04 #@! TO.N,GND*
X105950000Y-122000000D03*
G04 #@! TO.P,D26,2*
G04 #@! TO.N,Net-(D26-Pad2)*
X108050000Y-122000000D03*
G04 #@! TD*
G04 #@! TO.P,D27,1*
G04 #@! TO.N,GND*
X100700000Y-122000000D03*
G04 #@! TO.P,D27,2*
G04 #@! TO.N,Net-(D27-Pad2)*
X102800000Y-122000000D03*
G04 #@! TD*
G04 #@! TO.P,D28,1*
G04 #@! TO.N,GND*
X100800000Y-114000000D03*
G04 #@! TO.P,D28,2*
G04 #@! TO.N,Net-(D28-Pad2)*
X102900000Y-114000000D03*
G04 #@! TD*
G04 #@! TO.P,D29,1*
G04 #@! TO.N,GND*
X105950000Y-114000000D03*
G04 #@! TO.P,D29,2*
G04 #@! TO.N,Net-(D29-Pad2)*
X108050000Y-114000000D03*
G04 #@! TD*
G04 #@! TO.P,D30,1*
G04 #@! TO.N,GND*
X105950000Y-109800000D03*
G04 #@! TO.P,D30,2*
G04 #@! TO.N,Net-(D30-Pad2)*
X108050000Y-109800000D03*
G04 #@! TD*
G04 #@! TO.P,D31,1*
G04 #@! TO.N,GND*
X105950000Y-105000000D03*
G04 #@! TO.P,D31,2*
G04 #@! TO.N,Net-(D31-Pad2)*
X108050000Y-105000000D03*
G04 #@! TD*
G04 #@! TO.P,D32,1*
G04 #@! TO.N,GND*
X105950000Y-100000000D03*
G04 #@! TO.P,D32,2*
G04 #@! TO.N,Net-(D32-Pad2)*
X108050000Y-100000000D03*
G04 #@! TD*
G04 #@! TO.P,D33,1*
G04 #@! TO.N,GND*
X106000000Y-95000000D03*
G04 #@! TO.P,D33,2*
G04 #@! TO.N,Net-(D33-Pad2)*
X108100000Y-95000000D03*
G04 #@! TD*
G04 #@! TO.P,D34,1*
G04 #@! TO.N,GND*
X105900000Y-90000000D03*
G04 #@! TO.P,D34,2*
G04 #@! TO.N,Net-(D34-Pad2)*
X108000000Y-90000000D03*
G04 #@! TD*
G04 #@! TO.P,D35,1*
G04 #@! TO.N,GND*
X105900000Y-86000000D03*
G04 #@! TO.P,D35,2*
G04 #@! TO.N,Net-(D35-Pad2)*
X108000000Y-86000000D03*
G04 #@! TD*
G04 #@! TO.P,D36,1*
G04 #@! TO.N,GND*
X101600000Y-86000000D03*
G04 #@! TO.P,D36,2*
G04 #@! TO.N,Net-(D36-Pad2)*
X103700000Y-86000000D03*
G04 #@! TD*
G04 #@! TO.P,D37,1*
G04 #@! TO.N,GND*
X97450000Y-86000000D03*
G04 #@! TO.P,D37,2*
G04 #@! TO.N,Net-(D37-Pad2)*
X99550000Y-86000000D03*
G04 #@! TD*
G04 #@! TO.P,D38,1*
G04 #@! TO.N,GND*
X97400000Y-91000000D03*
G04 #@! TO.P,D38,2*
G04 #@! TO.N,Net-(D38-Pad2)*
X99500000Y-91000000D03*
G04 #@! TD*
D11*
G04 #@! TO.P,R1,1*
G04 #@! TO.N,VCC*
X115500000Y-118000000D03*
G04 #@! TO.P,R1,2*
G04 #@! TO.N,RST*
X113600000Y-118000000D03*
G04 #@! TD*
D12*
G04 #@! TO.P,J1,2*
G04 #@! TO.N,Net-(J1-Pad2)*
X100500000Y-81826100D03*
X122100000Y-81826100D03*
G04 #@! TD*
D13*
G04 #@! TO.P,J2,1*
G04 #@! TO.N,RST*
X100660000Y-118600000D03*
D14*
G04 #@! TO.P,J2,2*
G04 #@! TO.N,REG*
X100660000Y-117330000D03*
G04 #@! TO.P,J2,3*
G04 #@! TO.N,CLK*
X101930000Y-118600000D03*
G04 #@! TO.P,J2,4*
G04 #@! TO.N,GND*
X101930000Y-117330000D03*
G04 #@! TO.P,J2,5*
G04 #@! TO.N,SW1*
X103200000Y-118600000D03*
G04 #@! TO.P,J2,6*
G04 #@! TO.N,DATA*
X103200000Y-117330000D03*
G04 #@! TO.P,J2,7*
G04 #@! TO.N,OE*
X104470000Y-118600000D03*
G04 #@! TO.P,J2,8*
G04 #@! TO.N,VCC*
X104470000Y-117330000D03*
G04 #@! TD*
D15*
G04 #@! TO.P,U2,8*
G04 #@! TO.N,GND*
X110000000Y-81800000D03*
D16*
G04 #@! TO.P,U2,1*
G04 #@! TO.N,Net-(D2-Pad2)*
X108300000Y-82050000D03*
G04 #@! TO.P,U2,16*
G04 #@! TO.N,VCC*
X108300000Y-81550000D03*
D17*
G04 #@! TO.P,U2,15*
G04 #@! TO.N,Net-(D1-Pad2)*
X108750000Y-80600000D03*
G04 #@! TO.P,U2,14*
G04 #@! TO.N,DATA*
X109250000Y-80600000D03*
G04 #@! TO.P,U2,13*
G04 #@! TO.N,OE*
X109750000Y-80600000D03*
G04 #@! TO.P,U2,12*
G04 #@! TO.N,REG*
X110250000Y-80600000D03*
G04 #@! TO.P,U2,11*
G04 #@! TO.N,CLK*
X110750000Y-80600000D03*
G04 #@! TO.P,U2,10*
G04 #@! TO.N,VCC*
X111250000Y-80600000D03*
D16*
G04 #@! TO.P,U2,9*
G04 #@! TO.N,Net-(U2-Pad9)*
X111700000Y-81550000D03*
G04 #@! TO.P,U2,8*
G04 #@! TO.N,GND*
X111700000Y-82050000D03*
D17*
G04 #@! TO.P,U2,7*
G04 #@! TO.N,Net-(D8-Pad2)*
X111250000Y-83000000D03*
G04 #@! TO.P,U2,6*
G04 #@! TO.N,Net-(D7-Pad2)*
X110750000Y-83000000D03*
G04 #@! TO.P,U2,5*
G04 #@! TO.N,Net-(D6-Pad2)*
X110250000Y-83000000D03*
G04 #@! TO.P,U2,4*
G04 #@! TO.N,Net-(D5-Pad2)*
X109750000Y-83000000D03*
G04 #@! TO.P,U2,3*
G04 #@! TO.N,Net-(D4-Pad2)*
X109250000Y-83000000D03*
G04 #@! TO.P,U2,2*
G04 #@! TO.N,Net-(D3-Pad2)*
X108750000Y-83000000D03*
G04 #@! TD*
D18*
G04 #@! TO.P,C1,2*
G04 #@! TO.N,GND*
X119900000Y-118000000D03*
G04 #@! TO.P,C1,1*
G04 #@! TO.N,VCC*
X117900000Y-118000000D03*
G04 #@! TD*
D19*
G04 #@! TO.N,Net-(D1-Pad2)*
X97438400Y-79536400D03*
X107016200Y-77348600D03*
G04 #@! TO.N,Net-(D6-Pad2)*
X108190400Y-79406100D03*
X106899600Y-83460100D03*
G04 #@! TO.N,Net-(D9-Pad2)*
X125616700Y-83599800D03*
G04 #@! TO.N,Net-(D10-Pad2)*
X126319900Y-84725200D03*
G04 #@! TO.N,Net-(D11-Pad2)*
X127350000Y-85909700D03*
G04 #@! TO.N,Net-(D12-Pad2)*
X127507100Y-89106300D03*
G04 #@! TO.N,Net-(D13-Pad2)*
X123993900Y-91283600D03*
G04 #@! TO.N,Net-(D14-Pad2)*
X126646700Y-87750000D03*
G04 #@! TO.N,Net-(D15-Pad2)*
X120401100Y-88669300D03*
G04 #@! TO.N,Net-(D16-Pad2)*
X115240900Y-86255600D03*
G04 #@! TO.N,Net-(D17-Pad2)*
X112749900Y-106017900D03*
G04 #@! TO.N,Net-(D18-Pad2)*
X113030000Y-107003100D03*
G04 #@! TO.N,Net-(D19-Pad2)*
X113362700Y-107846800D03*
G04 #@! TO.N,Net-(D20-Pad2)*
X114206300Y-107807100D03*
G04 #@! TO.N,Net-(D21-Pad2)*
X113456500Y-110173600D03*
G04 #@! TO.N,Net-(D22-Pad2)*
X112634000Y-111132300D03*
G04 #@! TO.N,Net-(D23-Pad2)*
X114449000Y-111802200D03*
G04 #@! TO.N,Net-(D24-Pad2)*
X114090500Y-112634100D03*
G04 #@! TO.N,GND*
X111911600Y-113040500D03*
X123371200Y-89835300D03*
X97574000Y-89144900D03*
X112239800Y-86948200D03*
X107001000Y-80058500D03*
G04 #@! TO.N,VCC*
X111626300Y-115169300D03*
X111460400Y-116301500D03*
X116319400Y-120170000D03*
X111189900Y-108006500D03*
X114362900Y-84992500D03*
X111146900Y-87843800D03*
X110226400Y-76914700D03*
G04 #@! TO.N,CLK*
X112135700Y-117086100D03*
X110890000Y-78795300D03*
X115801800Y-81010400D03*
X115801800Y-84400100D03*
G04 #@! TO.N,Net-(D25-Pad2)*
X112046300Y-120473400D03*
G04 #@! TO.N,Net-(D26-Pad2)*
X109112900Y-120535300D03*
G04 #@! TO.N,Net-(D27-Pad2)*
X108176600Y-120523400D03*
G04 #@! TO.N,Net-(D28-Pad2)*
X104487800Y-115601400D03*
G04 #@! TO.N,Net-(D29-Pad2)*
X107257100Y-116656400D03*
G04 #@! TO.N,Net-(D30-Pad2)*
X107583500Y-117500200D03*
G04 #@! TO.N,Net-(D31-Pad2)*
X108195900Y-116257100D03*
G04 #@! TO.N,Net-(D32-Pad2)*
X107159400Y-115079500D03*
G04 #@! TO.N,Net-(D33-Pad2)*
X107535800Y-87227200D03*
G04 #@! TO.N,Net-(D34-Pad2)*
X106079000Y-87302800D03*
G04 #@! TO.N,Net-(D35-Pad2)*
X104802100Y-85957900D03*
G04 #@! TO.N,Net-(D36-Pad2)*
X102805600Y-86238200D03*
G04 #@! TO.N,Net-(D37-Pad2)*
X98500000Y-86595400D03*
G04 #@! TO.N,Net-(D38-Pad2)*
X98279200Y-88545900D03*
G04 #@! TO.N,SW1*
X110244900Y-107240800D03*
G04 #@! TO.N,RST*
X113832300Y-116473500D03*
G04 #@! TO.N,DATA*
X108091300Y-80627200D03*
X102549700Y-115062600D03*
G04 #@! TO.N,REG*
X110038700Y-78835900D03*
X116355500Y-118608400D03*
G04 #@! TO.N,Net-(U2-Pad9)*
X112387100Y-78493000D03*
G04 #@! TO.N,Net-(U4-Pad9)*
X112878800Y-115623400D03*
X114447500Y-119011500D03*
G04 #@! TO.N,Net-(U5-Pad9)*
X109564100Y-115178800D03*
X109564100Y-87278000D03*
G04 #@! TO.N,OE*
X109099400Y-79085800D03*
X109037900Y-85431000D03*
X106586200Y-110787200D03*
X115202600Y-83391300D03*
G04 #@! TD*
D20*
G04 #@! TO.N,Net-(D1-Pad2)*
X107016200Y-77348600D02*
X107561300Y-77893700D01*
X107561300Y-77893700D02*
X107561300Y-80290600D01*
X107561300Y-80290600D02*
X107483600Y-80368300D01*
X107483600Y-80368300D02*
X107483600Y-80811800D01*
X107483600Y-80811800D02*
X107859300Y-81187500D01*
X107859300Y-81187500D02*
X108323400Y-81187500D01*
X108323400Y-81187500D02*
X108750000Y-80760900D01*
X108750000Y-80760900D02*
X108750000Y-80600000D01*
X94310300Y-91000000D02*
X94310300Y-82664500D01*
X94310300Y-82664500D02*
X97438400Y-79536400D01*
X93700000Y-91000000D02*
X94310300Y-91000000D01*
G04 #@! TO.N,Net-(D2-Pad2)*
X107664700Y-82050000D02*
X102367100Y-76752400D01*
X102367100Y-76752400D02*
X93335300Y-76752400D01*
X93335300Y-76752400D02*
X92288000Y-77799700D01*
X92288000Y-77799700D02*
X92288000Y-78651900D01*
X92288000Y-78651900D02*
X92009400Y-78930500D01*
X92009400Y-78930500D02*
X92009400Y-79709500D01*
X92009400Y-79709500D02*
X93089700Y-80789800D01*
X93089700Y-80789800D02*
X93089700Y-86000000D01*
X93700000Y-86000000D02*
X93089700Y-86000000D01*
X108300000Y-82050000D02*
X107664700Y-82050000D01*
G04 #@! TO.N,Net-(D3-Pad2)*
X108750000Y-83000000D02*
X108217100Y-83000000D01*
X108217100Y-83000000D02*
X102249800Y-77032700D01*
X102249800Y-77032700D02*
X93451400Y-77032700D01*
X93451400Y-77032700D02*
X93069700Y-77414400D01*
X93069700Y-77414400D02*
X93069700Y-78266600D01*
X93069700Y-78266600D02*
X92289700Y-79046600D01*
X92289700Y-79046600D02*
X92289700Y-79593300D01*
X92289700Y-79593300D02*
X93700000Y-81003600D01*
X93700000Y-81003600D02*
X93700000Y-82000000D01*
G04 #@! TO.N,Net-(D4-Pad2)*
X93700000Y-78000000D02*
X94310300Y-78000000D01*
X109250000Y-83000000D02*
X109250000Y-83635300D01*
X109250000Y-83635300D02*
X108455900Y-83635300D01*
X108455900Y-83635300D02*
X102160200Y-77339600D01*
X102160200Y-77339600D02*
X94970700Y-77339600D01*
X94970700Y-77339600D02*
X94310300Y-78000000D01*
G04 #@! TO.N,Net-(D5-Pad2)*
X101310300Y-78000000D02*
X102328100Y-78000000D01*
X102328100Y-78000000D02*
X108251300Y-83923200D01*
X108251300Y-83923200D02*
X109462100Y-83923200D01*
X109462100Y-83923200D02*
X109750000Y-83635300D01*
X100700000Y-78000000D02*
X101310300Y-78000000D01*
X109750000Y-83000000D02*
X109750000Y-83635300D01*
G04 #@! TO.N,Net-(D6-Pad2)*
X106899600Y-83460100D02*
X107651700Y-84212200D01*
X107651700Y-84212200D02*
X109673100Y-84212200D01*
X109673100Y-84212200D02*
X110250000Y-83635300D01*
X110250000Y-83000000D02*
X110250000Y-83635300D01*
X108200000Y-78000000D02*
X108200000Y-78660300D01*
X108190400Y-79406100D02*
X108190400Y-78669900D01*
X108190400Y-78669900D02*
X108200000Y-78660300D01*
G04 #@! TO.N,Net-(D7-Pad2)*
X115400000Y-78660300D02*
X115400000Y-79779600D01*
X115400000Y-79779600D02*
X111544300Y-83635300D01*
X111544300Y-83635300D02*
X110750000Y-83635300D01*
X115400000Y-78000000D02*
X115400000Y-78660300D01*
X110750000Y-83000000D02*
X110750000Y-83635300D01*
G04 #@! TO.N,Net-(D8-Pad2)*
X122200000Y-78000000D02*
X121589700Y-78000000D01*
X111250000Y-83000000D02*
X111781800Y-83000000D01*
X111781800Y-83000000D02*
X114702900Y-80078900D01*
X114702900Y-80078900D02*
X114702900Y-77533400D01*
X114702900Y-77533400D02*
X114896700Y-77339600D01*
X114896700Y-77339600D02*
X120929300Y-77339600D01*
X120929300Y-77339600D02*
X121589700Y-78000000D01*
G04 #@! TO.N,Net-(D9-Pad2)*
X128400000Y-78000000D02*
X127789700Y-78000000D01*
X125616700Y-83599800D02*
X125912000Y-83599800D01*
X125912000Y-83599800D02*
X127789700Y-81722100D01*
X127789700Y-81722100D02*
X127789700Y-78000000D01*
G04 #@! TO.N,Net-(D10-Pad2)*
X128450000Y-82660300D02*
X126385100Y-84725200D01*
X126385100Y-84725200D02*
X126319900Y-84725200D01*
X128450000Y-82000000D02*
X128450000Y-82660300D01*
G04 #@! TO.N,Net-(D11-Pad2)*
X127789700Y-86000000D02*
X127699400Y-85909700D01*
X127699400Y-85909700D02*
X127350000Y-85909700D01*
X128400000Y-86000000D02*
X127789700Y-86000000D01*
G04 #@! TO.N,Net-(D12-Pad2)*
X127789700Y-91000000D02*
X127507100Y-90717400D01*
X127507100Y-90717400D02*
X127507100Y-89106300D01*
X128400000Y-91000000D02*
X127789700Y-91000000D01*
G04 #@! TO.N,Net-(D13-Pad2)*
X123993900Y-91283600D02*
X123710300Y-91000000D01*
X123100000Y-91000000D02*
X123710300Y-91000000D01*
G04 #@! TO.N,Net-(D14-Pad2)*
X123100000Y-86000000D02*
X123710300Y-86000000D01*
X123710300Y-86000000D02*
X125460300Y-87750000D01*
X125460300Y-87750000D02*
X126646700Y-87750000D01*
G04 #@! TO.N,Net-(D15-Pad2)*
X118600000Y-86000000D02*
X119210300Y-86000000D01*
X120401100Y-88669300D02*
X120401100Y-87190800D01*
X120401100Y-87190800D02*
X119210300Y-86000000D01*
G04 #@! TO.N,Net-(D16-Pad2)*
X115240900Y-86255600D02*
X115215900Y-86255600D01*
X115215900Y-86255600D02*
X114960300Y-86000000D01*
X114350000Y-86000000D02*
X114960300Y-86000000D01*
G04 #@! TO.N,Net-(D17-Pad2)*
X113689700Y-90000000D02*
X112860400Y-90829300D01*
X112860400Y-90829300D02*
X112860400Y-105907400D01*
X112860400Y-105907400D02*
X112749900Y-106017900D01*
X114300000Y-90000000D02*
X113689700Y-90000000D01*
G04 #@! TO.N,Net-(D18-Pad2)*
X113739700Y-95000000D02*
X113312200Y-95427500D01*
X113312200Y-95427500D02*
X113312200Y-106720900D01*
X113312200Y-106720900D02*
X113030000Y-107003100D01*
X114350000Y-95000000D02*
X113739700Y-95000000D01*
G04 #@! TO.N,Net-(D19-Pad2)*
X113362700Y-107846800D02*
X113592500Y-107617000D01*
X113592500Y-107617000D02*
X113592500Y-101417800D01*
X113592500Y-101417800D02*
X114350000Y-100660300D01*
X114350000Y-100000000D02*
X114350000Y-100660300D01*
G04 #@! TO.N,Net-(D20-Pad2)*
X114300000Y-105000000D02*
X114300000Y-105660300D01*
X114206300Y-107807100D02*
X114206300Y-105754000D01*
X114206300Y-105754000D02*
X114300000Y-105660300D01*
G04 #@! TO.N,Net-(D21-Pad2)*
X113456500Y-110173600D02*
X113739700Y-109890400D01*
X113739700Y-109890400D02*
X113739700Y-109800000D01*
X114350000Y-109800000D02*
X113739700Y-109800000D01*
G04 #@! TO.N,Net-(D22-Pad2)*
X114300000Y-114000000D02*
X113689700Y-114000000D01*
X113689700Y-114000000D02*
X112634000Y-112944300D01*
X112634000Y-112944300D02*
X112634000Y-111132300D01*
G04 #@! TO.N,Net-(D23-Pad2)*
X114449000Y-111802200D02*
X114449000Y-112013100D01*
X114449000Y-112013100D02*
X115356300Y-112920400D01*
X115356300Y-112920400D02*
X118386400Y-112920400D01*
X118386400Y-112920400D02*
X119389700Y-113923700D01*
X119389700Y-113923700D02*
X119389700Y-114000000D01*
X120000000Y-114000000D02*
X119389700Y-114000000D01*
G04 #@! TO.N,Net-(D24-Pad2)*
X120610300Y-122000000D02*
X120610300Y-115767700D01*
X120610300Y-115767700D02*
X118510400Y-113667800D01*
X118510400Y-113667800D02*
X118510400Y-113463000D01*
X118510400Y-113463000D02*
X118387100Y-113339700D01*
X118387100Y-113339700D02*
X114796100Y-113339700D01*
X114796100Y-113339700D02*
X114090500Y-112634100D01*
X120000000Y-122000000D02*
X120610300Y-122000000D01*
G04 #@! TO.N,GND*
X116500000Y-86000000D02*
X115889700Y-86000000D01*
X121000000Y-86000000D02*
X120389700Y-86000000D01*
X116500000Y-86000000D02*
X117110300Y-86000000D01*
X117110300Y-86000000D02*
X117770700Y-85339600D01*
X117770700Y-85339600D02*
X119729300Y-85339600D01*
X119729300Y-85339600D02*
X120389700Y-86000000D01*
X112250000Y-86817900D02*
X115529500Y-86817900D01*
X115529500Y-86817900D02*
X115889700Y-86457700D01*
X115889700Y-86457700D02*
X115889700Y-86000000D01*
X112250000Y-86817900D02*
X112250000Y-86000000D01*
X112239800Y-86948200D02*
X112250000Y-86938000D01*
X112250000Y-86938000D02*
X112250000Y-86817900D01*
X111589700Y-90000000D02*
X111589700Y-88209400D01*
X111589700Y-88209400D02*
X112239800Y-87559300D01*
X112239800Y-87559300D02*
X112239800Y-86948200D01*
X105950000Y-100000000D02*
X105950000Y-99339700D01*
X105950000Y-99339700D02*
X106000000Y-99289700D01*
X106000000Y-99289700D02*
X106000000Y-95660300D01*
X105950000Y-105000000D02*
X105950000Y-100000000D01*
X106000000Y-95000000D02*
X106000000Y-95660300D01*
X121000000Y-86000000D02*
X121305200Y-86000000D01*
X122810400Y-78563800D02*
X122643700Y-78730500D01*
X122643700Y-78730500D02*
X121440800Y-78730500D01*
X121440800Y-78730500D02*
X120710300Y-78000000D01*
X113910300Y-78000000D02*
X113910300Y-77923700D01*
X113910300Y-77923700D02*
X114792600Y-77041400D01*
X114792600Y-77041400D02*
X122445100Y-77041400D01*
X122445100Y-77041400D02*
X122810400Y-77406700D01*
X122810400Y-77406700D02*
X122810400Y-78563800D01*
X122810400Y-78563800D02*
X123162000Y-78915400D01*
X123162000Y-78915400D02*
X126044900Y-78915400D01*
X120100000Y-78000000D02*
X120710300Y-78000000D01*
X113300000Y-78000000D02*
X113910300Y-78000000D01*
X113300000Y-78000000D02*
X113300000Y-81085300D01*
X113300000Y-81085300D02*
X112335300Y-82050000D01*
X112250000Y-110460300D02*
X111868900Y-110841400D01*
X111868900Y-110841400D02*
X111868900Y-112997800D01*
X111868900Y-112997800D02*
X111911600Y-113040500D01*
X111911600Y-113040500D02*
X112200000Y-113328900D01*
X112200000Y-113328900D02*
X112200000Y-113339700D01*
X112200000Y-122000000D02*
X111589700Y-122000000D01*
X111589700Y-122000000D02*
X110929300Y-122660400D01*
X110929300Y-122660400D02*
X107220700Y-122660400D01*
X107220700Y-122660400D02*
X106560300Y-122000000D01*
X112505200Y-122000000D02*
X112200000Y-122000000D01*
X105950000Y-122000000D02*
X106560300Y-122000000D01*
X100189700Y-116619200D02*
X101219200Y-116619200D01*
X101219200Y-116619200D02*
X101930000Y-117330000D01*
X101005200Y-122000000D02*
X99610600Y-120605400D01*
X99610600Y-120605400D02*
X99610600Y-117198300D01*
X99610600Y-117198300D02*
X100189700Y-116619200D01*
X100189700Y-116619200D02*
X100189700Y-114000000D01*
X100800000Y-114000000D02*
X100189700Y-114000000D01*
X101005200Y-122000000D02*
X101310300Y-122000000D01*
X100700000Y-122000000D02*
X101005200Y-122000000D01*
X112250000Y-109800000D02*
X112250000Y-110460300D01*
X117821100Y-114704100D02*
X117900000Y-114625200D01*
X117900000Y-114625200D02*
X117900000Y-114590200D01*
X112810300Y-114000000D02*
X113514400Y-114704100D01*
X113514400Y-114704100D02*
X117821100Y-114704100D01*
X119189700Y-118000000D02*
X119189700Y-116072700D01*
X119189700Y-116072700D02*
X117821100Y-114704100D01*
X117900000Y-121339700D02*
X119189700Y-120050000D01*
X119189700Y-120050000D02*
X119189700Y-118000000D01*
X105518700Y-86844400D02*
X105715900Y-86844400D01*
X105715900Y-86844400D02*
X105900000Y-86660300D01*
X102210300Y-86000000D02*
X102210300Y-86435200D01*
X102210300Y-86435200D02*
X102619500Y-86844400D01*
X102619500Y-86844400D02*
X105518700Y-86844400D01*
X105518700Y-86844400D02*
X105518700Y-88958400D01*
X105518700Y-88958400D02*
X105900000Y-89339700D01*
X121305200Y-89835300D02*
X121305200Y-90034500D01*
X121305200Y-90034500D02*
X121000000Y-90339700D01*
X121305200Y-86000000D02*
X121305200Y-89835300D01*
X123371200Y-89835300D02*
X121305200Y-89835300D01*
X121000000Y-91000000D02*
X121000000Y-90339700D01*
X121305200Y-86000000D02*
X121610300Y-86000000D01*
X123371200Y-89835300D02*
X124535900Y-91000000D01*
X124535900Y-91000000D02*
X125689700Y-91000000D01*
X125040200Y-85289400D02*
X125040200Y-85350500D01*
X125040200Y-85350500D02*
X125689700Y-86000000D01*
X125739700Y-82000000D02*
X125040200Y-82699500D01*
X125040200Y-82699500D02*
X125040200Y-85289400D01*
X125040200Y-85289400D02*
X122320900Y-85289400D01*
X122320900Y-85289400D02*
X121610300Y-86000000D01*
X126300000Y-91000000D02*
X125689700Y-91000000D01*
X126300000Y-86000000D02*
X125689700Y-86000000D01*
X126350000Y-82000000D02*
X125739700Y-82000000D01*
X126350000Y-81669800D02*
X126350000Y-82000000D01*
X126350000Y-81669800D02*
X126350000Y-81339700D01*
X126044900Y-78915400D02*
X126300000Y-78660300D01*
X126044900Y-78915400D02*
X126044900Y-81034600D01*
X126044900Y-81034600D02*
X126350000Y-81339700D01*
X97450000Y-89118200D02*
X97547300Y-89118200D01*
X97547300Y-89118200D02*
X97574000Y-89144900D01*
X112200000Y-105000000D02*
X112200000Y-105660300D01*
X112250000Y-109800000D02*
X112250000Y-109139700D01*
X112250000Y-109139700D02*
X112187500Y-109077200D01*
X112187500Y-109077200D02*
X112187500Y-105672800D01*
X112187500Y-105672800D02*
X112200000Y-105660300D01*
X112200000Y-114000000D02*
X112200000Y-113339700D01*
X112200000Y-114000000D02*
X112810300Y-114000000D01*
X97400000Y-90339700D02*
X97400000Y-89168200D01*
X97400000Y-89168200D02*
X97450000Y-89118200D01*
X97450000Y-86660300D02*
X97450000Y-89118200D01*
X112200000Y-104669800D02*
X112200000Y-105000000D01*
X112200000Y-104669800D02*
X112200000Y-104339700D01*
X105900000Y-86000000D02*
X105900000Y-86660300D01*
X105950000Y-122000000D02*
X105339700Y-122000000D01*
X105339700Y-122000000D02*
X104679300Y-122660400D01*
X104679300Y-122660400D02*
X101970700Y-122660400D01*
X101970700Y-122660400D02*
X101310300Y-122000000D01*
X97450000Y-86000000D02*
X97450000Y-86660300D01*
X117900000Y-114000000D02*
X117900000Y-114590200D01*
X97450000Y-86000000D02*
X97450000Y-85339700D01*
X98065800Y-85042400D02*
X100032100Y-85042400D01*
X100032100Y-85042400D02*
X100989700Y-86000000D01*
X97989700Y-78000000D02*
X97989700Y-78703200D01*
X97989700Y-78703200D02*
X98065800Y-78779300D01*
X98065800Y-78779300D02*
X98065800Y-85042400D01*
X98065800Y-85042400D02*
X97768500Y-85339700D01*
X97768500Y-85339700D02*
X97450000Y-85339700D01*
X97400000Y-91000000D02*
X97400000Y-90339700D01*
X91600000Y-86000000D02*
X91600000Y-82000000D01*
X91600000Y-91000000D02*
X91600000Y-86000000D01*
X106100000Y-78660300D02*
X107001000Y-79561300D01*
X107001000Y-79561300D02*
X107001000Y-80058500D01*
X111700000Y-82050000D02*
X112335300Y-82050000D01*
X126300000Y-78000000D02*
X126300000Y-78660300D01*
X105950000Y-109800000D02*
X105950000Y-105000000D01*
X111700000Y-82050000D02*
X110250000Y-82050000D01*
X110250000Y-82050000D02*
X110000000Y-81800000D01*
X112505200Y-122000000D02*
X112810300Y-122000000D01*
X97400000Y-91000000D02*
X96789700Y-91000000D01*
X96789700Y-91000000D02*
X96129300Y-91660400D01*
X96129300Y-91660400D02*
X92870700Y-91660400D01*
X92870700Y-91660400D02*
X92210300Y-91000000D01*
X91600000Y-91000000D02*
X92210300Y-91000000D01*
X112200000Y-90000000D02*
X111589700Y-90000000D01*
X112200000Y-90330100D02*
X112200000Y-90000000D01*
X119900000Y-118000000D02*
X119189700Y-118000000D01*
X117900000Y-122000000D02*
X117900000Y-121339700D01*
X105721000Y-113110700D02*
X102299600Y-113110700D01*
X102299600Y-113110700D02*
X101410300Y-114000000D01*
X105950000Y-113929900D02*
X105950000Y-114000000D01*
X117900000Y-122000000D02*
X117289700Y-122000000D01*
X117289700Y-122000000D02*
X116629300Y-122660400D01*
X116629300Y-122660400D02*
X113470700Y-122660400D01*
X113470700Y-122660400D02*
X112810300Y-122000000D01*
X112200000Y-90330100D02*
X112200000Y-90660300D01*
X112250000Y-100000000D02*
X112250000Y-99339700D01*
X112250000Y-95000000D02*
X112250000Y-95660300D01*
X112250000Y-95660300D02*
X112250000Y-99339700D01*
X112250000Y-94339700D02*
X112250000Y-90710300D01*
X112250000Y-90710300D02*
X112200000Y-90660300D01*
X106100000Y-78000000D02*
X106100000Y-78660300D01*
X105900000Y-90000000D02*
X105900000Y-89339700D01*
X105900000Y-90000000D02*
X105900000Y-94239700D01*
X105900000Y-94239700D02*
X106000000Y-94339700D01*
X105721000Y-113110700D02*
X105721000Y-110689300D01*
X105721000Y-110689300D02*
X105950000Y-110460300D01*
X105950000Y-113339700D02*
X105721000Y-113110700D01*
X105950000Y-113929900D02*
X105950000Y-113339700D01*
X112250000Y-95000000D02*
X112250000Y-94339700D01*
X106000000Y-95000000D02*
X106000000Y-94339700D01*
X101600000Y-86000000D02*
X100989700Y-86000000D01*
X101600000Y-86000000D02*
X102210300Y-86000000D01*
X105950000Y-109800000D02*
X105950000Y-110460300D01*
X112250000Y-100660300D02*
X112200000Y-100710300D01*
X112200000Y-100710300D02*
X112200000Y-104339700D01*
X91600000Y-78000000D02*
X91600000Y-82000000D01*
X98600000Y-78000000D02*
X97989700Y-78000000D01*
X112250000Y-100330100D02*
X112250000Y-100000000D01*
X112250000Y-100330100D02*
X112250000Y-100660300D01*
X100800000Y-114000000D02*
X101410300Y-114000000D01*
G04 #@! TO.N,VCC*
X111250000Y-80600000D02*
X111250000Y-79964700D01*
X110226400Y-76914700D02*
X111452400Y-78140700D01*
X111452400Y-78140700D02*
X111452400Y-79762300D01*
X111452400Y-79762300D02*
X111250000Y-79964700D01*
X107664700Y-81550000D02*
X105433100Y-79318400D01*
X105433100Y-79318400D02*
X105433100Y-77460400D01*
X105433100Y-77460400D02*
X106166800Y-76726700D01*
X106166800Y-76726700D02*
X110038400Y-76726700D01*
X110038400Y-76726700D02*
X110226400Y-76914700D01*
X111891600Y-114904000D02*
X112040600Y-115053000D01*
X112040600Y-115053000D02*
X113611500Y-115053000D01*
X113611500Y-115053000D02*
X115500000Y-116941500D01*
X115500000Y-116941500D02*
X115500000Y-117139700D01*
X111189900Y-108006500D02*
X111189900Y-114202300D01*
X111189900Y-114202300D02*
X111891600Y-114904000D01*
X111891600Y-114904000D02*
X111626300Y-115169300D01*
X111460400Y-116301500D02*
X111460400Y-115335200D01*
X111460400Y-115335200D02*
X111626300Y-115169300D01*
X116932100Y-118000000D02*
X116932100Y-119557300D01*
X116932100Y-119557300D02*
X116319400Y-120170000D01*
X116932100Y-118000000D02*
X117189700Y-118000000D01*
X115500000Y-118000000D02*
X116932100Y-118000000D01*
X111186800Y-87843800D02*
X111186800Y-108003400D01*
X111186800Y-108003400D02*
X111189900Y-108006500D01*
X114362900Y-84992500D02*
X112087400Y-84992500D01*
X112087400Y-84992500D02*
X111186800Y-85893100D01*
X111186800Y-85893100D02*
X111186800Y-87843800D01*
X111186800Y-87843800D02*
X111146900Y-87843800D01*
X115500000Y-118000000D02*
X115500000Y-117139700D01*
X117900000Y-118000000D02*
X117189700Y-118000000D01*
X108300000Y-81550000D02*
X107664700Y-81550000D01*
G04 #@! TO.N,CLK*
X110628600Y-117061800D02*
X112111400Y-117061800D01*
X112111400Y-117061800D02*
X112135700Y-117086100D01*
X101930000Y-118600000D02*
X102960700Y-119630700D01*
X102960700Y-119630700D02*
X107261600Y-119630700D01*
X107261600Y-119630700D02*
X109830500Y-117061800D01*
X109830500Y-117061800D02*
X110628600Y-117061800D01*
X110628600Y-117061800D02*
X110628600Y-107649500D01*
X110628600Y-107649500D02*
X110840100Y-107438000D01*
X110840100Y-107438000D02*
X110840100Y-91158300D01*
X110840100Y-91158300D02*
X110586600Y-90904800D01*
X110586600Y-90904800D02*
X110586600Y-86025400D01*
X110586600Y-86025400D02*
X111931700Y-84680300D01*
X111931700Y-84680300D02*
X112846300Y-84680300D01*
X112846300Y-84680300D02*
X113126500Y-84400100D01*
X113126500Y-84400100D02*
X115801800Y-84400100D01*
X110890000Y-78795300D02*
X110750000Y-78935300D01*
X110750000Y-78935300D02*
X110750000Y-80600000D01*
X115801800Y-81010400D02*
X115801800Y-84400100D01*
G04 #@! TO.N,Net-(D25-Pad2)*
X114300000Y-122000000D02*
X113689700Y-122000000D01*
X112046300Y-120473400D02*
X112163100Y-120473400D01*
X112163100Y-120473400D02*
X113689700Y-122000000D01*
G04 #@! TO.N,Net-(D26-Pad2)*
X108660300Y-122000000D02*
X109112900Y-121547400D01*
X109112900Y-121547400D02*
X109112900Y-120535300D01*
X108050000Y-122000000D02*
X108660300Y-122000000D01*
G04 #@! TO.N,Net-(D27-Pad2)*
X103410300Y-122000000D02*
X104886900Y-120523400D01*
X104886900Y-120523400D02*
X108176600Y-120523400D01*
X102800000Y-122000000D02*
X103410300Y-122000000D01*
G04 #@! TO.N,Net-(D28-Pad2)*
X103510300Y-114000000D02*
X103510300Y-114623900D01*
X103510300Y-114623900D02*
X104487800Y-115601400D01*
X102900000Y-114000000D02*
X103510300Y-114000000D01*
G04 #@! TO.N,Net-(D29-Pad2)*
X108050000Y-114000000D02*
X108050000Y-114660300D01*
X108050000Y-114660300D02*
X108050000Y-115484000D01*
X108050000Y-115484000D02*
X107257100Y-116276900D01*
X107257100Y-116276900D02*
X107257100Y-116656400D01*
G04 #@! TO.N,Net-(D30-Pad2)*
X108050000Y-110460300D02*
X108960500Y-111370800D01*
X108960500Y-111370800D02*
X108960500Y-116285000D01*
X108960500Y-116285000D02*
X107745300Y-117500200D01*
X107745300Y-117500200D02*
X107583500Y-117500200D01*
X108050000Y-109800000D02*
X108050000Y-110460300D01*
G04 #@! TO.N,Net-(D31-Pad2)*
X107439700Y-105000000D02*
X107439700Y-110337100D01*
X107439700Y-110337100D02*
X108662300Y-111559700D01*
X108662300Y-111559700D02*
X108662300Y-115790700D01*
X108662300Y-115790700D02*
X108195900Y-116257100D01*
X108050000Y-105000000D02*
X107439700Y-105000000D01*
G04 #@! TO.N,Net-(D32-Pad2)*
X107439700Y-100000000D02*
X107159400Y-100280300D01*
X107159400Y-100280300D02*
X107159400Y-115079500D01*
X108050000Y-100000000D02*
X107439700Y-100000000D01*
G04 #@! TO.N,Net-(D33-Pad2)*
X108100000Y-95000000D02*
X108100000Y-94339700D01*
X108100000Y-94339700D02*
X108610400Y-93829300D01*
X108610400Y-93829300D02*
X108610400Y-88301800D01*
X108610400Y-88301800D02*
X107535800Y-87227200D01*
G04 #@! TO.N,Net-(D34-Pad2)*
X106079000Y-87302800D02*
X108000000Y-89223800D01*
X108000000Y-89223800D02*
X108000000Y-90000000D01*
G04 #@! TO.N,Net-(D35-Pad2)*
X107389700Y-86000000D02*
X106729300Y-85339600D01*
X106729300Y-85339600D02*
X105336400Y-85339600D01*
X105336400Y-85339600D02*
X104802100Y-85873900D01*
X104802100Y-85873900D02*
X104802100Y-85957900D01*
X108000000Y-86000000D02*
X107389700Y-86000000D01*
G04 #@! TO.N,Net-(D36-Pad2)*
X103089700Y-86000000D02*
X102851500Y-86238200D01*
X102851500Y-86238200D02*
X102805600Y-86238200D01*
X103700000Y-86000000D02*
X103089700Y-86000000D01*
G04 #@! TO.N,Net-(D37-Pad2)*
X99550000Y-86000000D02*
X98939700Y-86000000D01*
X98500000Y-86595400D02*
X98939700Y-86155700D01*
X98939700Y-86155700D02*
X98939700Y-86000000D01*
G04 #@! TO.N,Net-(D38-Pad2)*
X99500000Y-91000000D02*
X99500000Y-89766700D01*
X99500000Y-89766700D02*
X98279200Y-88545900D01*
G04 #@! TO.N,SW1*
X103200000Y-118600000D02*
X103950300Y-119350300D01*
X103950300Y-119350300D02*
X106539300Y-119350300D01*
X106539300Y-119350300D02*
X110244900Y-115644700D01*
X110244900Y-115644700D02*
X110244900Y-107240800D01*
G04 #@! TO.N,RST*
X100660000Y-118600000D02*
X102022700Y-119962700D01*
X102022700Y-119962700D02*
X107527100Y-119962700D01*
X107527100Y-119962700D02*
X109489800Y-118000000D01*
X109489800Y-118000000D02*
X113039700Y-118000000D01*
X113600000Y-117139700D02*
X113832300Y-116907400D01*
X113832300Y-116907400D02*
X113832300Y-116473500D01*
X113600000Y-118000000D02*
X113039700Y-118000000D01*
X113600000Y-118000000D02*
X113600000Y-117139700D01*
G04 #@! TO.N,DATA*
X109250000Y-80600000D02*
X109250000Y-79964700D01*
X109250000Y-79964700D02*
X108509600Y-79964700D01*
X108509600Y-79964700D02*
X108091300Y-80383000D01*
X108091300Y-80383000D02*
X108091300Y-80627200D01*
X102549700Y-115062600D02*
X103200000Y-115712900D01*
X103200000Y-115712900D02*
X103200000Y-117330000D01*
G04 #@! TO.N,REG*
X110038700Y-78835900D02*
X110250000Y-79047200D01*
X110250000Y-79047200D02*
X110250000Y-80600000D01*
X99949700Y-117330000D02*
X99949700Y-119212700D01*
X99949700Y-119212700D02*
X100980100Y-120243100D01*
X100980100Y-120243100D02*
X107664400Y-120243100D01*
X107664400Y-120243100D02*
X108129500Y-119778000D01*
X108129500Y-119778000D02*
X115185900Y-119778000D01*
X115185900Y-119778000D02*
X116355500Y-118608400D01*
X100660000Y-117330000D02*
X99949700Y-117330000D01*
G04 #@! TO.N,Net-(U2-Pad9)*
X112335300Y-81550000D02*
X112335300Y-78544800D01*
X112335300Y-78544800D02*
X112387100Y-78493000D01*
X111700000Y-81550000D02*
X112335300Y-81550000D01*
G04 #@! TO.N,Net-(U4-Pad9)*
X114447500Y-119011500D02*
X114447500Y-116285300D01*
X114447500Y-116285300D02*
X113785600Y-115623400D01*
X113785600Y-115623400D02*
X112878800Y-115623400D01*
G04 #@! TO.N,Net-(U5-Pad9)*
X109564100Y-87278000D02*
X109564100Y-115178800D01*
G04 #@! TO.N,OE*
X109037900Y-85431000D02*
X110068900Y-84400000D01*
X110068900Y-84400000D02*
X112730200Y-84400000D01*
X112730200Y-84400000D02*
X113738900Y-83391300D01*
X113738900Y-83391300D02*
X115202600Y-83391300D01*
X109750000Y-80600000D02*
X109750000Y-79736400D01*
X109750000Y-79736400D02*
X109099400Y-79085800D01*
X109037900Y-85431000D02*
X108973400Y-85495500D01*
X108973400Y-85495500D02*
X108973400Y-95776200D01*
X108973400Y-95776200D02*
X106586200Y-98163400D01*
X106586200Y-98163400D02*
X106586200Y-110787200D01*
X104470000Y-118600000D02*
X106586200Y-116483800D01*
X106586200Y-116483800D02*
X106586200Y-110787200D01*
G04 #@! TD*
M02*
