G04 #@! TF.GenerationSoftware,KiCad,Pcbnew,(5.0.0)*
G04 #@! TF.CreationDate,2019-08-28T15:04:53-04:00*
G04 #@! TF.ProjectId,Tiny-er T,54696E792D657220542E6B696361645F,rev?*
G04 #@! TF.SameCoordinates,Original*
G04 #@! TF.FileFunction,Legend,Bot*
G04 #@! TF.FilePolarity,Positive*
%FSLAX46Y46*%
G04 Gerber Fmt 4.6, Leading zero omitted, Abs format (unit mm)*
G04 Created by KiCad (PCBNEW (5.0.0)) date 08/28/19 15:04:53*
%MOMM*%
%LPD*%
G01*
G04 APERTURE LIST*
%ADD10C,0.150000*%
%ADD11C,0.100000*%
%ADD12C,0.120000*%
%ADD13C,0.127000*%
%ADD14C,0.050000*%
G04 APERTURE END LIST*
D10*
G04 #@! TO.C,U1*
X120695000Y-115125000D02*
X120695000Y-120700000D01*
X115495000Y-115100000D02*
X115495000Y-120800000D01*
X120695000Y-115100000D02*
X120495000Y-115100000D01*
X120670000Y-120700000D02*
X120525000Y-120700000D01*
X115495000Y-120800000D02*
X115695000Y-120800000D01*
X115495000Y-115100000D02*
X115595000Y-115100000D01*
D11*
X116236421Y-115800000D02*
G75*
G03X116236421Y-115800000I-141421J0D01*
G01*
X115636421Y-115100000D02*
G75*
G03X115636421Y-115100000I-141421J0D01*
G01*
X115718607Y-115100000D02*
G75*
G03X115718607Y-115100000I-223607J0D01*
G01*
D12*
G04 #@! TO.C,SW1*
X107350000Y-103650000D02*
X106900000Y-103650000D01*
X106900000Y-103650000D02*
X106900000Y-97350000D01*
X106900000Y-97350000D02*
X107300000Y-97350000D01*
X108650000Y-103650000D02*
X111350000Y-103650000D01*
X111350000Y-97350000D02*
X108650000Y-97350000D01*
X113100000Y-103650000D02*
X113100000Y-97350000D01*
X113100000Y-97350000D02*
X112650000Y-97350000D01*
X112650000Y-103650000D02*
X113100000Y-103650000D01*
D11*
G04 #@! TO.C,U3*
X125400000Y-85750000D02*
X125675000Y-86025000D01*
X124975000Y-85750000D02*
X125400000Y-85750000D01*
X124050000Y-85750000D02*
X124025000Y-85750000D01*
X123250000Y-85750000D02*
X124050000Y-85750000D01*
X123250000Y-86025000D02*
X123250000Y-85750000D01*
X123250000Y-89250000D02*
X123250000Y-88950000D01*
X124025000Y-89250000D02*
X123250000Y-89250000D01*
X125750000Y-89250000D02*
X124975000Y-89250000D01*
X125750000Y-88975000D02*
X125750000Y-89250000D01*
D13*
X125885850Y-85350000D02*
G75*
G03X125885850Y-85350000I-235850J0D01*
G01*
D11*
G04 #@! TO.C,U4*
X110900000Y-109250000D02*
X111175000Y-109525000D01*
X110475000Y-109250000D02*
X110900000Y-109250000D01*
X109550000Y-109250000D02*
X109525000Y-109250000D01*
X108750000Y-109250000D02*
X109550000Y-109250000D01*
X108750000Y-109525000D02*
X108750000Y-109250000D01*
X108750000Y-112750000D02*
X108750000Y-112450000D01*
X109525000Y-112750000D02*
X108750000Y-112750000D01*
X111250000Y-112750000D02*
X110475000Y-112750000D01*
X111250000Y-112475000D02*
X111250000Y-112750000D01*
D13*
X111385850Y-108850000D02*
G75*
G03X111385850Y-108850000I-235850J0D01*
G01*
D11*
G04 #@! TO.C,U5*
X109100000Y-119950000D02*
X108825000Y-119675000D01*
X109525000Y-119950000D02*
X109100000Y-119950000D01*
X110450000Y-119950000D02*
X110475000Y-119950000D01*
X111250000Y-119950000D02*
X110450000Y-119950000D01*
X111250000Y-119675000D02*
X111250000Y-119950000D01*
X111250000Y-116450000D02*
X111250000Y-116750000D01*
X110475000Y-116450000D02*
X111250000Y-116450000D01*
X108750000Y-116450000D02*
X109525000Y-116450000D01*
X108750000Y-116725000D02*
X108750000Y-116450000D01*
D13*
X109085850Y-120350000D02*
G75*
G03X109085850Y-120350000I-235850J0D01*
G01*
D11*
G04 #@! TO.C,U6*
X96400000Y-85750000D02*
X96675000Y-86025000D01*
X95975000Y-85750000D02*
X96400000Y-85750000D01*
X95050000Y-85750000D02*
X95025000Y-85750000D01*
X94250000Y-85750000D02*
X95050000Y-85750000D01*
X94250000Y-86025000D02*
X94250000Y-85750000D01*
X94250000Y-89250000D02*
X94250000Y-88950000D01*
X95025000Y-89250000D02*
X94250000Y-89250000D01*
X96750000Y-89250000D02*
X95975000Y-89250000D01*
X96750000Y-88975000D02*
X96750000Y-89250000D01*
D13*
X96885850Y-85350000D02*
G75*
G03X96885850Y-85350000I-235850J0D01*
G01*
D12*
G04 #@! TO.C,POWER0*
X97900000Y-78930000D02*
X97900000Y-79720000D01*
X91000000Y-79720000D02*
X91000000Y-78930000D01*
X92850000Y-80770000D02*
X94550000Y-80770000D01*
X91600000Y-77920000D02*
X97300000Y-77920000D01*
X94350000Y-76630000D02*
X94350000Y-77920000D01*
X93250000Y-76420000D02*
X94150000Y-76420000D01*
X93050000Y-77920000D02*
X93050000Y-76630000D01*
X94350000Y-76630000D02*
X94150000Y-76420000D01*
X93050000Y-76630000D02*
X93250000Y-76420000D01*
X95850000Y-80770000D02*
X96050000Y-80770000D01*
G04 #@! TO.C,D1*
D10*
X92438095Y-91652380D02*
X92438095Y-90652380D01*
X92200000Y-90652380D01*
X92057142Y-90700000D01*
X91961904Y-90795238D01*
X91914285Y-90890476D01*
X91866666Y-91080952D01*
X91866666Y-91223809D01*
X91914285Y-91414285D01*
X91961904Y-91509523D01*
X92057142Y-91604761D01*
X92200000Y-91652380D01*
X92438095Y-91652380D01*
X90914285Y-91652380D02*
X91485714Y-91652380D01*
X91200000Y-91652380D02*
X91200000Y-90652380D01*
X91295238Y-90795238D01*
X91390476Y-90890476D01*
X91485714Y-90938095D01*
G04 #@! TO.C,D2*
X93388095Y-86252380D02*
X93388095Y-85252380D01*
X93150000Y-85252380D01*
X93007142Y-85300000D01*
X92911904Y-85395238D01*
X92864285Y-85490476D01*
X92816666Y-85680952D01*
X92816666Y-85823809D01*
X92864285Y-86014285D01*
X92911904Y-86109523D01*
X93007142Y-86204761D01*
X93150000Y-86252380D01*
X93388095Y-86252380D01*
X92435714Y-85347619D02*
X92388095Y-85300000D01*
X92292857Y-85252380D01*
X92054761Y-85252380D01*
X91959523Y-85300000D01*
X91911904Y-85347619D01*
X91864285Y-85442857D01*
X91864285Y-85538095D01*
X91911904Y-85680952D01*
X92483333Y-86252380D01*
X91864285Y-86252380D01*
G04 #@! TO.C,D3*
X93238095Y-83452380D02*
X93238095Y-82452380D01*
X93000000Y-82452380D01*
X92857142Y-82500000D01*
X92761904Y-82595238D01*
X92714285Y-82690476D01*
X92666666Y-82880952D01*
X92666666Y-83023809D01*
X92714285Y-83214285D01*
X92761904Y-83309523D01*
X92857142Y-83404761D01*
X93000000Y-83452380D01*
X93238095Y-83452380D01*
X92333333Y-82452380D02*
X91714285Y-82452380D01*
X92047619Y-82833333D01*
X91904761Y-82833333D01*
X91809523Y-82880952D01*
X91761904Y-82928571D01*
X91714285Y-83023809D01*
X91714285Y-83261904D01*
X91761904Y-83357142D01*
X91809523Y-83404761D01*
X91904761Y-83452380D01*
X92190476Y-83452380D01*
X92285714Y-83404761D01*
X92333333Y-83357142D01*
G04 #@! TO.C,D4*
X88588095Y-78502380D02*
X88588095Y-77502380D01*
X88350000Y-77502380D01*
X88207142Y-77550000D01*
X88111904Y-77645238D01*
X88064285Y-77740476D01*
X88016666Y-77930952D01*
X88016666Y-78073809D01*
X88064285Y-78264285D01*
X88111904Y-78359523D01*
X88207142Y-78454761D01*
X88350000Y-78502380D01*
X88588095Y-78502380D01*
X87159523Y-77835714D02*
X87159523Y-78502380D01*
X87397619Y-77454761D02*
X87635714Y-78169047D01*
X87016666Y-78169047D01*
G04 #@! TO.C,D5*
X100738095Y-78452380D02*
X100738095Y-77452380D01*
X100500000Y-77452380D01*
X100357142Y-77500000D01*
X100261904Y-77595238D01*
X100214285Y-77690476D01*
X100166666Y-77880952D01*
X100166666Y-78023809D01*
X100214285Y-78214285D01*
X100261904Y-78309523D01*
X100357142Y-78404761D01*
X100500000Y-78452380D01*
X100738095Y-78452380D01*
X99261904Y-77452380D02*
X99738095Y-77452380D01*
X99785714Y-77928571D01*
X99738095Y-77880952D01*
X99642857Y-77833333D01*
X99404761Y-77833333D01*
X99309523Y-77880952D01*
X99261904Y-77928571D01*
X99214285Y-78023809D01*
X99214285Y-78261904D01*
X99261904Y-78357142D01*
X99309523Y-78404761D01*
X99404761Y-78452380D01*
X99642857Y-78452380D01*
X99738095Y-78404761D01*
X99785714Y-78357142D01*
G04 #@! TO.C,D6*
X107888095Y-78452380D02*
X107888095Y-77452380D01*
X107650000Y-77452380D01*
X107507142Y-77500000D01*
X107411904Y-77595238D01*
X107364285Y-77690476D01*
X107316666Y-77880952D01*
X107316666Y-78023809D01*
X107364285Y-78214285D01*
X107411904Y-78309523D01*
X107507142Y-78404761D01*
X107650000Y-78452380D01*
X107888095Y-78452380D01*
X106459523Y-77452380D02*
X106650000Y-77452380D01*
X106745238Y-77500000D01*
X106792857Y-77547619D01*
X106888095Y-77690476D01*
X106935714Y-77880952D01*
X106935714Y-78261904D01*
X106888095Y-78357142D01*
X106840476Y-78404761D01*
X106745238Y-78452380D01*
X106554761Y-78452380D01*
X106459523Y-78404761D01*
X106411904Y-78357142D01*
X106364285Y-78261904D01*
X106364285Y-78023809D01*
X106411904Y-77928571D01*
X106459523Y-77880952D01*
X106554761Y-77833333D01*
X106745238Y-77833333D01*
X106840476Y-77880952D01*
X106888095Y-77928571D01*
X106935714Y-78023809D01*
G04 #@! TO.C,D7*
X115088095Y-78452380D02*
X115088095Y-77452380D01*
X114850000Y-77452380D01*
X114707142Y-77500000D01*
X114611904Y-77595238D01*
X114564285Y-77690476D01*
X114516666Y-77880952D01*
X114516666Y-78023809D01*
X114564285Y-78214285D01*
X114611904Y-78309523D01*
X114707142Y-78404761D01*
X114850000Y-78452380D01*
X115088095Y-78452380D01*
X114183333Y-77452380D02*
X113516666Y-77452380D01*
X113945238Y-78452380D01*
G04 #@! TO.C,D8*
X121888095Y-78452380D02*
X121888095Y-77452380D01*
X121650000Y-77452380D01*
X121507142Y-77500000D01*
X121411904Y-77595238D01*
X121364285Y-77690476D01*
X121316666Y-77880952D01*
X121316666Y-78023809D01*
X121364285Y-78214285D01*
X121411904Y-78309523D01*
X121507142Y-78404761D01*
X121650000Y-78452380D01*
X121888095Y-78452380D01*
X120745238Y-77880952D02*
X120840476Y-77833333D01*
X120888095Y-77785714D01*
X120935714Y-77690476D01*
X120935714Y-77642857D01*
X120888095Y-77547619D01*
X120840476Y-77500000D01*
X120745238Y-77452380D01*
X120554761Y-77452380D01*
X120459523Y-77500000D01*
X120411904Y-77547619D01*
X120364285Y-77642857D01*
X120364285Y-77690476D01*
X120411904Y-77785714D01*
X120459523Y-77833333D01*
X120554761Y-77880952D01*
X120745238Y-77880952D01*
X120840476Y-77928571D01*
X120888095Y-77976190D01*
X120935714Y-78071428D01*
X120935714Y-78261904D01*
X120888095Y-78357142D01*
X120840476Y-78404761D01*
X120745238Y-78452380D01*
X120554761Y-78452380D01*
X120459523Y-78404761D01*
X120411904Y-78357142D01*
X120364285Y-78261904D01*
X120364285Y-78071428D01*
X120411904Y-77976190D01*
X120459523Y-77928571D01*
X120554761Y-77880952D01*
G04 #@! TO.C,D9*
X128088095Y-78452380D02*
X128088095Y-77452380D01*
X127850000Y-77452380D01*
X127707142Y-77500000D01*
X127611904Y-77595238D01*
X127564285Y-77690476D01*
X127516666Y-77880952D01*
X127516666Y-78023809D01*
X127564285Y-78214285D01*
X127611904Y-78309523D01*
X127707142Y-78404761D01*
X127850000Y-78452380D01*
X128088095Y-78452380D01*
X127040476Y-78452380D02*
X126850000Y-78452380D01*
X126754761Y-78404761D01*
X126707142Y-78357142D01*
X126611904Y-78214285D01*
X126564285Y-78023809D01*
X126564285Y-77642857D01*
X126611904Y-77547619D01*
X126659523Y-77500000D01*
X126754761Y-77452380D01*
X126945238Y-77452380D01*
X127040476Y-77500000D01*
X127088095Y-77547619D01*
X127135714Y-77642857D01*
X127135714Y-77880952D01*
X127088095Y-77976190D01*
X127040476Y-78023809D01*
X126945238Y-78071428D01*
X126754761Y-78071428D01*
X126659523Y-78023809D01*
X126611904Y-77976190D01*
X126564285Y-77880952D01*
G04 #@! TO.C,D10*
X129214285Y-82452380D02*
X129214285Y-81452380D01*
X128976190Y-81452380D01*
X128833333Y-81500000D01*
X128738095Y-81595238D01*
X128690476Y-81690476D01*
X128642857Y-81880952D01*
X128642857Y-82023809D01*
X128690476Y-82214285D01*
X128738095Y-82309523D01*
X128833333Y-82404761D01*
X128976190Y-82452380D01*
X129214285Y-82452380D01*
X127690476Y-82452380D02*
X128261904Y-82452380D01*
X127976190Y-82452380D02*
X127976190Y-81452380D01*
X128071428Y-81595238D01*
X128166666Y-81690476D01*
X128261904Y-81738095D01*
X127071428Y-81452380D02*
X126976190Y-81452380D01*
X126880952Y-81500000D01*
X126833333Y-81547619D01*
X126785714Y-81642857D01*
X126738095Y-81833333D01*
X126738095Y-82071428D01*
X126785714Y-82261904D01*
X126833333Y-82357142D01*
X126880952Y-82404761D01*
X126976190Y-82452380D01*
X127071428Y-82452380D01*
X127166666Y-82404761D01*
X127214285Y-82357142D01*
X127261904Y-82261904D01*
X127309523Y-82071428D01*
X127309523Y-81833333D01*
X127261904Y-81642857D01*
X127214285Y-81547619D01*
X127166666Y-81500000D01*
X127071428Y-81452380D01*
G04 #@! TO.C,D11*
X129214285Y-86252380D02*
X129214285Y-85252380D01*
X128976190Y-85252380D01*
X128833333Y-85300000D01*
X128738095Y-85395238D01*
X128690476Y-85490476D01*
X128642857Y-85680952D01*
X128642857Y-85823809D01*
X128690476Y-86014285D01*
X128738095Y-86109523D01*
X128833333Y-86204761D01*
X128976190Y-86252380D01*
X129214285Y-86252380D01*
X127690476Y-86252380D02*
X128261904Y-86252380D01*
X127976190Y-86252380D02*
X127976190Y-85252380D01*
X128071428Y-85395238D01*
X128166666Y-85490476D01*
X128261904Y-85538095D01*
X126738095Y-86252380D02*
X127309523Y-86252380D01*
X127023809Y-86252380D02*
X127023809Y-85252380D01*
X127119047Y-85395238D01*
X127214285Y-85490476D01*
X127309523Y-85538095D01*
G04 #@! TO.C,D12*
X129214285Y-91452380D02*
X129214285Y-90452380D01*
X128976190Y-90452380D01*
X128833333Y-90500000D01*
X128738095Y-90595238D01*
X128690476Y-90690476D01*
X128642857Y-90880952D01*
X128642857Y-91023809D01*
X128690476Y-91214285D01*
X128738095Y-91309523D01*
X128833333Y-91404761D01*
X128976190Y-91452380D01*
X129214285Y-91452380D01*
X127690476Y-91452380D02*
X128261904Y-91452380D01*
X127976190Y-91452380D02*
X127976190Y-90452380D01*
X128071428Y-90595238D01*
X128166666Y-90690476D01*
X128261904Y-90738095D01*
X127309523Y-90547619D02*
X127261904Y-90500000D01*
X127166666Y-90452380D01*
X126928571Y-90452380D01*
X126833333Y-90500000D01*
X126785714Y-90547619D01*
X126738095Y-90642857D01*
X126738095Y-90738095D01*
X126785714Y-90880952D01*
X127357142Y-91452380D01*
X126738095Y-91452380D01*
G04 #@! TO.C,D13*
X121452380Y-89585714D02*
X120452380Y-89585714D01*
X120452380Y-89823809D01*
X120500000Y-89966666D01*
X120595238Y-90061904D01*
X120690476Y-90109523D01*
X120880952Y-90157142D01*
X121023809Y-90157142D01*
X121214285Y-90109523D01*
X121309523Y-90061904D01*
X121404761Y-89966666D01*
X121452380Y-89823809D01*
X121452380Y-89585714D01*
X121452380Y-91109523D02*
X121452380Y-90538095D01*
X121452380Y-90823809D02*
X120452380Y-90823809D01*
X120595238Y-90728571D01*
X120690476Y-90633333D01*
X120738095Y-90538095D01*
X120452380Y-91442857D02*
X120452380Y-92061904D01*
X120833333Y-91728571D01*
X120833333Y-91871428D01*
X120880952Y-91966666D01*
X120928571Y-92014285D01*
X121023809Y-92061904D01*
X121261904Y-92061904D01*
X121357142Y-92014285D01*
X121404761Y-91966666D01*
X121452380Y-91871428D01*
X121452380Y-91585714D01*
X121404761Y-91490476D01*
X121357142Y-91442857D01*
G04 #@! TO.C,D14*
X121452380Y-84785714D02*
X120452380Y-84785714D01*
X120452380Y-85023809D01*
X120500000Y-85166666D01*
X120595238Y-85261904D01*
X120690476Y-85309523D01*
X120880952Y-85357142D01*
X121023809Y-85357142D01*
X121214285Y-85309523D01*
X121309523Y-85261904D01*
X121404761Y-85166666D01*
X121452380Y-85023809D01*
X121452380Y-84785714D01*
X121452380Y-86309523D02*
X121452380Y-85738095D01*
X121452380Y-86023809D02*
X120452380Y-86023809D01*
X120595238Y-85928571D01*
X120690476Y-85833333D01*
X120738095Y-85738095D01*
X120785714Y-87166666D02*
X121452380Y-87166666D01*
X120404761Y-86928571D02*
X121119047Y-86690476D01*
X121119047Y-87309523D01*
G04 #@! TO.C,D15*
X118764285Y-86252380D02*
X118764285Y-85252380D01*
X118526190Y-85252380D01*
X118383333Y-85300000D01*
X118288095Y-85395238D01*
X118240476Y-85490476D01*
X118192857Y-85680952D01*
X118192857Y-85823809D01*
X118240476Y-86014285D01*
X118288095Y-86109523D01*
X118383333Y-86204761D01*
X118526190Y-86252380D01*
X118764285Y-86252380D01*
X117240476Y-86252380D02*
X117811904Y-86252380D01*
X117526190Y-86252380D02*
X117526190Y-85252380D01*
X117621428Y-85395238D01*
X117716666Y-85490476D01*
X117811904Y-85538095D01*
X116335714Y-85252380D02*
X116811904Y-85252380D01*
X116859523Y-85728571D01*
X116811904Y-85680952D01*
X116716666Y-85633333D01*
X116478571Y-85633333D01*
X116383333Y-85680952D01*
X116335714Y-85728571D01*
X116288095Y-85823809D01*
X116288095Y-86061904D01*
X116335714Y-86157142D01*
X116383333Y-86204761D01*
X116478571Y-86252380D01*
X116716666Y-86252380D01*
X116811904Y-86204761D01*
X116859523Y-86157142D01*
G04 #@! TO.C,D16*
X114514285Y-86252380D02*
X114514285Y-85252380D01*
X114276190Y-85252380D01*
X114133333Y-85300000D01*
X114038095Y-85395238D01*
X113990476Y-85490476D01*
X113942857Y-85680952D01*
X113942857Y-85823809D01*
X113990476Y-86014285D01*
X114038095Y-86109523D01*
X114133333Y-86204761D01*
X114276190Y-86252380D01*
X114514285Y-86252380D01*
X112990476Y-86252380D02*
X113561904Y-86252380D01*
X113276190Y-86252380D02*
X113276190Y-85252380D01*
X113371428Y-85395238D01*
X113466666Y-85490476D01*
X113561904Y-85538095D01*
X112133333Y-85252380D02*
X112323809Y-85252380D01*
X112419047Y-85300000D01*
X112466666Y-85347619D01*
X112561904Y-85490476D01*
X112609523Y-85680952D01*
X112609523Y-86061904D01*
X112561904Y-86157142D01*
X112514285Y-86204761D01*
X112419047Y-86252380D01*
X112228571Y-86252380D01*
X112133333Y-86204761D01*
X112085714Y-86157142D01*
X112038095Y-86061904D01*
X112038095Y-85823809D01*
X112085714Y-85728571D01*
X112133333Y-85680952D01*
X112228571Y-85633333D01*
X112419047Y-85633333D01*
X112514285Y-85680952D01*
X112561904Y-85728571D01*
X112609523Y-85823809D01*
G04 #@! TO.C,D17*
X114464285Y-90452380D02*
X114464285Y-89452380D01*
X114226190Y-89452380D01*
X114083333Y-89500000D01*
X113988095Y-89595238D01*
X113940476Y-89690476D01*
X113892857Y-89880952D01*
X113892857Y-90023809D01*
X113940476Y-90214285D01*
X113988095Y-90309523D01*
X114083333Y-90404761D01*
X114226190Y-90452380D01*
X114464285Y-90452380D01*
X112940476Y-90452380D02*
X113511904Y-90452380D01*
X113226190Y-90452380D02*
X113226190Y-89452380D01*
X113321428Y-89595238D01*
X113416666Y-89690476D01*
X113511904Y-89738095D01*
X112607142Y-89452380D02*
X111940476Y-89452380D01*
X112369047Y-90452380D01*
G04 #@! TO.C,D18*
X114614285Y-93952380D02*
X114614285Y-92952380D01*
X114376190Y-92952380D01*
X114233333Y-93000000D01*
X114138095Y-93095238D01*
X114090476Y-93190476D01*
X114042857Y-93380952D01*
X114042857Y-93523809D01*
X114090476Y-93714285D01*
X114138095Y-93809523D01*
X114233333Y-93904761D01*
X114376190Y-93952380D01*
X114614285Y-93952380D01*
X113090476Y-93952380D02*
X113661904Y-93952380D01*
X113376190Y-93952380D02*
X113376190Y-92952380D01*
X113471428Y-93095238D01*
X113566666Y-93190476D01*
X113661904Y-93238095D01*
X112519047Y-93380952D02*
X112614285Y-93333333D01*
X112661904Y-93285714D01*
X112709523Y-93190476D01*
X112709523Y-93142857D01*
X112661904Y-93047619D01*
X112614285Y-93000000D01*
X112519047Y-92952380D01*
X112328571Y-92952380D01*
X112233333Y-93000000D01*
X112185714Y-93047619D01*
X112138095Y-93142857D01*
X112138095Y-93190476D01*
X112185714Y-93285714D01*
X112233333Y-93333333D01*
X112328571Y-93380952D01*
X112519047Y-93380952D01*
X112614285Y-93428571D01*
X112661904Y-93476190D01*
X112709523Y-93571428D01*
X112709523Y-93761904D01*
X112661904Y-93857142D01*
X112614285Y-93904761D01*
X112519047Y-93952380D01*
X112328571Y-93952380D01*
X112233333Y-93904761D01*
X112185714Y-93857142D01*
X112138095Y-93761904D01*
X112138095Y-93571428D01*
X112185714Y-93476190D01*
X112233333Y-93428571D01*
X112328571Y-93380952D01*
G04 #@! TO.C,D19*
X114652380Y-96585714D02*
X113652380Y-96585714D01*
X113652380Y-96823809D01*
X113700000Y-96966666D01*
X113795238Y-97061904D01*
X113890476Y-97109523D01*
X114080952Y-97157142D01*
X114223809Y-97157142D01*
X114414285Y-97109523D01*
X114509523Y-97061904D01*
X114604761Y-96966666D01*
X114652380Y-96823809D01*
X114652380Y-96585714D01*
X114652380Y-98109523D02*
X114652380Y-97538095D01*
X114652380Y-97823809D02*
X113652380Y-97823809D01*
X113795238Y-97728571D01*
X113890476Y-97633333D01*
X113938095Y-97538095D01*
X114652380Y-98585714D02*
X114652380Y-98776190D01*
X114604761Y-98871428D01*
X114557142Y-98919047D01*
X114414285Y-99014285D01*
X114223809Y-99061904D01*
X113842857Y-99061904D01*
X113747619Y-99014285D01*
X113700000Y-98966666D01*
X113652380Y-98871428D01*
X113652380Y-98680952D01*
X113700000Y-98585714D01*
X113747619Y-98538095D01*
X113842857Y-98490476D01*
X114080952Y-98490476D01*
X114176190Y-98538095D01*
X114223809Y-98585714D01*
X114271428Y-98680952D01*
X114271428Y-98871428D01*
X114223809Y-98966666D01*
X114176190Y-99014285D01*
X114080952Y-99061904D01*
G04 #@! TO.C,D20*
X114852380Y-103785714D02*
X113852380Y-103785714D01*
X113852380Y-104023809D01*
X113900000Y-104166666D01*
X113995238Y-104261904D01*
X114090476Y-104309523D01*
X114280952Y-104357142D01*
X114423809Y-104357142D01*
X114614285Y-104309523D01*
X114709523Y-104261904D01*
X114804761Y-104166666D01*
X114852380Y-104023809D01*
X114852380Y-103785714D01*
X113947619Y-104738095D02*
X113900000Y-104785714D01*
X113852380Y-104880952D01*
X113852380Y-105119047D01*
X113900000Y-105214285D01*
X113947619Y-105261904D01*
X114042857Y-105309523D01*
X114138095Y-105309523D01*
X114280952Y-105261904D01*
X114852380Y-104690476D01*
X114852380Y-105309523D01*
X113852380Y-105928571D02*
X113852380Y-106023809D01*
X113900000Y-106119047D01*
X113947619Y-106166666D01*
X114042857Y-106214285D01*
X114233333Y-106261904D01*
X114471428Y-106261904D01*
X114661904Y-106214285D01*
X114757142Y-106166666D01*
X114804761Y-106119047D01*
X114852380Y-106023809D01*
X114852380Y-105928571D01*
X114804761Y-105833333D01*
X114757142Y-105785714D01*
X114661904Y-105738095D01*
X114471428Y-105690476D01*
X114233333Y-105690476D01*
X114042857Y-105738095D01*
X113947619Y-105785714D01*
X113900000Y-105833333D01*
X113852380Y-105928571D01*
G04 #@! TO.C,D21*
X114952380Y-108585714D02*
X113952380Y-108585714D01*
X113952380Y-108823809D01*
X114000000Y-108966666D01*
X114095238Y-109061904D01*
X114190476Y-109109523D01*
X114380952Y-109157142D01*
X114523809Y-109157142D01*
X114714285Y-109109523D01*
X114809523Y-109061904D01*
X114904761Y-108966666D01*
X114952380Y-108823809D01*
X114952380Y-108585714D01*
X114047619Y-109538095D02*
X114000000Y-109585714D01*
X113952380Y-109680952D01*
X113952380Y-109919047D01*
X114000000Y-110014285D01*
X114047619Y-110061904D01*
X114142857Y-110109523D01*
X114238095Y-110109523D01*
X114380952Y-110061904D01*
X114952380Y-109490476D01*
X114952380Y-110109523D01*
X114952380Y-111061904D02*
X114952380Y-110490476D01*
X114952380Y-110776190D02*
X113952380Y-110776190D01*
X114095238Y-110680952D01*
X114190476Y-110585714D01*
X114238095Y-110490476D01*
G04 #@! TO.C,D22*
X114514285Y-114452380D02*
X114514285Y-113452380D01*
X114276190Y-113452380D01*
X114133333Y-113500000D01*
X114038095Y-113595238D01*
X113990476Y-113690476D01*
X113942857Y-113880952D01*
X113942857Y-114023809D01*
X113990476Y-114214285D01*
X114038095Y-114309523D01*
X114133333Y-114404761D01*
X114276190Y-114452380D01*
X114514285Y-114452380D01*
X113561904Y-113547619D02*
X113514285Y-113500000D01*
X113419047Y-113452380D01*
X113180952Y-113452380D01*
X113085714Y-113500000D01*
X113038095Y-113547619D01*
X112990476Y-113642857D01*
X112990476Y-113738095D01*
X113038095Y-113880952D01*
X113609523Y-114452380D01*
X112990476Y-114452380D01*
X112609523Y-113547619D02*
X112561904Y-113500000D01*
X112466666Y-113452380D01*
X112228571Y-113452380D01*
X112133333Y-113500000D01*
X112085714Y-113547619D01*
X112038095Y-113642857D01*
X112038095Y-113738095D01*
X112085714Y-113880952D01*
X112657142Y-114452380D01*
X112038095Y-114452380D01*
G04 #@! TO.C,D23*
X120214285Y-116952380D02*
X120214285Y-115952380D01*
X119976190Y-115952380D01*
X119833333Y-116000000D01*
X119738095Y-116095238D01*
X119690476Y-116190476D01*
X119642857Y-116380952D01*
X119642857Y-116523809D01*
X119690476Y-116714285D01*
X119738095Y-116809523D01*
X119833333Y-116904761D01*
X119976190Y-116952380D01*
X120214285Y-116952380D01*
X119261904Y-116047619D02*
X119214285Y-116000000D01*
X119119047Y-115952380D01*
X118880952Y-115952380D01*
X118785714Y-116000000D01*
X118738095Y-116047619D01*
X118690476Y-116142857D01*
X118690476Y-116238095D01*
X118738095Y-116380952D01*
X119309523Y-116952380D01*
X118690476Y-116952380D01*
X118357142Y-115952380D02*
X117738095Y-115952380D01*
X118071428Y-116333333D01*
X117928571Y-116333333D01*
X117833333Y-116380952D01*
X117785714Y-116428571D01*
X117738095Y-116523809D01*
X117738095Y-116761904D01*
X117785714Y-116857142D01*
X117833333Y-116904761D01*
X117928571Y-116952380D01*
X118214285Y-116952380D01*
X118309523Y-116904761D01*
X118357142Y-116857142D01*
G04 #@! TO.C,D24*
X120214285Y-120452380D02*
X120214285Y-119452380D01*
X119976190Y-119452380D01*
X119833333Y-119500000D01*
X119738095Y-119595238D01*
X119690476Y-119690476D01*
X119642857Y-119880952D01*
X119642857Y-120023809D01*
X119690476Y-120214285D01*
X119738095Y-120309523D01*
X119833333Y-120404761D01*
X119976190Y-120452380D01*
X120214285Y-120452380D01*
X119261904Y-119547619D02*
X119214285Y-119500000D01*
X119119047Y-119452380D01*
X118880952Y-119452380D01*
X118785714Y-119500000D01*
X118738095Y-119547619D01*
X118690476Y-119642857D01*
X118690476Y-119738095D01*
X118738095Y-119880952D01*
X119309523Y-120452380D01*
X118690476Y-120452380D01*
X117833333Y-119785714D02*
X117833333Y-120452380D01*
X118071428Y-119404761D02*
X118309523Y-120119047D01*
X117690476Y-120119047D01*
G04 #@! TO.C,U1*
X119761904Y-117452380D02*
X119761904Y-118261904D01*
X119714285Y-118357142D01*
X119666666Y-118404761D01*
X119571428Y-118452380D01*
X119380952Y-118452380D01*
X119285714Y-118404761D01*
X119238095Y-118357142D01*
X119190476Y-118261904D01*
X119190476Y-117452380D01*
X118190476Y-118452380D02*
X118761904Y-118452380D01*
X118476190Y-118452380D02*
X118476190Y-117452380D01*
X118571428Y-117595238D01*
X118666666Y-117690476D01*
X118761904Y-117738095D01*
G04 #@! TO.C,SW1*
X111333333Y-100904761D02*
X111190476Y-100952380D01*
X110952380Y-100952380D01*
X110857142Y-100904761D01*
X110809523Y-100857142D01*
X110761904Y-100761904D01*
X110761904Y-100666666D01*
X110809523Y-100571428D01*
X110857142Y-100523809D01*
X110952380Y-100476190D01*
X111142857Y-100428571D01*
X111238095Y-100380952D01*
X111285714Y-100333333D01*
X111333333Y-100238095D01*
X111333333Y-100142857D01*
X111285714Y-100047619D01*
X111238095Y-100000000D01*
X111142857Y-99952380D01*
X110904761Y-99952380D01*
X110761904Y-100000000D01*
X110428571Y-99952380D02*
X110190476Y-100952380D01*
X110000000Y-100238095D01*
X109809523Y-100952380D01*
X109571428Y-99952380D01*
X108666666Y-100952380D02*
X109238095Y-100952380D01*
X108952380Y-100952380D02*
X108952380Y-99952380D01*
X109047619Y-100095238D01*
X109142857Y-100190476D01*
X109238095Y-100238095D01*
G04 #@! TO.C,D25*
X114464285Y-122452380D02*
X114464285Y-121452380D01*
X114226190Y-121452380D01*
X114083333Y-121500000D01*
X113988095Y-121595238D01*
X113940476Y-121690476D01*
X113892857Y-121880952D01*
X113892857Y-122023809D01*
X113940476Y-122214285D01*
X113988095Y-122309523D01*
X114083333Y-122404761D01*
X114226190Y-122452380D01*
X114464285Y-122452380D01*
X113511904Y-121547619D02*
X113464285Y-121500000D01*
X113369047Y-121452380D01*
X113130952Y-121452380D01*
X113035714Y-121500000D01*
X112988095Y-121547619D01*
X112940476Y-121642857D01*
X112940476Y-121738095D01*
X112988095Y-121880952D01*
X113559523Y-122452380D01*
X112940476Y-122452380D01*
X112035714Y-121452380D02*
X112511904Y-121452380D01*
X112559523Y-121928571D01*
X112511904Y-121880952D01*
X112416666Y-121833333D01*
X112178571Y-121833333D01*
X112083333Y-121880952D01*
X112035714Y-121928571D01*
X111988095Y-122023809D01*
X111988095Y-122261904D01*
X112035714Y-122357142D01*
X112083333Y-122404761D01*
X112178571Y-122452380D01*
X112416666Y-122452380D01*
X112511904Y-122404761D01*
X112559523Y-122357142D01*
G04 #@! TO.C,D26*
X108214285Y-122452380D02*
X108214285Y-121452380D01*
X107976190Y-121452380D01*
X107833333Y-121500000D01*
X107738095Y-121595238D01*
X107690476Y-121690476D01*
X107642857Y-121880952D01*
X107642857Y-122023809D01*
X107690476Y-122214285D01*
X107738095Y-122309523D01*
X107833333Y-122404761D01*
X107976190Y-122452380D01*
X108214285Y-122452380D01*
X107261904Y-121547619D02*
X107214285Y-121500000D01*
X107119047Y-121452380D01*
X106880952Y-121452380D01*
X106785714Y-121500000D01*
X106738095Y-121547619D01*
X106690476Y-121642857D01*
X106690476Y-121738095D01*
X106738095Y-121880952D01*
X107309523Y-122452380D01*
X106690476Y-122452380D01*
X105833333Y-121452380D02*
X106023809Y-121452380D01*
X106119047Y-121500000D01*
X106166666Y-121547619D01*
X106261904Y-121690476D01*
X106309523Y-121880952D01*
X106309523Y-122261904D01*
X106261904Y-122357142D01*
X106214285Y-122404761D01*
X106119047Y-122452380D01*
X105928571Y-122452380D01*
X105833333Y-122404761D01*
X105785714Y-122357142D01*
X105738095Y-122261904D01*
X105738095Y-122023809D01*
X105785714Y-121928571D01*
X105833333Y-121880952D01*
X105928571Y-121833333D01*
X106119047Y-121833333D01*
X106214285Y-121880952D01*
X106261904Y-121928571D01*
X106309523Y-122023809D01*
G04 #@! TO.C,D27*
X102964285Y-122452380D02*
X102964285Y-121452380D01*
X102726190Y-121452380D01*
X102583333Y-121500000D01*
X102488095Y-121595238D01*
X102440476Y-121690476D01*
X102392857Y-121880952D01*
X102392857Y-122023809D01*
X102440476Y-122214285D01*
X102488095Y-122309523D01*
X102583333Y-122404761D01*
X102726190Y-122452380D01*
X102964285Y-122452380D01*
X102011904Y-121547619D02*
X101964285Y-121500000D01*
X101869047Y-121452380D01*
X101630952Y-121452380D01*
X101535714Y-121500000D01*
X101488095Y-121547619D01*
X101440476Y-121642857D01*
X101440476Y-121738095D01*
X101488095Y-121880952D01*
X102059523Y-122452380D01*
X101440476Y-122452380D01*
X101107142Y-121452380D02*
X100440476Y-121452380D01*
X100869047Y-122452380D01*
G04 #@! TO.C,D28*
X102864285Y-114452380D02*
X102864285Y-113452380D01*
X102626190Y-113452380D01*
X102483333Y-113500000D01*
X102388095Y-113595238D01*
X102340476Y-113690476D01*
X102292857Y-113880952D01*
X102292857Y-114023809D01*
X102340476Y-114214285D01*
X102388095Y-114309523D01*
X102483333Y-114404761D01*
X102626190Y-114452380D01*
X102864285Y-114452380D01*
X101911904Y-113547619D02*
X101864285Y-113500000D01*
X101769047Y-113452380D01*
X101530952Y-113452380D01*
X101435714Y-113500000D01*
X101388095Y-113547619D01*
X101340476Y-113642857D01*
X101340476Y-113738095D01*
X101388095Y-113880952D01*
X101959523Y-114452380D01*
X101340476Y-114452380D01*
X100769047Y-113880952D02*
X100864285Y-113833333D01*
X100911904Y-113785714D01*
X100959523Y-113690476D01*
X100959523Y-113642857D01*
X100911904Y-113547619D01*
X100864285Y-113500000D01*
X100769047Y-113452380D01*
X100578571Y-113452380D01*
X100483333Y-113500000D01*
X100435714Y-113547619D01*
X100388095Y-113642857D01*
X100388095Y-113690476D01*
X100435714Y-113785714D01*
X100483333Y-113833333D01*
X100578571Y-113880952D01*
X100769047Y-113880952D01*
X100864285Y-113928571D01*
X100911904Y-113976190D01*
X100959523Y-114071428D01*
X100959523Y-114261904D01*
X100911904Y-114357142D01*
X100864285Y-114404761D01*
X100769047Y-114452380D01*
X100578571Y-114452380D01*
X100483333Y-114404761D01*
X100435714Y-114357142D01*
X100388095Y-114261904D01*
X100388095Y-114071428D01*
X100435714Y-113976190D01*
X100483333Y-113928571D01*
X100578571Y-113880952D01*
G04 #@! TO.C,D29*
X107414285Y-114452380D02*
X107414285Y-113452380D01*
X107176190Y-113452380D01*
X107033333Y-113500000D01*
X106938095Y-113595238D01*
X106890476Y-113690476D01*
X106842857Y-113880952D01*
X106842857Y-114023809D01*
X106890476Y-114214285D01*
X106938095Y-114309523D01*
X107033333Y-114404761D01*
X107176190Y-114452380D01*
X107414285Y-114452380D01*
X106461904Y-113547619D02*
X106414285Y-113500000D01*
X106319047Y-113452380D01*
X106080952Y-113452380D01*
X105985714Y-113500000D01*
X105938095Y-113547619D01*
X105890476Y-113642857D01*
X105890476Y-113738095D01*
X105938095Y-113880952D01*
X106509523Y-114452380D01*
X105890476Y-114452380D01*
X105414285Y-114452380D02*
X105223809Y-114452380D01*
X105128571Y-114404761D01*
X105080952Y-114357142D01*
X104985714Y-114214285D01*
X104938095Y-114023809D01*
X104938095Y-113642857D01*
X104985714Y-113547619D01*
X105033333Y-113500000D01*
X105128571Y-113452380D01*
X105319047Y-113452380D01*
X105414285Y-113500000D01*
X105461904Y-113547619D01*
X105509523Y-113642857D01*
X105509523Y-113880952D01*
X105461904Y-113976190D01*
X105414285Y-114023809D01*
X105319047Y-114071428D01*
X105128571Y-114071428D01*
X105033333Y-114023809D01*
X104985714Y-113976190D01*
X104938095Y-113880952D01*
G04 #@! TO.C,D30*
X106252380Y-108585714D02*
X105252380Y-108585714D01*
X105252380Y-108823809D01*
X105300000Y-108966666D01*
X105395238Y-109061904D01*
X105490476Y-109109523D01*
X105680952Y-109157142D01*
X105823809Y-109157142D01*
X106014285Y-109109523D01*
X106109523Y-109061904D01*
X106204761Y-108966666D01*
X106252380Y-108823809D01*
X106252380Y-108585714D01*
X105252380Y-109490476D02*
X105252380Y-110109523D01*
X105633333Y-109776190D01*
X105633333Y-109919047D01*
X105680952Y-110014285D01*
X105728571Y-110061904D01*
X105823809Y-110109523D01*
X106061904Y-110109523D01*
X106157142Y-110061904D01*
X106204761Y-110014285D01*
X106252380Y-109919047D01*
X106252380Y-109633333D01*
X106204761Y-109538095D01*
X106157142Y-109490476D01*
X105252380Y-110728571D02*
X105252380Y-110823809D01*
X105300000Y-110919047D01*
X105347619Y-110966666D01*
X105442857Y-111014285D01*
X105633333Y-111061904D01*
X105871428Y-111061904D01*
X106061904Y-111014285D01*
X106157142Y-110966666D01*
X106204761Y-110919047D01*
X106252380Y-110823809D01*
X106252380Y-110728571D01*
X106204761Y-110633333D01*
X106157142Y-110585714D01*
X106061904Y-110538095D01*
X105871428Y-110490476D01*
X105633333Y-110490476D01*
X105442857Y-110538095D01*
X105347619Y-110585714D01*
X105300000Y-110633333D01*
X105252380Y-110728571D01*
G04 #@! TO.C,D31*
X106252380Y-103985714D02*
X105252380Y-103985714D01*
X105252380Y-104223809D01*
X105300000Y-104366666D01*
X105395238Y-104461904D01*
X105490476Y-104509523D01*
X105680952Y-104557142D01*
X105823809Y-104557142D01*
X106014285Y-104509523D01*
X106109523Y-104461904D01*
X106204761Y-104366666D01*
X106252380Y-104223809D01*
X106252380Y-103985714D01*
X105252380Y-104890476D02*
X105252380Y-105509523D01*
X105633333Y-105176190D01*
X105633333Y-105319047D01*
X105680952Y-105414285D01*
X105728571Y-105461904D01*
X105823809Y-105509523D01*
X106061904Y-105509523D01*
X106157142Y-105461904D01*
X106204761Y-105414285D01*
X106252380Y-105319047D01*
X106252380Y-105033333D01*
X106204761Y-104938095D01*
X106157142Y-104890476D01*
X106252380Y-106461904D02*
X106252380Y-105890476D01*
X106252380Y-106176190D02*
X105252380Y-106176190D01*
X105395238Y-106080952D01*
X105490476Y-105985714D01*
X105538095Y-105890476D01*
G04 #@! TO.C,D32*
X106452380Y-96535714D02*
X105452380Y-96535714D01*
X105452380Y-96773809D01*
X105500000Y-96916666D01*
X105595238Y-97011904D01*
X105690476Y-97059523D01*
X105880952Y-97107142D01*
X106023809Y-97107142D01*
X106214285Y-97059523D01*
X106309523Y-97011904D01*
X106404761Y-96916666D01*
X106452380Y-96773809D01*
X106452380Y-96535714D01*
X105452380Y-97440476D02*
X105452380Y-98059523D01*
X105833333Y-97726190D01*
X105833333Y-97869047D01*
X105880952Y-97964285D01*
X105928571Y-98011904D01*
X106023809Y-98059523D01*
X106261904Y-98059523D01*
X106357142Y-98011904D01*
X106404761Y-97964285D01*
X106452380Y-97869047D01*
X106452380Y-97583333D01*
X106404761Y-97488095D01*
X106357142Y-97440476D01*
X105547619Y-98440476D02*
X105500000Y-98488095D01*
X105452380Y-98583333D01*
X105452380Y-98821428D01*
X105500000Y-98916666D01*
X105547619Y-98964285D01*
X105642857Y-99011904D01*
X105738095Y-99011904D01*
X105880952Y-98964285D01*
X106452380Y-98392857D01*
X106452380Y-99011904D01*
G04 #@! TO.C,D33*
X108214285Y-93952380D02*
X108214285Y-92952380D01*
X107976190Y-92952380D01*
X107833333Y-93000000D01*
X107738095Y-93095238D01*
X107690476Y-93190476D01*
X107642857Y-93380952D01*
X107642857Y-93523809D01*
X107690476Y-93714285D01*
X107738095Y-93809523D01*
X107833333Y-93904761D01*
X107976190Y-93952380D01*
X108214285Y-93952380D01*
X107309523Y-92952380D02*
X106690476Y-92952380D01*
X107023809Y-93333333D01*
X106880952Y-93333333D01*
X106785714Y-93380952D01*
X106738095Y-93428571D01*
X106690476Y-93523809D01*
X106690476Y-93761904D01*
X106738095Y-93857142D01*
X106785714Y-93904761D01*
X106880952Y-93952380D01*
X107166666Y-93952380D01*
X107261904Y-93904761D01*
X107309523Y-93857142D01*
X106357142Y-92952380D02*
X105738095Y-92952380D01*
X106071428Y-93333333D01*
X105928571Y-93333333D01*
X105833333Y-93380952D01*
X105785714Y-93428571D01*
X105738095Y-93523809D01*
X105738095Y-93761904D01*
X105785714Y-93857142D01*
X105833333Y-93904761D01*
X105928571Y-93952380D01*
X106214285Y-93952380D01*
X106309523Y-93904761D01*
X106357142Y-93857142D01*
G04 #@! TO.C,D34*
X108164285Y-90452380D02*
X108164285Y-89452380D01*
X107926190Y-89452380D01*
X107783333Y-89500000D01*
X107688095Y-89595238D01*
X107640476Y-89690476D01*
X107592857Y-89880952D01*
X107592857Y-90023809D01*
X107640476Y-90214285D01*
X107688095Y-90309523D01*
X107783333Y-90404761D01*
X107926190Y-90452380D01*
X108164285Y-90452380D01*
X107259523Y-89452380D02*
X106640476Y-89452380D01*
X106973809Y-89833333D01*
X106830952Y-89833333D01*
X106735714Y-89880952D01*
X106688095Y-89928571D01*
X106640476Y-90023809D01*
X106640476Y-90261904D01*
X106688095Y-90357142D01*
X106735714Y-90404761D01*
X106830952Y-90452380D01*
X107116666Y-90452380D01*
X107211904Y-90404761D01*
X107259523Y-90357142D01*
X105783333Y-89785714D02*
X105783333Y-90452380D01*
X106021428Y-89404761D02*
X106259523Y-90119047D01*
X105640476Y-90119047D01*
G04 #@! TO.C,D35*
X108164285Y-86252380D02*
X108164285Y-85252380D01*
X107926190Y-85252380D01*
X107783333Y-85300000D01*
X107688095Y-85395238D01*
X107640476Y-85490476D01*
X107592857Y-85680952D01*
X107592857Y-85823809D01*
X107640476Y-86014285D01*
X107688095Y-86109523D01*
X107783333Y-86204761D01*
X107926190Y-86252380D01*
X108164285Y-86252380D01*
X107259523Y-85252380D02*
X106640476Y-85252380D01*
X106973809Y-85633333D01*
X106830952Y-85633333D01*
X106735714Y-85680952D01*
X106688095Y-85728571D01*
X106640476Y-85823809D01*
X106640476Y-86061904D01*
X106688095Y-86157142D01*
X106735714Y-86204761D01*
X106830952Y-86252380D01*
X107116666Y-86252380D01*
X107211904Y-86204761D01*
X107259523Y-86157142D01*
X105735714Y-85252380D02*
X106211904Y-85252380D01*
X106259523Y-85728571D01*
X106211904Y-85680952D01*
X106116666Y-85633333D01*
X105878571Y-85633333D01*
X105783333Y-85680952D01*
X105735714Y-85728571D01*
X105688095Y-85823809D01*
X105688095Y-86061904D01*
X105735714Y-86157142D01*
X105783333Y-86204761D01*
X105878571Y-86252380D01*
X106116666Y-86252380D01*
X106211904Y-86204761D01*
X106259523Y-86157142D01*
G04 #@! TO.C,D36*
X103864285Y-86252380D02*
X103864285Y-85252380D01*
X103626190Y-85252380D01*
X103483333Y-85300000D01*
X103388095Y-85395238D01*
X103340476Y-85490476D01*
X103292857Y-85680952D01*
X103292857Y-85823809D01*
X103340476Y-86014285D01*
X103388095Y-86109523D01*
X103483333Y-86204761D01*
X103626190Y-86252380D01*
X103864285Y-86252380D01*
X102959523Y-85252380D02*
X102340476Y-85252380D01*
X102673809Y-85633333D01*
X102530952Y-85633333D01*
X102435714Y-85680952D01*
X102388095Y-85728571D01*
X102340476Y-85823809D01*
X102340476Y-86061904D01*
X102388095Y-86157142D01*
X102435714Y-86204761D01*
X102530952Y-86252380D01*
X102816666Y-86252380D01*
X102911904Y-86204761D01*
X102959523Y-86157142D01*
X101483333Y-85252380D02*
X101673809Y-85252380D01*
X101769047Y-85300000D01*
X101816666Y-85347619D01*
X101911904Y-85490476D01*
X101959523Y-85680952D01*
X101959523Y-86061904D01*
X101911904Y-86157142D01*
X101864285Y-86204761D01*
X101769047Y-86252380D01*
X101578571Y-86252380D01*
X101483333Y-86204761D01*
X101435714Y-86157142D01*
X101388095Y-86061904D01*
X101388095Y-85823809D01*
X101435714Y-85728571D01*
X101483333Y-85680952D01*
X101578571Y-85633333D01*
X101769047Y-85633333D01*
X101864285Y-85680952D01*
X101911904Y-85728571D01*
X101959523Y-85823809D01*
G04 #@! TO.C,D37*
X99852380Y-84985714D02*
X98852380Y-84985714D01*
X98852380Y-85223809D01*
X98900000Y-85366666D01*
X98995238Y-85461904D01*
X99090476Y-85509523D01*
X99280952Y-85557142D01*
X99423809Y-85557142D01*
X99614285Y-85509523D01*
X99709523Y-85461904D01*
X99804761Y-85366666D01*
X99852380Y-85223809D01*
X99852380Y-84985714D01*
X98852380Y-85890476D02*
X98852380Y-86509523D01*
X99233333Y-86176190D01*
X99233333Y-86319047D01*
X99280952Y-86414285D01*
X99328571Y-86461904D01*
X99423809Y-86509523D01*
X99661904Y-86509523D01*
X99757142Y-86461904D01*
X99804761Y-86414285D01*
X99852380Y-86319047D01*
X99852380Y-86033333D01*
X99804761Y-85938095D01*
X99757142Y-85890476D01*
X98852380Y-86842857D02*
X98852380Y-87509523D01*
X99852380Y-87080952D01*
G04 #@! TO.C,D38*
X99852380Y-89785714D02*
X98852380Y-89785714D01*
X98852380Y-90023809D01*
X98900000Y-90166666D01*
X98995238Y-90261904D01*
X99090476Y-90309523D01*
X99280952Y-90357142D01*
X99423809Y-90357142D01*
X99614285Y-90309523D01*
X99709523Y-90261904D01*
X99804761Y-90166666D01*
X99852380Y-90023809D01*
X99852380Y-89785714D01*
X98852380Y-90690476D02*
X98852380Y-91309523D01*
X99233333Y-90976190D01*
X99233333Y-91119047D01*
X99280952Y-91214285D01*
X99328571Y-91261904D01*
X99423809Y-91309523D01*
X99661904Y-91309523D01*
X99757142Y-91261904D01*
X99804761Y-91214285D01*
X99852380Y-91119047D01*
X99852380Y-90833333D01*
X99804761Y-90738095D01*
X99757142Y-90690476D01*
X99280952Y-91880952D02*
X99233333Y-91785714D01*
X99185714Y-91738095D01*
X99090476Y-91690476D01*
X99042857Y-91690476D01*
X98947619Y-91738095D01*
X98900000Y-91785714D01*
X98852380Y-91880952D01*
X98852380Y-92071428D01*
X98900000Y-92166666D01*
X98947619Y-92214285D01*
X99042857Y-92261904D01*
X99090476Y-92261904D01*
X99185714Y-92214285D01*
X99233333Y-92166666D01*
X99280952Y-92071428D01*
X99280952Y-91880952D01*
X99328571Y-91785714D01*
X99376190Y-91738095D01*
X99471428Y-91690476D01*
X99661904Y-91690476D01*
X99757142Y-91738095D01*
X99804761Y-91785714D01*
X99852380Y-91880952D01*
X99852380Y-92071428D01*
X99804761Y-92166666D01*
X99757142Y-92214285D01*
X99661904Y-92261904D01*
X99471428Y-92261904D01*
X99376190Y-92214285D01*
X99328571Y-92166666D01*
X99280952Y-92071428D01*
G04 #@! TO.C,J1*
X111583333Y-79328480D02*
X111583333Y-80042766D01*
X111630952Y-80185623D01*
X111726190Y-80280861D01*
X111869047Y-80328480D01*
X111964285Y-80328480D01*
X110583333Y-80328480D02*
X111154761Y-80328480D01*
X110869047Y-80328480D02*
X110869047Y-79328480D01*
X110964285Y-79471338D01*
X111059523Y-79566576D01*
X111154761Y-79614195D01*
X119680952Y-81897528D02*
X118919047Y-81897528D01*
X119300000Y-82278480D02*
X119300000Y-81516576D01*
X111680952Y-78397528D02*
X110919047Y-78397528D01*
X103680952Y-81897528D02*
X102919047Y-81897528D01*
X103300000Y-82278480D02*
X103300000Y-81516576D01*
G04 #@! TO.C,J2*
X102933333Y-115452380D02*
X102933333Y-116166666D01*
X102980952Y-116309523D01*
X103076190Y-116404761D01*
X103219047Y-116452380D01*
X103314285Y-116452380D01*
X102504761Y-115547619D02*
X102457142Y-115500000D01*
X102361904Y-115452380D01*
X102123809Y-115452380D01*
X102028571Y-115500000D01*
X101980952Y-115547619D01*
X101933333Y-115642857D01*
X101933333Y-115738095D01*
X101980952Y-115880952D01*
X102552380Y-116452380D01*
X101933333Y-116452380D01*
G04 #@! TO.C,U3*
D14*
X126229501Y-90092857D02*
X125855588Y-90092857D01*
X126095961Y-90653726D01*
X125401551Y-90279813D02*
X125401551Y-90653726D01*
X125535092Y-90066149D02*
X125668632Y-90466770D01*
X125321427Y-90466770D01*
X125107763Y-90653726D02*
X125107763Y-90092857D01*
X125107763Y-90359937D02*
X124787266Y-90359937D01*
X124787266Y-90653726D02*
X124787266Y-90092857D01*
X124199689Y-90600310D02*
X124226397Y-90627018D01*
X124306521Y-90653726D01*
X124359937Y-90653726D01*
X124440062Y-90627018D01*
X124493478Y-90573602D01*
X124520186Y-90520186D01*
X124546894Y-90413354D01*
X124546894Y-90333229D01*
X124520186Y-90226397D01*
X124493478Y-90172981D01*
X124440062Y-90119565D01*
X124359937Y-90092857D01*
X124306521Y-90092857D01*
X124226397Y-90119565D01*
X124199689Y-90146273D01*
X123692236Y-90092857D02*
X123959317Y-90092857D01*
X123986025Y-90359937D01*
X123959317Y-90333229D01*
X123905901Y-90306521D01*
X123772360Y-90306521D01*
X123718944Y-90333229D01*
X123692236Y-90359937D01*
X123665528Y-90413354D01*
X123665528Y-90546894D01*
X123692236Y-90600310D01*
X123718944Y-90627018D01*
X123772360Y-90653726D01*
X123905901Y-90653726D01*
X123959317Y-90627018D01*
X123986025Y-90600310D01*
X123398448Y-90653726D02*
X123291616Y-90653726D01*
X123238199Y-90627018D01*
X123211491Y-90600310D01*
X123158075Y-90520186D01*
X123131367Y-90413354D01*
X123131367Y-90199689D01*
X123158075Y-90146273D01*
X123184783Y-90119565D01*
X123238199Y-90092857D01*
X123345032Y-90092857D01*
X123398448Y-90119565D01*
X123425156Y-90146273D01*
X123451864Y-90199689D01*
X123451864Y-90333229D01*
X123425156Y-90386645D01*
X123398448Y-90413354D01*
X123345032Y-90440062D01*
X123238199Y-90440062D01*
X123184783Y-90413354D01*
X123158075Y-90386645D01*
X123131367Y-90333229D01*
X122623914Y-90092857D02*
X122890995Y-90092857D01*
X122917703Y-90359937D01*
X122890995Y-90333229D01*
X122837579Y-90306521D01*
X122704038Y-90306521D01*
X122650622Y-90333229D01*
X122623914Y-90359937D01*
X122597206Y-90413354D01*
X122597206Y-90546894D01*
X122623914Y-90600310D01*
X122650622Y-90627018D01*
X122704038Y-90653726D01*
X122837579Y-90653726D01*
X122890995Y-90627018D01*
X122917703Y-90600310D01*
G04 #@! TO.C,U4*
X111892857Y-109170498D02*
X111892857Y-109544411D01*
X112453726Y-109304038D01*
X112079813Y-109998448D02*
X112453726Y-109998448D01*
X111866149Y-109864907D02*
X112266770Y-109731367D01*
X112266770Y-110078572D01*
X112453726Y-110292236D02*
X111892857Y-110292236D01*
X112159937Y-110292236D02*
X112159937Y-110612733D01*
X112453726Y-110612733D02*
X111892857Y-110612733D01*
X112400310Y-111200310D02*
X112427018Y-111173602D01*
X112453726Y-111093478D01*
X112453726Y-111040062D01*
X112427018Y-110959937D01*
X112373602Y-110906521D01*
X112320186Y-110879813D01*
X112213354Y-110853105D01*
X112133229Y-110853105D01*
X112026397Y-110879813D01*
X111972981Y-110906521D01*
X111919565Y-110959937D01*
X111892857Y-111040062D01*
X111892857Y-111093478D01*
X111919565Y-111173602D01*
X111946273Y-111200310D01*
X111892857Y-111707763D02*
X111892857Y-111440682D01*
X112159937Y-111413974D01*
X112133229Y-111440682D01*
X112106521Y-111494098D01*
X112106521Y-111627639D01*
X112133229Y-111681055D01*
X112159937Y-111707763D01*
X112213354Y-111734471D01*
X112346894Y-111734471D01*
X112400310Y-111707763D01*
X112427018Y-111681055D01*
X112453726Y-111627639D01*
X112453726Y-111494098D01*
X112427018Y-111440682D01*
X112400310Y-111413974D01*
X112453726Y-112001551D02*
X112453726Y-112108383D01*
X112427018Y-112161800D01*
X112400310Y-112188508D01*
X112320186Y-112241924D01*
X112213354Y-112268632D01*
X111999689Y-112268632D01*
X111946273Y-112241924D01*
X111919565Y-112215216D01*
X111892857Y-112161800D01*
X111892857Y-112054967D01*
X111919565Y-112001551D01*
X111946273Y-111974843D01*
X111999689Y-111948135D01*
X112133229Y-111948135D01*
X112186645Y-111974843D01*
X112213354Y-112001551D01*
X112240062Y-112054967D01*
X112240062Y-112161800D01*
X112213354Y-112215216D01*
X112186645Y-112241924D01*
X112133229Y-112268632D01*
X111892857Y-112776085D02*
X111892857Y-112509004D01*
X112159937Y-112482296D01*
X112133229Y-112509004D01*
X112106521Y-112562420D01*
X112106521Y-112695961D01*
X112133229Y-112749377D01*
X112159937Y-112776085D01*
X112213354Y-112802793D01*
X112346894Y-112802793D01*
X112400310Y-112776085D01*
X112427018Y-112749377D01*
X112453726Y-112695961D01*
X112453726Y-112562420D01*
X112427018Y-112509004D01*
X112400310Y-112482296D01*
G04 #@! TO.C,U5*
X107292857Y-115870498D02*
X107292857Y-116244411D01*
X107853726Y-116004038D01*
X107479813Y-116698448D02*
X107853726Y-116698448D01*
X107266149Y-116564907D02*
X107666770Y-116431367D01*
X107666770Y-116778572D01*
X107853726Y-116992236D02*
X107292857Y-116992236D01*
X107559937Y-116992236D02*
X107559937Y-117312733D01*
X107853726Y-117312733D02*
X107292857Y-117312733D01*
X107800310Y-117900310D02*
X107827018Y-117873602D01*
X107853726Y-117793478D01*
X107853726Y-117740062D01*
X107827018Y-117659937D01*
X107773602Y-117606521D01*
X107720186Y-117579813D01*
X107613354Y-117553105D01*
X107533229Y-117553105D01*
X107426397Y-117579813D01*
X107372981Y-117606521D01*
X107319565Y-117659937D01*
X107292857Y-117740062D01*
X107292857Y-117793478D01*
X107319565Y-117873602D01*
X107346273Y-117900310D01*
X107292857Y-118407763D02*
X107292857Y-118140682D01*
X107559937Y-118113974D01*
X107533229Y-118140682D01*
X107506521Y-118194098D01*
X107506521Y-118327639D01*
X107533229Y-118381055D01*
X107559937Y-118407763D01*
X107613354Y-118434471D01*
X107746894Y-118434471D01*
X107800310Y-118407763D01*
X107827018Y-118381055D01*
X107853726Y-118327639D01*
X107853726Y-118194098D01*
X107827018Y-118140682D01*
X107800310Y-118113974D01*
X107853726Y-118701551D02*
X107853726Y-118808383D01*
X107827018Y-118861800D01*
X107800310Y-118888508D01*
X107720186Y-118941924D01*
X107613354Y-118968632D01*
X107399689Y-118968632D01*
X107346273Y-118941924D01*
X107319565Y-118915216D01*
X107292857Y-118861800D01*
X107292857Y-118754967D01*
X107319565Y-118701551D01*
X107346273Y-118674843D01*
X107399689Y-118648135D01*
X107533229Y-118648135D01*
X107586645Y-118674843D01*
X107613354Y-118701551D01*
X107640062Y-118754967D01*
X107640062Y-118861800D01*
X107613354Y-118915216D01*
X107586645Y-118941924D01*
X107533229Y-118968632D01*
X107292857Y-119476085D02*
X107292857Y-119209004D01*
X107559937Y-119182296D01*
X107533229Y-119209004D01*
X107506521Y-119262420D01*
X107506521Y-119395961D01*
X107533229Y-119449377D01*
X107559937Y-119476085D01*
X107613354Y-119502793D01*
X107746894Y-119502793D01*
X107800310Y-119476085D01*
X107827018Y-119449377D01*
X107853726Y-119395961D01*
X107853726Y-119262420D01*
X107827018Y-119209004D01*
X107800310Y-119182296D01*
G04 #@! TO.C,U6*
X97429501Y-90192857D02*
X97055588Y-90192857D01*
X97295961Y-90753726D01*
X96601551Y-90379813D02*
X96601551Y-90753726D01*
X96735092Y-90166149D02*
X96868632Y-90566770D01*
X96521427Y-90566770D01*
X96307763Y-90753726D02*
X96307763Y-90192857D01*
X96307763Y-90459937D02*
X95987266Y-90459937D01*
X95987266Y-90753726D02*
X95987266Y-90192857D01*
X95399689Y-90700310D02*
X95426397Y-90727018D01*
X95506521Y-90753726D01*
X95559937Y-90753726D01*
X95640062Y-90727018D01*
X95693478Y-90673602D01*
X95720186Y-90620186D01*
X95746894Y-90513354D01*
X95746894Y-90433229D01*
X95720186Y-90326397D01*
X95693478Y-90272981D01*
X95640062Y-90219565D01*
X95559937Y-90192857D01*
X95506521Y-90192857D01*
X95426397Y-90219565D01*
X95399689Y-90246273D01*
X94892236Y-90192857D02*
X95159317Y-90192857D01*
X95186025Y-90459937D01*
X95159317Y-90433229D01*
X95105901Y-90406521D01*
X94972360Y-90406521D01*
X94918944Y-90433229D01*
X94892236Y-90459937D01*
X94865528Y-90513354D01*
X94865528Y-90646894D01*
X94892236Y-90700310D01*
X94918944Y-90727018D01*
X94972360Y-90753726D01*
X95105901Y-90753726D01*
X95159317Y-90727018D01*
X95186025Y-90700310D01*
X94598448Y-90753726D02*
X94491616Y-90753726D01*
X94438199Y-90727018D01*
X94411491Y-90700310D01*
X94358075Y-90620186D01*
X94331367Y-90513354D01*
X94331367Y-90299689D01*
X94358075Y-90246273D01*
X94384783Y-90219565D01*
X94438199Y-90192857D01*
X94545032Y-90192857D01*
X94598448Y-90219565D01*
X94625156Y-90246273D01*
X94651864Y-90299689D01*
X94651864Y-90433229D01*
X94625156Y-90486645D01*
X94598448Y-90513354D01*
X94545032Y-90540062D01*
X94438199Y-90540062D01*
X94384783Y-90513354D01*
X94358075Y-90486645D01*
X94331367Y-90433229D01*
X93823914Y-90192857D02*
X94090995Y-90192857D01*
X94117703Y-90459937D01*
X94090995Y-90433229D01*
X94037579Y-90406521D01*
X93904038Y-90406521D01*
X93850622Y-90433229D01*
X93823914Y-90459937D01*
X93797206Y-90513354D01*
X93797206Y-90646894D01*
X93823914Y-90700310D01*
X93850622Y-90727018D01*
X93904038Y-90753726D01*
X94037579Y-90753726D01*
X94090995Y-90727018D01*
X94117703Y-90700310D01*
G04 #@! TO.C,POWER0*
D10*
X89035714Y-80652380D02*
X89035714Y-79652380D01*
X88654761Y-79652380D01*
X88559523Y-79700000D01*
X88511904Y-79747619D01*
X88464285Y-79842857D01*
X88464285Y-79985714D01*
X88511904Y-80080952D01*
X88559523Y-80128571D01*
X88654761Y-80176190D01*
X89035714Y-80176190D01*
X87845238Y-79652380D02*
X87654761Y-79652380D01*
X87559523Y-79700000D01*
X87464285Y-79795238D01*
X87416666Y-79985714D01*
X87416666Y-80319047D01*
X87464285Y-80509523D01*
X87559523Y-80604761D01*
X87654761Y-80652380D01*
X87845238Y-80652380D01*
X87940476Y-80604761D01*
X88035714Y-80509523D01*
X88083333Y-80319047D01*
X88083333Y-79985714D01*
X88035714Y-79795238D01*
X87940476Y-79700000D01*
X87845238Y-79652380D01*
X87083333Y-79652380D02*
X86845238Y-80652380D01*
X86654761Y-79938095D01*
X86464285Y-80652380D01*
X86226190Y-79652380D01*
X85845238Y-80128571D02*
X85511904Y-80128571D01*
X85369047Y-80652380D02*
X85845238Y-80652380D01*
X85845238Y-79652380D01*
X85369047Y-79652380D01*
X84369047Y-80652380D02*
X84702380Y-80176190D01*
X84940476Y-80652380D02*
X84940476Y-79652380D01*
X84559523Y-79652380D01*
X84464285Y-79700000D01*
X84416666Y-79747619D01*
X84369047Y-79842857D01*
X84369047Y-79985714D01*
X84416666Y-80080952D01*
X84464285Y-80128571D01*
X84559523Y-80176190D01*
X84940476Y-80176190D01*
X83750000Y-79652380D02*
X83654761Y-79652380D01*
X83559523Y-79700000D01*
X83511904Y-79747619D01*
X83464285Y-79842857D01*
X83416666Y-80033333D01*
X83416666Y-80271428D01*
X83464285Y-80461904D01*
X83511904Y-80557142D01*
X83559523Y-80604761D01*
X83654761Y-80652380D01*
X83750000Y-80652380D01*
X83845238Y-80604761D01*
X83892857Y-80557142D01*
X83940476Y-80461904D01*
X83988095Y-80271428D01*
X83988095Y-80033333D01*
X83940476Y-79842857D01*
X83892857Y-79747619D01*
X83845238Y-79700000D01*
X83750000Y-79652380D01*
G04 #@! TD*
M02*
