M48
;DRILL file {KiCad (5.0.0)} date 08/28/19 15:04:57
;FORMAT={-:-/ absolute / metric / decimal}
FMAT,2
METRIC,TZ
T1C0.300
T2C0.600
T3C1.500
%
G90
G05
M71
T1
X97.438Y-79.536
X97.574Y-89.145
X98.279Y-88.546
X98.5Y-86.595
X102.55Y-115.063
X102.806Y-86.238
X104.488Y-115.601
X104.802Y-85.958
X106.079Y-87.303
X106.586Y-110.787
X106.9Y-83.46
X107.001Y-80.058
X107.016Y-77.349
X107.159Y-115.079
X107.257Y-116.656
X107.536Y-87.227
X107.584Y-117.5
X108.091Y-80.627
X108.177Y-120.523
X108.19Y-79.406
X108.196Y-116.257
X109.038Y-85.431
X109.099Y-79.086
X109.113Y-120.535
X109.564Y-87.278
X109.564Y-115.179
X110.039Y-78.836
X110.226Y-76.915
X110.245Y-107.241
X110.89Y-78.795
X111.147Y-87.844
X111.19Y-108.006
X111.46Y-116.301
X111.626Y-115.169
X111.912Y-113.04
X112.046Y-120.473
X112.136Y-117.086
X112.24Y-86.948
X112.387Y-78.493
X112.634Y-111.132
X112.75Y-106.018
X112.879Y-115.623
X113.03Y-107.003
X113.363Y-107.847
X113.456Y-110.174
X113.832Y-116.474
X114.09Y-112.634
X114.206Y-107.807
X114.363Y-84.992
X114.447Y-119.011
X114.449Y-111.802
X115.203Y-83.391
X115.241Y-86.256
X115.802Y-81.01
X115.802Y-84.4
X116.319Y-120.17
X116.355Y-118.608
X120.401Y-88.669
X123.371Y-89.835
X123.994Y-91.284
X125.617Y-83.6
X126.32Y-84.725
X126.647Y-87.75
X127.35Y-85.91
X127.507Y-89.106
T2
X100.66Y-117.33
X100.66Y-118.6
X101.93Y-117.33
X101.93Y-118.6
X103.2Y-117.33
X103.2Y-118.6
X104.47Y-117.33
X104.47Y-118.6
T3
X100.5Y-81.576G85X100.5Y-82.076
G05
X122.1Y-81.576G85X122.1Y-82.076
G05
T0
M30
