G04 #@! TF.GenerationSoftware,KiCad,Pcbnew,(5.0.0)*
G04 #@! TF.CreationDate,2019-05-30T18:33:39-04:00*
G04 #@! TF.ProjectId,Tiny-er T,54696E792D657220542E6B696361645F,rev?*
G04 #@! TF.SameCoordinates,Original*
G04 #@! TF.FileFunction,Legend,Bot*
G04 #@! TF.FilePolarity,Positive*
%FSLAX46Y46*%
G04 Gerber Fmt 4.6, Leading zero omitted, Abs format (unit mm)*
G04 Created by KiCad (PCBNEW (5.0.0)) date 05/30/19 18:33:39*
%MOMM*%
%LPD*%
G01*
G04 APERTURE LIST*
%ADD10C,0.150000*%
%ADD11C,0.100000*%
%ADD12C,0.120000*%
%ADD13C,0.152400*%
G04 APERTURE END LIST*
D10*
G04 #@! TO.C,U1*
X117375000Y-120000000D02*
X111800000Y-120000000D01*
X117400000Y-114800000D02*
X111700000Y-114800000D01*
X117400000Y-120000000D02*
X117400000Y-119800000D01*
X111800000Y-119975000D02*
X111800000Y-119830000D01*
X111700000Y-114800000D02*
X111700000Y-115000000D01*
X117400000Y-114800000D02*
X117400000Y-114900000D01*
D11*
X116841421Y-115400000D02*
G75*
G03X116841421Y-115400000I-141421J0D01*
G01*
X117541421Y-114800000D02*
G75*
G03X117541421Y-114800000I-141421J0D01*
G01*
X117623607Y-114800000D02*
G75*
G03X117623607Y-114800000I-223607J0D01*
G01*
D12*
G04 #@! TO.C,SW1*
X107350000Y-104900000D02*
X106900000Y-104900000D01*
X106900000Y-104900000D02*
X106900000Y-98600000D01*
X106900000Y-98600000D02*
X107300000Y-98600000D01*
X108650000Y-104900000D02*
X111350000Y-104900000D01*
X111350000Y-98600000D02*
X108650000Y-98600000D01*
X113100000Y-104900000D02*
X113100000Y-98600000D01*
X113100000Y-98600000D02*
X112650000Y-98600000D01*
X112650000Y-104900000D02*
X113100000Y-104900000D01*
D13*
G04 #@! TO.C,U4*
X110309499Y-96197943D02*
X110309499Y-96451943D01*
X110690499Y-96197943D02*
X110309499Y-96197943D01*
X110690499Y-96451943D02*
X110690499Y-96197943D01*
X110309499Y-96451943D02*
X110690499Y-96451943D01*
X108048000Y-94027307D02*
X108048000Y-93472693D01*
X108527305Y-95702000D02*
X108048000Y-95702000D01*
X111952000Y-94972695D02*
X111952000Y-95702000D01*
X111952000Y-93472693D02*
X111952000Y-94027307D01*
X111472695Y-91798000D02*
X111952000Y-91798000D01*
X108048000Y-92527305D02*
X108048000Y-91798000D01*
X108048000Y-91798000D02*
X108527305Y-91798000D01*
X108048000Y-95702000D02*
X108048000Y-94972695D01*
X111952000Y-95702000D02*
X111472695Y-95702000D01*
X111952000Y-91798000D02*
X111952000Y-92527305D01*
G04 #@! TO.C,U3*
X126947943Y-88190501D02*
X127201943Y-88190501D01*
X126947943Y-87809501D02*
X126947943Y-88190501D01*
X127201943Y-87809501D02*
X126947943Y-87809501D01*
X127201943Y-88190501D02*
X127201943Y-87809501D01*
X124777307Y-90452000D02*
X124222693Y-90452000D01*
X126452000Y-89972695D02*
X126452000Y-90452000D01*
X125722695Y-86548000D02*
X126452000Y-86548000D01*
X124222693Y-86548000D02*
X124777307Y-86548000D01*
X122548000Y-87027305D02*
X122548000Y-86548000D01*
X123277305Y-90452000D02*
X122548000Y-90452000D01*
X122548000Y-90452000D02*
X122548000Y-89972695D01*
X126452000Y-90452000D02*
X125722695Y-90452000D01*
X126452000Y-86548000D02*
X126452000Y-87027305D01*
X122548000Y-86548000D02*
X123277305Y-86548000D01*
G04 #@! TO.C,U5*
X112447943Y-109690501D02*
X112701943Y-109690501D01*
X112447943Y-109309501D02*
X112447943Y-109690501D01*
X112701943Y-109309501D02*
X112447943Y-109309501D01*
X112701943Y-109690501D02*
X112701943Y-109309501D01*
X110277307Y-111952000D02*
X109722693Y-111952000D01*
X111952000Y-111472695D02*
X111952000Y-111952000D01*
X111222695Y-108048000D02*
X111952000Y-108048000D01*
X109722693Y-108048000D02*
X110277307Y-108048000D01*
X108048000Y-108527305D02*
X108048000Y-108048000D01*
X108777305Y-111952000D02*
X108048000Y-111952000D01*
X108048000Y-111952000D02*
X108048000Y-111472695D01*
X111952000Y-111952000D02*
X111222695Y-111952000D01*
X111952000Y-108048000D02*
X111952000Y-108527305D01*
X108048000Y-108048000D02*
X108777305Y-108048000D01*
G04 #@! TO.C,U6*
X93548000Y-86548000D02*
X94277305Y-86548000D01*
X97452000Y-86548000D02*
X97452000Y-87027305D01*
X97452000Y-90452000D02*
X96722695Y-90452000D01*
X93548000Y-90452000D02*
X93548000Y-89972695D01*
X94277305Y-90452000D02*
X93548000Y-90452000D01*
X93548000Y-87027305D02*
X93548000Y-86548000D01*
X95222693Y-86548000D02*
X95777307Y-86548000D01*
X96722695Y-86548000D02*
X97452000Y-86548000D01*
X97452000Y-89972695D02*
X97452000Y-90452000D01*
X95777307Y-90452000D02*
X95222693Y-90452000D01*
X98201943Y-88190501D02*
X98201943Y-87809501D01*
X98201943Y-87809501D02*
X97947943Y-87809501D01*
X97947943Y-87809501D02*
X97947943Y-88190501D01*
X97947943Y-88190501D02*
X98201943Y-88190501D01*
G04 #@! TO.C,D1*
D10*
X93688095Y-91452380D02*
X93688095Y-90452380D01*
X93450000Y-90452380D01*
X93307142Y-90500000D01*
X93211904Y-90595238D01*
X93164285Y-90690476D01*
X93116666Y-90880952D01*
X93116666Y-91023809D01*
X93164285Y-91214285D01*
X93211904Y-91309523D01*
X93307142Y-91404761D01*
X93450000Y-91452380D01*
X93688095Y-91452380D01*
X92164285Y-91452380D02*
X92735714Y-91452380D01*
X92450000Y-91452380D02*
X92450000Y-90452380D01*
X92545238Y-90595238D01*
X92640476Y-90690476D01*
X92735714Y-90738095D01*
G04 #@! TO.C,D2*
X93688095Y-86452380D02*
X93688095Y-85452380D01*
X93450000Y-85452380D01*
X93307142Y-85500000D01*
X93211904Y-85595238D01*
X93164285Y-85690476D01*
X93116666Y-85880952D01*
X93116666Y-86023809D01*
X93164285Y-86214285D01*
X93211904Y-86309523D01*
X93307142Y-86404761D01*
X93450000Y-86452380D01*
X93688095Y-86452380D01*
X92735714Y-85547619D02*
X92688095Y-85500000D01*
X92592857Y-85452380D01*
X92354761Y-85452380D01*
X92259523Y-85500000D01*
X92211904Y-85547619D01*
X92164285Y-85642857D01*
X92164285Y-85738095D01*
X92211904Y-85880952D01*
X92783333Y-86452380D01*
X92164285Y-86452380D01*
G04 #@! TO.C,D3*
X93688095Y-82452380D02*
X93688095Y-81452380D01*
X93450000Y-81452380D01*
X93307142Y-81500000D01*
X93211904Y-81595238D01*
X93164285Y-81690476D01*
X93116666Y-81880952D01*
X93116666Y-82023809D01*
X93164285Y-82214285D01*
X93211904Y-82309523D01*
X93307142Y-82404761D01*
X93450000Y-82452380D01*
X93688095Y-82452380D01*
X92783333Y-81452380D02*
X92164285Y-81452380D01*
X92497619Y-81833333D01*
X92354761Y-81833333D01*
X92259523Y-81880952D01*
X92211904Y-81928571D01*
X92164285Y-82023809D01*
X92164285Y-82261904D01*
X92211904Y-82357142D01*
X92259523Y-82404761D01*
X92354761Y-82452380D01*
X92640476Y-82452380D01*
X92735714Y-82404761D01*
X92783333Y-82357142D01*
G04 #@! TO.C,D4*
X93688095Y-78452380D02*
X93688095Y-77452380D01*
X93450000Y-77452380D01*
X93307142Y-77500000D01*
X93211904Y-77595238D01*
X93164285Y-77690476D01*
X93116666Y-77880952D01*
X93116666Y-78023809D01*
X93164285Y-78214285D01*
X93211904Y-78309523D01*
X93307142Y-78404761D01*
X93450000Y-78452380D01*
X93688095Y-78452380D01*
X92259523Y-77785714D02*
X92259523Y-78452380D01*
X92497619Y-77404761D02*
X92735714Y-78119047D01*
X92116666Y-78119047D01*
G04 #@! TO.C,D5*
X100738095Y-78452380D02*
X100738095Y-77452380D01*
X100500000Y-77452380D01*
X100357142Y-77500000D01*
X100261904Y-77595238D01*
X100214285Y-77690476D01*
X100166666Y-77880952D01*
X100166666Y-78023809D01*
X100214285Y-78214285D01*
X100261904Y-78309523D01*
X100357142Y-78404761D01*
X100500000Y-78452380D01*
X100738095Y-78452380D01*
X99261904Y-77452380D02*
X99738095Y-77452380D01*
X99785714Y-77928571D01*
X99738095Y-77880952D01*
X99642857Y-77833333D01*
X99404761Y-77833333D01*
X99309523Y-77880952D01*
X99261904Y-77928571D01*
X99214285Y-78023809D01*
X99214285Y-78261904D01*
X99261904Y-78357142D01*
X99309523Y-78404761D01*
X99404761Y-78452380D01*
X99642857Y-78452380D01*
X99738095Y-78404761D01*
X99785714Y-78357142D01*
G04 #@! TO.C,D6*
X107688095Y-78452380D02*
X107688095Y-77452380D01*
X107450000Y-77452380D01*
X107307142Y-77500000D01*
X107211904Y-77595238D01*
X107164285Y-77690476D01*
X107116666Y-77880952D01*
X107116666Y-78023809D01*
X107164285Y-78214285D01*
X107211904Y-78309523D01*
X107307142Y-78404761D01*
X107450000Y-78452380D01*
X107688095Y-78452380D01*
X106259523Y-77452380D02*
X106450000Y-77452380D01*
X106545238Y-77500000D01*
X106592857Y-77547619D01*
X106688095Y-77690476D01*
X106735714Y-77880952D01*
X106735714Y-78261904D01*
X106688095Y-78357142D01*
X106640476Y-78404761D01*
X106545238Y-78452380D01*
X106354761Y-78452380D01*
X106259523Y-78404761D01*
X106211904Y-78357142D01*
X106164285Y-78261904D01*
X106164285Y-78023809D01*
X106211904Y-77928571D01*
X106259523Y-77880952D01*
X106354761Y-77833333D01*
X106545238Y-77833333D01*
X106640476Y-77880952D01*
X106688095Y-77928571D01*
X106735714Y-78023809D01*
G04 #@! TO.C,D7*
X114688095Y-78452380D02*
X114688095Y-77452380D01*
X114450000Y-77452380D01*
X114307142Y-77500000D01*
X114211904Y-77595238D01*
X114164285Y-77690476D01*
X114116666Y-77880952D01*
X114116666Y-78023809D01*
X114164285Y-78214285D01*
X114211904Y-78309523D01*
X114307142Y-78404761D01*
X114450000Y-78452380D01*
X114688095Y-78452380D01*
X113783333Y-77452380D02*
X113116666Y-77452380D01*
X113545238Y-78452380D01*
G04 #@! TO.C,D8*
X120788095Y-78452380D02*
X120788095Y-77452380D01*
X120550000Y-77452380D01*
X120407142Y-77500000D01*
X120311904Y-77595238D01*
X120264285Y-77690476D01*
X120216666Y-77880952D01*
X120216666Y-78023809D01*
X120264285Y-78214285D01*
X120311904Y-78309523D01*
X120407142Y-78404761D01*
X120550000Y-78452380D01*
X120788095Y-78452380D01*
X119645238Y-77880952D02*
X119740476Y-77833333D01*
X119788095Y-77785714D01*
X119835714Y-77690476D01*
X119835714Y-77642857D01*
X119788095Y-77547619D01*
X119740476Y-77500000D01*
X119645238Y-77452380D01*
X119454761Y-77452380D01*
X119359523Y-77500000D01*
X119311904Y-77547619D01*
X119264285Y-77642857D01*
X119264285Y-77690476D01*
X119311904Y-77785714D01*
X119359523Y-77833333D01*
X119454761Y-77880952D01*
X119645238Y-77880952D01*
X119740476Y-77928571D01*
X119788095Y-77976190D01*
X119835714Y-78071428D01*
X119835714Y-78261904D01*
X119788095Y-78357142D01*
X119740476Y-78404761D01*
X119645238Y-78452380D01*
X119454761Y-78452380D01*
X119359523Y-78404761D01*
X119311904Y-78357142D01*
X119264285Y-78261904D01*
X119264285Y-78071428D01*
X119311904Y-77976190D01*
X119359523Y-77928571D01*
X119454761Y-77880952D01*
G04 #@! TO.C,D9*
X127688095Y-78452380D02*
X127688095Y-77452380D01*
X127450000Y-77452380D01*
X127307142Y-77500000D01*
X127211904Y-77595238D01*
X127164285Y-77690476D01*
X127116666Y-77880952D01*
X127116666Y-78023809D01*
X127164285Y-78214285D01*
X127211904Y-78309523D01*
X127307142Y-78404761D01*
X127450000Y-78452380D01*
X127688095Y-78452380D01*
X126640476Y-78452380D02*
X126450000Y-78452380D01*
X126354761Y-78404761D01*
X126307142Y-78357142D01*
X126211904Y-78214285D01*
X126164285Y-78023809D01*
X126164285Y-77642857D01*
X126211904Y-77547619D01*
X126259523Y-77500000D01*
X126354761Y-77452380D01*
X126545238Y-77452380D01*
X126640476Y-77500000D01*
X126688095Y-77547619D01*
X126735714Y-77642857D01*
X126735714Y-77880952D01*
X126688095Y-77976190D01*
X126640476Y-78023809D01*
X126545238Y-78071428D01*
X126354761Y-78071428D01*
X126259523Y-78023809D01*
X126211904Y-77976190D01*
X126164285Y-77880952D01*
G04 #@! TO.C,D10*
X128164285Y-82452380D02*
X128164285Y-81452380D01*
X127926190Y-81452380D01*
X127783333Y-81500000D01*
X127688095Y-81595238D01*
X127640476Y-81690476D01*
X127592857Y-81880952D01*
X127592857Y-82023809D01*
X127640476Y-82214285D01*
X127688095Y-82309523D01*
X127783333Y-82404761D01*
X127926190Y-82452380D01*
X128164285Y-82452380D01*
X126640476Y-82452380D02*
X127211904Y-82452380D01*
X126926190Y-82452380D02*
X126926190Y-81452380D01*
X127021428Y-81595238D01*
X127116666Y-81690476D01*
X127211904Y-81738095D01*
X126021428Y-81452380D02*
X125926190Y-81452380D01*
X125830952Y-81500000D01*
X125783333Y-81547619D01*
X125735714Y-81642857D01*
X125688095Y-81833333D01*
X125688095Y-82071428D01*
X125735714Y-82261904D01*
X125783333Y-82357142D01*
X125830952Y-82404761D01*
X125926190Y-82452380D01*
X126021428Y-82452380D01*
X126116666Y-82404761D01*
X126164285Y-82357142D01*
X126211904Y-82261904D01*
X126259523Y-82071428D01*
X126259523Y-81833333D01*
X126211904Y-81642857D01*
X126164285Y-81547619D01*
X126116666Y-81500000D01*
X126021428Y-81452380D01*
G04 #@! TO.C,D11*
X128264285Y-86452380D02*
X128264285Y-85452380D01*
X128026190Y-85452380D01*
X127883333Y-85500000D01*
X127788095Y-85595238D01*
X127740476Y-85690476D01*
X127692857Y-85880952D01*
X127692857Y-86023809D01*
X127740476Y-86214285D01*
X127788095Y-86309523D01*
X127883333Y-86404761D01*
X128026190Y-86452380D01*
X128264285Y-86452380D01*
X126740476Y-86452380D02*
X127311904Y-86452380D01*
X127026190Y-86452380D02*
X127026190Y-85452380D01*
X127121428Y-85595238D01*
X127216666Y-85690476D01*
X127311904Y-85738095D01*
X125788095Y-86452380D02*
X126359523Y-86452380D01*
X126073809Y-86452380D02*
X126073809Y-85452380D01*
X126169047Y-85595238D01*
X126264285Y-85690476D01*
X126359523Y-85738095D01*
G04 #@! TO.C,D12*
X128264285Y-91452380D02*
X128264285Y-90452380D01*
X128026190Y-90452380D01*
X127883333Y-90500000D01*
X127788095Y-90595238D01*
X127740476Y-90690476D01*
X127692857Y-90880952D01*
X127692857Y-91023809D01*
X127740476Y-91214285D01*
X127788095Y-91309523D01*
X127883333Y-91404761D01*
X128026190Y-91452380D01*
X128264285Y-91452380D01*
X126740476Y-91452380D02*
X127311904Y-91452380D01*
X127026190Y-91452380D02*
X127026190Y-90452380D01*
X127121428Y-90595238D01*
X127216666Y-90690476D01*
X127311904Y-90738095D01*
X126359523Y-90547619D02*
X126311904Y-90500000D01*
X126216666Y-90452380D01*
X125978571Y-90452380D01*
X125883333Y-90500000D01*
X125835714Y-90547619D01*
X125788095Y-90642857D01*
X125788095Y-90738095D01*
X125835714Y-90880952D01*
X126407142Y-91452380D01*
X125788095Y-91452380D01*
G04 #@! TO.C,D13*
X123264285Y-91452380D02*
X123264285Y-90452380D01*
X123026190Y-90452380D01*
X122883333Y-90500000D01*
X122788095Y-90595238D01*
X122740476Y-90690476D01*
X122692857Y-90880952D01*
X122692857Y-91023809D01*
X122740476Y-91214285D01*
X122788095Y-91309523D01*
X122883333Y-91404761D01*
X123026190Y-91452380D01*
X123264285Y-91452380D01*
X121740476Y-91452380D02*
X122311904Y-91452380D01*
X122026190Y-91452380D02*
X122026190Y-90452380D01*
X122121428Y-90595238D01*
X122216666Y-90690476D01*
X122311904Y-90738095D01*
X121407142Y-90452380D02*
X120788095Y-90452380D01*
X121121428Y-90833333D01*
X120978571Y-90833333D01*
X120883333Y-90880952D01*
X120835714Y-90928571D01*
X120788095Y-91023809D01*
X120788095Y-91261904D01*
X120835714Y-91357142D01*
X120883333Y-91404761D01*
X120978571Y-91452380D01*
X121264285Y-91452380D01*
X121359523Y-91404761D01*
X121407142Y-91357142D01*
G04 #@! TO.C,D14*
X123264285Y-86452380D02*
X123264285Y-85452380D01*
X123026190Y-85452380D01*
X122883333Y-85500000D01*
X122788095Y-85595238D01*
X122740476Y-85690476D01*
X122692857Y-85880952D01*
X122692857Y-86023809D01*
X122740476Y-86214285D01*
X122788095Y-86309523D01*
X122883333Y-86404761D01*
X123026190Y-86452380D01*
X123264285Y-86452380D01*
X121740476Y-86452380D02*
X122311904Y-86452380D01*
X122026190Y-86452380D02*
X122026190Y-85452380D01*
X122121428Y-85595238D01*
X122216666Y-85690476D01*
X122311904Y-85738095D01*
X120883333Y-85785714D02*
X120883333Y-86452380D01*
X121121428Y-85404761D02*
X121359523Y-86119047D01*
X120740476Y-86119047D01*
G04 #@! TO.C,D15*
X118764285Y-86452380D02*
X118764285Y-85452380D01*
X118526190Y-85452380D01*
X118383333Y-85500000D01*
X118288095Y-85595238D01*
X118240476Y-85690476D01*
X118192857Y-85880952D01*
X118192857Y-86023809D01*
X118240476Y-86214285D01*
X118288095Y-86309523D01*
X118383333Y-86404761D01*
X118526190Y-86452380D01*
X118764285Y-86452380D01*
X117240476Y-86452380D02*
X117811904Y-86452380D01*
X117526190Y-86452380D02*
X117526190Y-85452380D01*
X117621428Y-85595238D01*
X117716666Y-85690476D01*
X117811904Y-85738095D01*
X116335714Y-85452380D02*
X116811904Y-85452380D01*
X116859523Y-85928571D01*
X116811904Y-85880952D01*
X116716666Y-85833333D01*
X116478571Y-85833333D01*
X116383333Y-85880952D01*
X116335714Y-85928571D01*
X116288095Y-86023809D01*
X116288095Y-86261904D01*
X116335714Y-86357142D01*
X116383333Y-86404761D01*
X116478571Y-86452380D01*
X116716666Y-86452380D01*
X116811904Y-86404761D01*
X116859523Y-86357142D01*
G04 #@! TO.C,D16*
X114214285Y-86452380D02*
X114214285Y-85452380D01*
X113976190Y-85452380D01*
X113833333Y-85500000D01*
X113738095Y-85595238D01*
X113690476Y-85690476D01*
X113642857Y-85880952D01*
X113642857Y-86023809D01*
X113690476Y-86214285D01*
X113738095Y-86309523D01*
X113833333Y-86404761D01*
X113976190Y-86452380D01*
X114214285Y-86452380D01*
X112690476Y-86452380D02*
X113261904Y-86452380D01*
X112976190Y-86452380D02*
X112976190Y-85452380D01*
X113071428Y-85595238D01*
X113166666Y-85690476D01*
X113261904Y-85738095D01*
X111833333Y-85452380D02*
X112023809Y-85452380D01*
X112119047Y-85500000D01*
X112166666Y-85547619D01*
X112261904Y-85690476D01*
X112309523Y-85880952D01*
X112309523Y-86261904D01*
X112261904Y-86357142D01*
X112214285Y-86404761D01*
X112119047Y-86452380D01*
X111928571Y-86452380D01*
X111833333Y-86404761D01*
X111785714Y-86357142D01*
X111738095Y-86261904D01*
X111738095Y-86023809D01*
X111785714Y-85928571D01*
X111833333Y-85880952D01*
X111928571Y-85833333D01*
X112119047Y-85833333D01*
X112214285Y-85880952D01*
X112261904Y-85928571D01*
X112309523Y-86023809D01*
G04 #@! TO.C,D17*
X114164285Y-90452380D02*
X114164285Y-89452380D01*
X113926190Y-89452380D01*
X113783333Y-89500000D01*
X113688095Y-89595238D01*
X113640476Y-89690476D01*
X113592857Y-89880952D01*
X113592857Y-90023809D01*
X113640476Y-90214285D01*
X113688095Y-90309523D01*
X113783333Y-90404761D01*
X113926190Y-90452380D01*
X114164285Y-90452380D01*
X112640476Y-90452380D02*
X113211904Y-90452380D01*
X112926190Y-90452380D02*
X112926190Y-89452380D01*
X113021428Y-89595238D01*
X113116666Y-89690476D01*
X113211904Y-89738095D01*
X112307142Y-89452380D02*
X111640476Y-89452380D01*
X112069047Y-90452380D01*
G04 #@! TO.C,D18*
X115214285Y-93952380D02*
X115214285Y-92952380D01*
X114976190Y-92952380D01*
X114833333Y-93000000D01*
X114738095Y-93095238D01*
X114690476Y-93190476D01*
X114642857Y-93380952D01*
X114642857Y-93523809D01*
X114690476Y-93714285D01*
X114738095Y-93809523D01*
X114833333Y-93904761D01*
X114976190Y-93952380D01*
X115214285Y-93952380D01*
X113690476Y-93952380D02*
X114261904Y-93952380D01*
X113976190Y-93952380D02*
X113976190Y-92952380D01*
X114071428Y-93095238D01*
X114166666Y-93190476D01*
X114261904Y-93238095D01*
X113119047Y-93380952D02*
X113214285Y-93333333D01*
X113261904Y-93285714D01*
X113309523Y-93190476D01*
X113309523Y-93142857D01*
X113261904Y-93047619D01*
X113214285Y-93000000D01*
X113119047Y-92952380D01*
X112928571Y-92952380D01*
X112833333Y-93000000D01*
X112785714Y-93047619D01*
X112738095Y-93142857D01*
X112738095Y-93190476D01*
X112785714Y-93285714D01*
X112833333Y-93333333D01*
X112928571Y-93380952D01*
X113119047Y-93380952D01*
X113214285Y-93428571D01*
X113261904Y-93476190D01*
X113309523Y-93571428D01*
X113309523Y-93761904D01*
X113261904Y-93857142D01*
X113214285Y-93904761D01*
X113119047Y-93952380D01*
X112928571Y-93952380D01*
X112833333Y-93904761D01*
X112785714Y-93857142D01*
X112738095Y-93761904D01*
X112738095Y-93571428D01*
X112785714Y-93476190D01*
X112833333Y-93428571D01*
X112928571Y-93380952D01*
G04 #@! TO.C,D19*
X115214285Y-98202380D02*
X115214285Y-97202380D01*
X114976190Y-97202380D01*
X114833333Y-97250000D01*
X114738095Y-97345238D01*
X114690476Y-97440476D01*
X114642857Y-97630952D01*
X114642857Y-97773809D01*
X114690476Y-97964285D01*
X114738095Y-98059523D01*
X114833333Y-98154761D01*
X114976190Y-98202380D01*
X115214285Y-98202380D01*
X113690476Y-98202380D02*
X114261904Y-98202380D01*
X113976190Y-98202380D02*
X113976190Y-97202380D01*
X114071428Y-97345238D01*
X114166666Y-97440476D01*
X114261904Y-97488095D01*
X113214285Y-98202380D02*
X113023809Y-98202380D01*
X112928571Y-98154761D01*
X112880952Y-98107142D01*
X112785714Y-97964285D01*
X112738095Y-97773809D01*
X112738095Y-97392857D01*
X112785714Y-97297619D01*
X112833333Y-97250000D01*
X112928571Y-97202380D01*
X113119047Y-97202380D01*
X113214285Y-97250000D01*
X113261904Y-97297619D01*
X113309523Y-97392857D01*
X113309523Y-97630952D01*
X113261904Y-97726190D01*
X113214285Y-97773809D01*
X113119047Y-97821428D01*
X112928571Y-97821428D01*
X112833333Y-97773809D01*
X112785714Y-97726190D01*
X112738095Y-97630952D01*
G04 #@! TO.C,D20*
X115214285Y-107452380D02*
X115214285Y-106452380D01*
X114976190Y-106452380D01*
X114833333Y-106500000D01*
X114738095Y-106595238D01*
X114690476Y-106690476D01*
X114642857Y-106880952D01*
X114642857Y-107023809D01*
X114690476Y-107214285D01*
X114738095Y-107309523D01*
X114833333Y-107404761D01*
X114976190Y-107452380D01*
X115214285Y-107452380D01*
X114261904Y-106547619D02*
X114214285Y-106500000D01*
X114119047Y-106452380D01*
X113880952Y-106452380D01*
X113785714Y-106500000D01*
X113738095Y-106547619D01*
X113690476Y-106642857D01*
X113690476Y-106738095D01*
X113738095Y-106880952D01*
X114309523Y-107452380D01*
X113690476Y-107452380D01*
X113071428Y-106452380D02*
X112976190Y-106452380D01*
X112880952Y-106500000D01*
X112833333Y-106547619D01*
X112785714Y-106642857D01*
X112738095Y-106833333D01*
X112738095Y-107071428D01*
X112785714Y-107261904D01*
X112833333Y-107357142D01*
X112880952Y-107404761D01*
X112976190Y-107452380D01*
X113071428Y-107452380D01*
X113166666Y-107404761D01*
X113214285Y-107357142D01*
X113261904Y-107261904D01*
X113309523Y-107071428D01*
X113309523Y-106833333D01*
X113261904Y-106642857D01*
X113214285Y-106547619D01*
X113166666Y-106500000D01*
X113071428Y-106452380D01*
G04 #@! TO.C,D21*
X113214285Y-113702380D02*
X113214285Y-112702380D01*
X112976190Y-112702380D01*
X112833333Y-112750000D01*
X112738095Y-112845238D01*
X112690476Y-112940476D01*
X112642857Y-113130952D01*
X112642857Y-113273809D01*
X112690476Y-113464285D01*
X112738095Y-113559523D01*
X112833333Y-113654761D01*
X112976190Y-113702380D01*
X113214285Y-113702380D01*
X112261904Y-112797619D02*
X112214285Y-112750000D01*
X112119047Y-112702380D01*
X111880952Y-112702380D01*
X111785714Y-112750000D01*
X111738095Y-112797619D01*
X111690476Y-112892857D01*
X111690476Y-112988095D01*
X111738095Y-113130952D01*
X112309523Y-113702380D01*
X111690476Y-113702380D01*
X110738095Y-113702380D02*
X111309523Y-113702380D01*
X111023809Y-113702380D02*
X111023809Y-112702380D01*
X111119047Y-112845238D01*
X111214285Y-112940476D01*
X111309523Y-112988095D01*
G04 #@! TO.C,D22*
X120164285Y-113952380D02*
X120164285Y-112952380D01*
X119926190Y-112952380D01*
X119783333Y-113000000D01*
X119688095Y-113095238D01*
X119640476Y-113190476D01*
X119592857Y-113380952D01*
X119592857Y-113523809D01*
X119640476Y-113714285D01*
X119688095Y-113809523D01*
X119783333Y-113904761D01*
X119926190Y-113952380D01*
X120164285Y-113952380D01*
X119211904Y-113047619D02*
X119164285Y-113000000D01*
X119069047Y-112952380D01*
X118830952Y-112952380D01*
X118735714Y-113000000D01*
X118688095Y-113047619D01*
X118640476Y-113142857D01*
X118640476Y-113238095D01*
X118688095Y-113380952D01*
X119259523Y-113952380D01*
X118640476Y-113952380D01*
X118259523Y-113047619D02*
X118211904Y-113000000D01*
X118116666Y-112952380D01*
X117878571Y-112952380D01*
X117783333Y-113000000D01*
X117735714Y-113047619D01*
X117688095Y-113142857D01*
X117688095Y-113238095D01*
X117735714Y-113380952D01*
X118307142Y-113952380D01*
X117688095Y-113952380D01*
G04 #@! TO.C,D23*
X120164285Y-121452380D02*
X120164285Y-120452380D01*
X119926190Y-120452380D01*
X119783333Y-120500000D01*
X119688095Y-120595238D01*
X119640476Y-120690476D01*
X119592857Y-120880952D01*
X119592857Y-121023809D01*
X119640476Y-121214285D01*
X119688095Y-121309523D01*
X119783333Y-121404761D01*
X119926190Y-121452380D01*
X120164285Y-121452380D01*
X119211904Y-120547619D02*
X119164285Y-120500000D01*
X119069047Y-120452380D01*
X118830952Y-120452380D01*
X118735714Y-120500000D01*
X118688095Y-120547619D01*
X118640476Y-120642857D01*
X118640476Y-120738095D01*
X118688095Y-120880952D01*
X119259523Y-121452380D01*
X118640476Y-121452380D01*
X118307142Y-120452380D02*
X117688095Y-120452380D01*
X118021428Y-120833333D01*
X117878571Y-120833333D01*
X117783333Y-120880952D01*
X117735714Y-120928571D01*
X117688095Y-121023809D01*
X117688095Y-121261904D01*
X117735714Y-121357142D01*
X117783333Y-121404761D01*
X117878571Y-121452380D01*
X118164285Y-121452380D01*
X118259523Y-121404761D01*
X118307142Y-121357142D01*
G04 #@! TO.C,D24*
X115214285Y-110452380D02*
X115214285Y-109452380D01*
X114976190Y-109452380D01*
X114833333Y-109500000D01*
X114738095Y-109595238D01*
X114690476Y-109690476D01*
X114642857Y-109880952D01*
X114642857Y-110023809D01*
X114690476Y-110214285D01*
X114738095Y-110309523D01*
X114833333Y-110404761D01*
X114976190Y-110452380D01*
X115214285Y-110452380D01*
X114261904Y-109547619D02*
X114214285Y-109500000D01*
X114119047Y-109452380D01*
X113880952Y-109452380D01*
X113785714Y-109500000D01*
X113738095Y-109547619D01*
X113690476Y-109642857D01*
X113690476Y-109738095D01*
X113738095Y-109880952D01*
X114309523Y-110452380D01*
X113690476Y-110452380D01*
X112833333Y-109785714D02*
X112833333Y-110452380D01*
X113071428Y-109404761D02*
X113309523Y-110119047D01*
X112690476Y-110119047D01*
G04 #@! TO.C,U1*
X116511904Y-113452380D02*
X116511904Y-114261904D01*
X116464285Y-114357142D01*
X116416666Y-114404761D01*
X116321428Y-114452380D01*
X116130952Y-114452380D01*
X116035714Y-114404761D01*
X115988095Y-114357142D01*
X115940476Y-114261904D01*
X115940476Y-113452380D01*
X114940476Y-114452380D02*
X115511904Y-114452380D01*
X115226190Y-114452380D02*
X115226190Y-113452380D01*
X115321428Y-113595238D01*
X115416666Y-113690476D01*
X115511904Y-113738095D01*
G04 #@! TO.C,SW1*
X114304761Y-100416666D02*
X114352380Y-100559523D01*
X114352380Y-100797619D01*
X114304761Y-100892857D01*
X114257142Y-100940476D01*
X114161904Y-100988095D01*
X114066666Y-100988095D01*
X113971428Y-100940476D01*
X113923809Y-100892857D01*
X113876190Y-100797619D01*
X113828571Y-100607142D01*
X113780952Y-100511904D01*
X113733333Y-100464285D01*
X113638095Y-100416666D01*
X113542857Y-100416666D01*
X113447619Y-100464285D01*
X113400000Y-100511904D01*
X113352380Y-100607142D01*
X113352380Y-100845238D01*
X113400000Y-100988095D01*
X113352380Y-101321428D02*
X114352380Y-101559523D01*
X113638095Y-101750000D01*
X114352380Y-101940476D01*
X113352380Y-102178571D01*
X114352380Y-103083333D02*
X114352380Y-102511904D01*
X114352380Y-102797619D02*
X113352380Y-102797619D01*
X113495238Y-102702380D01*
X113590476Y-102607142D01*
X113638095Y-102511904D01*
G04 #@! TO.C,U4*
X109452380Y-92988095D02*
X110261904Y-92988095D01*
X110357142Y-93035714D01*
X110404761Y-93083333D01*
X110452380Y-93178571D01*
X110452380Y-93369047D01*
X110404761Y-93464285D01*
X110357142Y-93511904D01*
X110261904Y-93559523D01*
X109452380Y-93559523D01*
X109785714Y-94464285D02*
X110452380Y-94464285D01*
X109404761Y-94226190D02*
X110119047Y-93988095D01*
X110119047Y-94607142D01*
X110761904Y-90202380D02*
X110761904Y-91011904D01*
X110714285Y-91107142D01*
X110666666Y-91154761D01*
X110571428Y-91202380D01*
X110380952Y-91202380D01*
X110285714Y-91154761D01*
X110238095Y-91107142D01*
X110190476Y-91011904D01*
X110190476Y-90202380D01*
X109285714Y-90535714D02*
X109285714Y-91202380D01*
X109523809Y-90154761D02*
X109761904Y-90869047D01*
X109142857Y-90869047D01*
X106509038Y-93000000D02*
X106747134Y-93000000D01*
X106651896Y-92761904D02*
X106747134Y-93000000D01*
X106651896Y-93238095D01*
X106937610Y-92857142D02*
X106747134Y-93000000D01*
X106937610Y-93142857D01*
G04 #@! TO.C,U2*
X108011904Y-79202380D02*
X108011904Y-80011904D01*
X107964285Y-80107142D01*
X107916666Y-80154761D01*
X107821428Y-80202380D01*
X107630952Y-80202380D01*
X107535714Y-80154761D01*
X107488095Y-80107142D01*
X107440476Y-80011904D01*
X107440476Y-79202380D01*
X107011904Y-79297619D02*
X106964285Y-79250000D01*
X106869047Y-79202380D01*
X106630952Y-79202380D01*
X106535714Y-79250000D01*
X106488095Y-79297619D01*
X106440476Y-79392857D01*
X106440476Y-79488095D01*
X106488095Y-79630952D01*
X107059523Y-80202380D01*
X106440476Y-80202380D01*
G04 #@! TO.C,U3*
X125261904Y-87952380D02*
X125261904Y-88761904D01*
X125214285Y-88857142D01*
X125166666Y-88904761D01*
X125071428Y-88952380D01*
X124880952Y-88952380D01*
X124785714Y-88904761D01*
X124738095Y-88857142D01*
X124690476Y-88761904D01*
X124690476Y-87952380D01*
X124309523Y-87952380D02*
X123690476Y-87952380D01*
X124023809Y-88333333D01*
X123880952Y-88333333D01*
X123785714Y-88380952D01*
X123738095Y-88428571D01*
X123690476Y-88523809D01*
X123690476Y-88761904D01*
X123738095Y-88857142D01*
X123785714Y-88904761D01*
X123880952Y-88952380D01*
X124166666Y-88952380D01*
X124261904Y-88904761D01*
X124309523Y-88857142D01*
X129261904Y-87952380D02*
X129261904Y-88761904D01*
X129214285Y-88857142D01*
X129166666Y-88904761D01*
X129071428Y-88952380D01*
X128880952Y-88952380D01*
X128785714Y-88904761D01*
X128738095Y-88857142D01*
X128690476Y-88761904D01*
X128690476Y-87952380D01*
X128309523Y-87952380D02*
X127690476Y-87952380D01*
X128023809Y-88333333D01*
X127880952Y-88333333D01*
X127785714Y-88380952D01*
X127738095Y-88428571D01*
X127690476Y-88523809D01*
X127690476Y-88761904D01*
X127738095Y-88857142D01*
X127785714Y-88904761D01*
X127880952Y-88952380D01*
X128166666Y-88952380D01*
X128261904Y-88904761D01*
X128309523Y-88857142D01*
X123750000Y-90895722D02*
X123750000Y-91133818D01*
X123988095Y-91038580D02*
X123750000Y-91133818D01*
X123511904Y-91038580D01*
X123892857Y-91324294D02*
X123750000Y-91133818D01*
X123607142Y-91324294D01*
G04 #@! TO.C,D25*
X114164285Y-121452380D02*
X114164285Y-120452380D01*
X113926190Y-120452380D01*
X113783333Y-120500000D01*
X113688095Y-120595238D01*
X113640476Y-120690476D01*
X113592857Y-120880952D01*
X113592857Y-121023809D01*
X113640476Y-121214285D01*
X113688095Y-121309523D01*
X113783333Y-121404761D01*
X113926190Y-121452380D01*
X114164285Y-121452380D01*
X113211904Y-120547619D02*
X113164285Y-120500000D01*
X113069047Y-120452380D01*
X112830952Y-120452380D01*
X112735714Y-120500000D01*
X112688095Y-120547619D01*
X112640476Y-120642857D01*
X112640476Y-120738095D01*
X112688095Y-120880952D01*
X113259523Y-121452380D01*
X112640476Y-121452380D01*
X111735714Y-120452380D02*
X112211904Y-120452380D01*
X112259523Y-120928571D01*
X112211904Y-120880952D01*
X112116666Y-120833333D01*
X111878571Y-120833333D01*
X111783333Y-120880952D01*
X111735714Y-120928571D01*
X111688095Y-121023809D01*
X111688095Y-121261904D01*
X111735714Y-121357142D01*
X111783333Y-121404761D01*
X111878571Y-121452380D01*
X112116666Y-121452380D01*
X112211904Y-121404761D01*
X112259523Y-121357142D01*
G04 #@! TO.C,D26*
X108214285Y-121452380D02*
X108214285Y-120452380D01*
X107976190Y-120452380D01*
X107833333Y-120500000D01*
X107738095Y-120595238D01*
X107690476Y-120690476D01*
X107642857Y-120880952D01*
X107642857Y-121023809D01*
X107690476Y-121214285D01*
X107738095Y-121309523D01*
X107833333Y-121404761D01*
X107976190Y-121452380D01*
X108214285Y-121452380D01*
X107261904Y-120547619D02*
X107214285Y-120500000D01*
X107119047Y-120452380D01*
X106880952Y-120452380D01*
X106785714Y-120500000D01*
X106738095Y-120547619D01*
X106690476Y-120642857D01*
X106690476Y-120738095D01*
X106738095Y-120880952D01*
X107309523Y-121452380D01*
X106690476Y-121452380D01*
X105833333Y-120452380D02*
X106023809Y-120452380D01*
X106119047Y-120500000D01*
X106166666Y-120547619D01*
X106261904Y-120690476D01*
X106309523Y-120880952D01*
X106309523Y-121261904D01*
X106261904Y-121357142D01*
X106214285Y-121404761D01*
X106119047Y-121452380D01*
X105928571Y-121452380D01*
X105833333Y-121404761D01*
X105785714Y-121357142D01*
X105738095Y-121261904D01*
X105738095Y-121023809D01*
X105785714Y-120928571D01*
X105833333Y-120880952D01*
X105928571Y-120833333D01*
X106119047Y-120833333D01*
X106214285Y-120880952D01*
X106261904Y-120928571D01*
X106309523Y-121023809D01*
G04 #@! TO.C,D27*
X103164285Y-121452380D02*
X103164285Y-120452380D01*
X102926190Y-120452380D01*
X102783333Y-120500000D01*
X102688095Y-120595238D01*
X102640476Y-120690476D01*
X102592857Y-120880952D01*
X102592857Y-121023809D01*
X102640476Y-121214285D01*
X102688095Y-121309523D01*
X102783333Y-121404761D01*
X102926190Y-121452380D01*
X103164285Y-121452380D01*
X102211904Y-120547619D02*
X102164285Y-120500000D01*
X102069047Y-120452380D01*
X101830952Y-120452380D01*
X101735714Y-120500000D01*
X101688095Y-120547619D01*
X101640476Y-120642857D01*
X101640476Y-120738095D01*
X101688095Y-120880952D01*
X102259523Y-121452380D01*
X101640476Y-121452380D01*
X101307142Y-120452380D02*
X100640476Y-120452380D01*
X101069047Y-121452380D01*
G04 #@! TO.C,D28*
X103214285Y-115452380D02*
X103214285Y-114452380D01*
X102976190Y-114452380D01*
X102833333Y-114500000D01*
X102738095Y-114595238D01*
X102690476Y-114690476D01*
X102642857Y-114880952D01*
X102642857Y-115023809D01*
X102690476Y-115214285D01*
X102738095Y-115309523D01*
X102833333Y-115404761D01*
X102976190Y-115452380D01*
X103214285Y-115452380D01*
X102261904Y-114547619D02*
X102214285Y-114500000D01*
X102119047Y-114452380D01*
X101880952Y-114452380D01*
X101785714Y-114500000D01*
X101738095Y-114547619D01*
X101690476Y-114642857D01*
X101690476Y-114738095D01*
X101738095Y-114880952D01*
X102309523Y-115452380D01*
X101690476Y-115452380D01*
X101119047Y-114880952D02*
X101214285Y-114833333D01*
X101261904Y-114785714D01*
X101309523Y-114690476D01*
X101309523Y-114642857D01*
X101261904Y-114547619D01*
X101214285Y-114500000D01*
X101119047Y-114452380D01*
X100928571Y-114452380D01*
X100833333Y-114500000D01*
X100785714Y-114547619D01*
X100738095Y-114642857D01*
X100738095Y-114690476D01*
X100785714Y-114785714D01*
X100833333Y-114833333D01*
X100928571Y-114880952D01*
X101119047Y-114880952D01*
X101214285Y-114928571D01*
X101261904Y-114976190D01*
X101309523Y-115071428D01*
X101309523Y-115261904D01*
X101261904Y-115357142D01*
X101214285Y-115404761D01*
X101119047Y-115452380D01*
X100928571Y-115452380D01*
X100833333Y-115404761D01*
X100785714Y-115357142D01*
X100738095Y-115261904D01*
X100738095Y-115071428D01*
X100785714Y-114976190D01*
X100833333Y-114928571D01*
X100928571Y-114880952D01*
G04 #@! TO.C,D29*
X108214285Y-115452380D02*
X108214285Y-114452380D01*
X107976190Y-114452380D01*
X107833333Y-114500000D01*
X107738095Y-114595238D01*
X107690476Y-114690476D01*
X107642857Y-114880952D01*
X107642857Y-115023809D01*
X107690476Y-115214285D01*
X107738095Y-115309523D01*
X107833333Y-115404761D01*
X107976190Y-115452380D01*
X108214285Y-115452380D01*
X107261904Y-114547619D02*
X107214285Y-114500000D01*
X107119047Y-114452380D01*
X106880952Y-114452380D01*
X106785714Y-114500000D01*
X106738095Y-114547619D01*
X106690476Y-114642857D01*
X106690476Y-114738095D01*
X106738095Y-114880952D01*
X107309523Y-115452380D01*
X106690476Y-115452380D01*
X106214285Y-115452380D02*
X106023809Y-115452380D01*
X105928571Y-115404761D01*
X105880952Y-115357142D01*
X105785714Y-115214285D01*
X105738095Y-115023809D01*
X105738095Y-114642857D01*
X105785714Y-114547619D01*
X105833333Y-114500000D01*
X105928571Y-114452380D01*
X106119047Y-114452380D01*
X106214285Y-114500000D01*
X106261904Y-114547619D01*
X106309523Y-114642857D01*
X106309523Y-114880952D01*
X106261904Y-114976190D01*
X106214285Y-115023809D01*
X106119047Y-115071428D01*
X105928571Y-115071428D01*
X105833333Y-115023809D01*
X105785714Y-114976190D01*
X105738095Y-114880952D01*
G04 #@! TO.C,D30*
X107214285Y-110452380D02*
X107214285Y-109452380D01*
X106976190Y-109452380D01*
X106833333Y-109500000D01*
X106738095Y-109595238D01*
X106690476Y-109690476D01*
X106642857Y-109880952D01*
X106642857Y-110023809D01*
X106690476Y-110214285D01*
X106738095Y-110309523D01*
X106833333Y-110404761D01*
X106976190Y-110452380D01*
X107214285Y-110452380D01*
X106309523Y-109452380D02*
X105690476Y-109452380D01*
X106023809Y-109833333D01*
X105880952Y-109833333D01*
X105785714Y-109880952D01*
X105738095Y-109928571D01*
X105690476Y-110023809D01*
X105690476Y-110261904D01*
X105738095Y-110357142D01*
X105785714Y-110404761D01*
X105880952Y-110452380D01*
X106166666Y-110452380D01*
X106261904Y-110404761D01*
X106309523Y-110357142D01*
X105071428Y-109452380D02*
X104976190Y-109452380D01*
X104880952Y-109500000D01*
X104833333Y-109547619D01*
X104785714Y-109642857D01*
X104738095Y-109833333D01*
X104738095Y-110071428D01*
X104785714Y-110261904D01*
X104833333Y-110357142D01*
X104880952Y-110404761D01*
X104976190Y-110452380D01*
X105071428Y-110452380D01*
X105166666Y-110404761D01*
X105214285Y-110357142D01*
X105261904Y-110261904D01*
X105309523Y-110071428D01*
X105309523Y-109833333D01*
X105261904Y-109642857D01*
X105214285Y-109547619D01*
X105166666Y-109500000D01*
X105071428Y-109452380D01*
G04 #@! TO.C,D31*
X107214285Y-107452380D02*
X107214285Y-106452380D01*
X106976190Y-106452380D01*
X106833333Y-106500000D01*
X106738095Y-106595238D01*
X106690476Y-106690476D01*
X106642857Y-106880952D01*
X106642857Y-107023809D01*
X106690476Y-107214285D01*
X106738095Y-107309523D01*
X106833333Y-107404761D01*
X106976190Y-107452380D01*
X107214285Y-107452380D01*
X106309523Y-106452380D02*
X105690476Y-106452380D01*
X106023809Y-106833333D01*
X105880952Y-106833333D01*
X105785714Y-106880952D01*
X105738095Y-106928571D01*
X105690476Y-107023809D01*
X105690476Y-107261904D01*
X105738095Y-107357142D01*
X105785714Y-107404761D01*
X105880952Y-107452380D01*
X106166666Y-107452380D01*
X106261904Y-107404761D01*
X106309523Y-107357142D01*
X104738095Y-107452380D02*
X105309523Y-107452380D01*
X105023809Y-107452380D02*
X105023809Y-106452380D01*
X105119047Y-106595238D01*
X105214285Y-106690476D01*
X105309523Y-106738095D01*
G04 #@! TO.C,D32*
X107214285Y-98202380D02*
X107214285Y-97202380D01*
X106976190Y-97202380D01*
X106833333Y-97250000D01*
X106738095Y-97345238D01*
X106690476Y-97440476D01*
X106642857Y-97630952D01*
X106642857Y-97773809D01*
X106690476Y-97964285D01*
X106738095Y-98059523D01*
X106833333Y-98154761D01*
X106976190Y-98202380D01*
X107214285Y-98202380D01*
X106309523Y-97202380D02*
X105690476Y-97202380D01*
X106023809Y-97583333D01*
X105880952Y-97583333D01*
X105785714Y-97630952D01*
X105738095Y-97678571D01*
X105690476Y-97773809D01*
X105690476Y-98011904D01*
X105738095Y-98107142D01*
X105785714Y-98154761D01*
X105880952Y-98202380D01*
X106166666Y-98202380D01*
X106261904Y-98154761D01*
X106309523Y-98107142D01*
X105309523Y-97297619D02*
X105261904Y-97250000D01*
X105166666Y-97202380D01*
X104928571Y-97202380D01*
X104833333Y-97250000D01*
X104785714Y-97297619D01*
X104738095Y-97392857D01*
X104738095Y-97488095D01*
X104785714Y-97630952D01*
X105357142Y-98202380D01*
X104738095Y-98202380D01*
G04 #@! TO.C,U5*
X110761904Y-109452380D02*
X110761904Y-110261904D01*
X110714285Y-110357142D01*
X110666666Y-110404761D01*
X110571428Y-110452380D01*
X110380952Y-110452380D01*
X110285714Y-110404761D01*
X110238095Y-110357142D01*
X110190476Y-110261904D01*
X110190476Y-109452380D01*
X109238095Y-109452380D02*
X109714285Y-109452380D01*
X109761904Y-109928571D01*
X109714285Y-109880952D01*
X109619047Y-109833333D01*
X109380952Y-109833333D01*
X109285714Y-109880952D01*
X109238095Y-109928571D01*
X109190476Y-110023809D01*
X109190476Y-110261904D01*
X109238095Y-110357142D01*
X109285714Y-110404761D01*
X109380952Y-110452380D01*
X109619047Y-110452380D01*
X109714285Y-110404761D01*
X109761904Y-110357142D01*
X110761904Y-109452380D02*
X110761904Y-110261904D01*
X110714285Y-110357142D01*
X110666666Y-110404761D01*
X110571428Y-110452380D01*
X110380952Y-110452380D01*
X110285714Y-110404761D01*
X110238095Y-110357142D01*
X110190476Y-110261904D01*
X110190476Y-109452380D01*
X109238095Y-109452380D02*
X109714285Y-109452380D01*
X109761904Y-109928571D01*
X109714285Y-109880952D01*
X109619047Y-109833333D01*
X109380952Y-109833333D01*
X109285714Y-109880952D01*
X109238095Y-109928571D01*
X109190476Y-110023809D01*
X109190476Y-110261904D01*
X109238095Y-110357142D01*
X109285714Y-110404761D01*
X109380952Y-110452380D01*
X109619047Y-110452380D01*
X109714285Y-110404761D01*
X109761904Y-110357142D01*
X109250000Y-112395722D02*
X109250000Y-112633818D01*
X109488095Y-112538580D02*
X109250000Y-112633818D01*
X109011904Y-112538580D01*
X109392857Y-112824294D02*
X109250000Y-112633818D01*
X109107142Y-112824294D01*
G04 #@! TO.C,D33*
X107464285Y-93952380D02*
X107464285Y-92952380D01*
X107226190Y-92952380D01*
X107083333Y-93000000D01*
X106988095Y-93095238D01*
X106940476Y-93190476D01*
X106892857Y-93380952D01*
X106892857Y-93523809D01*
X106940476Y-93714285D01*
X106988095Y-93809523D01*
X107083333Y-93904761D01*
X107226190Y-93952380D01*
X107464285Y-93952380D01*
X106559523Y-92952380D02*
X105940476Y-92952380D01*
X106273809Y-93333333D01*
X106130952Y-93333333D01*
X106035714Y-93380952D01*
X105988095Y-93428571D01*
X105940476Y-93523809D01*
X105940476Y-93761904D01*
X105988095Y-93857142D01*
X106035714Y-93904761D01*
X106130952Y-93952380D01*
X106416666Y-93952380D01*
X106511904Y-93904761D01*
X106559523Y-93857142D01*
X105607142Y-92952380D02*
X104988095Y-92952380D01*
X105321428Y-93333333D01*
X105178571Y-93333333D01*
X105083333Y-93380952D01*
X105035714Y-93428571D01*
X104988095Y-93523809D01*
X104988095Y-93761904D01*
X105035714Y-93857142D01*
X105083333Y-93904761D01*
X105178571Y-93952380D01*
X105464285Y-93952380D01*
X105559523Y-93904761D01*
X105607142Y-93857142D01*
G04 #@! TO.C,D34*
X108164285Y-90452380D02*
X108164285Y-89452380D01*
X107926190Y-89452380D01*
X107783333Y-89500000D01*
X107688095Y-89595238D01*
X107640476Y-89690476D01*
X107592857Y-89880952D01*
X107592857Y-90023809D01*
X107640476Y-90214285D01*
X107688095Y-90309523D01*
X107783333Y-90404761D01*
X107926190Y-90452380D01*
X108164285Y-90452380D01*
X107259523Y-89452380D02*
X106640476Y-89452380D01*
X106973809Y-89833333D01*
X106830952Y-89833333D01*
X106735714Y-89880952D01*
X106688095Y-89928571D01*
X106640476Y-90023809D01*
X106640476Y-90261904D01*
X106688095Y-90357142D01*
X106735714Y-90404761D01*
X106830952Y-90452380D01*
X107116666Y-90452380D01*
X107211904Y-90404761D01*
X107259523Y-90357142D01*
X105783333Y-89785714D02*
X105783333Y-90452380D01*
X106021428Y-89404761D02*
X106259523Y-90119047D01*
X105640476Y-90119047D01*
G04 #@! TO.C,D35*
X108164285Y-86452380D02*
X108164285Y-85452380D01*
X107926190Y-85452380D01*
X107783333Y-85500000D01*
X107688095Y-85595238D01*
X107640476Y-85690476D01*
X107592857Y-85880952D01*
X107592857Y-86023809D01*
X107640476Y-86214285D01*
X107688095Y-86309523D01*
X107783333Y-86404761D01*
X107926190Y-86452380D01*
X108164285Y-86452380D01*
X107259523Y-85452380D02*
X106640476Y-85452380D01*
X106973809Y-85833333D01*
X106830952Y-85833333D01*
X106735714Y-85880952D01*
X106688095Y-85928571D01*
X106640476Y-86023809D01*
X106640476Y-86261904D01*
X106688095Y-86357142D01*
X106735714Y-86404761D01*
X106830952Y-86452380D01*
X107116666Y-86452380D01*
X107211904Y-86404761D01*
X107259523Y-86357142D01*
X105735714Y-85452380D02*
X106211904Y-85452380D01*
X106259523Y-85928571D01*
X106211904Y-85880952D01*
X106116666Y-85833333D01*
X105878571Y-85833333D01*
X105783333Y-85880952D01*
X105735714Y-85928571D01*
X105688095Y-86023809D01*
X105688095Y-86261904D01*
X105735714Y-86357142D01*
X105783333Y-86404761D01*
X105878571Y-86452380D01*
X106116666Y-86452380D01*
X106211904Y-86404761D01*
X106259523Y-86357142D01*
G04 #@! TO.C,D36*
X104164285Y-86452380D02*
X104164285Y-85452380D01*
X103926190Y-85452380D01*
X103783333Y-85500000D01*
X103688095Y-85595238D01*
X103640476Y-85690476D01*
X103592857Y-85880952D01*
X103592857Y-86023809D01*
X103640476Y-86214285D01*
X103688095Y-86309523D01*
X103783333Y-86404761D01*
X103926190Y-86452380D01*
X104164285Y-86452380D01*
X103259523Y-85452380D02*
X102640476Y-85452380D01*
X102973809Y-85833333D01*
X102830952Y-85833333D01*
X102735714Y-85880952D01*
X102688095Y-85928571D01*
X102640476Y-86023809D01*
X102640476Y-86261904D01*
X102688095Y-86357142D01*
X102735714Y-86404761D01*
X102830952Y-86452380D01*
X103116666Y-86452380D01*
X103211904Y-86404761D01*
X103259523Y-86357142D01*
X101783333Y-85452380D02*
X101973809Y-85452380D01*
X102069047Y-85500000D01*
X102116666Y-85547619D01*
X102211904Y-85690476D01*
X102259523Y-85880952D01*
X102259523Y-86261904D01*
X102211904Y-86357142D01*
X102164285Y-86404761D01*
X102069047Y-86452380D01*
X101878571Y-86452380D01*
X101783333Y-86404761D01*
X101735714Y-86357142D01*
X101688095Y-86261904D01*
X101688095Y-86023809D01*
X101735714Y-85928571D01*
X101783333Y-85880952D01*
X101878571Y-85833333D01*
X102069047Y-85833333D01*
X102164285Y-85880952D01*
X102211904Y-85928571D01*
X102259523Y-86023809D01*
G04 #@! TO.C,D37*
X99714285Y-86452380D02*
X99714285Y-85452380D01*
X99476190Y-85452380D01*
X99333333Y-85500000D01*
X99238095Y-85595238D01*
X99190476Y-85690476D01*
X99142857Y-85880952D01*
X99142857Y-86023809D01*
X99190476Y-86214285D01*
X99238095Y-86309523D01*
X99333333Y-86404761D01*
X99476190Y-86452380D01*
X99714285Y-86452380D01*
X98809523Y-85452380D02*
X98190476Y-85452380D01*
X98523809Y-85833333D01*
X98380952Y-85833333D01*
X98285714Y-85880952D01*
X98238095Y-85928571D01*
X98190476Y-86023809D01*
X98190476Y-86261904D01*
X98238095Y-86357142D01*
X98285714Y-86404761D01*
X98380952Y-86452380D01*
X98666666Y-86452380D01*
X98761904Y-86404761D01*
X98809523Y-86357142D01*
X97857142Y-85452380D02*
X97190476Y-85452380D01*
X97619047Y-86452380D01*
G04 #@! TO.C,D38*
X99664285Y-91452380D02*
X99664285Y-90452380D01*
X99426190Y-90452380D01*
X99283333Y-90500000D01*
X99188095Y-90595238D01*
X99140476Y-90690476D01*
X99092857Y-90880952D01*
X99092857Y-91023809D01*
X99140476Y-91214285D01*
X99188095Y-91309523D01*
X99283333Y-91404761D01*
X99426190Y-91452380D01*
X99664285Y-91452380D01*
X98759523Y-90452380D02*
X98140476Y-90452380D01*
X98473809Y-90833333D01*
X98330952Y-90833333D01*
X98235714Y-90880952D01*
X98188095Y-90928571D01*
X98140476Y-91023809D01*
X98140476Y-91261904D01*
X98188095Y-91357142D01*
X98235714Y-91404761D01*
X98330952Y-91452380D01*
X98616666Y-91452380D01*
X98711904Y-91404761D01*
X98759523Y-91357142D01*
X97569047Y-90880952D02*
X97664285Y-90833333D01*
X97711904Y-90785714D01*
X97759523Y-90690476D01*
X97759523Y-90642857D01*
X97711904Y-90547619D01*
X97664285Y-90500000D01*
X97569047Y-90452380D01*
X97378571Y-90452380D01*
X97283333Y-90500000D01*
X97235714Y-90547619D01*
X97188095Y-90642857D01*
X97188095Y-90690476D01*
X97235714Y-90785714D01*
X97283333Y-90833333D01*
X97378571Y-90880952D01*
X97569047Y-90880952D01*
X97664285Y-90928571D01*
X97711904Y-90976190D01*
X97759523Y-91071428D01*
X97759523Y-91261904D01*
X97711904Y-91357142D01*
X97664285Y-91404761D01*
X97569047Y-91452380D01*
X97378571Y-91452380D01*
X97283333Y-91404761D01*
X97235714Y-91357142D01*
X97188095Y-91261904D01*
X97188095Y-91071428D01*
X97235714Y-90976190D01*
X97283333Y-90928571D01*
X97378571Y-90880952D01*
G04 #@! TO.C,U6*
X92511904Y-87952380D02*
X92511904Y-88761904D01*
X92464285Y-88857142D01*
X92416666Y-88904761D01*
X92321428Y-88952380D01*
X92130952Y-88952380D01*
X92035714Y-88904761D01*
X91988095Y-88857142D01*
X91940476Y-88761904D01*
X91940476Y-87952380D01*
X91035714Y-87952380D02*
X91226190Y-87952380D01*
X91321428Y-88000000D01*
X91369047Y-88047619D01*
X91464285Y-88190476D01*
X91511904Y-88380952D01*
X91511904Y-88761904D01*
X91464285Y-88857142D01*
X91416666Y-88904761D01*
X91321428Y-88952380D01*
X91130952Y-88952380D01*
X91035714Y-88904761D01*
X90988095Y-88857142D01*
X90940476Y-88761904D01*
X90940476Y-88523809D01*
X90988095Y-88428571D01*
X91035714Y-88380952D01*
X91130952Y-88333333D01*
X91321428Y-88333333D01*
X91416666Y-88380952D01*
X91464285Y-88428571D01*
X91511904Y-88523809D01*
X95761904Y-88285714D02*
X95761904Y-88952380D01*
X96190476Y-88285714D02*
X96190476Y-88809523D01*
X96142857Y-88904761D01*
X96047619Y-88952380D01*
X95904761Y-88952380D01*
X95809523Y-88904761D01*
X95761904Y-88857142D01*
X94857142Y-87952380D02*
X95047619Y-87952380D01*
X95142857Y-88000000D01*
X95190476Y-88047619D01*
X95285714Y-88190476D01*
X95333333Y-88380952D01*
X95333333Y-88761904D01*
X95285714Y-88857142D01*
X95238095Y-88904761D01*
X95142857Y-88952380D01*
X94952380Y-88952380D01*
X94857142Y-88904761D01*
X94809523Y-88857142D01*
X94761904Y-88761904D01*
X94761904Y-88523809D01*
X94809523Y-88428571D01*
X94857142Y-88380952D01*
X94952380Y-88333333D01*
X95142857Y-88333333D01*
X95238095Y-88380952D01*
X95285714Y-88428571D01*
X95333333Y-88523809D01*
X94750000Y-90895722D02*
X94750000Y-91133818D01*
X94988095Y-91038580D02*
X94750000Y-91133818D01*
X94511904Y-91038580D01*
X94892857Y-91324294D02*
X94750000Y-91133818D01*
X94607142Y-91324294D01*
G04 #@! TO.C,R1*
X108166666Y-118452380D02*
X108500000Y-117976190D01*
X108738095Y-118452380D02*
X108738095Y-117452380D01*
X108357142Y-117452380D01*
X108261904Y-117500000D01*
X108214285Y-117547619D01*
X108166666Y-117642857D01*
X108166666Y-117785714D01*
X108214285Y-117880952D01*
X108261904Y-117928571D01*
X108357142Y-117976190D01*
X108738095Y-117976190D01*
X107214285Y-118452380D02*
X107785714Y-118452380D01*
X107500000Y-118452380D02*
X107500000Y-117452380D01*
X107595238Y-117595238D01*
X107690476Y-117690476D01*
X107785714Y-117738095D01*
G04 #@! TO.C,J1*
X110650333Y-79328480D02*
X110650333Y-80042766D01*
X110697952Y-80185623D01*
X110793190Y-80280861D01*
X110936047Y-80328480D01*
X111031285Y-80328480D01*
X109650333Y-80328480D02*
X110221761Y-80328480D01*
X109936047Y-80328480D02*
X109936047Y-79328480D01*
X110031285Y-79471338D01*
X110126523Y-79566576D01*
X110221761Y-79614195D01*
X118747952Y-81897528D02*
X117986047Y-81897528D01*
X118367000Y-82278480D02*
X118367000Y-81516576D01*
X110747952Y-78397528D02*
X109986047Y-78397528D01*
X102747952Y-81897528D02*
X101986047Y-81897528D01*
X102367000Y-82278480D02*
X102367000Y-81516576D01*
G04 #@! TD*
M02*
