G04 #@! TF.GenerationSoftware,KiCad,Pcbnew,(5.0.0)*
G04 #@! TF.CreationDate,2019-05-30T18:33:39-04:00*
G04 #@! TF.ProjectId,Tiny-er T,54696E792D657220542E6B696361645F,rev?*
G04 #@! TF.SameCoordinates,Original*
G04 #@! TF.FileFunction,Soldermask,Bot*
G04 #@! TF.FilePolarity,Negative*
%FSLAX46Y46*%
G04 Gerber Fmt 4.6, Leading zero omitted, Abs format (unit mm)*
G04 Created by KiCad (PCBNEW (5.0.0)) date 05/30/19 18:33:39*
%MOMM*%
%LPD*%
G01*
G04 APERTURE LIST*
%ADD10R,1.950000X1.000000*%
%ADD11R,1.400000X3.150000*%
%ADD12R,2.450000X2.450000*%
%ADD13R,1.249884X0.679908*%
%ADD14R,0.679908X1.249884*%
%ADD15C,4.400000*%
%ADD16R,4.900000X4.900000*%
%ADD17O,1.400000X1.400000*%
%ADD18R,1.400000X1.400000*%
G04 APERTURE END LIST*
D10*
G04 #@! TO.C,U1*
X111000000Y-115500000D03*
X111000000Y-116765000D03*
X111000000Y-118035000D03*
X111000000Y-119305000D03*
X118000000Y-119305000D03*
X118000000Y-118035000D03*
X118000000Y-116765000D03*
X118000000Y-115495000D03*
G04 #@! TD*
D11*
G04 #@! TO.C,SW1*
X112000000Y-98870000D03*
X112000000Y-104630000D03*
X108000000Y-104630000D03*
X108000000Y-98870000D03*
G04 #@! TD*
D12*
G04 #@! TO.C,U4*
X110000000Y-93750000D03*
D13*
X108269000Y-94500001D03*
D14*
X108999999Y-95519001D03*
X109500001Y-95519001D03*
X110000000Y-95519001D03*
X110499999Y-95519001D03*
X111000001Y-95519001D03*
D13*
X111731000Y-94500001D03*
X111731000Y-92999999D03*
D14*
X111000001Y-91980999D03*
X110499999Y-91980999D03*
X110000000Y-91980999D03*
X109500001Y-91980999D03*
X108999999Y-91980999D03*
D13*
X108269000Y-92999999D03*
G04 #@! TD*
D12*
G04 #@! TO.C,U3*
X124500000Y-88500000D03*
D14*
X125250001Y-90231000D03*
D13*
X126269001Y-89500001D03*
X126269001Y-88999999D03*
X126269001Y-88500000D03*
X126269001Y-88000001D03*
X126269001Y-87499999D03*
D14*
X125250001Y-86769000D03*
X123749999Y-86769000D03*
D13*
X122730999Y-87499999D03*
X122730999Y-88000001D03*
X122730999Y-88500000D03*
X122730999Y-88999999D03*
X122730999Y-89500001D03*
D14*
X123749999Y-90231000D03*
G04 #@! TD*
D12*
G04 #@! TO.C,U5*
X110000000Y-110000000D03*
D14*
X110750001Y-111731000D03*
D13*
X111769001Y-111000001D03*
X111769001Y-110499999D03*
X111769001Y-110000000D03*
X111769001Y-109500001D03*
X111769001Y-108999999D03*
D14*
X110750001Y-108269000D03*
X109249999Y-108269000D03*
D13*
X108230999Y-108999999D03*
X108230999Y-109500001D03*
X108230999Y-110000000D03*
X108230999Y-110499999D03*
X108230999Y-111000001D03*
D14*
X109249999Y-111731000D03*
G04 #@! TD*
G04 #@! TO.C,U6*
X94749999Y-90231000D03*
D13*
X93730999Y-89500001D03*
X93730999Y-88999999D03*
X93730999Y-88500000D03*
X93730999Y-88000001D03*
X93730999Y-87499999D03*
D14*
X94749999Y-86769000D03*
X96250001Y-86769000D03*
D13*
X97269001Y-87499999D03*
X97269001Y-88000001D03*
X97269001Y-88500000D03*
X97269001Y-88999999D03*
X97269001Y-89500001D03*
D14*
X96250001Y-90231000D03*
D12*
X95500000Y-88500000D03*
G04 #@! TD*
D15*
G04 #@! TO.C,J1*
X99567000Y-81826100D03*
X121167000Y-81826100D03*
D16*
X110367000Y-81826100D03*
G04 #@! TD*
D17*
G04 #@! TO.C,J2*
X105810000Y-117230000D03*
X105810000Y-118500000D03*
X104540000Y-117230000D03*
X104540000Y-118500000D03*
X103270000Y-117230000D03*
X103270000Y-118500000D03*
X102000000Y-117230000D03*
D18*
X102000000Y-118500000D03*
G04 #@! TD*
M02*
