G04 #@! TF.GenerationSoftware,KiCad,Pcbnew,(5.0.0)*
G04 #@! TF.CreationDate,2019-05-30T18:33:38-04:00*
G04 #@! TF.ProjectId,Tiny-er T,54696E792D657220542E6B696361645F,rev?*
G04 #@! TF.SameCoordinates,Original*
G04 #@! TF.FileFunction,Legend,Top*
G04 #@! TF.FilePolarity,Positive*
%FSLAX46Y46*%
G04 Gerber Fmt 4.6, Leading zero omitted, Abs format (unit mm)*
G04 Created by KiCad (PCBNEW (5.0.0)) date 05/30/19 18:33:38*
%MOMM*%
%LPD*%
G01*
G04 APERTURE LIST*
%ADD10C,0.120000*%
%ADD11C,0.100000*%
%ADD12C,0.152400*%
%ADD13C,0.150000*%
G04 APERTURE END LIST*
D10*
G04 #@! TO.C,D1*
X91350000Y-90200000D02*
X91350000Y-91800000D01*
X91350000Y-91800000D02*
X93950000Y-91800000D01*
X91350000Y-90200000D02*
X93950000Y-90200000D01*
D11*
X91050000Y-91800000D02*
X91050000Y-90200000D01*
D10*
G04 #@! TO.C,D2*
X91350000Y-85200000D02*
X91350000Y-86800000D01*
X91350000Y-86800000D02*
X93950000Y-86800000D01*
X91350000Y-85200000D02*
X93950000Y-85200000D01*
D11*
X91050000Y-86800000D02*
X91050000Y-85200000D01*
D10*
G04 #@! TO.C,D3*
X91350000Y-81200000D02*
X91350000Y-82800000D01*
X91350000Y-82800000D02*
X93950000Y-82800000D01*
X91350000Y-81200000D02*
X93950000Y-81200000D01*
D11*
X91050000Y-82800000D02*
X91050000Y-81200000D01*
D10*
G04 #@! TO.C,D4*
X91350000Y-77200000D02*
X91350000Y-78800000D01*
X91350000Y-78800000D02*
X93950000Y-78800000D01*
X91350000Y-77200000D02*
X93950000Y-77200000D01*
D11*
X91050000Y-78800000D02*
X91050000Y-77200000D01*
D10*
G04 #@! TO.C,D5*
X98400000Y-77200000D02*
X98400000Y-78800000D01*
X98400000Y-78800000D02*
X101000000Y-78800000D01*
X98400000Y-77200000D02*
X101000000Y-77200000D01*
D11*
X98100000Y-78800000D02*
X98100000Y-77200000D01*
D10*
G04 #@! TO.C,D6*
X105350000Y-77200000D02*
X105350000Y-78800000D01*
X105350000Y-78800000D02*
X107950000Y-78800000D01*
X105350000Y-77200000D02*
X107950000Y-77200000D01*
D11*
X105050000Y-78800000D02*
X105050000Y-77200000D01*
D10*
G04 #@! TO.C,D7*
X112350000Y-77200000D02*
X112350000Y-78800000D01*
X112350000Y-78800000D02*
X114950000Y-78800000D01*
X112350000Y-77200000D02*
X114950000Y-77200000D01*
D11*
X112050000Y-78800000D02*
X112050000Y-77200000D01*
D10*
G04 #@! TO.C,D8*
X118450000Y-77200000D02*
X118450000Y-78800000D01*
X118450000Y-78800000D02*
X121050000Y-78800000D01*
X118450000Y-77200000D02*
X121050000Y-77200000D01*
D11*
X118150000Y-78800000D02*
X118150000Y-77200000D01*
D10*
G04 #@! TO.C,D9*
X125350000Y-77200000D02*
X125350000Y-78800000D01*
X125350000Y-78800000D02*
X127950000Y-78800000D01*
X125350000Y-77200000D02*
X127950000Y-77200000D01*
D11*
X125050000Y-78800000D02*
X125050000Y-77200000D01*
D10*
G04 #@! TO.C,D10*
X125350000Y-81200000D02*
X125350000Y-82800000D01*
X125350000Y-82800000D02*
X127950000Y-82800000D01*
X125350000Y-81200000D02*
X127950000Y-81200000D01*
D11*
X125050000Y-82800000D02*
X125050000Y-81200000D01*
D10*
G04 #@! TO.C,D11*
X125450000Y-85200000D02*
X125450000Y-86800000D01*
X125450000Y-86800000D02*
X128050000Y-86800000D01*
X125450000Y-85200000D02*
X128050000Y-85200000D01*
D11*
X125150000Y-86800000D02*
X125150000Y-85200000D01*
D10*
G04 #@! TO.C,D12*
X125450000Y-90200000D02*
X125450000Y-91800000D01*
X125450000Y-91800000D02*
X128050000Y-91800000D01*
X125450000Y-90200000D02*
X128050000Y-90200000D01*
D11*
X125150000Y-91800000D02*
X125150000Y-90200000D01*
D10*
G04 #@! TO.C,D13*
X120450000Y-90200000D02*
X120450000Y-91800000D01*
X120450000Y-91800000D02*
X123050000Y-91800000D01*
X120450000Y-90200000D02*
X123050000Y-90200000D01*
D11*
X120150000Y-91800000D02*
X120150000Y-90200000D01*
D10*
G04 #@! TO.C,D14*
X120450000Y-85200000D02*
X120450000Y-86800000D01*
X120450000Y-86800000D02*
X123050000Y-86800000D01*
X120450000Y-85200000D02*
X123050000Y-85200000D01*
D11*
X120150000Y-86800000D02*
X120150000Y-85200000D01*
D10*
G04 #@! TO.C,D15*
X115950000Y-85200000D02*
X115950000Y-86800000D01*
X115950000Y-86800000D02*
X118550000Y-86800000D01*
X115950000Y-85200000D02*
X118550000Y-85200000D01*
D11*
X115650000Y-86800000D02*
X115650000Y-85200000D01*
D10*
G04 #@! TO.C,D16*
X111400000Y-85200000D02*
X111400000Y-86800000D01*
X111400000Y-86800000D02*
X114000000Y-86800000D01*
X111400000Y-85200000D02*
X114000000Y-85200000D01*
D11*
X111100000Y-86800000D02*
X111100000Y-85200000D01*
D10*
G04 #@! TO.C,D17*
X111350000Y-89200000D02*
X111350000Y-90800000D01*
X111350000Y-90800000D02*
X113950000Y-90800000D01*
X111350000Y-89200000D02*
X113950000Y-89200000D01*
D11*
X111050000Y-90800000D02*
X111050000Y-89200000D01*
D10*
G04 #@! TO.C,D18*
X111400000Y-94200000D02*
X111400000Y-95800000D01*
X111400000Y-95800000D02*
X114000000Y-95800000D01*
X111400000Y-94200000D02*
X114000000Y-94200000D01*
D11*
X111100000Y-95800000D02*
X111100000Y-94200000D01*
D10*
G04 #@! TO.C,D19*
X111400000Y-99200000D02*
X111400000Y-100800000D01*
X111400000Y-100800000D02*
X114000000Y-100800000D01*
X111400000Y-99200000D02*
X114000000Y-99200000D01*
D11*
X111100000Y-100800000D02*
X111100000Y-99200000D01*
D10*
G04 #@! TO.C,D20*
X111350000Y-104200000D02*
X111350000Y-105800000D01*
X111350000Y-105800000D02*
X113950000Y-105800000D01*
X111350000Y-104200000D02*
X113950000Y-104200000D01*
D11*
X111050000Y-105800000D02*
X111050000Y-104200000D01*
D10*
G04 #@! TO.C,D21*
X111350000Y-114200000D02*
X111350000Y-115800000D01*
X111350000Y-115800000D02*
X113950000Y-115800000D01*
X111350000Y-114200000D02*
X113950000Y-114200000D01*
D11*
X111050000Y-115800000D02*
X111050000Y-114200000D01*
D10*
G04 #@! TO.C,D22*
X117350000Y-114200000D02*
X117350000Y-115800000D01*
X117350000Y-115800000D02*
X119950000Y-115800000D01*
X117350000Y-114200000D02*
X119950000Y-114200000D01*
D11*
X117050000Y-115800000D02*
X117050000Y-114200000D01*
D10*
G04 #@! TO.C,D23*
X117350000Y-120200000D02*
X117350000Y-121800000D01*
X117350000Y-121800000D02*
X119950000Y-121800000D01*
X117350000Y-120200000D02*
X119950000Y-120200000D01*
D11*
X117050000Y-121800000D02*
X117050000Y-120200000D01*
D10*
G04 #@! TO.C,D24*
X111400000Y-109200000D02*
X111400000Y-110800000D01*
X111400000Y-110800000D02*
X114000000Y-110800000D01*
X111400000Y-109200000D02*
X114000000Y-109200000D01*
D11*
X111100000Y-110800000D02*
X111100000Y-109200000D01*
D12*
G04 #@! TO.C,U2*
X112697943Y-82559499D02*
X112951943Y-82559499D01*
X112697943Y-82940499D02*
X112697943Y-82559499D01*
X112951943Y-82940499D02*
X112697943Y-82940499D01*
X112951943Y-82559499D02*
X112951943Y-82940499D01*
X110527307Y-80298000D02*
X109972693Y-80298000D01*
X112202000Y-80777305D02*
X112202000Y-80298000D01*
X111472695Y-84202000D02*
X112202000Y-84202000D01*
X109972693Y-84202000D02*
X110527307Y-84202000D01*
X108298000Y-83722695D02*
X108298000Y-84202000D01*
X109027305Y-80298000D02*
X108298000Y-80298000D01*
X108298000Y-80298000D02*
X108298000Y-80777305D01*
X112202000Y-80298000D02*
X111472695Y-80298000D01*
X112202000Y-84202000D02*
X112202000Y-83722695D01*
X108298000Y-84202000D02*
X109027305Y-84202000D01*
D10*
G04 #@! TO.C,D25*
X111350000Y-120200000D02*
X111350000Y-121800000D01*
X111350000Y-121800000D02*
X113950000Y-121800000D01*
X111350000Y-120200000D02*
X113950000Y-120200000D01*
D11*
X111050000Y-121800000D02*
X111050000Y-120200000D01*
D10*
G04 #@! TO.C,D26*
X105400000Y-120200000D02*
X105400000Y-121800000D01*
X105400000Y-121800000D02*
X108000000Y-121800000D01*
X105400000Y-120200000D02*
X108000000Y-120200000D01*
D11*
X105100000Y-121800000D02*
X105100000Y-120200000D01*
D10*
G04 #@! TO.C,D27*
X100350000Y-120200000D02*
X100350000Y-121800000D01*
X100350000Y-121800000D02*
X102950000Y-121800000D01*
X100350000Y-120200000D02*
X102950000Y-120200000D01*
D11*
X100050000Y-121800000D02*
X100050000Y-120200000D01*
D10*
G04 #@! TO.C,D28*
X100400000Y-114200000D02*
X100400000Y-115800000D01*
X100400000Y-115800000D02*
X103000000Y-115800000D01*
X100400000Y-114200000D02*
X103000000Y-114200000D01*
D11*
X100100000Y-115800000D02*
X100100000Y-114200000D01*
D10*
G04 #@! TO.C,D29*
X105400000Y-114200000D02*
X105400000Y-115800000D01*
X105400000Y-115800000D02*
X108000000Y-115800000D01*
X105400000Y-114200000D02*
X108000000Y-114200000D01*
D11*
X105100000Y-115800000D02*
X105100000Y-114200000D01*
D10*
G04 #@! TO.C,D30*
X105400000Y-109200000D02*
X105400000Y-110800000D01*
X105400000Y-110800000D02*
X108000000Y-110800000D01*
X105400000Y-109200000D02*
X108000000Y-109200000D01*
D11*
X105100000Y-110800000D02*
X105100000Y-109200000D01*
D10*
G04 #@! TO.C,D31*
X105400000Y-104200000D02*
X105400000Y-105800000D01*
X105400000Y-105800000D02*
X108000000Y-105800000D01*
X105400000Y-104200000D02*
X108000000Y-104200000D01*
D11*
X105100000Y-105800000D02*
X105100000Y-104200000D01*
D10*
G04 #@! TO.C,D32*
X105400000Y-99200000D02*
X105400000Y-100800000D01*
X105400000Y-100800000D02*
X108000000Y-100800000D01*
X105400000Y-99200000D02*
X108000000Y-99200000D01*
D11*
X105100000Y-100800000D02*
X105100000Y-99200000D01*
G04 #@! TO.C,D33*
X105150000Y-95800000D02*
X105150000Y-94200000D01*
D10*
X105450000Y-94200000D02*
X108050000Y-94200000D01*
X105450000Y-95800000D02*
X108050000Y-95800000D01*
X105450000Y-94200000D02*
X105450000Y-95800000D01*
G04 #@! TO.C,D34*
X105350000Y-89200000D02*
X105350000Y-90800000D01*
X105350000Y-90800000D02*
X107950000Y-90800000D01*
X105350000Y-89200000D02*
X107950000Y-89200000D01*
D11*
X105050000Y-90800000D02*
X105050000Y-89200000D01*
G04 #@! TO.C,D35*
X105050000Y-86800000D02*
X105050000Y-85200000D01*
D10*
X105350000Y-85200000D02*
X107950000Y-85200000D01*
X105350000Y-86800000D02*
X107950000Y-86800000D01*
X105350000Y-85200000D02*
X105350000Y-86800000D01*
G04 #@! TO.C,D36*
X101350000Y-85200000D02*
X101350000Y-86800000D01*
X101350000Y-86800000D02*
X103950000Y-86800000D01*
X101350000Y-85200000D02*
X103950000Y-85200000D01*
D11*
X101050000Y-86800000D02*
X101050000Y-85200000D01*
G04 #@! TO.C,D37*
X96600000Y-86800000D02*
X96600000Y-85200000D01*
D10*
X96900000Y-85200000D02*
X99500000Y-85200000D01*
X96900000Y-86800000D02*
X99500000Y-86800000D01*
X96900000Y-85200000D02*
X96900000Y-86800000D01*
G04 #@! TO.C,D38*
X96850000Y-90200000D02*
X96850000Y-91800000D01*
X96850000Y-91800000D02*
X99450000Y-91800000D01*
X96850000Y-90200000D02*
X99450000Y-90200000D01*
D11*
X96550000Y-91800000D02*
X96550000Y-90200000D01*
D10*
G04 #@! TO.C,R1*
X109450000Y-117120000D02*
X110650000Y-117120000D01*
X110650000Y-118880000D02*
X109450000Y-118880000D01*
G04 #@! TO.C,J2*
X101240000Y-119630000D02*
X101240000Y-118500000D01*
X102000000Y-119630000D02*
X101240000Y-119630000D01*
X101305000Y-116922470D02*
X101305000Y-116100000D01*
X101305000Y-117740000D02*
X101305000Y-117537530D01*
X101436529Y-117740000D02*
X101305000Y-117740000D01*
X102706529Y-117740000D02*
X102563471Y-117740000D01*
X102760000Y-117936529D02*
X102760000Y-117793471D01*
X102760000Y-119630000D02*
X102760000Y-119063471D01*
X101305000Y-116100000D02*
X106505000Y-116100000D01*
X102760000Y-119630000D02*
X106505000Y-119630000D01*
X106505000Y-118192470D02*
X106505000Y-117537530D01*
X106505000Y-116922470D02*
X106505000Y-116100000D01*
X106505000Y-119630000D02*
X106505000Y-118807530D01*
G04 #@! TO.C,U2*
D13*
X109488095Y-81702380D02*
X109488095Y-82511904D01*
X109535714Y-82607142D01*
X109583333Y-82654761D01*
X109678571Y-82702380D01*
X109869047Y-82702380D01*
X109964285Y-82654761D01*
X110011904Y-82607142D01*
X110059523Y-82511904D01*
X110059523Y-81702380D01*
X110488095Y-81797619D02*
X110535714Y-81750000D01*
X110630952Y-81702380D01*
X110869047Y-81702380D01*
X110964285Y-81750000D01*
X111011904Y-81797619D01*
X111059523Y-81892857D01*
X111059523Y-81988095D01*
X111011904Y-82130952D01*
X110440476Y-82702380D01*
X111059523Y-82702380D01*
X109500000Y-78759038D02*
X109500000Y-78997134D01*
X109261904Y-78901896D02*
X109500000Y-78997134D01*
X109738095Y-78901896D01*
X109357142Y-79187610D02*
X109500000Y-78997134D01*
X109642857Y-79187610D01*
G04 #@! TO.C,J2*
X99757380Y-118198333D02*
X100471666Y-118198333D01*
X100614523Y-118245952D01*
X100709761Y-118341190D01*
X100757380Y-118484047D01*
X100757380Y-118579285D01*
X99852619Y-117769761D02*
X99805000Y-117722142D01*
X99757380Y-117626904D01*
X99757380Y-117388809D01*
X99805000Y-117293571D01*
X99852619Y-117245952D01*
X99947857Y-117198333D01*
X100043095Y-117198333D01*
X100185952Y-117245952D01*
X100757380Y-117817380D01*
X100757380Y-117198333D01*
G04 #@! TD*
M02*
