M48
;DRILL file {KiCad (5.0.0)} date 05/30/19 18:33:45
;FORMAT={-:-/ absolute / metric / decimal}
FMAT,2
METRIC,TZ
T1C0.400
T2C0.650
T3C2.000
%
G90
G05
M71
T1
X91.655Y-87.489
X92.424Y-84.656
X95.464Y-90.174
X95.54Y-86.693
X98.263Y-88.446
X98.59Y-87.095
X102.783Y-81.346
X103.05Y-113.685
X103.295Y-122.242
X103.581Y-83.996
X103.709Y-80.863
X104.876Y-79.786
X105.281Y-82.604
X105.808Y-84.538
X105.876Y-87.953
X106.261Y-102.083
X106.268Y-82.274
X106.336Y-92.27
X106.381Y-108.845
X106.89Y-90.722
X107.028Y-86.123
X107.448Y-111.627
X107.455Y-79.801
X107.826Y-117.349
X108.287Y-92.161
X108.849Y-106.464
X108.852Y-96.743
X108.992Y-114.25
X109.03Y-115.531
X109.04Y-121.495
X109.135Y-113.283
X110.451Y-97.269
X110.487Y-107.146
X110.504Y-113.122
X110.727Y-86.529
X110.748Y-89.875
X110.837Y-98.234
X111.Y-84.967
X111.26Y-102.692
X111.426Y-113.656
X111.877Y-88.423
X111.9Y-93.75
X112.001Y-112.819
X112.381Y-91.914
X112.95Y-121.056
X113.063Y-93.572
X113.197Y-83.154
X113.67Y-113.753
X113.903Y-91.208
X114.05Y-87.018
X114.05Y-92.578
X114.313Y-88.346
X114.347Y-108.128
X115.115Y-85.925
X115.664Y-82.679
X116.687Y-118.749
X118.923Y-83.236
X120.166Y-88.954
X123.13Y-84.965
X123.585Y-78.942
X124.385Y-79.762
X125.518Y-84.841
X126.796Y-83.829
X126.798Y-84.934
X127.261Y-89.279
X128.256Y-89.189
X128.507Y-87.648
T2
X102.Y-117.23
X102.Y-118.5
X103.27Y-117.23
X103.27Y-118.5
X104.54Y-117.23
X104.54Y-118.5
X105.81Y-117.23
X105.81Y-118.5
T3
X99.567Y-81.826
X121.167Y-81.826
T0
M30
