G04 #@! TF.GenerationSoftware,KiCad,Pcbnew,(5.0.0)*
G04 #@! TF.CreationDate,2019-05-30T18:33:38-04:00*
G04 #@! TF.ProjectId,Tiny-er T,54696E792D657220542E6B696361645F,rev?*
G04 #@! TF.SameCoordinates,Original*
G04 #@! TF.FileFunction,Copper,L1,Top,Signal*
G04 #@! TF.FilePolarity,Positive*
%FSLAX46Y46*%
G04 Gerber Fmt 4.6, Leading zero omitted, Abs format (unit mm)*
G04 Created by KiCad (PCBNEW (5.0.0)) date 05/30/19 18:33:38*
%MOMM*%
%LPD*%
G01*
G04 APERTURE LIST*
G04 #@! TA.AperFunction,SMDPad,CuDef*
%ADD10R,0.800000X0.900000*%
G04 #@! TD*
G04 #@! TA.AperFunction,SMDPad,CuDef*
%ADD11R,2.050000X2.050000*%
G04 #@! TD*
G04 #@! TA.AperFunction,SMDPad,CuDef*
%ADD12R,0.279908X0.849884*%
G04 #@! TD*
G04 #@! TA.AperFunction,SMDPad,CuDef*
%ADD13R,0.849884X0.279908*%
G04 #@! TD*
G04 #@! TA.AperFunction,SMDPad,CuDef*
%ADD14R,0.700000X1.300000*%
G04 #@! TD*
G04 #@! TA.AperFunction,ComponentPad*
%ADD15C,4.000000*%
G04 #@! TD*
G04 #@! TA.AperFunction,ComponentPad*
%ADD16O,1.000000X1.000000*%
G04 #@! TD*
G04 #@! TA.AperFunction,ComponentPad*
%ADD17R,1.000000X1.000000*%
G04 #@! TD*
G04 #@! TA.AperFunction,ViaPad*
%ADD18C,0.800000*%
G04 #@! TD*
G04 #@! TA.AperFunction,Conductor*
%ADD19C,0.160000*%
G04 #@! TD*
G04 APERTURE END LIST*
D10*
G04 #@! TO.P,D1,1*
G04 #@! TO.N,GND*
X91900000Y-91000000D03*
G04 #@! TO.P,D1,2*
G04 #@! TO.N,Net-(D1-Pad2)*
X94000000Y-91000000D03*
G04 #@! TD*
G04 #@! TO.P,D2,1*
G04 #@! TO.N,GND*
X91900000Y-86000000D03*
G04 #@! TO.P,D2,2*
G04 #@! TO.N,Net-(D2-Pad2)*
X94000000Y-86000000D03*
G04 #@! TD*
G04 #@! TO.P,D3,1*
G04 #@! TO.N,GND*
X91900000Y-82000000D03*
G04 #@! TO.P,D3,2*
G04 #@! TO.N,Net-(D3-Pad2)*
X94000000Y-82000000D03*
G04 #@! TD*
G04 #@! TO.P,D4,1*
G04 #@! TO.N,GND*
X91900000Y-78000000D03*
G04 #@! TO.P,D4,2*
G04 #@! TO.N,Net-(D4-Pad2)*
X94000000Y-78000000D03*
G04 #@! TD*
G04 #@! TO.P,D5,1*
G04 #@! TO.N,GND*
X98950000Y-78000000D03*
G04 #@! TO.P,D5,2*
G04 #@! TO.N,Net-(D5-Pad2)*
X101050000Y-78000000D03*
G04 #@! TD*
G04 #@! TO.P,D6,1*
G04 #@! TO.N,GND*
X105900000Y-78000000D03*
G04 #@! TO.P,D6,2*
G04 #@! TO.N,Net-(D6-Pad2)*
X108000000Y-78000000D03*
G04 #@! TD*
G04 #@! TO.P,D7,1*
G04 #@! TO.N,GND*
X112900000Y-78000000D03*
G04 #@! TO.P,D7,2*
G04 #@! TO.N,Net-(D7-Pad2)*
X115000000Y-78000000D03*
G04 #@! TD*
G04 #@! TO.P,D8,1*
G04 #@! TO.N,GND*
X119000000Y-78000000D03*
G04 #@! TO.P,D8,2*
G04 #@! TO.N,Net-(D8-Pad2)*
X121100000Y-78000000D03*
G04 #@! TD*
G04 #@! TO.P,D9,1*
G04 #@! TO.N,GND*
X125900000Y-78000000D03*
G04 #@! TO.P,D9,2*
G04 #@! TO.N,Net-(D9-Pad2)*
X128000000Y-78000000D03*
G04 #@! TD*
G04 #@! TO.P,D10,1*
G04 #@! TO.N,GND*
X125900000Y-82000000D03*
G04 #@! TO.P,D10,2*
G04 #@! TO.N,Net-(D10-Pad2)*
X128000000Y-82000000D03*
G04 #@! TD*
G04 #@! TO.P,D11,1*
G04 #@! TO.N,GND*
X126000000Y-86000000D03*
G04 #@! TO.P,D11,2*
G04 #@! TO.N,Net-(D11-Pad2)*
X128100000Y-86000000D03*
G04 #@! TD*
G04 #@! TO.P,D12,1*
G04 #@! TO.N,GND*
X126000000Y-91000000D03*
G04 #@! TO.P,D12,2*
G04 #@! TO.N,Net-(D12-Pad2)*
X128100000Y-91000000D03*
G04 #@! TD*
G04 #@! TO.P,D13,1*
G04 #@! TO.N,GND*
X121000000Y-91000000D03*
G04 #@! TO.P,D13,2*
G04 #@! TO.N,Net-(D13-Pad2)*
X123100000Y-91000000D03*
G04 #@! TD*
G04 #@! TO.P,D14,1*
G04 #@! TO.N,GND*
X121000000Y-86000000D03*
G04 #@! TO.P,D14,2*
G04 #@! TO.N,Net-(D14-Pad2)*
X123100000Y-86000000D03*
G04 #@! TD*
G04 #@! TO.P,D15,1*
G04 #@! TO.N,GND*
X116500000Y-86000000D03*
G04 #@! TO.P,D15,2*
G04 #@! TO.N,Net-(D15-Pad2)*
X118600000Y-86000000D03*
G04 #@! TD*
G04 #@! TO.P,D16,1*
G04 #@! TO.N,GND*
X111950000Y-86000000D03*
G04 #@! TO.P,D16,2*
G04 #@! TO.N,Net-(D16-Pad2)*
X114050000Y-86000000D03*
G04 #@! TD*
G04 #@! TO.P,D17,1*
G04 #@! TO.N,GND*
X111900000Y-90000000D03*
G04 #@! TO.P,D17,2*
G04 #@! TO.N,Net-(D17-Pad2)*
X114000000Y-90000000D03*
G04 #@! TD*
G04 #@! TO.P,D18,1*
G04 #@! TO.N,GND*
X111950000Y-95000000D03*
G04 #@! TO.P,D18,2*
G04 #@! TO.N,Net-(D18-Pad2)*
X114050000Y-95000000D03*
G04 #@! TD*
G04 #@! TO.P,D19,1*
G04 #@! TO.N,GND*
X111950000Y-100000000D03*
G04 #@! TO.P,D19,2*
G04 #@! TO.N,Net-(D19-Pad2)*
X114050000Y-100000000D03*
G04 #@! TD*
G04 #@! TO.P,D20,1*
G04 #@! TO.N,GND*
X111900000Y-105000000D03*
G04 #@! TO.P,D20,2*
G04 #@! TO.N,Net-(D20-Pad2)*
X114000000Y-105000000D03*
G04 #@! TD*
G04 #@! TO.P,D21,1*
G04 #@! TO.N,GND*
X111900000Y-115000000D03*
G04 #@! TO.P,D21,2*
G04 #@! TO.N,Net-(D21-Pad2)*
X114000000Y-115000000D03*
G04 #@! TD*
G04 #@! TO.P,D22,1*
G04 #@! TO.N,GND*
X117900000Y-115000000D03*
G04 #@! TO.P,D22,2*
G04 #@! TO.N,Net-(D22-Pad2)*
X120000000Y-115000000D03*
G04 #@! TD*
G04 #@! TO.P,D23,1*
G04 #@! TO.N,GND*
X117900000Y-121000000D03*
G04 #@! TO.P,D23,2*
G04 #@! TO.N,Net-(D23-Pad2)*
X120000000Y-121000000D03*
G04 #@! TD*
G04 #@! TO.P,D24,1*
G04 #@! TO.N,GND*
X111950000Y-110000000D03*
G04 #@! TO.P,D24,2*
G04 #@! TO.N,Net-(D24-Pad2)*
X114050000Y-110000000D03*
G04 #@! TD*
D11*
G04 #@! TO.P,U2,15*
G04 #@! TO.N,N/C*
X110250000Y-82250000D03*
D12*
G04 #@! TO.P,U2,14*
G04 #@! TO.N,VCC*
X111000001Y-80519000D03*
D13*
G04 #@! TO.P,U2,13*
G04 #@! TO.N,Net-(D5-Pad2)*
X112019001Y-81249999D03*
G04 #@! TO.P,U2,12*
G04 #@! TO.N,Net-(D6-Pad2)*
X112019001Y-81750001D03*
G04 #@! TO.P,U2,11*
G04 #@! TO.N,Net-(D7-Pad2)*
X112019001Y-82250000D03*
G04 #@! TO.P,U2,10*
G04 #@! TO.N,Net-(D8-Pad2)*
X112019001Y-82749999D03*
G04 #@! TO.P,U2,9*
G04 #@! TO.N,CLR*
X112019001Y-83250001D03*
D12*
G04 #@! TO.P,U2,8*
G04 #@! TO.N,CLK*
X111000001Y-83981000D03*
G04 #@! TO.P,U2,7*
G04 #@! TO.N,GND*
X109499999Y-83981000D03*
D13*
G04 #@! TO.P,U2,6*
G04 #@! TO.N,Net-(D4-Pad2)*
X108480999Y-83250001D03*
G04 #@! TO.P,U2,5*
G04 #@! TO.N,Net-(D3-Pad2)*
X108480999Y-82749999D03*
G04 #@! TO.P,U2,4*
G04 #@! TO.N,Net-(D2-Pad2)*
X108480999Y-82250000D03*
G04 #@! TO.P,U2,3*
G04 #@! TO.N,Net-(D1-Pad2)*
X108480999Y-81750001D03*
G04 #@! TO.P,U2,2*
G04 #@! TO.N,B*
X108480999Y-81249999D03*
D12*
G04 #@! TO.P,U2,1*
G04 #@! TO.N,A*
X109499999Y-80519000D03*
G04 #@! TD*
D10*
G04 #@! TO.P,D25,1*
G04 #@! TO.N,GND*
X111900000Y-121000000D03*
G04 #@! TO.P,D25,2*
G04 #@! TO.N,Net-(D25-Pad2)*
X114000000Y-121000000D03*
G04 #@! TD*
G04 #@! TO.P,D26,1*
G04 #@! TO.N,GND*
X105950000Y-121000000D03*
G04 #@! TO.P,D26,2*
G04 #@! TO.N,Net-(D26-Pad2)*
X108050000Y-121000000D03*
G04 #@! TD*
G04 #@! TO.P,D27,1*
G04 #@! TO.N,GND*
X100900000Y-121000000D03*
G04 #@! TO.P,D27,2*
G04 #@! TO.N,Net-(D27-Pad2)*
X103000000Y-121000000D03*
G04 #@! TD*
G04 #@! TO.P,D28,1*
G04 #@! TO.N,GND*
X100950000Y-115000000D03*
G04 #@! TO.P,D28,2*
G04 #@! TO.N,Net-(D28-Pad2)*
X103050000Y-115000000D03*
G04 #@! TD*
G04 #@! TO.P,D29,1*
G04 #@! TO.N,GND*
X105950000Y-115000000D03*
G04 #@! TO.P,D29,2*
G04 #@! TO.N,Net-(D29-Pad2)*
X108050000Y-115000000D03*
G04 #@! TD*
G04 #@! TO.P,D30,1*
G04 #@! TO.N,GND*
X105950000Y-110000000D03*
G04 #@! TO.P,D30,2*
G04 #@! TO.N,Net-(D30-Pad2)*
X108050000Y-110000000D03*
G04 #@! TD*
G04 #@! TO.P,D31,1*
G04 #@! TO.N,GND*
X105950000Y-105000000D03*
G04 #@! TO.P,D31,2*
G04 #@! TO.N,Net-(D31-Pad2)*
X108050000Y-105000000D03*
G04 #@! TD*
G04 #@! TO.P,D32,1*
G04 #@! TO.N,GND*
X105950000Y-100000000D03*
G04 #@! TO.P,D32,2*
G04 #@! TO.N,Net-(D32-Pad2)*
X108050000Y-100000000D03*
G04 #@! TD*
G04 #@! TO.P,D33,2*
G04 #@! TO.N,Net-(D33-Pad2)*
X108100000Y-95000000D03*
G04 #@! TO.P,D33,1*
G04 #@! TO.N,GND*
X106000000Y-95000000D03*
G04 #@! TD*
G04 #@! TO.P,D34,1*
G04 #@! TO.N,GND*
X105900000Y-90000000D03*
G04 #@! TO.P,D34,2*
G04 #@! TO.N,Net-(D34-Pad2)*
X108000000Y-90000000D03*
G04 #@! TD*
G04 #@! TO.P,D35,2*
G04 #@! TO.N,Net-(D35-Pad2)*
X108000000Y-86000000D03*
G04 #@! TO.P,D35,1*
G04 #@! TO.N,GND*
X105900000Y-86000000D03*
G04 #@! TD*
G04 #@! TO.P,D36,1*
G04 #@! TO.N,GND*
X101900000Y-86000000D03*
G04 #@! TO.P,D36,2*
G04 #@! TO.N,Net-(D36-Pad2)*
X104000000Y-86000000D03*
G04 #@! TD*
G04 #@! TO.P,D37,2*
G04 #@! TO.N,Net-(D37-Pad2)*
X99550000Y-86000000D03*
G04 #@! TO.P,D37,1*
G04 #@! TO.N,GND*
X97450000Y-86000000D03*
G04 #@! TD*
G04 #@! TO.P,D38,1*
G04 #@! TO.N,GND*
X97400000Y-91000000D03*
G04 #@! TO.P,D38,2*
G04 #@! TO.N,Net-(D38-Pad2)*
X99500000Y-91000000D03*
G04 #@! TD*
D14*
G04 #@! TO.P,R1,2*
G04 #@! TO.N,RST*
X111000000Y-118000000D03*
G04 #@! TO.P,R1,1*
G04 #@! TO.N,VCC*
X109100000Y-118000000D03*
G04 #@! TD*
D15*
G04 #@! TO.P,J1,2*
G04 #@! TO.N,GND*
X99567000Y-81826100D03*
X121167000Y-81826100D03*
G04 #@! TD*
D16*
G04 #@! TO.P,J2,8*
G04 #@! TO.N,VCC*
X105810000Y-117230000D03*
G04 #@! TO.P,J2,7*
G04 #@! TO.N,B*
X105810000Y-118500000D03*
G04 #@! TO.P,J2,6*
G04 #@! TO.N,A*
X104540000Y-117230000D03*
G04 #@! TO.P,J2,5*
G04 #@! TO.N,SW1*
X104540000Y-118500000D03*
G04 #@! TO.P,J2,4*
G04 #@! TO.N,GND*
X103270000Y-117230000D03*
G04 #@! TO.P,J2,3*
G04 #@! TO.N,CLK*
X103270000Y-118500000D03*
G04 #@! TO.P,J2,2*
G04 #@! TO.N,CLR*
X102000000Y-117230000D03*
D17*
G04 #@! TO.P,J2,1*
G04 #@! TO.N,RST*
X102000000Y-118500000D03*
G04 #@! TD*
D18*
G04 #@! TO.N,Net-(D1-Pad2)*
X95539900Y-86692800D03*
X102783000Y-81345800D03*
G04 #@! TO.N,Net-(D3-Pad2)*
X103580600Y-83995700D03*
X105808300Y-84538200D03*
G04 #@! TO.N,Net-(D9-Pad2)*
X123585000Y-78941600D03*
G04 #@! TO.N,Net-(D10-Pad2)*
X124384700Y-79762400D03*
G04 #@! TO.N,Net-(D11-Pad2)*
X126796300Y-83828600D03*
G04 #@! TO.N,Net-(D12-Pad2)*
X123130100Y-84965400D03*
G04 #@! TO.N,Net-(D13-Pad2)*
X128256500Y-89189400D03*
G04 #@! TO.N,Net-(D14-Pad2)*
X125517600Y-84841500D03*
X126798300Y-84933900D03*
X127261300Y-89279100D03*
G04 #@! TO.N,Net-(D15-Pad2)*
X128507200Y-87647800D03*
G04 #@! TO.N,Net-(D16-Pad2)*
X114050000Y-87018000D03*
G04 #@! TO.N,Net-(D17-Pad2)*
X113903000Y-91207600D03*
G04 #@! TO.N,Net-(D18-Pad2)*
X114050000Y-92577500D03*
G04 #@! TO.N,Net-(D19-Pad2)*
X112380800Y-91914000D03*
G04 #@! TO.N,Net-(D20-Pad2)*
X113063100Y-93572200D03*
G04 #@! TO.N,Net-(D21-Pad2)*
X108851500Y-96742900D03*
G04 #@! TO.N,Net-(D22-Pad2)*
X111259700Y-102691800D03*
G04 #@! TO.N,Net-(D23-Pad2)*
X110450800Y-97268600D03*
G04 #@! TO.N,Net-(D24-Pad2)*
X110837100Y-98233600D03*
G04 #@! TO.N,GND*
X106261000Y-102083200D03*
X116687300Y-118749100D03*
X111900000Y-93750000D03*
G04 #@! TO.N,VCC*
X107826200Y-117348700D03*
X107455100Y-79801400D03*
X109135100Y-113282600D03*
X106381500Y-108845400D03*
X109030500Y-115530800D03*
G04 #@! TO.N,CLR*
X115115200Y-85924800D03*
X114313300Y-88345700D03*
X115663900Y-82678900D03*
X113197200Y-83153900D03*
G04 #@! TO.N,CLK*
X113669900Y-113752600D03*
X110748300Y-89874600D03*
X110486800Y-107146300D03*
X118923400Y-83236200D03*
X110727100Y-86529000D03*
X111000000Y-84967300D03*
G04 #@! TO.N,A*
X111876600Y-88423000D03*
X95463700Y-90174400D03*
X92424200Y-84655600D03*
X104875600Y-79785600D03*
X120165800Y-88954000D03*
X114347100Y-108128500D03*
G04 #@! TO.N,B*
X106890200Y-90721800D03*
X108286800Y-92161300D03*
X107447800Y-111626800D03*
X105281000Y-82604200D03*
G04 #@! TO.N,Net-(D25-Pad2)*
X112950000Y-121056500D03*
G04 #@! TO.N,Net-(D26-Pad2)*
X109039900Y-121495400D03*
G04 #@! TO.N,Net-(D27-Pad2)*
X103294600Y-122242200D03*
G04 #@! TO.N,Net-(D28-Pad2)*
X103050000Y-113685200D03*
G04 #@! TO.N,Net-(D29-Pad2)*
X108991600Y-114250100D03*
G04 #@! TO.N,Net-(D30-Pad2)*
X110504200Y-113121600D03*
G04 #@! TO.N,Net-(D31-Pad2)*
X112001200Y-112819100D03*
G04 #@! TO.N,Net-(D32-Pad2)*
X111426200Y-113655700D03*
G04 #@! TO.N,Net-(D33-Pad2)*
X106335600Y-92270100D03*
G04 #@! TO.N,Net-(D34-Pad2)*
X105876400Y-87953500D03*
G04 #@! TO.N,Net-(D35-Pad2)*
X107028400Y-86122700D03*
X106268200Y-82274300D03*
X103708600Y-80862600D03*
G04 #@! TO.N,Net-(D36-Pad2)*
X91655200Y-87489500D03*
G04 #@! TO.N,Net-(D37-Pad2)*
X98590100Y-87095200D03*
G04 #@! TO.N,Net-(D38-Pad2)*
X98263400Y-88446300D03*
G04 #@! TO.N,SW1*
X108849500Y-106464000D03*
G04 #@! TD*
D19*
G04 #@! TO.N,Net-(D1-Pad2)*
X102783000Y-81345800D02*
X102783000Y-81572300D01*
X102783000Y-81572300D02*
X104779700Y-83569000D01*
X104779700Y-83569000D02*
X105879000Y-83569000D01*
X105879000Y-83569000D02*
X107698000Y-81750000D01*
X107698000Y-81750000D02*
X108481000Y-81750000D01*
X95539900Y-86692800D02*
X96107900Y-87260800D01*
X96107900Y-87260800D02*
X96107900Y-90438200D01*
X96107900Y-90438200D02*
X95546100Y-91000000D01*
X95546100Y-91000000D02*
X94000000Y-91000000D01*
G04 #@! TO.N,Net-(D2-Pad2)*
X94640300Y-86000000D02*
X96004300Y-84636000D01*
X96004300Y-84636000D02*
X104641200Y-84636000D01*
X104641200Y-84636000D02*
X105387900Y-83889300D01*
X105387900Y-83889300D02*
X106176500Y-83889300D01*
X106176500Y-83889300D02*
X107815800Y-82250000D01*
X108481000Y-82250000D02*
X107815800Y-82250000D01*
X94000000Y-86000000D02*
X94640300Y-86000000D01*
G04 #@! TO.N,Net-(D3-Pad2)*
X94640300Y-82000000D02*
X96713200Y-84072900D01*
X96713200Y-84072900D02*
X103503400Y-84072900D01*
X103503400Y-84072900D02*
X103580600Y-83995700D01*
X107815800Y-82750000D02*
X106027600Y-84538200D01*
X106027600Y-84538200D02*
X105808300Y-84538200D01*
X108481000Y-82750000D02*
X107815800Y-82750000D01*
X94000000Y-82000000D02*
X94640300Y-82000000D01*
G04 #@! TO.N,Net-(D4-Pad2)*
X107815800Y-83250000D02*
X107815800Y-83466600D01*
X107815800Y-83466600D02*
X106103900Y-85178500D01*
X106103900Y-85178500D02*
X105511900Y-85178500D01*
X105511900Y-85178500D02*
X105289700Y-84956300D01*
X105289700Y-84956300D02*
X96371000Y-84956300D01*
X96371000Y-84956300D02*
X94634600Y-86692700D01*
X94634600Y-86692700D02*
X93436000Y-86692700D01*
X93436000Y-86692700D02*
X93359700Y-86616400D01*
X93359700Y-86616400D02*
X93359700Y-78000000D01*
X94000000Y-78000000D02*
X93359700Y-78000000D01*
X108481000Y-83250000D02*
X107815800Y-83250000D01*
G04 #@! TO.N,Net-(D5-Pad2)*
X101690300Y-78000000D02*
X102380700Y-77309600D01*
X102380700Y-77309600D02*
X106402900Y-77309600D01*
X106402900Y-77309600D02*
X107359600Y-78266300D01*
X107359600Y-78266300D02*
X107359600Y-78585300D01*
X107359600Y-78585300D02*
X107991100Y-79216800D01*
X107991100Y-79216800D02*
X110617400Y-79216800D01*
X110617400Y-79216800D02*
X112019000Y-80618400D01*
X112019000Y-80618400D02*
X112019000Y-81250000D01*
X101050000Y-78000000D02*
X101690300Y-78000000D01*
G04 #@! TO.N,Net-(D6-Pad2)*
X112019000Y-81750000D02*
X112684200Y-81750000D01*
X112684200Y-81750000D02*
X112684200Y-80830500D01*
X112684200Y-80830500D02*
X109853700Y-78000000D01*
X109853700Y-78000000D02*
X108000000Y-78000000D01*
G04 #@! TO.N,Net-(D7-Pad2)*
X112684200Y-82250000D02*
X115000000Y-79934200D01*
X115000000Y-79934200D02*
X115000000Y-78000000D01*
X112019000Y-82250000D02*
X112684200Y-82250000D01*
G04 #@! TO.N,Net-(D8-Pad2)*
X112684200Y-82750000D02*
X113650700Y-81783500D01*
X113650700Y-81783500D02*
X116676200Y-81783500D01*
X116676200Y-81783500D02*
X120459700Y-78000000D01*
X112019000Y-82750000D02*
X112684200Y-82750000D01*
X121100000Y-78000000D02*
X120459700Y-78000000D01*
G04 #@! TO.N,Net-(D9-Pad2)*
X127359700Y-78000000D02*
X127359700Y-77745200D01*
X127359700Y-77745200D02*
X126593000Y-76978500D01*
X126593000Y-76978500D02*
X125175200Y-76978500D01*
X125175200Y-76978500D02*
X123585100Y-78568600D01*
X123585100Y-78568600D02*
X123585100Y-78941600D01*
X123585100Y-78941600D02*
X123585000Y-78941600D01*
X128000000Y-78000000D02*
X127359700Y-78000000D01*
G04 #@! TO.N,Net-(D10-Pad2)*
X128000000Y-82000000D02*
X127359700Y-82000000D01*
X124384700Y-79762400D02*
X124384700Y-78306300D01*
X124384700Y-78306300D02*
X125392200Y-77298800D01*
X125392200Y-77298800D02*
X126432100Y-77298800D01*
X126432100Y-77298800D02*
X126592200Y-77458900D01*
X126592200Y-77458900D02*
X126592200Y-81232500D01*
X126592200Y-81232500D02*
X127359700Y-82000000D01*
G04 #@! TO.N,Net-(D11-Pad2)*
X127459700Y-86000000D02*
X127459700Y-84492000D01*
X127459700Y-84492000D02*
X126796300Y-83828600D01*
X128100000Y-86000000D02*
X127459700Y-86000000D01*
G04 #@! TO.N,Net-(D12-Pad2)*
X127459700Y-91000000D02*
X126769300Y-91690400D01*
X126769300Y-91690400D02*
X125472700Y-91690400D01*
X125472700Y-91690400D02*
X125240200Y-91457900D01*
X125240200Y-91457900D02*
X125240200Y-86916800D01*
X125240200Y-86916800D02*
X123288800Y-84965400D01*
X123288800Y-84965400D02*
X123130100Y-84965400D01*
X128100000Y-91000000D02*
X127459700Y-91000000D01*
G04 #@! TO.N,Net-(D13-Pad2)*
X123740300Y-91000000D02*
X124782100Y-92041800D01*
X124782100Y-92041800D02*
X128248100Y-92041800D01*
X128248100Y-92041800D02*
X128740400Y-91549500D01*
X128740400Y-91549500D02*
X128740400Y-89673300D01*
X128740400Y-89673300D02*
X128256500Y-89189400D01*
X123100000Y-91000000D02*
X123740300Y-91000000D01*
G04 #@! TO.N,Net-(D14-Pad2)*
X123100000Y-86000000D02*
X122459700Y-86000000D01*
X125517600Y-84841500D02*
X124952200Y-84276100D01*
X124952200Y-84276100D02*
X122869900Y-84276100D01*
X122869900Y-84276100D02*
X122459700Y-84686300D01*
X122459700Y-84686300D02*
X122459700Y-86000000D01*
X127261300Y-89279100D02*
X126798300Y-88816100D01*
X126798300Y-88816100D02*
X126798300Y-84933900D01*
G04 #@! TO.N,Net-(D15-Pad2)*
X128507200Y-87647800D02*
X129107100Y-88247700D01*
X129107100Y-88247700D02*
X129107100Y-91635900D01*
X129107100Y-91635900D02*
X128344300Y-92398700D01*
X128344300Y-92398700D02*
X121174800Y-92398700D01*
X121174800Y-92398700D02*
X120306500Y-91530400D01*
X120306500Y-91530400D02*
X120306500Y-90159900D01*
X120306500Y-90159900D02*
X120840600Y-89625800D01*
X120840600Y-89625800D02*
X120840600Y-87600300D01*
X120840600Y-87600300D02*
X119240300Y-86000000D01*
X118600000Y-86000000D02*
X119240300Y-86000000D01*
G04 #@! TO.N,Net-(D16-Pad2)*
X114050000Y-86000000D02*
X114050000Y-87018000D01*
G04 #@! TO.N,Net-(D17-Pad2)*
X113903000Y-91207600D02*
X114000000Y-91110600D01*
X114000000Y-91110600D02*
X114000000Y-90000000D01*
G04 #@! TO.N,Net-(D18-Pad2)*
X114050000Y-92577500D02*
X114050000Y-95000000D01*
G04 #@! TO.N,Net-(D19-Pad2)*
X113409700Y-100000000D02*
X113409700Y-94222500D01*
X113409700Y-94222500D02*
X113729600Y-93902600D01*
X113729600Y-93902600D02*
X113729600Y-93262800D01*
X113729600Y-93262800D02*
X112380800Y-91914000D01*
X114050000Y-100000000D02*
X113409700Y-100000000D01*
G04 #@! TO.N,Net-(D20-Pad2)*
X113359700Y-105000000D02*
X113063100Y-104703400D01*
X113063100Y-104703400D02*
X113063100Y-93572200D01*
X114000000Y-105000000D02*
X113359700Y-105000000D01*
G04 #@! TO.N,Net-(D21-Pad2)*
X108851500Y-96742900D02*
X109489900Y-97381300D01*
X109489900Y-97381300D02*
X109489900Y-107956100D01*
X109489900Y-107956100D02*
X110784700Y-109250900D01*
X110784700Y-109250900D02*
X110784700Y-110697000D01*
X110784700Y-110697000D02*
X113029600Y-112941900D01*
X113029600Y-112941900D02*
X113029600Y-114669900D01*
X113029600Y-114669900D02*
X113359700Y-115000000D01*
X114000000Y-115000000D02*
X113359700Y-115000000D01*
G04 #@! TO.N,Net-(D22-Pad2)*
X120000000Y-114309700D02*
X118817100Y-113126800D01*
X118817100Y-113126800D02*
X115552900Y-113126800D01*
X115552900Y-113126800D02*
X115247500Y-112821400D01*
X115247500Y-112821400D02*
X115247500Y-109949000D01*
X115247500Y-109949000D02*
X111259700Y-105961200D01*
X111259700Y-105961200D02*
X111259700Y-102691800D01*
X120000000Y-115000000D02*
X120000000Y-114309700D01*
G04 #@! TO.N,Net-(D23-Pad2)*
X119359700Y-121000000D02*
X119359700Y-115203300D01*
X119359700Y-115203300D02*
X118037600Y-113881200D01*
X118037600Y-113881200D02*
X115827100Y-113881200D01*
X115827100Y-113881200D02*
X113374700Y-111428800D01*
X113374700Y-111428800D02*
X113374700Y-109128700D01*
X113374700Y-109128700D02*
X110179800Y-105933800D01*
X110179800Y-105933800D02*
X110179800Y-97539600D01*
X110179800Y-97539600D02*
X110450800Y-97268600D01*
X120000000Y-121000000D02*
X119359700Y-121000000D01*
G04 #@! TO.N,Net-(D24-Pad2)*
X114050000Y-109309700D02*
X110553900Y-105813600D01*
X110553900Y-105813600D02*
X110553900Y-98516800D01*
X110553900Y-98516800D02*
X110837100Y-98233600D01*
X114050000Y-110000000D02*
X114050000Y-109309700D01*
G04 #@! TO.N,GND*
X115673200Y-114592400D02*
X116080800Y-115000000D01*
X116080800Y-115000000D02*
X117259700Y-115000000D01*
X111950000Y-110000000D02*
X111950000Y-110869200D01*
X111950000Y-110869200D02*
X115673200Y-114592400D01*
X115673200Y-114592400D02*
X114575200Y-115690400D01*
X114575200Y-115690400D02*
X113230700Y-115690400D01*
X113230700Y-115690400D02*
X112540300Y-115000000D01*
X111900000Y-90690300D02*
X111740500Y-90849800D01*
X111740500Y-90849800D02*
X111740500Y-93590500D01*
X111740500Y-93590500D02*
X111900000Y-93750000D01*
X111900000Y-90000000D02*
X111900000Y-90690300D01*
X105900000Y-90690300D02*
X105695300Y-90895000D01*
X105695300Y-90895000D02*
X105695300Y-94005000D01*
X105695300Y-94005000D02*
X106000000Y-94309700D01*
X111320000Y-86000000D02*
X111388700Y-86068700D01*
X111388700Y-86068700D02*
X111388700Y-88005500D01*
X111388700Y-88005500D02*
X111236300Y-88157900D01*
X111236300Y-88157900D02*
X111236300Y-88688100D01*
X111236300Y-88688100D02*
X111857900Y-89309700D01*
X111857900Y-89309700D02*
X111900000Y-89309700D01*
X111900000Y-90000000D02*
X111900000Y-89309700D01*
X111320000Y-86000000D02*
X111309700Y-86000000D01*
X111950000Y-86000000D02*
X111320000Y-86000000D01*
X109500000Y-84646200D02*
X110484000Y-85630200D01*
X110484000Y-85630200D02*
X110939900Y-85630200D01*
X110939900Y-85630200D02*
X111309700Y-86000000D01*
X105900000Y-86345100D02*
X107598900Y-84646200D01*
X107598900Y-84646200D02*
X109500000Y-84646200D01*
X111900000Y-115000000D02*
X112540300Y-115000000D01*
X111369700Y-120309600D02*
X107280700Y-120309600D01*
X107280700Y-120309600D02*
X106590300Y-121000000D01*
X111579900Y-121000000D02*
X111579900Y-120519800D01*
X111579900Y-120519800D02*
X111369700Y-120309600D01*
X111369700Y-120309600D02*
X111900000Y-119779300D01*
X111900000Y-119779300D02*
X111900000Y-115000000D01*
X109500000Y-83981000D02*
X109500000Y-84646200D01*
X105900000Y-86345100D02*
X105900000Y-86690300D01*
X105900000Y-86000000D02*
X105900000Y-86345100D01*
X105900000Y-86690300D02*
X105236100Y-87354200D01*
X105236100Y-87354200D02*
X105236100Y-88645800D01*
X105236100Y-88645800D02*
X105900000Y-89309700D01*
X105900000Y-90000000D02*
X105900000Y-89309700D01*
X105950000Y-102083200D02*
X105950000Y-105000000D01*
X105950000Y-100000000D02*
X105950000Y-102083200D01*
X105950000Y-102083200D02*
X106261000Y-102083200D01*
X105950000Y-105000000D02*
X105950000Y-105690300D01*
X105950000Y-110345100D02*
X105694500Y-110089600D01*
X105694500Y-110089600D02*
X105694500Y-105945800D01*
X105694500Y-105945800D02*
X105950000Y-105690300D01*
X105950000Y-110345100D02*
X105950000Y-110690300D01*
X105950000Y-110000000D02*
X105950000Y-110345100D01*
X100900000Y-121000000D02*
X100900000Y-120309700D01*
X101250900Y-120111000D02*
X104420700Y-120111000D01*
X104420700Y-120111000D02*
X105309700Y-121000000D01*
X100900000Y-120309700D02*
X101052200Y-120309700D01*
X101052200Y-120309700D02*
X101250900Y-120111000D01*
X102372600Y-115782300D02*
X101250900Y-116904000D01*
X101250900Y-116904000D02*
X101250900Y-120111000D01*
X105950000Y-121000000D02*
X105309700Y-121000000D01*
X105950000Y-121000000D02*
X106590300Y-121000000D01*
X102372600Y-115782300D02*
X101590300Y-115000000D01*
X103270000Y-116203400D02*
X102793700Y-116203400D01*
X102793700Y-116203400D02*
X102372600Y-115782300D01*
X100950000Y-115000000D02*
X101590300Y-115000000D01*
X103270000Y-116203400D02*
X103270000Y-116489700D01*
X105309700Y-115000000D02*
X104106300Y-116203400D01*
X104106300Y-116203400D02*
X103270000Y-116203400D01*
X105950000Y-115000000D02*
X105309700Y-115000000D01*
X97400000Y-91000000D02*
X97400000Y-90309700D01*
X97621600Y-86000000D02*
X97621600Y-90088100D01*
X97621600Y-90088100D02*
X97400000Y-90309700D01*
X97621600Y-86000000D02*
X98090300Y-86000000D01*
X97450000Y-86000000D02*
X97621600Y-86000000D01*
X97400000Y-91000000D02*
X96759700Y-91000000D01*
X96759700Y-91000000D02*
X96069300Y-91690400D01*
X96069300Y-91690400D02*
X93230700Y-91690400D01*
X93230700Y-91690400D02*
X92540300Y-91000000D01*
X91900000Y-91000000D02*
X92540300Y-91000000D01*
X91900000Y-90309700D02*
X92295500Y-89914200D01*
X92295500Y-89914200D02*
X92295500Y-87085800D01*
X92295500Y-87085800D02*
X91900000Y-86690300D01*
X91900000Y-86000000D02*
X91900000Y-86690300D01*
X126000000Y-85309700D02*
X126157900Y-85151800D01*
X126157900Y-85151800D02*
X126157900Y-84576300D01*
X126157900Y-84576300D02*
X125900000Y-84318400D01*
X125900000Y-84318400D02*
X125900000Y-82690300D01*
X115859700Y-86000000D02*
X115859700Y-85742800D01*
X115859700Y-85742800D02*
X115352800Y-85235900D01*
X115352800Y-85235900D02*
X113354400Y-85235900D01*
X113354400Y-85235900D02*
X112590300Y-86000000D01*
X121000000Y-90309700D02*
X121161000Y-90148700D01*
X121161000Y-90148700D02*
X121161000Y-86851300D01*
X121161000Y-86851300D02*
X121000000Y-86690300D01*
X117579900Y-118749100D02*
X117900000Y-119069200D01*
X117900000Y-119069200D02*
X117900000Y-121000000D01*
X116687300Y-118749100D02*
X117579900Y-118749100D01*
X117579900Y-115000000D02*
X117579900Y-118749100D01*
X117579900Y-115000000D02*
X117259700Y-115000000D01*
X117900000Y-115000000D02*
X117579900Y-115000000D01*
X116500000Y-86000000D02*
X117140300Y-86000000D01*
X120740200Y-85049900D02*
X121000000Y-85309700D01*
X117140300Y-86000000D02*
X118090400Y-85049900D01*
X118090400Y-85049900D02*
X120740200Y-85049900D01*
X120740200Y-85049900D02*
X121167000Y-84623100D01*
X121167000Y-84623100D02*
X121167000Y-81826100D01*
X116179900Y-86000000D02*
X116500000Y-86000000D01*
X116179900Y-86000000D02*
X115859700Y-86000000D01*
X111950000Y-86000000D02*
X112590300Y-86000000D01*
X111900000Y-121000000D02*
X111579900Y-121000000D01*
X111900000Y-93750000D02*
X111900000Y-94259700D01*
X111900000Y-94259700D02*
X111950000Y-94309700D01*
X111950000Y-95000000D02*
X111950000Y-94309700D01*
X111950000Y-95690300D02*
X111950000Y-99309700D01*
X111900000Y-105000000D02*
X111900000Y-104309700D01*
X111900000Y-104309700D02*
X111950000Y-104259700D01*
X111950000Y-104259700D02*
X111950000Y-100000000D01*
X105900000Y-86000000D02*
X105259700Y-86000000D01*
X102540300Y-86000000D02*
X103230700Y-85309600D01*
X103230700Y-85309600D02*
X104569300Y-85309600D01*
X104569300Y-85309600D02*
X105259700Y-86000000D01*
X101900000Y-86000000D02*
X102540300Y-86000000D01*
X105900000Y-90264000D02*
X105900000Y-90000000D01*
X105900000Y-90264000D02*
X105900000Y-90690300D01*
X101900000Y-86000000D02*
X101259700Y-86000000D01*
X98090300Y-86000000D02*
X98780700Y-85309600D01*
X98780700Y-85309600D02*
X100569300Y-85309600D01*
X100569300Y-85309600D02*
X101259700Y-86000000D01*
X99567000Y-78744800D02*
X99374700Y-78744800D01*
X99374700Y-78744800D02*
X98629900Y-78000000D01*
X105259700Y-78000000D02*
X104514900Y-78744800D01*
X104514900Y-78744800D02*
X99567000Y-78744800D01*
X99567000Y-78744800D02*
X99567000Y-81826100D01*
X118359700Y-78000000D02*
X117614800Y-77255100D01*
X117614800Y-77255100D02*
X114285200Y-77255100D01*
X114285200Y-77255100D02*
X113540300Y-78000000D01*
X91900000Y-82690300D02*
X91743000Y-82847300D01*
X91743000Y-82847300D02*
X91743000Y-85152700D01*
X91743000Y-85152700D02*
X91900000Y-85309700D01*
X91900000Y-86000000D02*
X91900000Y-85309700D01*
X91900000Y-82000000D02*
X91900000Y-82690300D01*
X92220200Y-78000000D02*
X91900000Y-78320200D01*
X91900000Y-78320200D02*
X91900000Y-81309700D01*
X125900000Y-82000000D02*
X125900000Y-82690300D01*
X91900000Y-82000000D02*
X91900000Y-81309700D01*
X98309700Y-78000000D02*
X97593100Y-77283400D01*
X97593100Y-77283400D02*
X93256900Y-77283400D01*
X93256900Y-77283400D02*
X92540300Y-78000000D01*
X91900000Y-91000000D02*
X91900000Y-90309700D01*
X121740400Y-81252700D02*
X121167000Y-81826100D01*
X119640300Y-78000000D02*
X120330700Y-77309600D01*
X120330700Y-77309600D02*
X121664100Y-77309600D01*
X121664100Y-77309600D02*
X121740400Y-77385900D01*
X121740400Y-77385900D02*
X121740400Y-81252700D01*
X121740400Y-81252700D02*
X124512400Y-81252700D01*
X124512400Y-81252700D02*
X125259700Y-82000000D01*
X125900000Y-82000000D02*
X125259700Y-82000000D01*
X111950000Y-100000000D02*
X111950000Y-99309700D01*
X111950000Y-95000000D02*
X111950000Y-95690300D01*
X121000000Y-86000000D02*
X121000000Y-85309700D01*
X105950000Y-110690300D02*
X105950000Y-114309700D01*
X98629900Y-78000000D02*
X98309700Y-78000000D01*
X98950000Y-78000000D02*
X98629900Y-78000000D01*
X121000000Y-91000000D02*
X121000000Y-90309700D01*
X121000000Y-86000000D02*
X121000000Y-86690300D01*
X105950000Y-115000000D02*
X105950000Y-114309700D01*
X92220200Y-78000000D02*
X92540300Y-78000000D01*
X91900000Y-78000000D02*
X92220200Y-78000000D01*
X105900000Y-78000000D02*
X105259700Y-78000000D01*
X119000000Y-78000000D02*
X118359700Y-78000000D01*
X112900000Y-78000000D02*
X113540300Y-78000000D01*
X119000000Y-78000000D02*
X119640300Y-78000000D01*
X126000000Y-86000000D02*
X126000000Y-91000000D01*
X126000000Y-85654800D02*
X126000000Y-86000000D01*
X126000000Y-85654800D02*
X126000000Y-85309700D01*
X125900000Y-82000000D02*
X125900000Y-78000000D01*
X106000000Y-95690300D02*
X105950000Y-95740300D01*
X105950000Y-95740300D02*
X105950000Y-100000000D01*
X106000000Y-95000000D02*
X106000000Y-94309700D01*
X106000000Y-95000000D02*
X106000000Y-95690300D01*
X103270000Y-117230000D02*
X103270000Y-116489700D01*
G04 #@! TO.N,VCC*
X107826200Y-117348700D02*
X108622800Y-117348700D01*
X108622800Y-117348700D02*
X108622800Y-115938500D01*
X108622800Y-115938500D02*
X109030500Y-115530800D01*
X108622800Y-118000000D02*
X108622800Y-117348700D01*
X107455100Y-79801400D02*
X110282400Y-79801400D01*
X110282400Y-79801400D02*
X111000000Y-80519000D01*
X109135100Y-113282600D02*
X109135100Y-113288600D01*
X109135100Y-113288600D02*
X109647500Y-113801000D01*
X109647500Y-113801000D02*
X109647500Y-114913800D01*
X109647500Y-114913800D02*
X109030500Y-115530800D01*
X105810000Y-117230000D02*
X105810000Y-116489700D01*
X105810000Y-116489700D02*
X106621800Y-115677900D01*
X106621800Y-115677900D02*
X106621800Y-109085700D01*
X106621800Y-109085700D02*
X106381500Y-108845400D01*
X109100000Y-118000000D02*
X108622800Y-118000000D01*
G04 #@! TO.N,CLR*
X114313300Y-88345700D02*
X114690400Y-87968600D01*
X114690400Y-87968600D02*
X114690400Y-86349600D01*
X114690400Y-86349600D02*
X115115200Y-85924800D01*
X113197200Y-83153900D02*
X113672200Y-82678900D01*
X113672200Y-82678900D02*
X115663900Y-82678900D01*
X112684200Y-83250000D02*
X113101100Y-83250000D01*
X113101100Y-83250000D02*
X113197200Y-83153900D01*
X112019000Y-83250000D02*
X112684200Y-83250000D01*
G04 #@! TO.N,CLK*
X113669900Y-113752600D02*
X113669900Y-113129300D01*
X113669900Y-113129300D02*
X111218400Y-110677800D01*
X111218400Y-110677800D02*
X111218400Y-107877900D01*
X111218400Y-107877900D02*
X110486800Y-107146300D01*
X110748300Y-89874600D02*
X109810300Y-90812600D01*
X109810300Y-90812600D02*
X109810300Y-106469800D01*
X109810300Y-106469800D02*
X110486800Y-107146300D01*
X110748300Y-89874600D02*
X110748300Y-86550200D01*
X110748300Y-86550200D02*
X110727100Y-86529000D01*
X111000000Y-84313600D02*
X117846000Y-84313600D01*
X117846000Y-84313600D02*
X118923400Y-83236200D01*
X111000000Y-84313600D02*
X111000000Y-84646200D01*
X111000000Y-83981000D02*
X111000000Y-84313600D01*
X111000000Y-84646200D02*
X111000000Y-84967300D01*
G04 #@! TO.N,A*
X114697900Y-88986000D02*
X115042600Y-88641300D01*
X115042600Y-88641300D02*
X115042600Y-87290900D01*
X115042600Y-87290900D02*
X115430400Y-86903100D01*
X115430400Y-86903100D02*
X119283500Y-86903100D01*
X119283500Y-86903100D02*
X120165800Y-87785400D01*
X120165800Y-87785400D02*
X120165800Y-88954000D01*
X114347100Y-108128500D02*
X114697900Y-107777700D01*
X114697900Y-107777700D02*
X114697900Y-88986000D01*
X114697900Y-88986000D02*
X112439600Y-88986000D01*
X112439600Y-88986000D02*
X111876600Y-88423000D01*
X92424200Y-84655600D02*
X92615900Y-84847300D01*
X92615900Y-84847300D02*
X92615900Y-87326600D01*
X92615900Y-87326600D02*
X95463700Y-90174400D01*
X109500000Y-80519000D02*
X105609000Y-80519000D01*
X105609000Y-80519000D02*
X104875600Y-79785600D01*
G04 #@! TO.N,B*
X108286800Y-92161300D02*
X106890200Y-90764700D01*
X106890200Y-90764700D02*
X106890200Y-90721800D01*
X107022100Y-111626800D02*
X107022100Y-108580500D01*
X107022100Y-108580500D02*
X106701900Y-108260300D01*
X106701900Y-108260300D02*
X106701900Y-102547800D01*
X106701900Y-102547800D02*
X106901300Y-102348400D01*
X106901300Y-102348400D02*
X106901300Y-97782700D01*
X106901300Y-97782700D02*
X108740400Y-95943600D01*
X108740400Y-95943600D02*
X108740400Y-92614900D01*
X108740400Y-92614900D02*
X108286800Y-92161300D01*
X105810000Y-118500000D02*
X107022100Y-117287900D01*
X107022100Y-117287900D02*
X107022100Y-111626800D01*
X107022100Y-111626800D02*
X107447800Y-111626800D01*
X108481000Y-81250000D02*
X106387100Y-81250000D01*
X106387100Y-81250000D02*
X105281000Y-82356100D01*
X105281000Y-82356100D02*
X105281000Y-82604200D01*
G04 #@! TO.N,Net-(D25-Pad2)*
X114000000Y-121000000D02*
X113359700Y-121000000D01*
X112950000Y-121056500D02*
X113303200Y-121056500D01*
X113303200Y-121056500D02*
X113359700Y-121000000D01*
G04 #@! TO.N,Net-(D26-Pad2)*
X108690300Y-121000000D02*
X109039900Y-121349600D01*
X109039900Y-121349600D02*
X109039900Y-121495400D01*
X108050000Y-121000000D02*
X108690300Y-121000000D01*
G04 #@! TO.N,Net-(D27-Pad2)*
X103640300Y-121000000D02*
X103640300Y-121896500D01*
X103640300Y-121896500D02*
X103294600Y-122242200D01*
X103000000Y-121000000D02*
X103640300Y-121000000D01*
G04 #@! TO.N,Net-(D28-Pad2)*
X103050000Y-115000000D02*
X103050000Y-113685200D01*
G04 #@! TO.N,Net-(D29-Pad2)*
X108050000Y-114309700D02*
X108932000Y-114309700D01*
X108932000Y-114309700D02*
X108991600Y-114250100D01*
X108050000Y-115000000D02*
X108050000Y-114309700D01*
G04 #@! TO.N,Net-(D30-Pad2)*
X108050000Y-110000000D02*
X108050000Y-110690300D01*
X110504200Y-113121600D02*
X108072900Y-110690300D01*
X108072900Y-110690300D02*
X108050000Y-110690300D01*
G04 #@! TO.N,Net-(D31-Pad2)*
X108050000Y-105000000D02*
X108050000Y-106969200D01*
X108050000Y-106969200D02*
X110464400Y-109383600D01*
X110464400Y-109383600D02*
X110464400Y-111282300D01*
X110464400Y-111282300D02*
X112001200Y-112819100D01*
G04 #@! TO.N,Net-(D32-Pad2)*
X108050000Y-100000000D02*
X108050000Y-102258500D01*
X108050000Y-102258500D02*
X107409600Y-102898900D01*
X107409600Y-102898900D02*
X107409600Y-107639100D01*
X107409600Y-107639100D02*
X108993800Y-109223300D01*
X108993800Y-109223300D02*
X108993800Y-110645200D01*
X108993800Y-110645200D02*
X111360900Y-113012300D01*
X111360900Y-113012300D02*
X111360900Y-113590400D01*
X111360900Y-113590400D02*
X111426200Y-113655700D01*
G04 #@! TO.N,Net-(D33-Pad2)*
X107459700Y-95000000D02*
X106335600Y-93875900D01*
X106335600Y-93875900D02*
X106335600Y-92270100D01*
X108100000Y-95000000D02*
X107459700Y-95000000D01*
G04 #@! TO.N,Net-(D34-Pad2)*
X108000000Y-89309700D02*
X107232600Y-89309700D01*
X107232600Y-89309700D02*
X105876400Y-87953500D01*
X108000000Y-90000000D02*
X108000000Y-89309700D01*
G04 #@! TO.N,Net-(D35-Pad2)*
X107359700Y-86000000D02*
X107151100Y-86000000D01*
X107151100Y-86000000D02*
X107028400Y-86122700D01*
X108000000Y-86000000D02*
X107359700Y-86000000D01*
X103708600Y-80862600D02*
X103708600Y-81961100D01*
X103708600Y-81961100D02*
X104996100Y-83248600D01*
X104996100Y-83248600D02*
X105588300Y-83248600D01*
X105588300Y-83248600D02*
X106268200Y-82568700D01*
X106268200Y-82568700D02*
X106268200Y-82274300D01*
G04 #@! TO.N,Net-(D36-Pad2)*
X104000000Y-86000000D02*
X103359700Y-86000000D01*
X91655200Y-87489500D02*
X91259600Y-87885100D01*
X91259600Y-87885100D02*
X91259600Y-91624000D01*
X91259600Y-91624000D02*
X91680400Y-92044800D01*
X91680400Y-92044800D02*
X99647600Y-92044800D01*
X99647600Y-92044800D02*
X100140300Y-91552100D01*
X100140300Y-91552100D02*
X100140300Y-87481300D01*
X100140300Y-87481300D02*
X100672000Y-86949600D01*
X100672000Y-86949600D02*
X102410100Y-86949600D01*
X102410100Y-86949600D02*
X103359700Y-86000000D01*
G04 #@! TO.N,Net-(D37-Pad2)*
X99550000Y-86690300D02*
X98995000Y-86690300D01*
X98995000Y-86690300D02*
X98590100Y-87095200D01*
X99550000Y-86000000D02*
X99550000Y-86690300D01*
G04 #@! TO.N,Net-(D38-Pad2)*
X98859700Y-91000000D02*
X98263500Y-90403800D01*
X98263500Y-90403800D02*
X98263500Y-88446300D01*
X98263500Y-88446300D02*
X98263400Y-88446300D01*
X99500000Y-91000000D02*
X98859700Y-91000000D01*
G04 #@! TO.N,SW1*
X104540000Y-118500000D02*
X105280400Y-119240400D01*
X105280400Y-119240400D02*
X109243100Y-119240400D01*
X109243100Y-119240400D02*
X110018800Y-118464700D01*
X110018800Y-118464700D02*
X110018800Y-113719400D01*
X110018800Y-113719400D02*
X109787800Y-113488400D01*
X109787800Y-113488400D02*
X109787800Y-113029800D01*
X109787800Y-113029800D02*
X107342600Y-110584600D01*
X107342600Y-110584600D02*
X107342500Y-110584600D01*
X107342500Y-110584600D02*
X107342500Y-108448000D01*
X107342500Y-108448000D02*
X107039400Y-108144900D01*
X107039400Y-108144900D02*
X107039400Y-102663200D01*
X107039400Y-102663200D02*
X107221600Y-102481000D01*
X107221600Y-102481000D02*
X107221600Y-99610500D01*
X107221600Y-99610500D02*
X107523800Y-99308300D01*
X107523800Y-99308300D02*
X108585100Y-99308300D01*
X108585100Y-99308300D02*
X108849500Y-99572700D01*
X108849500Y-99572700D02*
X108849500Y-106464000D01*
G04 #@! TO.N,RST*
X102000000Y-118500000D02*
X103092100Y-119592100D01*
X103092100Y-119592100D02*
X109344300Y-119592100D01*
X109344300Y-119592100D02*
X110409700Y-118526700D01*
X110409700Y-118526700D02*
X110409700Y-118000000D01*
X111000000Y-118000000D02*
X110409700Y-118000000D01*
G04 #@! TD*
M02*
