G04 #@! TF.GenerationSoftware,KiCad,Pcbnew,(5.0.0)*
G04 #@! TF.CreationDate,2019-05-30T18:33:38-04:00*
G04 #@! TF.ProjectId,Tiny-er T,54696E792D657220542E6B696361645F,rev?*
G04 #@! TF.SameCoordinates,Original*
G04 #@! TF.FileFunction,Paste,Top*
G04 #@! TF.FilePolarity,Positive*
%FSLAX46Y46*%
G04 Gerber Fmt 4.6, Leading zero omitted, Abs format (unit mm)*
G04 Created by KiCad (PCBNEW (5.0.0)) date 05/30/19 18:33:38*
%MOMM*%
%LPD*%
G01*
G04 APERTURE LIST*
%ADD10R,0.800000X0.900000*%
%ADD11R,2.050000X2.050000*%
%ADD12R,0.279908X0.849884*%
%ADD13R,0.849884X0.279908*%
%ADD14R,0.700000X1.300000*%
G04 APERTURE END LIST*
D10*
G04 #@! TO.C,D1*
X91900000Y-91000000D03*
X94000000Y-91000000D03*
G04 #@! TD*
G04 #@! TO.C,D2*
X91900000Y-86000000D03*
X94000000Y-86000000D03*
G04 #@! TD*
G04 #@! TO.C,D3*
X91900000Y-82000000D03*
X94000000Y-82000000D03*
G04 #@! TD*
G04 #@! TO.C,D4*
X91900000Y-78000000D03*
X94000000Y-78000000D03*
G04 #@! TD*
G04 #@! TO.C,D5*
X98950000Y-78000000D03*
X101050000Y-78000000D03*
G04 #@! TD*
G04 #@! TO.C,D6*
X105900000Y-78000000D03*
X108000000Y-78000000D03*
G04 #@! TD*
G04 #@! TO.C,D7*
X112900000Y-78000000D03*
X115000000Y-78000000D03*
G04 #@! TD*
G04 #@! TO.C,D8*
X119000000Y-78000000D03*
X121100000Y-78000000D03*
G04 #@! TD*
G04 #@! TO.C,D9*
X125900000Y-78000000D03*
X128000000Y-78000000D03*
G04 #@! TD*
G04 #@! TO.C,D10*
X125900000Y-82000000D03*
X128000000Y-82000000D03*
G04 #@! TD*
G04 #@! TO.C,D11*
X126000000Y-86000000D03*
X128100000Y-86000000D03*
G04 #@! TD*
G04 #@! TO.C,D12*
X126000000Y-91000000D03*
X128100000Y-91000000D03*
G04 #@! TD*
G04 #@! TO.C,D13*
X121000000Y-91000000D03*
X123100000Y-91000000D03*
G04 #@! TD*
G04 #@! TO.C,D14*
X121000000Y-86000000D03*
X123100000Y-86000000D03*
G04 #@! TD*
G04 #@! TO.C,D15*
X116500000Y-86000000D03*
X118600000Y-86000000D03*
G04 #@! TD*
G04 #@! TO.C,D16*
X111950000Y-86000000D03*
X114050000Y-86000000D03*
G04 #@! TD*
G04 #@! TO.C,D17*
X111900000Y-90000000D03*
X114000000Y-90000000D03*
G04 #@! TD*
G04 #@! TO.C,D18*
X111950000Y-95000000D03*
X114050000Y-95000000D03*
G04 #@! TD*
G04 #@! TO.C,D19*
X111950000Y-100000000D03*
X114050000Y-100000000D03*
G04 #@! TD*
G04 #@! TO.C,D20*
X111900000Y-105000000D03*
X114000000Y-105000000D03*
G04 #@! TD*
G04 #@! TO.C,D21*
X111900000Y-115000000D03*
X114000000Y-115000000D03*
G04 #@! TD*
G04 #@! TO.C,D22*
X117900000Y-115000000D03*
X120000000Y-115000000D03*
G04 #@! TD*
G04 #@! TO.C,D23*
X117900000Y-121000000D03*
X120000000Y-121000000D03*
G04 #@! TD*
G04 #@! TO.C,D24*
X111950000Y-110000000D03*
X114050000Y-110000000D03*
G04 #@! TD*
D11*
G04 #@! TO.C,U2*
X110250000Y-82250000D03*
D12*
X111000001Y-80519000D03*
D13*
X112019001Y-81249999D03*
X112019001Y-81750001D03*
X112019001Y-82250000D03*
X112019001Y-82749999D03*
X112019001Y-83250001D03*
D12*
X111000001Y-83981000D03*
X109499999Y-83981000D03*
D13*
X108480999Y-83250001D03*
X108480999Y-82749999D03*
X108480999Y-82250000D03*
X108480999Y-81750001D03*
X108480999Y-81249999D03*
D12*
X109499999Y-80519000D03*
G04 #@! TD*
D10*
G04 #@! TO.C,D25*
X111900000Y-121000000D03*
X114000000Y-121000000D03*
G04 #@! TD*
G04 #@! TO.C,D26*
X105950000Y-121000000D03*
X108050000Y-121000000D03*
G04 #@! TD*
G04 #@! TO.C,D27*
X100900000Y-121000000D03*
X103000000Y-121000000D03*
G04 #@! TD*
G04 #@! TO.C,D28*
X100950000Y-115000000D03*
X103050000Y-115000000D03*
G04 #@! TD*
G04 #@! TO.C,D29*
X105950000Y-115000000D03*
X108050000Y-115000000D03*
G04 #@! TD*
G04 #@! TO.C,D30*
X105950000Y-110000000D03*
X108050000Y-110000000D03*
G04 #@! TD*
G04 #@! TO.C,D31*
X105950000Y-105000000D03*
X108050000Y-105000000D03*
G04 #@! TD*
G04 #@! TO.C,D32*
X105950000Y-100000000D03*
X108050000Y-100000000D03*
G04 #@! TD*
G04 #@! TO.C,D33*
X108100000Y-95000000D03*
X106000000Y-95000000D03*
G04 #@! TD*
G04 #@! TO.C,D34*
X105900000Y-90000000D03*
X108000000Y-90000000D03*
G04 #@! TD*
G04 #@! TO.C,D35*
X108000000Y-86000000D03*
X105900000Y-86000000D03*
G04 #@! TD*
G04 #@! TO.C,D36*
X101900000Y-86000000D03*
X104000000Y-86000000D03*
G04 #@! TD*
G04 #@! TO.C,D37*
X99550000Y-86000000D03*
X97450000Y-86000000D03*
G04 #@! TD*
G04 #@! TO.C,D38*
X97400000Y-91000000D03*
X99500000Y-91000000D03*
G04 #@! TD*
D14*
G04 #@! TO.C,R1*
X111000000Y-118000000D03*
X109100000Y-118000000D03*
G04 #@! TD*
M02*
