G04 #@! TF.GenerationSoftware,KiCad,Pcbnew,(5.0.0)*
G04 #@! TF.CreationDate,2019-05-30T18:33:38-04:00*
G04 #@! TF.ProjectId,Tiny-er T,54696E792D657220542E6B696361645F,rev?*
G04 #@! TF.SameCoordinates,Original*
G04 #@! TF.FileFunction,Copper,L2,Bot,Signal*
G04 #@! TF.FilePolarity,Positive*
%FSLAX46Y46*%
G04 Gerber Fmt 4.6, Leading zero omitted, Abs format (unit mm)*
G04 Created by KiCad (PCBNEW (5.0.0)) date 05/30/19 18:33:38*
%MOMM*%
%LPD*%
G01*
G04 APERTURE LIST*
G04 #@! TA.AperFunction,NonConductor*
%ADD10C,0.200000*%
G04 #@! TD*
G04 #@! TA.AperFunction,NonConductor*
%ADD11C,0.300000*%
G04 #@! TD*
G04 #@! TA.AperFunction,SMDPad,CuDef*
%ADD12R,1.550000X0.600000*%
G04 #@! TD*
G04 #@! TA.AperFunction,SMDPad,CuDef*
%ADD13R,1.000000X2.750000*%
G04 #@! TD*
G04 #@! TA.AperFunction,SMDPad,CuDef*
%ADD14R,2.050000X2.050000*%
G04 #@! TD*
G04 #@! TA.AperFunction,SMDPad,CuDef*
%ADD15R,0.849884X0.279908*%
G04 #@! TD*
G04 #@! TA.AperFunction,SMDPad,CuDef*
%ADD16R,0.279908X0.849884*%
G04 #@! TD*
G04 #@! TA.AperFunction,ComponentPad*
%ADD17C,4.000000*%
G04 #@! TD*
G04 #@! TA.AperFunction,SMDPad,CuDef*
%ADD18R,4.500000X4.500000*%
G04 #@! TD*
G04 #@! TA.AperFunction,ComponentPad*
%ADD19O,1.000000X1.000000*%
G04 #@! TD*
G04 #@! TA.AperFunction,ComponentPad*
%ADD20R,1.000000X1.000000*%
G04 #@! TD*
G04 #@! TA.AperFunction,ViaPad*
%ADD21C,0.800000*%
G04 #@! TD*
G04 #@! TA.AperFunction,Conductor*
%ADD22C,0.160000*%
G04 #@! TD*
G04 APERTURE END LIST*
D10*
X128456277Y-80468088D02*
X128914213Y-80387276D01*
X128779526Y-80791337D02*
X129345211Y-80225651D01*
X129129712Y-80010152D01*
X129048900Y-79983215D01*
X128995025Y-79983215D01*
X128914213Y-80010152D01*
X128833401Y-80090964D01*
X128806463Y-80171776D01*
X128806463Y-80225651D01*
X128833401Y-80306463D01*
X129048900Y-80521963D01*
X128510152Y-79929340D02*
X128321590Y-79740778D01*
X127944467Y-79956277D02*
X128213841Y-80225651D01*
X128779526Y-79659966D01*
X128510152Y-79390592D01*
X128348528Y-79228967D02*
X127594280Y-79606091D01*
X127971404Y-78851844D01*
X126489847Y-78501658D02*
X126813096Y-78824906D01*
X126651471Y-78663282D02*
X127217157Y-78097597D01*
X127190219Y-78232284D01*
X127190219Y-78340033D01*
X127217157Y-78420845D01*
X126301285Y-78205346D02*
X126247410Y-78205346D01*
X126247410Y-78259221D01*
X126301285Y-78259221D01*
X126301285Y-78205346D01*
X126247410Y-78259221D01*
X126435972Y-77316412D02*
X126382097Y-77262537D01*
X126301285Y-77235600D01*
X126247410Y-77235600D01*
X126166598Y-77262537D01*
X126031911Y-77343349D01*
X125897224Y-77478036D01*
X125816412Y-77612723D01*
X125789475Y-77693536D01*
X125789475Y-77747410D01*
X125816412Y-77828223D01*
X125870287Y-77882097D01*
X125951099Y-77909035D01*
X126004974Y-77909035D01*
X126085786Y-77882097D01*
X126220473Y-77801285D01*
X126355160Y-77666598D01*
X126435972Y-77531911D01*
X126462910Y-77451099D01*
X126462910Y-77397224D01*
X126435972Y-77316412D01*
D11*
X95142857Y-79178571D02*
X95642857Y-78464285D01*
X96000000Y-79178571D02*
X96000000Y-77678571D01*
X95428571Y-77678571D01*
X95285714Y-77750000D01*
X95214285Y-77821428D01*
X95142857Y-77964285D01*
X95142857Y-78178571D01*
X95214285Y-78321428D01*
X95285714Y-78392857D01*
X95428571Y-78464285D01*
X96000000Y-78464285D01*
X94500000Y-78392857D02*
X94000000Y-78392857D01*
X93785714Y-79178571D02*
X94500000Y-79178571D01*
X94500000Y-77678571D01*
X93785714Y-77678571D01*
X93142857Y-78392857D02*
X92642857Y-78392857D01*
X92428571Y-79178571D02*
X93142857Y-79178571D01*
X93142857Y-77678571D01*
X92428571Y-77678571D01*
X91785714Y-79178571D02*
X91785714Y-77678571D01*
X91428571Y-77678571D01*
X91214285Y-77750000D01*
X91071428Y-77892857D01*
X91000000Y-78035714D01*
X90928571Y-78321428D01*
X90928571Y-78535714D01*
X91000000Y-78821428D01*
X91071428Y-78964285D01*
X91214285Y-79107142D01*
X91428571Y-79178571D01*
X91785714Y-79178571D01*
D12*
G04 #@! TO.P,U1,8*
G04 #@! TO.N,VCC*
X111000000Y-115500000D03*
G04 #@! TO.P,U1,7*
G04 #@! TO.N,B*
X111000000Y-116765000D03*
G04 #@! TO.P,U1,6*
G04 #@! TO.N,A*
X111000000Y-118035000D03*
G04 #@! TO.P,U1,5*
G04 #@! TO.N,SW1*
X111000000Y-119305000D03*
G04 #@! TO.P,U1,4*
G04 #@! TO.N,GND*
X118000000Y-119305000D03*
G04 #@! TO.P,U1,3*
G04 #@! TO.N,CLK*
X118000000Y-118035000D03*
G04 #@! TO.P,U1,2*
G04 #@! TO.N,CLR*
X118000000Y-116765000D03*
G04 #@! TO.P,U1,1*
G04 #@! TO.N,RST*
X118000000Y-115495000D03*
G04 #@! TD*
D13*
G04 #@! TO.P,SW1,1*
G04 #@! TO.N,SW1*
X112000000Y-98870000D03*
X112000000Y-104630000D03*
G04 #@! TO.P,SW1,2*
G04 #@! TO.N,GND*
X108000000Y-104630000D03*
X108000000Y-98870000D03*
G04 #@! TD*
D14*
G04 #@! TO.P,U4,15*
G04 #@! TO.N,N/C*
X110000000Y-93750000D03*
D15*
G04 #@! TO.P,U4,14*
G04 #@! TO.N,VCC*
X108269000Y-94500001D03*
D16*
G04 #@! TO.P,U4,13*
G04 #@! TO.N,Net-(D21-Pad2)*
X108999999Y-95519001D03*
G04 #@! TO.P,U4,12*
G04 #@! TO.N,Net-(D22-Pad2)*
X109500001Y-95519001D03*
G04 #@! TO.P,U4,11*
G04 #@! TO.N,Net-(D23-Pad2)*
X110000000Y-95519001D03*
G04 #@! TO.P,U4,10*
G04 #@! TO.N,Net-(D24-Pad2)*
X110499999Y-95519001D03*
G04 #@! TO.P,U4,9*
G04 #@! TO.N,CLR*
X111000001Y-95519001D03*
D15*
G04 #@! TO.P,U4,8*
G04 #@! TO.N,CLK*
X111731000Y-94500001D03*
G04 #@! TO.P,U4,7*
G04 #@! TO.N,GND*
X111731000Y-92999999D03*
D16*
G04 #@! TO.P,U4,6*
G04 #@! TO.N,Net-(D20-Pad2)*
X111000001Y-91980999D03*
G04 #@! TO.P,U4,5*
G04 #@! TO.N,Net-(D19-Pad2)*
X110499999Y-91980999D03*
G04 #@! TO.P,U4,4*
G04 #@! TO.N,Net-(D18-Pad2)*
X110000000Y-91980999D03*
G04 #@! TO.P,U4,3*
G04 #@! TO.N,Net-(D17-Pad2)*
X109500001Y-91980999D03*
G04 #@! TO.P,U4,2*
G04 #@! TO.N,B*
X108999999Y-91980999D03*
D15*
G04 #@! TO.P,U4,1*
G04 #@! TO.N,A*
X108269000Y-92999999D03*
G04 #@! TD*
D14*
G04 #@! TO.P,U3,15*
G04 #@! TO.N,N/C*
X124500000Y-88500000D03*
D16*
G04 #@! TO.P,U3,14*
G04 #@! TO.N,VCC*
X125250001Y-90231000D03*
D15*
G04 #@! TO.P,U3,13*
G04 #@! TO.N,Net-(D13-Pad2)*
X126269001Y-89500001D03*
G04 #@! TO.P,U3,12*
G04 #@! TO.N,Net-(D14-Pad2)*
X126269001Y-88999999D03*
G04 #@! TO.P,U3,11*
G04 #@! TO.N,Net-(D15-Pad2)*
X126269001Y-88500000D03*
G04 #@! TO.P,U3,10*
G04 #@! TO.N,Net-(D16-Pad2)*
X126269001Y-88000001D03*
G04 #@! TO.P,U3,9*
G04 #@! TO.N,CLR*
X126269001Y-87499999D03*
D16*
G04 #@! TO.P,U3,8*
G04 #@! TO.N,CLK*
X125250001Y-86769000D03*
G04 #@! TO.P,U3,7*
G04 #@! TO.N,GND*
X123749999Y-86769000D03*
D15*
G04 #@! TO.P,U3,6*
G04 #@! TO.N,Net-(D12-Pad2)*
X122730999Y-87499999D03*
G04 #@! TO.P,U3,5*
G04 #@! TO.N,Net-(D11-Pad2)*
X122730999Y-88000001D03*
G04 #@! TO.P,U3,4*
G04 #@! TO.N,Net-(D10-Pad2)*
X122730999Y-88500000D03*
G04 #@! TO.P,U3,3*
G04 #@! TO.N,Net-(D9-Pad2)*
X122730999Y-88999999D03*
G04 #@! TO.P,U3,2*
G04 #@! TO.N,B*
X122730999Y-89500001D03*
D16*
G04 #@! TO.P,U3,1*
G04 #@! TO.N,A*
X123749999Y-90231000D03*
G04 #@! TD*
D14*
G04 #@! TO.P,U5,15*
G04 #@! TO.N,N/C*
X110000000Y-110000000D03*
D16*
G04 #@! TO.P,U5,14*
G04 #@! TO.N,VCC*
X110750001Y-111731000D03*
D15*
G04 #@! TO.P,U5,13*
G04 #@! TO.N,Net-(D29-Pad2)*
X111769001Y-111000001D03*
G04 #@! TO.P,U5,12*
G04 #@! TO.N,Net-(D30-Pad2)*
X111769001Y-110499999D03*
G04 #@! TO.P,U5,11*
G04 #@! TO.N,Net-(D31-Pad2)*
X111769001Y-110000000D03*
G04 #@! TO.P,U5,10*
G04 #@! TO.N,Net-(D32-Pad2)*
X111769001Y-109500001D03*
G04 #@! TO.P,U5,9*
G04 #@! TO.N,CLR*
X111769001Y-108999999D03*
D16*
G04 #@! TO.P,U5,8*
G04 #@! TO.N,CLK*
X110750001Y-108269000D03*
G04 #@! TO.P,U5,7*
G04 #@! TO.N,GND*
X109249999Y-108269000D03*
D15*
G04 #@! TO.P,U5,6*
G04 #@! TO.N,Net-(D28-Pad2)*
X108230999Y-108999999D03*
G04 #@! TO.P,U5,5*
G04 #@! TO.N,Net-(D27-Pad2)*
X108230999Y-109500001D03*
G04 #@! TO.P,U5,4*
G04 #@! TO.N,Net-(D26-Pad2)*
X108230999Y-110000000D03*
G04 #@! TO.P,U5,3*
G04 #@! TO.N,Net-(D25-Pad2)*
X108230999Y-110499999D03*
G04 #@! TO.P,U5,2*
G04 #@! TO.N,B*
X108230999Y-111000001D03*
D16*
G04 #@! TO.P,U5,1*
G04 #@! TO.N,A*
X109249999Y-111731000D03*
G04 #@! TD*
G04 #@! TO.P,U6,1*
G04 #@! TO.N,A*
X94749999Y-90231000D03*
D15*
G04 #@! TO.P,U6,2*
G04 #@! TO.N,B*
X93730999Y-89500001D03*
G04 #@! TO.P,U6,3*
G04 #@! TO.N,Net-(D33-Pad2)*
X93730999Y-88999999D03*
G04 #@! TO.P,U6,4*
G04 #@! TO.N,Net-(D34-Pad2)*
X93730999Y-88500000D03*
G04 #@! TO.P,U6,5*
G04 #@! TO.N,Net-(D35-Pad2)*
X93730999Y-88000001D03*
G04 #@! TO.P,U6,6*
G04 #@! TO.N,Net-(D36-Pad2)*
X93730999Y-87499999D03*
D16*
G04 #@! TO.P,U6,7*
G04 #@! TO.N,GND*
X94749999Y-86769000D03*
G04 #@! TO.P,U6,8*
G04 #@! TO.N,CLK*
X96250001Y-86769000D03*
D15*
G04 #@! TO.P,U6,9*
G04 #@! TO.N,CLR*
X97269001Y-87499999D03*
G04 #@! TO.P,U6,10*
G04 #@! TO.N,N/C*
X97269001Y-88000001D03*
G04 #@! TO.P,U6,11*
X97269001Y-88500000D03*
G04 #@! TO.P,U6,12*
G04 #@! TO.N,Net-(D38-Pad2)*
X97269001Y-88999999D03*
G04 #@! TO.P,U6,13*
G04 #@! TO.N,Net-(D37-Pad2)*
X97269001Y-89500001D03*
D16*
G04 #@! TO.P,U6,14*
G04 #@! TO.N,VCC*
X96250001Y-90231000D03*
D14*
G04 #@! TO.P,U6,15*
G04 #@! TO.N,N/C*
X95500000Y-88500000D03*
G04 #@! TD*
D17*
G04 #@! TO.P,J1,2*
G04 #@! TO.N,GND*
X99567000Y-81826100D03*
X121167000Y-81826100D03*
D18*
G04 #@! TO.P,J1,1*
G04 #@! TO.N,VCC*
X110367000Y-81826100D03*
G04 #@! TD*
D19*
G04 #@! TO.P,J2,8*
G04 #@! TO.N,VCC*
X105810000Y-117230000D03*
G04 #@! TO.P,J2,7*
G04 #@! TO.N,B*
X105810000Y-118500000D03*
G04 #@! TO.P,J2,6*
G04 #@! TO.N,A*
X104540000Y-117230000D03*
G04 #@! TO.P,J2,5*
G04 #@! TO.N,SW1*
X104540000Y-118500000D03*
G04 #@! TO.P,J2,4*
G04 #@! TO.N,GND*
X103270000Y-117230000D03*
G04 #@! TO.P,J2,3*
G04 #@! TO.N,CLK*
X103270000Y-118500000D03*
G04 #@! TO.P,J2,2*
G04 #@! TO.N,CLR*
X102000000Y-117230000D03*
D20*
G04 #@! TO.P,J2,1*
G04 #@! TO.N,RST*
X102000000Y-118500000D03*
G04 #@! TD*
D21*
G04 #@! TO.N,Net-(D1-Pad2)*
X95539900Y-86692800D03*
X102783000Y-81345800D03*
G04 #@! TO.N,Net-(D3-Pad2)*
X103580600Y-83995700D03*
X105808300Y-84538200D03*
G04 #@! TO.N,Net-(D9-Pad2)*
X123585000Y-78941600D03*
G04 #@! TO.N,Net-(D10-Pad2)*
X124384700Y-79762400D03*
G04 #@! TO.N,Net-(D11-Pad2)*
X126796300Y-83828600D03*
G04 #@! TO.N,Net-(D12-Pad2)*
X123130100Y-84965400D03*
G04 #@! TO.N,Net-(D13-Pad2)*
X128256500Y-89189400D03*
G04 #@! TO.N,Net-(D14-Pad2)*
X125517600Y-84841500D03*
X126798300Y-84933900D03*
X127261300Y-89279100D03*
G04 #@! TO.N,Net-(D15-Pad2)*
X128507200Y-87647800D03*
G04 #@! TO.N,Net-(D16-Pad2)*
X114050000Y-87018000D03*
G04 #@! TO.N,Net-(D17-Pad2)*
X113903000Y-91207600D03*
G04 #@! TO.N,Net-(D18-Pad2)*
X114050000Y-92577500D03*
G04 #@! TO.N,Net-(D19-Pad2)*
X112380800Y-91914000D03*
G04 #@! TO.N,Net-(D20-Pad2)*
X113063100Y-93572200D03*
G04 #@! TO.N,Net-(D21-Pad2)*
X108851500Y-96742900D03*
G04 #@! TO.N,Net-(D22-Pad2)*
X111259700Y-102691800D03*
G04 #@! TO.N,Net-(D23-Pad2)*
X110450800Y-97268600D03*
G04 #@! TO.N,Net-(D24-Pad2)*
X110837100Y-98233600D03*
G04 #@! TO.N,GND*
X106261000Y-102083200D03*
X116687300Y-118749100D03*
X111900000Y-93750000D03*
G04 #@! TO.N,VCC*
X107826200Y-117348700D03*
X107455100Y-79801400D03*
X109135100Y-113282600D03*
X106381500Y-108845400D03*
X109030500Y-115530800D03*
G04 #@! TO.N,CLR*
X115115200Y-85924800D03*
X114313300Y-88345700D03*
X115663900Y-82678900D03*
X113197200Y-83153900D03*
G04 #@! TO.N,CLK*
X113669900Y-113752600D03*
X110748300Y-89874600D03*
X110486800Y-107146300D03*
X118923400Y-83236200D03*
X110727100Y-86529000D03*
X111000000Y-84967300D03*
G04 #@! TO.N,A*
X111876600Y-88423000D03*
X95463700Y-90174400D03*
X92424200Y-84655600D03*
X104875600Y-79785600D03*
X120165800Y-88954000D03*
X114347100Y-108128500D03*
G04 #@! TO.N,B*
X106890200Y-90721800D03*
X108286800Y-92161300D03*
X107447800Y-111626800D03*
X105281000Y-82604200D03*
G04 #@! TO.N,Net-(D25-Pad2)*
X112950000Y-121056500D03*
G04 #@! TO.N,Net-(D26-Pad2)*
X109039900Y-121495400D03*
G04 #@! TO.N,Net-(D27-Pad2)*
X103294600Y-122242200D03*
G04 #@! TO.N,Net-(D28-Pad2)*
X103050000Y-113685200D03*
G04 #@! TO.N,Net-(D29-Pad2)*
X108991600Y-114250100D03*
G04 #@! TO.N,Net-(D30-Pad2)*
X110504200Y-113121600D03*
G04 #@! TO.N,Net-(D31-Pad2)*
X112001200Y-112819100D03*
G04 #@! TO.N,Net-(D32-Pad2)*
X111426200Y-113655700D03*
G04 #@! TO.N,Net-(D33-Pad2)*
X106335600Y-92270100D03*
G04 #@! TO.N,Net-(D34-Pad2)*
X105876400Y-87953500D03*
G04 #@! TO.N,Net-(D35-Pad2)*
X107028400Y-86122700D03*
X106268200Y-82274300D03*
X103708600Y-80862600D03*
G04 #@! TO.N,Net-(D36-Pad2)*
X91655200Y-87489500D03*
G04 #@! TO.N,Net-(D37-Pad2)*
X98590100Y-87095200D03*
G04 #@! TO.N,Net-(D38-Pad2)*
X98263400Y-88446300D03*
G04 #@! TO.N,SW1*
X108849500Y-106464000D03*
G04 #@! TD*
D22*
G04 #@! TO.N,Net-(D1-Pad2)*
X95539900Y-86692800D02*
X95539900Y-86360800D01*
X95539900Y-86360800D02*
X97821600Y-84079100D01*
X97821600Y-84079100D02*
X100515800Y-84079100D01*
X100515800Y-84079100D02*
X102782900Y-81812000D01*
X102782900Y-81812000D02*
X102782900Y-81345800D01*
X102782900Y-81345800D02*
X102783000Y-81345800D01*
G04 #@! TO.N,Net-(D3-Pad2)*
X103580600Y-83995700D02*
X104123100Y-84538200D01*
X104123100Y-84538200D02*
X105808300Y-84538200D01*
G04 #@! TO.N,Net-(D9-Pad2)*
X123585000Y-78941600D02*
X123246900Y-78603500D01*
X123246900Y-78603500D02*
X119843800Y-78603500D01*
X119843800Y-78603500D02*
X117638700Y-80808600D01*
X117638700Y-80808600D02*
X117638700Y-84572900D01*
X117638700Y-84572900D02*
X122065800Y-89000000D01*
X122731000Y-89000000D02*
X122065800Y-89000000D01*
G04 #@! TO.N,Net-(D10-Pad2)*
X124384700Y-79762400D02*
X123236800Y-79762400D01*
X123236800Y-79762400D02*
X122398200Y-78923800D01*
X122398200Y-78923800D02*
X119976400Y-78923800D01*
X119976400Y-78923800D02*
X117959000Y-80941200D01*
X117959000Y-80941200D02*
X117959000Y-84393200D01*
X117959000Y-84393200D02*
X122065800Y-88500000D01*
X122731000Y-88500000D02*
X122065800Y-88500000D01*
G04 #@! TO.N,Net-(D11-Pad2)*
X122065800Y-88000000D02*
X118279300Y-84213500D01*
X118279300Y-84213500D02*
X118279300Y-81073800D01*
X118279300Y-81073800D02*
X120109000Y-79244100D01*
X120109000Y-79244100D02*
X122211800Y-79244100D01*
X122211800Y-79244100D02*
X126796300Y-83828600D01*
X122731000Y-88000000D02*
X122065800Y-88000000D01*
G04 #@! TO.N,Net-(D12-Pad2)*
X122731000Y-87500000D02*
X123130100Y-87100900D01*
X123130100Y-87100900D02*
X123130100Y-84965400D01*
G04 #@! TO.N,Net-(D13-Pad2)*
X126269000Y-89500000D02*
X126688400Y-89919400D01*
X126688400Y-89919400D02*
X127526500Y-89919400D01*
X127526500Y-89919400D02*
X128256500Y-89189400D01*
G04 #@! TO.N,Net-(D14-Pad2)*
X125517600Y-84841500D02*
X125610000Y-84933900D01*
X125610000Y-84933900D02*
X126798300Y-84933900D01*
X126269000Y-89000000D02*
X126982200Y-89000000D01*
X126982200Y-89000000D02*
X127261300Y-89279100D01*
G04 #@! TO.N,Net-(D15-Pad2)*
X126269000Y-88500000D02*
X127655000Y-88500000D01*
X127655000Y-88500000D02*
X128507200Y-87647800D01*
G04 #@! TO.N,Net-(D16-Pad2)*
X114050000Y-87018000D02*
X114050000Y-85898300D01*
X114050000Y-85898300D02*
X114966500Y-84981800D01*
X114966500Y-84981800D02*
X114966500Y-82436200D01*
X114966500Y-82436200D02*
X119455400Y-77947300D01*
X119455400Y-77947300D02*
X123987500Y-77947300D01*
X123987500Y-77947300D02*
X127758900Y-81718700D01*
X127758900Y-81718700D02*
X127758900Y-87175300D01*
X127758900Y-87175300D02*
X126934200Y-88000000D01*
X126269000Y-88000000D02*
X126934200Y-88000000D01*
G04 #@! TO.N,Net-(D17-Pad2)*
X109500000Y-91981000D02*
X109500000Y-91315800D01*
X109500000Y-91315800D02*
X110182900Y-90632900D01*
X110182900Y-90632900D02*
X113328300Y-90632900D01*
X113328300Y-90632900D02*
X113903000Y-91207600D01*
G04 #@! TO.N,Net-(D18-Pad2)*
X110000000Y-91315800D02*
X110362500Y-90953300D01*
X110362500Y-90953300D02*
X112425800Y-90953300D01*
X112425800Y-90953300D02*
X114050000Y-92577500D01*
X110000000Y-91981000D02*
X110000000Y-91315800D01*
G04 #@! TO.N,Net-(D19-Pad2)*
X110500000Y-91315800D02*
X111782600Y-91315800D01*
X111782600Y-91315800D02*
X112380800Y-91914000D01*
X110500000Y-91981000D02*
X110500000Y-91315800D01*
G04 #@! TO.N,Net-(D20-Pad2)*
X111000000Y-91981000D02*
X111573300Y-92554300D01*
X111573300Y-92554300D02*
X112225500Y-92554300D01*
X112225500Y-92554300D02*
X113063100Y-93391900D01*
X113063100Y-93391900D02*
X113063100Y-93572200D01*
G04 #@! TO.N,Net-(D21-Pad2)*
X109000000Y-96184200D02*
X108851500Y-96332700D01*
X108851500Y-96332700D02*
X108851500Y-96742900D01*
X109000000Y-95519000D02*
X109000000Y-96184200D01*
G04 #@! TO.N,Net-(D22-Pad2)*
X109500000Y-95519000D02*
X109500000Y-100932100D01*
X109500000Y-100932100D02*
X111259700Y-102691800D01*
G04 #@! TO.N,Net-(D23-Pad2)*
X110000000Y-95519000D02*
X110000000Y-96817800D01*
X110000000Y-96817800D02*
X110450800Y-97268600D01*
G04 #@! TO.N,Net-(D24-Pad2)*
X110500000Y-96184200D02*
X111091700Y-96775900D01*
X111091700Y-96775900D02*
X111091700Y-97979000D01*
X111091700Y-97979000D02*
X110837100Y-98233600D01*
X110500000Y-95519000D02*
X110500000Y-96184200D01*
G04 #@! TO.N,GND*
X99567000Y-81826100D02*
X99027700Y-81826100D01*
X99027700Y-81826100D02*
X94750000Y-86103800D01*
X108000000Y-102083200D02*
X108000000Y-103014700D01*
X108000000Y-100485300D02*
X108000000Y-102083200D01*
X106261000Y-102083200D02*
X108000000Y-102083200D01*
X118000000Y-119305000D02*
X116984700Y-119305000D01*
X116984700Y-119305000D02*
X116984700Y-119046500D01*
X116984700Y-119046500D02*
X116687300Y-118749100D01*
X111731000Y-93000000D02*
X111900000Y-93169000D01*
X111900000Y-93169000D02*
X111900000Y-93750000D01*
X108000000Y-106245300D02*
X108000000Y-106534000D01*
X108000000Y-106534000D02*
X108765500Y-107299500D01*
X108765500Y-107299500D02*
X109250000Y-107299500D01*
X109250000Y-107299500D02*
X109250000Y-108269000D01*
X94750000Y-86769000D02*
X94750000Y-86103800D01*
X123750000Y-86103800D02*
X123796900Y-86056900D01*
X123796900Y-86056900D02*
X123796900Y-84456000D01*
X123796900Y-84456000D02*
X121167000Y-81826100D01*
X108000000Y-104630000D02*
X108000000Y-103014700D01*
X108000000Y-98870000D02*
X108000000Y-100485300D01*
X123750000Y-86769000D02*
X123750000Y-86103800D01*
X108000000Y-104630000D02*
X108000000Y-106245300D01*
G04 #@! TO.N,VCC*
X110248200Y-87169300D02*
X110248200Y-88269500D01*
X110248200Y-88269500D02*
X107292300Y-91225400D01*
X107292300Y-91225400D02*
X107292300Y-93551000D01*
X107292300Y-93551000D02*
X108241300Y-94500000D01*
X110248200Y-87169300D02*
X111014700Y-87169300D01*
X111014700Y-87169300D02*
X114502600Y-83681400D01*
X114502600Y-83681400D02*
X114502600Y-82385100D01*
X114502600Y-82385100D02*
X119308500Y-77579200D01*
X119308500Y-77579200D02*
X124072400Y-77579200D01*
X124072400Y-77579200D02*
X129157700Y-82664500D01*
X129157700Y-82664500D02*
X129157700Y-89205000D01*
X129157700Y-89205000D02*
X127466500Y-90896200D01*
X127466500Y-90896200D02*
X125250000Y-90896200D01*
X110367000Y-84316400D02*
X110086800Y-84596600D01*
X110086800Y-84596600D02*
X110086800Y-87007900D01*
X110086800Y-87007900D02*
X110248200Y-87169300D01*
X110750000Y-111731000D02*
X110536500Y-111731000D01*
X110536500Y-111731000D02*
X109135100Y-113132400D01*
X109135100Y-113132400D02*
X109135100Y-113282600D01*
X110367000Y-81826100D02*
X110367000Y-84316400D01*
X105810000Y-117230000D02*
X107707500Y-117230000D01*
X107707500Y-117230000D02*
X107826200Y-117348700D01*
X107455100Y-81605500D02*
X104932300Y-81605500D01*
X104932300Y-81605500D02*
X104055500Y-82482300D01*
X104055500Y-82482300D02*
X103735200Y-82482300D01*
X103735200Y-82482300D02*
X99277500Y-86940000D01*
X99277500Y-86940000D02*
X99277500Y-88832300D01*
X99277500Y-88832300D02*
X97878800Y-90231000D01*
X97878800Y-90231000D02*
X96250000Y-90231000D01*
X107876700Y-81826100D02*
X107656100Y-81605500D01*
X107656100Y-81605500D02*
X107455100Y-81605500D01*
X107455100Y-81605500D02*
X107455100Y-79801400D01*
X110367000Y-81826100D02*
X107876700Y-81826100D01*
X125250000Y-90231000D02*
X125250000Y-90896200D01*
X109984700Y-115500000D02*
X109061300Y-115500000D01*
X109061300Y-115500000D02*
X109030500Y-115530800D01*
X108241300Y-94500000D02*
X105249700Y-97491600D01*
X105249700Y-97491600D02*
X105249700Y-107713600D01*
X105249700Y-107713600D02*
X106381500Y-108845400D01*
X111000000Y-115500000D02*
X109984700Y-115500000D01*
X108269000Y-94500000D02*
X108241300Y-94500000D01*
G04 #@! TO.N,CLR*
X119015300Y-116765000D02*
X119335600Y-117085300D01*
X119335600Y-117085300D02*
X119335600Y-119861100D01*
X119335600Y-119861100D02*
X118780500Y-120416200D01*
X118780500Y-120416200D02*
X112684900Y-120416200D01*
X112684900Y-120416200D02*
X112566400Y-120534700D01*
X112566400Y-120534700D02*
X102676000Y-120534700D01*
X102676000Y-120534700D02*
X101259700Y-119118400D01*
X101259700Y-119118400D02*
X101259700Y-117230000D01*
X112497000Y-96985300D02*
X115010700Y-94471600D01*
X115010700Y-94471600D02*
X115010700Y-89043100D01*
X115010700Y-89043100D02*
X114313300Y-88345700D01*
X113197200Y-83153900D02*
X113197200Y-79741000D01*
X113197200Y-79741000D02*
X112617300Y-79161100D01*
X112617300Y-79161100D02*
X106858500Y-79161100D01*
X106858500Y-79161100D02*
X104044100Y-81975500D01*
X104044100Y-81975500D02*
X103562800Y-81975500D01*
X103562800Y-81975500D02*
X100524000Y-85014300D01*
X100524000Y-85014300D02*
X99765600Y-85014300D01*
X99765600Y-85014300D02*
X97934200Y-86845700D01*
X97934200Y-86845700D02*
X97934200Y-87500000D01*
X115663900Y-82678900D02*
X115663900Y-82330500D01*
X115663900Y-82330500D02*
X119711200Y-78283200D01*
X119711200Y-78283200D02*
X123832100Y-78283200D01*
X123832100Y-78283200D02*
X127438600Y-81889700D01*
X127438600Y-81889700D02*
X127438600Y-86995600D01*
X127438600Y-86995600D02*
X126934200Y-87500000D01*
X115663900Y-82678900D02*
X115663900Y-85376100D01*
X115663900Y-85376100D02*
X115115200Y-85924800D01*
X113018800Y-107440700D02*
X113018800Y-97507100D01*
X113018800Y-97507100D02*
X112497000Y-96985300D01*
X112434200Y-109000000D02*
X113018800Y-108415400D01*
X113018800Y-108415400D02*
X113018800Y-107440700D01*
X113018800Y-107440700D02*
X114635000Y-107440700D01*
X114635000Y-107440700D02*
X115007900Y-107813600D01*
X115007900Y-107813600D02*
X115007900Y-112573900D01*
X115007900Y-112573900D02*
X116150100Y-113716100D01*
X116150100Y-113716100D02*
X117695500Y-113716100D01*
X117695500Y-113716100D02*
X119015400Y-115036000D01*
X119015400Y-115036000D02*
X119015400Y-116257300D01*
X119015400Y-116257300D02*
X118507700Y-116765000D01*
X112497000Y-96985300D02*
X111801100Y-96985300D01*
X111801100Y-96985300D02*
X111000000Y-96184200D01*
X118507700Y-116765000D02*
X119015300Y-116765000D01*
X118000000Y-116765000D02*
X118507700Y-116765000D01*
X126269000Y-87500000D02*
X126934200Y-87500000D01*
X111000000Y-95519000D02*
X111000000Y-96184200D01*
X97269000Y-87500000D02*
X97934200Y-87500000D01*
X111769000Y-109000000D02*
X112434200Y-109000000D01*
X102000000Y-117230000D02*
X101259700Y-117230000D01*
G04 #@! TO.N,CLK*
X113752100Y-118035000D02*
X118000000Y-118035000D01*
X103270000Y-118500000D02*
X104615400Y-119845400D01*
X104615400Y-119845400D02*
X111941700Y-119845400D01*
X111941700Y-119845400D02*
X113752100Y-118035000D01*
X113752100Y-118035000D02*
X113752100Y-113834800D01*
X113752100Y-113834800D02*
X113669900Y-113752600D01*
X111000000Y-84967300D02*
X111000000Y-86256100D01*
X111000000Y-86256100D02*
X110727100Y-86529000D01*
X110748300Y-89874600D02*
X113662400Y-89874600D01*
X113662400Y-89874600D02*
X114690400Y-90902600D01*
X114690400Y-90902600D02*
X114690400Y-92903100D01*
X114690400Y-92903100D02*
X113093500Y-94500000D01*
X113093500Y-94500000D02*
X111731000Y-94500000D01*
X110486800Y-107146300D02*
X110750000Y-107409500D01*
X110750000Y-107409500D02*
X110750000Y-108269000D01*
X111000000Y-84967300D02*
X112366800Y-84967300D01*
X112366800Y-84967300D02*
X113838700Y-83495400D01*
X113838700Y-83495400D02*
X113838700Y-79929600D01*
X113838700Y-79929600D02*
X112749900Y-78840800D01*
X112749900Y-78840800D02*
X106725900Y-78840800D01*
X106725900Y-78840800D02*
X103911500Y-81655200D01*
X103911500Y-81655200D02*
X103392600Y-81655200D01*
X103392600Y-81655200D02*
X100353800Y-84694000D01*
X100353800Y-84694000D02*
X97659800Y-84694000D01*
X97659800Y-84694000D02*
X96250000Y-86103800D01*
X118923400Y-83236200D02*
X118923400Y-80886200D01*
X118923400Y-80886200D02*
X120235800Y-79573800D01*
X120235800Y-79573800D02*
X122088400Y-79573800D01*
X122088400Y-79573800D02*
X124877300Y-82362700D01*
X124877300Y-82362700D02*
X124877300Y-85731100D01*
X124877300Y-85731100D02*
X125250000Y-86103800D01*
X125250000Y-86769000D02*
X125250000Y-86103800D01*
X96250000Y-86769000D02*
X96250000Y-86103800D01*
G04 #@! TO.N,A*
X111876600Y-88423000D02*
X110814100Y-88423000D01*
X110814100Y-88423000D02*
X107616700Y-91620400D01*
X107616700Y-91620400D02*
X107616700Y-92461300D01*
X107616700Y-92461300D02*
X108155400Y-93000000D01*
X108155400Y-93000000D02*
X108269000Y-93000000D01*
X108310600Y-114890400D02*
X111391500Y-114890400D01*
X111391500Y-114890400D02*
X114347100Y-111934800D01*
X114347100Y-111934800D02*
X114347100Y-108128500D01*
X95463700Y-90174400D02*
X94806600Y-90174400D01*
X94806600Y-90174400D02*
X94750000Y-90231000D01*
X104875600Y-79785600D02*
X104343200Y-79253200D01*
X104343200Y-79253200D02*
X97826600Y-79253200D01*
X97826600Y-79253200D02*
X92424200Y-84655600D01*
X123750000Y-90896200D02*
X124098400Y-91244600D01*
X124098400Y-91244600D02*
X127571100Y-91244600D01*
X127571100Y-91244600D02*
X129491200Y-89324500D01*
X129491200Y-89324500D02*
X129491200Y-82543900D01*
X129491200Y-82543900D02*
X124190800Y-77243500D01*
X124190800Y-77243500D02*
X107417700Y-77243500D01*
X107417700Y-77243500D02*
X104875600Y-79785600D01*
X123750000Y-90231000D02*
X123750000Y-90896200D01*
X120165800Y-88954000D02*
X121442800Y-90231000D01*
X121442800Y-90231000D02*
X123750000Y-90231000D01*
X111000000Y-118035000D02*
X109556700Y-118035000D01*
X109556700Y-118035000D02*
X107984500Y-116462800D01*
X109250000Y-112396200D02*
X109035100Y-112396200D01*
X109035100Y-112396200D02*
X108310600Y-113120700D01*
X108310600Y-113120700D02*
X108310600Y-114890400D01*
X108310600Y-114890400D02*
X107984500Y-115216500D01*
X107984500Y-115216500D02*
X107984500Y-116462800D01*
X109250000Y-111731000D02*
X109250000Y-112396200D01*
X104540000Y-117230000D02*
X105307200Y-116462800D01*
X105307200Y-116462800D02*
X107984500Y-116462800D01*
G04 #@! TO.N,B*
X105098000Y-82825500D02*
X106457100Y-84184600D01*
X106457100Y-84184600D02*
X106457100Y-84981300D01*
X106457100Y-84981300D02*
X106340400Y-85098000D01*
X106340400Y-85098000D02*
X106340400Y-87059000D01*
X106340400Y-87059000D02*
X106890200Y-87608800D01*
X106890200Y-87608800D02*
X106890200Y-90721800D01*
X109000000Y-91315800D02*
X109000000Y-90717500D01*
X109000000Y-90717500D02*
X110654200Y-89063300D01*
X110654200Y-89063300D02*
X112141800Y-89063300D01*
X112141800Y-89063300D02*
X113499800Y-87705300D01*
X113499800Y-87705300D02*
X114305000Y-87705300D01*
X114305000Y-87705300D02*
X115066100Y-86944200D01*
X115066100Y-86944200D02*
X119504400Y-86944200D01*
X119504400Y-86944200D02*
X122060200Y-89500000D01*
X122060200Y-89500000D02*
X122731000Y-89500000D01*
X111000000Y-116765000D02*
X112015300Y-116765000D01*
X105810000Y-118500000D02*
X106550300Y-118500000D01*
X106550300Y-118500000D02*
X106625700Y-118575400D01*
X106625700Y-118575400D02*
X111908600Y-118575400D01*
X111908600Y-118575400D02*
X112015300Y-118468700D01*
X112015300Y-118468700D02*
X112015300Y-116765000D01*
X105098000Y-82825500D02*
X105281000Y-82642500D01*
X105281000Y-82642500D02*
X105281000Y-82604200D01*
X93731000Y-89500000D02*
X93731000Y-90177500D01*
X93731000Y-90177500D02*
X94450900Y-90897400D01*
X94450900Y-90897400D02*
X97665500Y-90897400D01*
X97665500Y-90897400D02*
X99710800Y-88852100D01*
X99710800Y-88852100D02*
X99710800Y-86959800D01*
X99710800Y-86959800D02*
X103845100Y-82825500D01*
X103845100Y-82825500D02*
X105098000Y-82825500D01*
X108286800Y-92161300D02*
X108819700Y-92161300D01*
X108819700Y-92161300D02*
X109000000Y-91981000D01*
X108231000Y-111000000D02*
X107565800Y-111000000D01*
X107447800Y-111626800D02*
X107447800Y-111118000D01*
X107447800Y-111118000D02*
X107565800Y-111000000D01*
X109000000Y-91981000D02*
X109000000Y-91315800D01*
G04 #@! TO.N,Net-(D25-Pad2)*
X108231000Y-110500000D02*
X107565800Y-110500000D01*
X107565800Y-110500000D02*
X106086200Y-111979600D01*
X106086200Y-111979600D02*
X106086200Y-112894700D01*
X106086200Y-112894700D02*
X103604600Y-115376300D01*
X103604600Y-115376300D02*
X102643200Y-115376300D01*
X102643200Y-115376300D02*
X100933600Y-117085900D01*
X100933600Y-117085900D02*
X100933600Y-119245400D01*
X100933600Y-119245400D02*
X102543300Y-120855100D01*
X102543300Y-120855100D02*
X112748600Y-120855100D01*
X112748600Y-120855100D02*
X112950000Y-121056500D01*
G04 #@! TO.N,Net-(D26-Pad2)*
X107565800Y-110000000D02*
X105605800Y-111960000D01*
X105605800Y-111960000D02*
X105605700Y-111960000D01*
X105605700Y-111960000D02*
X105605700Y-112922100D01*
X105605700Y-112922100D02*
X103471900Y-115055900D01*
X103471900Y-115055900D02*
X102510500Y-115055900D01*
X102510500Y-115055900D02*
X100561300Y-117005100D01*
X100561300Y-117005100D02*
X100561300Y-119372000D01*
X100561300Y-119372000D02*
X102684700Y-121495400D01*
X102684700Y-121495400D02*
X109039900Y-121495400D01*
X108231000Y-110000000D02*
X107565800Y-110000000D01*
G04 #@! TO.N,Net-(D27-Pad2)*
X107565800Y-109500000D02*
X105285500Y-111780300D01*
X105285500Y-111780300D02*
X105285400Y-111780300D01*
X105285400Y-111780300D02*
X105285400Y-112789300D01*
X105285400Y-112789300D02*
X103499300Y-114575400D01*
X103499300Y-114575400D02*
X102501000Y-114575400D01*
X102501000Y-114575400D02*
X100211200Y-116865200D01*
X100211200Y-116865200D02*
X100211200Y-119571800D01*
X100211200Y-119571800D02*
X102881600Y-122242200D01*
X102881600Y-122242200D02*
X103294600Y-122242200D01*
X108231000Y-109500000D02*
X107565800Y-109500000D01*
G04 #@! TO.N,Net-(D28-Pad2)*
X107565800Y-109000000D02*
X104860500Y-111705300D01*
X104860500Y-111705300D02*
X104860500Y-112719100D01*
X104860500Y-112719100D02*
X103894400Y-113685200D01*
X103894400Y-113685200D02*
X103050000Y-113685200D01*
X108231000Y-109000000D02*
X107565800Y-109000000D01*
G04 #@! TO.N,Net-(D29-Pad2)*
X111769000Y-111000000D02*
X111769000Y-111637600D01*
X111769000Y-111637600D02*
X110925300Y-112481300D01*
X110925300Y-112481300D02*
X110239100Y-112481300D01*
X110239100Y-112481300D02*
X109787800Y-112932600D01*
X109787800Y-112932600D02*
X109787800Y-113536300D01*
X109787800Y-113536300D02*
X109074000Y-114250100D01*
X109074000Y-114250100D02*
X108991600Y-114250100D01*
G04 #@! TO.N,Net-(D30-Pad2)*
X111769000Y-110500000D02*
X112434200Y-110500000D01*
X112434200Y-110500000D02*
X112434200Y-111425500D01*
X112434200Y-111425500D02*
X110738200Y-113121500D01*
X110738200Y-113121500D02*
X110504200Y-113121500D01*
X110504200Y-113121500D02*
X110504200Y-113121600D01*
G04 #@! TO.N,Net-(D31-Pad2)*
X112434200Y-110000000D02*
X112796800Y-110362600D01*
X112796800Y-110362600D02*
X112796800Y-112023500D01*
X112796800Y-112023500D02*
X112001200Y-112819100D01*
X111769000Y-110000000D02*
X112434200Y-110000000D01*
G04 #@! TO.N,Net-(D32-Pad2)*
X111769000Y-109500000D02*
X112434200Y-109500000D01*
X112434200Y-109500000D02*
X113174700Y-110240500D01*
X113174700Y-110240500D02*
X113174700Y-112565800D01*
X113174700Y-112565800D02*
X112084800Y-113655700D01*
X112084800Y-113655700D02*
X111426200Y-113655700D01*
G04 #@! TO.N,Net-(D33-Pad2)*
X93065800Y-89000000D02*
X93065800Y-90029500D01*
X93065800Y-90029500D02*
X94283900Y-91247600D01*
X94283900Y-91247600D02*
X97793500Y-91247600D01*
X97793500Y-91247600D02*
X100191400Y-88849700D01*
X100191400Y-88849700D02*
X100191400Y-86996600D01*
X100191400Y-86996600D02*
X100630000Y-86558000D01*
X100630000Y-86558000D02*
X105386500Y-86558000D01*
X105386500Y-86558000D02*
X106525700Y-87697200D01*
X106525700Y-87697200D02*
X106525700Y-90180900D01*
X106525700Y-90180900D02*
X106243000Y-90463600D01*
X106243000Y-90463600D02*
X106243000Y-92177500D01*
X106243000Y-92177500D02*
X106335600Y-92270100D01*
X93731000Y-89000000D02*
X93065800Y-89000000D01*
G04 #@! TO.N,Net-(D34-Pad2)*
X93731000Y-88500000D02*
X93061500Y-88500000D01*
X93061500Y-88500000D02*
X92725100Y-88836400D01*
X92725100Y-88836400D02*
X92725100Y-90141900D01*
X92725100Y-90141900D02*
X94233800Y-91650600D01*
X94233800Y-91650600D02*
X97843400Y-91650600D01*
X97843400Y-91650600D02*
X100511700Y-88982300D01*
X100511700Y-88982300D02*
X100511700Y-87129400D01*
X100511700Y-87129400D02*
X100714300Y-86926800D01*
X100714300Y-86926800D02*
X104849700Y-86926800D01*
X104849700Y-86926800D02*
X105876400Y-87953500D01*
G04 #@! TO.N,Net-(D35-Pad2)*
X106268200Y-82274300D02*
X107028400Y-83034500D01*
X107028400Y-83034500D02*
X107028400Y-86122700D01*
X93731000Y-88000000D02*
X92904900Y-88000000D01*
X92904900Y-88000000D02*
X92775100Y-88129800D01*
X92775100Y-88129800D02*
X91382500Y-88129800D01*
X91382500Y-88129800D02*
X91014400Y-87761700D01*
X91014400Y-87761700D02*
X91014400Y-87210300D01*
X91014400Y-87210300D02*
X98650000Y-79574700D01*
X98650000Y-79574700D02*
X102386100Y-79574700D01*
X102386100Y-79574700D02*
X103674000Y-80862600D01*
X103674000Y-80862600D02*
X103708600Y-80862600D01*
G04 #@! TO.N,Net-(D36-Pad2)*
X93731000Y-87500000D02*
X93065800Y-87500000D01*
X93065800Y-87500000D02*
X93055300Y-87489500D01*
X93055300Y-87489500D02*
X91655200Y-87489500D01*
G04 #@! TO.N,Net-(D37-Pad2)*
X98590100Y-87095200D02*
X98910200Y-87415300D01*
X98910200Y-87415300D02*
X98910200Y-88720400D01*
X98910200Y-88720400D02*
X98130600Y-89500000D01*
X98130600Y-89500000D02*
X97269000Y-89500000D01*
G04 #@! TO.N,Net-(D38-Pad2)*
X97934200Y-89000000D02*
X97934200Y-88775500D01*
X97934200Y-88775500D02*
X98263400Y-88446300D01*
X97269000Y-89000000D02*
X97934200Y-89000000D01*
G04 #@! TO.N,SW1*
X111000000Y-119305000D02*
X109984700Y-119305000D01*
X109984700Y-119305000D02*
X105345000Y-119305000D01*
X105345000Y-119305000D02*
X104540000Y-118500000D01*
X112000000Y-104630000D02*
X110683500Y-104630000D01*
X110683500Y-104630000D02*
X108849500Y-106464000D01*
X112000000Y-103014700D02*
X112000000Y-100485300D01*
X112000000Y-98870000D02*
X112000000Y-100485300D01*
X112000000Y-104630000D02*
X112000000Y-103014700D01*
G04 #@! TO.N,RST*
X116984700Y-115495000D02*
X116984700Y-117233900D01*
X116984700Y-117233900D02*
X117245400Y-117494600D01*
X117245400Y-117494600D02*
X118874500Y-117494600D01*
X118874500Y-117494600D02*
X119015300Y-117635400D01*
X119015300Y-117635400D02*
X119015300Y-119728500D01*
X119015300Y-119728500D02*
X118647900Y-120095900D01*
X118647900Y-120095900D02*
X112552300Y-120095900D01*
X112552300Y-120095900D02*
X112433800Y-120214400D01*
X112433800Y-120214400D02*
X103714400Y-120214400D01*
X103714400Y-120214400D02*
X102000000Y-118500000D01*
X118000000Y-115495000D02*
X116984700Y-115495000D01*
G04 #@! TD*
M02*
