G04 #@! TF.GenerationSoftware,KiCad,Pcbnew,(5.0.0)*
G04 #@! TF.CreationDate,2019-06-08T12:39:54-04:00*
G04 #@! TF.ProjectId,Tiny-er T,54696E792D657220542E6B696361645F,rev?*
G04 #@! TF.SameCoordinates,Original*
G04 #@! TF.FileFunction,Copper,L1,Top,Signal*
G04 #@! TF.FilePolarity,Positive*
%FSLAX46Y46*%
G04 Gerber Fmt 4.6, Leading zero omitted, Abs format (unit mm)*
G04 Created by KiCad (PCBNEW (5.0.0)) date 06/08/19 12:39:54*
%MOMM*%
%LPD*%
G01*
G04 APERTURE LIST*
G04 #@! TA.AperFunction,SMDPad,CuDef*
%ADD10R,0.800000X0.900000*%
G04 #@! TD*
G04 #@! TA.AperFunction,SMDPad,CuDef*
%ADD11R,0.700000X1.300000*%
G04 #@! TD*
G04 #@! TA.AperFunction,ComponentPad*
%ADD12O,2.500000X3.000000*%
G04 #@! TD*
G04 #@! TA.AperFunction,ComponentPad*
%ADD13R,1.000000X1.000000*%
G04 #@! TD*
G04 #@! TA.AperFunction,ComponentPad*
%ADD14O,1.000000X1.000000*%
G04 #@! TD*
G04 #@! TA.AperFunction,SMDPad,CuDef*
%ADD15R,2.000000X1.000000*%
G04 #@! TD*
G04 #@! TA.AperFunction,SMDPad,CuDef*
%ADD16R,0.850000X0.300000*%
G04 #@! TD*
G04 #@! TA.AperFunction,SMDPad,CuDef*
%ADD17R,0.300000X0.850000*%
G04 #@! TD*
G04 #@! TA.AperFunction,SMDPad,CuDef*
%ADD18R,1.000000X1.250000*%
G04 #@! TD*
G04 #@! TA.AperFunction,ViaPad*
%ADD19C,0.700000*%
G04 #@! TD*
G04 #@! TA.AperFunction,Conductor*
%ADD20C,0.155000*%
G04 #@! TD*
G04 APERTURE END LIST*
D10*
G04 #@! TO.P,D1,1*
G04 #@! TO.N,GND*
X91600000Y-91000000D03*
G04 #@! TO.P,D1,2*
G04 #@! TO.N,Net-(D1-Pad2)*
X93700000Y-91000000D03*
G04 #@! TD*
G04 #@! TO.P,D2,1*
G04 #@! TO.N,GND*
X91600000Y-86000000D03*
G04 #@! TO.P,D2,2*
G04 #@! TO.N,Net-(D2-Pad2)*
X93700000Y-86000000D03*
G04 #@! TD*
G04 #@! TO.P,D3,1*
G04 #@! TO.N,GND*
X91600000Y-82000000D03*
G04 #@! TO.P,D3,2*
G04 #@! TO.N,Net-(D3-Pad2)*
X93700000Y-82000000D03*
G04 #@! TD*
G04 #@! TO.P,D4,1*
G04 #@! TO.N,GND*
X91600000Y-78000000D03*
G04 #@! TO.P,D4,2*
G04 #@! TO.N,Net-(D4-Pad2)*
X93700000Y-78000000D03*
G04 #@! TD*
G04 #@! TO.P,D5,1*
G04 #@! TO.N,GND*
X98600000Y-78000000D03*
G04 #@! TO.P,D5,2*
G04 #@! TO.N,Net-(D5-Pad2)*
X100700000Y-78000000D03*
G04 #@! TD*
G04 #@! TO.P,D6,1*
G04 #@! TO.N,GND*
X106100000Y-78000000D03*
G04 #@! TO.P,D6,2*
G04 #@! TO.N,Net-(D6-Pad2)*
X108200000Y-78000000D03*
G04 #@! TD*
G04 #@! TO.P,D7,1*
G04 #@! TO.N,GND*
X113300000Y-78000000D03*
G04 #@! TO.P,D7,2*
G04 #@! TO.N,Net-(D7-Pad2)*
X115400000Y-78000000D03*
G04 #@! TD*
G04 #@! TO.P,D8,1*
G04 #@! TO.N,GND*
X120100000Y-78000000D03*
G04 #@! TO.P,D8,2*
G04 #@! TO.N,Net-(D8-Pad2)*
X122200000Y-78000000D03*
G04 #@! TD*
G04 #@! TO.P,D9,1*
G04 #@! TO.N,GND*
X126300000Y-78000000D03*
G04 #@! TO.P,D9,2*
G04 #@! TO.N,Net-(D9-Pad2)*
X128400000Y-78000000D03*
G04 #@! TD*
G04 #@! TO.P,D10,1*
G04 #@! TO.N,GND*
X126350000Y-82000000D03*
G04 #@! TO.P,D10,2*
G04 #@! TO.N,Net-(D10-Pad2)*
X128450000Y-82000000D03*
G04 #@! TD*
G04 #@! TO.P,D11,1*
G04 #@! TO.N,GND*
X126300000Y-86000000D03*
G04 #@! TO.P,D11,2*
G04 #@! TO.N,Net-(D11-Pad2)*
X128400000Y-86000000D03*
G04 #@! TD*
G04 #@! TO.P,D12,1*
G04 #@! TO.N,GND*
X126300000Y-91000000D03*
G04 #@! TO.P,D12,2*
G04 #@! TO.N,Net-(D12-Pad2)*
X128400000Y-91000000D03*
G04 #@! TD*
G04 #@! TO.P,D13,1*
G04 #@! TO.N,GND*
X121000000Y-91000000D03*
G04 #@! TO.P,D13,2*
G04 #@! TO.N,Net-(D13-Pad2)*
X123100000Y-91000000D03*
G04 #@! TD*
G04 #@! TO.P,D14,1*
G04 #@! TO.N,GND*
X121000000Y-86000000D03*
G04 #@! TO.P,D14,2*
G04 #@! TO.N,Net-(D14-Pad2)*
X123100000Y-86000000D03*
G04 #@! TD*
G04 #@! TO.P,D15,1*
G04 #@! TO.N,GND*
X116500000Y-86000000D03*
G04 #@! TO.P,D15,2*
G04 #@! TO.N,Net-(D15-Pad2)*
X118600000Y-86000000D03*
G04 #@! TD*
G04 #@! TO.P,D16,1*
G04 #@! TO.N,GND*
X112250000Y-86000000D03*
G04 #@! TO.P,D16,2*
G04 #@! TO.N,Net-(D16-Pad2)*
X114350000Y-86000000D03*
G04 #@! TD*
G04 #@! TO.P,D17,1*
G04 #@! TO.N,GND*
X112200000Y-90000000D03*
G04 #@! TO.P,D17,2*
G04 #@! TO.N,Net-(D17-Pad2)*
X114300000Y-90000000D03*
G04 #@! TD*
G04 #@! TO.P,D18,1*
G04 #@! TO.N,GND*
X112250000Y-95000000D03*
G04 #@! TO.P,D18,2*
G04 #@! TO.N,Net-(D18-Pad2)*
X114350000Y-95000000D03*
G04 #@! TD*
G04 #@! TO.P,D19,1*
G04 #@! TO.N,GND*
X112250000Y-100000000D03*
G04 #@! TO.P,D19,2*
G04 #@! TO.N,Net-(D19-Pad2)*
X114350000Y-100000000D03*
G04 #@! TD*
G04 #@! TO.P,D20,1*
G04 #@! TO.N,GND*
X112200000Y-105000000D03*
G04 #@! TO.P,D20,2*
G04 #@! TO.N,Net-(D20-Pad2)*
X114300000Y-105000000D03*
G04 #@! TD*
G04 #@! TO.P,D21,1*
G04 #@! TO.N,GND*
X112200000Y-114000000D03*
G04 #@! TO.P,D21,2*
G04 #@! TO.N,Net-(D21-Pad2)*
X114300000Y-114000000D03*
G04 #@! TD*
G04 #@! TO.P,D22,1*
G04 #@! TO.N,GND*
X117900000Y-114000000D03*
G04 #@! TO.P,D22,2*
G04 #@! TO.N,Net-(D22-Pad2)*
X120000000Y-114000000D03*
G04 #@! TD*
G04 #@! TO.P,D23,1*
G04 #@! TO.N,GND*
X117900000Y-122000000D03*
G04 #@! TO.P,D23,2*
G04 #@! TO.N,Net-(D23-Pad2)*
X120000000Y-122000000D03*
G04 #@! TD*
G04 #@! TO.P,D24,1*
G04 #@! TO.N,GND*
X112250000Y-109800000D03*
G04 #@! TO.P,D24,2*
G04 #@! TO.N,Net-(D24-Pad2)*
X114350000Y-109800000D03*
G04 #@! TD*
G04 #@! TO.P,D25,1*
G04 #@! TO.N,GND*
X112200000Y-122000000D03*
G04 #@! TO.P,D25,2*
G04 #@! TO.N,Net-(D25-Pad2)*
X114300000Y-122000000D03*
G04 #@! TD*
G04 #@! TO.P,D26,1*
G04 #@! TO.N,GND*
X105950000Y-122000000D03*
G04 #@! TO.P,D26,2*
G04 #@! TO.N,Net-(D26-Pad2)*
X108050000Y-122000000D03*
G04 #@! TD*
G04 #@! TO.P,D27,1*
G04 #@! TO.N,GND*
X100700000Y-122000000D03*
G04 #@! TO.P,D27,2*
G04 #@! TO.N,Net-(D27-Pad2)*
X102800000Y-122000000D03*
G04 #@! TD*
G04 #@! TO.P,D28,1*
G04 #@! TO.N,GND*
X100800000Y-114000000D03*
G04 #@! TO.P,D28,2*
G04 #@! TO.N,Net-(D28-Pad2)*
X102900000Y-114000000D03*
G04 #@! TD*
G04 #@! TO.P,D29,1*
G04 #@! TO.N,GND*
X105950000Y-114000000D03*
G04 #@! TO.P,D29,2*
G04 #@! TO.N,Net-(D29-Pad2)*
X108050000Y-114000000D03*
G04 #@! TD*
G04 #@! TO.P,D30,1*
G04 #@! TO.N,GND*
X105950000Y-109800000D03*
G04 #@! TO.P,D30,2*
G04 #@! TO.N,Net-(D30-Pad2)*
X108050000Y-109800000D03*
G04 #@! TD*
G04 #@! TO.P,D31,1*
G04 #@! TO.N,GND*
X105950000Y-105000000D03*
G04 #@! TO.P,D31,2*
G04 #@! TO.N,Net-(D31-Pad2)*
X108050000Y-105000000D03*
G04 #@! TD*
G04 #@! TO.P,D32,1*
G04 #@! TO.N,GND*
X105950000Y-100000000D03*
G04 #@! TO.P,D32,2*
G04 #@! TO.N,Net-(D32-Pad2)*
X108050000Y-100000000D03*
G04 #@! TD*
G04 #@! TO.P,D33,1*
G04 #@! TO.N,GND*
X106000000Y-95000000D03*
G04 #@! TO.P,D33,2*
G04 #@! TO.N,Net-(D33-Pad2)*
X108100000Y-95000000D03*
G04 #@! TD*
G04 #@! TO.P,D34,1*
G04 #@! TO.N,GND*
X105900000Y-90000000D03*
G04 #@! TO.P,D34,2*
G04 #@! TO.N,Net-(D34-Pad2)*
X108000000Y-90000000D03*
G04 #@! TD*
G04 #@! TO.P,D35,1*
G04 #@! TO.N,GND*
X105900000Y-86000000D03*
G04 #@! TO.P,D35,2*
G04 #@! TO.N,Net-(D35-Pad2)*
X108000000Y-86000000D03*
G04 #@! TD*
G04 #@! TO.P,D36,1*
G04 #@! TO.N,GND*
X101600000Y-86000000D03*
G04 #@! TO.P,D36,2*
G04 #@! TO.N,Net-(D36-Pad2)*
X103700000Y-86000000D03*
G04 #@! TD*
G04 #@! TO.P,D37,1*
G04 #@! TO.N,GND*
X97450000Y-86000000D03*
G04 #@! TO.P,D37,2*
G04 #@! TO.N,Net-(D37-Pad2)*
X99550000Y-86000000D03*
G04 #@! TD*
G04 #@! TO.P,D38,1*
G04 #@! TO.N,GND*
X97400000Y-91000000D03*
G04 #@! TO.P,D38,2*
G04 #@! TO.N,Net-(D38-Pad2)*
X99500000Y-91000000D03*
G04 #@! TD*
D11*
G04 #@! TO.P,R1,1*
G04 #@! TO.N,VCC*
X115500000Y-118000000D03*
G04 #@! TO.P,R1,2*
G04 #@! TO.N,RST*
X113600000Y-118000000D03*
G04 #@! TD*
D12*
G04 #@! TO.P,J1,2*
G04 #@! TO.N,VCC*
X99567000Y-81826100D03*
X121167000Y-81826100D03*
G04 #@! TD*
D13*
G04 #@! TO.P,J2,1*
G04 #@! TO.N,RST*
X100660000Y-118600000D03*
D14*
G04 #@! TO.P,J2,2*
G04 #@! TO.N,REG*
X100660000Y-117330000D03*
G04 #@! TO.P,J2,3*
G04 #@! TO.N,CLK*
X101930000Y-118600000D03*
G04 #@! TO.P,J2,4*
G04 #@! TO.N,GND*
X101930000Y-117330000D03*
G04 #@! TO.P,J2,5*
G04 #@! TO.N,SW1*
X103200000Y-118600000D03*
G04 #@! TO.P,J2,6*
G04 #@! TO.N,DATA*
X103200000Y-117330000D03*
G04 #@! TO.P,J2,7*
G04 #@! TO.N,PB2*
X104470000Y-118600000D03*
G04 #@! TO.P,J2,8*
G04 #@! TO.N,VCC*
X104470000Y-117330000D03*
G04 #@! TD*
D15*
G04 #@! TO.P,U2,8*
G04 #@! TO.N,GND*
X110000000Y-81800000D03*
D16*
G04 #@! TO.P,U2,1*
G04 #@! TO.N,Net-(D2-Pad2)*
X108300000Y-82050000D03*
G04 #@! TO.P,U2,16*
G04 #@! TO.N,VCC*
X108300000Y-81550000D03*
D17*
G04 #@! TO.P,U2,15*
G04 #@! TO.N,Net-(D1-Pad2)*
X108750000Y-80600000D03*
G04 #@! TO.P,U2,14*
G04 #@! TO.N,DATA*
X109250000Y-80600000D03*
G04 #@! TO.P,U2,13*
G04 #@! TO.N,GND*
X109750000Y-80600000D03*
G04 #@! TO.P,U2,12*
G04 #@! TO.N,REG*
X110250000Y-80600000D03*
G04 #@! TO.P,U2,11*
G04 #@! TO.N,CLK*
X110750000Y-80600000D03*
G04 #@! TO.P,U2,10*
G04 #@! TO.N,VCC*
X111250000Y-80600000D03*
D16*
G04 #@! TO.P,U2,9*
G04 #@! TO.N,Net-(U2-Pad9)*
X111700000Y-81550000D03*
G04 #@! TO.P,U2,8*
G04 #@! TO.N,GND*
X111700000Y-82050000D03*
D17*
G04 #@! TO.P,U2,7*
G04 #@! TO.N,Net-(D8-Pad2)*
X111250000Y-83000000D03*
G04 #@! TO.P,U2,6*
G04 #@! TO.N,Net-(D7-Pad2)*
X110750000Y-83000000D03*
G04 #@! TO.P,U2,5*
G04 #@! TO.N,Net-(D6-Pad2)*
X110250000Y-83000000D03*
G04 #@! TO.P,U2,4*
G04 #@! TO.N,Net-(D5-Pad2)*
X109750000Y-83000000D03*
G04 #@! TO.P,U2,3*
G04 #@! TO.N,Net-(D4-Pad2)*
X109250000Y-83000000D03*
G04 #@! TO.P,U2,2*
G04 #@! TO.N,Net-(D3-Pad2)*
X108750000Y-83000000D03*
G04 #@! TD*
D18*
G04 #@! TO.P,C1,2*
G04 #@! TO.N,GND*
X119900000Y-118000000D03*
G04 #@! TO.P,C1,1*
G04 #@! TO.N,VCC*
X117900000Y-118000000D03*
G04 #@! TD*
D19*
G04 #@! TO.N,Net-(D1-Pad2)*
X95508600Y-83312900D03*
X106843400Y-79650100D03*
G04 #@! TO.N,Net-(D2-Pad2)*
X97334900Y-83315400D03*
X107362300Y-82022000D03*
G04 #@! TO.N,Net-(D3-Pad2)*
X96843500Y-84065200D03*
X107599100Y-83000000D03*
G04 #@! TO.N,Net-(D4-Pad2)*
X103904200Y-82698900D03*
X106696700Y-82698900D03*
G04 #@! TO.N,Net-(D5-Pad2)*
X100911800Y-80329500D03*
X105699700Y-81546000D03*
G04 #@! TO.N,Net-(D9-Pad2)*
X127400000Y-79038300D03*
G04 #@! TO.N,Net-(D10-Pad2)*
X126472500Y-84181400D03*
G04 #@! TO.N,Net-(D11-Pad2)*
X127491600Y-85960400D03*
G04 #@! TO.N,Net-(D12-Pad2)*
X127483500Y-89923600D03*
G04 #@! TO.N,Net-(D13-Pad2)*
X124011200Y-90968000D03*
G04 #@! TO.N,Net-(D14-Pad2)*
X124942600Y-90781900D03*
G04 #@! TO.N,Net-(D15-Pad2)*
X120283800Y-88871700D03*
G04 #@! TO.N,Net-(D16-Pad2)*
X114619700Y-88116000D03*
G04 #@! TO.N,Net-(D17-Pad2)*
X114300000Y-94027700D03*
G04 #@! TO.N,Net-(D18-Pad2)*
X112897300Y-107147400D03*
G04 #@! TO.N,Net-(D19-Pad2)*
X113427200Y-107853100D03*
G04 #@! TO.N,Net-(D20-Pad2)*
X114300000Y-107835500D03*
G04 #@! TO.N,Net-(D21-Pad2)*
X114217100Y-112195400D03*
G04 #@! TO.N,Net-(D22-Pad2)*
X112950700Y-111315900D03*
G04 #@! TO.N,Net-(D23-Pad2)*
X115295000Y-114054800D03*
G04 #@! TO.N,Net-(D24-Pad2)*
X112590000Y-112843200D03*
G04 #@! TO.N,GND*
X106542000Y-107775000D03*
X105081300Y-115459500D03*
X97631000Y-88692000D03*
X119167200Y-116157700D03*
X119648800Y-84772400D03*
G04 #@! TO.N,VCC*
X107493200Y-81031300D03*
X111231200Y-107906200D03*
X111115700Y-114410800D03*
X96112800Y-90140100D03*
X121981300Y-88430100D03*
X103073100Y-78901500D03*
X111456000Y-78029900D03*
X115576900Y-79706500D03*
X112027300Y-116484900D03*
G04 #@! TO.N,CLK*
X109869800Y-77181500D03*
X109959600Y-114978500D03*
X108650400Y-87932200D03*
X107640600Y-88725500D03*
G04 #@! TO.N,Net-(D25-Pad2)*
X111857800Y-120170600D03*
G04 #@! TO.N,Net-(D26-Pad2)*
X109290200Y-120786200D03*
G04 #@! TO.N,Net-(D27-Pad2)*
X108468400Y-120179100D03*
G04 #@! TO.N,Net-(D28-Pad2)*
X102900000Y-116046100D03*
G04 #@! TO.N,Net-(D29-Pad2)*
X106953400Y-116438600D03*
G04 #@! TO.N,Net-(D30-Pad2)*
X106985700Y-113579100D03*
G04 #@! TO.N,Net-(D31-Pad2)*
X108204900Y-115193400D03*
G04 #@! TO.N,Net-(D32-Pad2)*
X107159000Y-112572600D03*
G04 #@! TO.N,Net-(D33-Pad2)*
X109259400Y-86976500D03*
G04 #@! TO.N,Net-(D34-Pad2)*
X106592500Y-84691500D03*
G04 #@! TO.N,Net-(D35-Pad2)*
X108067700Y-85030000D03*
G04 #@! TO.N,Net-(D36-Pad2)*
X102678800Y-85652800D03*
G04 #@! TO.N,Net-(D37-Pad2)*
X98644500Y-86277100D03*
G04 #@! TO.N,Net-(D38-Pad2)*
X98645100Y-87218700D03*
G04 #@! TO.N,SW1*
X110344300Y-106957900D03*
G04 #@! TO.N,RST*
X113600000Y-116840100D03*
G04 #@! TO.N,REG*
X106524000Y-111612800D03*
X110189100Y-78159300D03*
X116730100Y-77849000D03*
X113494100Y-82776200D03*
X106582900Y-108813400D03*
X110967100Y-92225200D03*
G04 #@! TO.N,Net-(U2-Pad9)*
X112357800Y-78715700D03*
G04 #@! TO.N,Net-(U4-Pad9)*
X114182900Y-115879300D03*
X112801600Y-118950000D03*
G04 #@! TO.N,Net-(U5-Pad9)*
X94983600Y-90847800D03*
X94129800Y-84691700D03*
G04 #@! TD*
D20*
G04 #@! TO.N,Net-(D1-Pad2)*
X94332800Y-91000000D02*
X94332800Y-85434300D01*
X94332800Y-85434300D02*
X94173000Y-85274500D01*
X94173000Y-85274500D02*
X93871000Y-85274500D01*
X93871000Y-85274500D02*
X93492700Y-84896200D01*
X93492700Y-84896200D02*
X93492700Y-84389500D01*
X93492700Y-84389500D02*
X94569300Y-83312900D01*
X94569300Y-83312900D02*
X95508600Y-83312900D01*
X108750000Y-79942200D02*
X107135500Y-79942200D01*
X107135500Y-79942200D02*
X106843400Y-79650100D01*
X108750000Y-80600000D02*
X108750000Y-79942200D01*
X93700000Y-91000000D02*
X94332800Y-91000000D01*
G04 #@! TO.N,Net-(D2-Pad2)*
X108300000Y-82050000D02*
X107390300Y-82050000D01*
X107390300Y-82050000D02*
X107362300Y-82022000D01*
X97334900Y-83315400D02*
X95336600Y-81317100D01*
X95336600Y-81317100D02*
X93142700Y-81317100D01*
X93142700Y-81317100D02*
X93067200Y-81392600D01*
X93067200Y-81392600D02*
X93067200Y-86000000D01*
X93700000Y-86000000D02*
X93067200Y-86000000D01*
G04 #@! TO.N,Net-(D3-Pad2)*
X93700000Y-82000000D02*
X95019900Y-82000000D01*
X95019900Y-82000000D02*
X96843500Y-83823600D01*
X96843500Y-83823600D02*
X96843500Y-84065200D01*
X108750000Y-83000000D02*
X107599100Y-83000000D01*
G04 #@! TO.N,Net-(D4-Pad2)*
X103904200Y-82698900D02*
X103904200Y-78845000D01*
X103904200Y-78845000D02*
X102020800Y-76961600D01*
X102020800Y-76961600D02*
X95371200Y-76961600D01*
X95371200Y-76961600D02*
X94332800Y-78000000D01*
X109250000Y-83657800D02*
X107375500Y-83657800D01*
X107375500Y-83657800D02*
X106696700Y-82979000D01*
X106696700Y-82979000D02*
X106696700Y-82698900D01*
X109250000Y-83000000D02*
X109250000Y-83657800D01*
X93700000Y-78000000D02*
X94332800Y-78000000D01*
G04 #@! TO.N,Net-(D5-Pad2)*
X109750000Y-83657800D02*
X109428900Y-83978900D01*
X109428900Y-83978900D02*
X107142900Y-83978900D01*
X107142900Y-83978900D02*
X105699700Y-82535700D01*
X105699700Y-82535700D02*
X105699700Y-81546000D01*
X109750000Y-83000000D02*
X109750000Y-83657800D01*
X100700000Y-78682800D02*
X100911800Y-78894600D01*
X100911800Y-78894600D02*
X100911800Y-80329500D01*
X100700000Y-78000000D02*
X100700000Y-78682800D01*
G04 #@! TO.N,Net-(D6-Pad2)*
X108200000Y-78000000D02*
X107132700Y-79067300D01*
X107132700Y-79067300D02*
X106602100Y-79067300D01*
X106602100Y-79067300D02*
X105116900Y-80552500D01*
X105116900Y-80552500D02*
X105116900Y-82391700D01*
X105116900Y-82391700D02*
X107015800Y-84290600D01*
X107015800Y-84290600D02*
X109617200Y-84290600D01*
X109617200Y-84290600D02*
X110250000Y-83657800D01*
X110250000Y-83000000D02*
X110250000Y-83657800D01*
G04 #@! TO.N,Net-(D7-Pad2)*
X115400000Y-78000000D02*
X115400000Y-78682800D01*
X110750000Y-83000000D02*
X110750000Y-83657800D01*
X110750000Y-83657800D02*
X111648000Y-83657800D01*
X111648000Y-83657800D02*
X114366200Y-80939600D01*
X114366200Y-80939600D02*
X114366200Y-79506700D01*
X114366200Y-79506700D02*
X115190100Y-78682800D01*
X115190100Y-78682800D02*
X115400000Y-78682800D01*
G04 #@! TO.N,Net-(D8-Pad2)*
X121567200Y-78000000D02*
X121567200Y-77780600D01*
X121567200Y-77780600D02*
X120793300Y-77006700D01*
X120793300Y-77006700D02*
X115158000Y-77006700D01*
X115158000Y-77006700D02*
X114366100Y-77798600D01*
X114366100Y-77798600D02*
X114366100Y-78839100D01*
X114366100Y-78839100D02*
X113745600Y-79459600D01*
X113745600Y-79459600D02*
X113745600Y-81121300D01*
X113745600Y-81121300D02*
X111866900Y-83000000D01*
X111866900Y-83000000D02*
X111250000Y-83000000D01*
X122200000Y-78000000D02*
X121567200Y-78000000D01*
G04 #@! TO.N,Net-(D9-Pad2)*
X127767200Y-78000000D02*
X127400000Y-78367200D01*
X127400000Y-78367200D02*
X127400000Y-79038300D01*
X128400000Y-78000000D02*
X127767200Y-78000000D01*
G04 #@! TO.N,Net-(D10-Pad2)*
X128450000Y-82000000D02*
X128450000Y-82682800D01*
X126472500Y-84181400D02*
X127971100Y-82682800D01*
X127971100Y-82682800D02*
X128450000Y-82682800D01*
G04 #@! TO.N,Net-(D11-Pad2)*
X127491600Y-85960400D02*
X127727600Y-85960400D01*
X127727600Y-85960400D02*
X127767200Y-86000000D01*
X128400000Y-86000000D02*
X127767200Y-86000000D01*
G04 #@! TO.N,Net-(D12-Pad2)*
X127767200Y-91000000D02*
X127483500Y-90716300D01*
X127483500Y-90716300D02*
X127483500Y-89923600D01*
X128400000Y-91000000D02*
X127767200Y-91000000D01*
G04 #@! TO.N,Net-(D13-Pad2)*
X123100000Y-91000000D02*
X123732800Y-91000000D01*
X124011200Y-90968000D02*
X123764800Y-90968000D01*
X123764800Y-90968000D02*
X123732800Y-91000000D01*
G04 #@! TO.N,Net-(D14-Pad2)*
X123732800Y-86000000D02*
X123732800Y-89572100D01*
X123732800Y-89572100D02*
X124942600Y-90781900D01*
X123100000Y-86000000D02*
X123732800Y-86000000D01*
G04 #@! TO.N,Net-(D15-Pad2)*
X118600000Y-86000000D02*
X119232800Y-86000000D01*
X120283800Y-88871700D02*
X120283800Y-87051000D01*
X120283800Y-87051000D02*
X119232800Y-86000000D01*
G04 #@! TO.N,Net-(D16-Pad2)*
X114619700Y-88116000D02*
X114619700Y-86952500D01*
X114619700Y-86952500D02*
X114350000Y-86682800D01*
X114350000Y-86000000D02*
X114350000Y-86682800D01*
G04 #@! TO.N,Net-(D17-Pad2)*
X114300000Y-90000000D02*
X114300000Y-94027700D01*
G04 #@! TO.N,Net-(D18-Pad2)*
X113717200Y-95000000D02*
X112897300Y-95819900D01*
X112897300Y-95819900D02*
X112897300Y-107147400D01*
X114350000Y-95000000D02*
X113717200Y-95000000D01*
G04 #@! TO.N,Net-(D19-Pad2)*
X113427200Y-107853100D02*
X113667100Y-107613200D01*
X113667100Y-107613200D02*
X113667100Y-100050100D01*
X113667100Y-100050100D02*
X113717200Y-100000000D01*
X114350000Y-100000000D02*
X113717200Y-100000000D01*
G04 #@! TO.N,Net-(D20-Pad2)*
X114300000Y-105000000D02*
X114300000Y-107835500D01*
G04 #@! TO.N,Net-(D21-Pad2)*
X114300000Y-114000000D02*
X114300000Y-113317200D01*
X114217100Y-112195400D02*
X114217100Y-113234300D01*
X114217100Y-113234300D02*
X114300000Y-113317200D01*
G04 #@! TO.N,Net-(D22-Pad2)*
X120000000Y-114000000D02*
X119367200Y-114000000D01*
X112950700Y-111315900D02*
X113206500Y-111060100D01*
X113206500Y-111060100D02*
X114555700Y-111060100D01*
X114555700Y-111060100D02*
X114904100Y-111408500D01*
X114904100Y-111408500D02*
X114904100Y-112463400D01*
X114904100Y-112463400D02*
X115383600Y-112942900D01*
X115383600Y-112942900D02*
X118310100Y-112942900D01*
X118310100Y-112942900D02*
X119367200Y-114000000D01*
G04 #@! TO.N,Net-(D23-Pad2)*
X120000000Y-122000000D02*
X119367200Y-122000000D01*
X115295000Y-114054800D02*
X115458100Y-114054800D01*
X115458100Y-114054800D02*
X118635100Y-117231800D01*
X118635100Y-117231800D02*
X118635100Y-121267900D01*
X118635100Y-121267900D02*
X119367200Y-122000000D01*
G04 #@! TO.N,Net-(D24-Pad2)*
X113717200Y-109800000D02*
X113642500Y-109800000D01*
X113642500Y-109800000D02*
X112367900Y-111074600D01*
X112367900Y-111074600D02*
X112367900Y-112621100D01*
X112367900Y-112621100D02*
X112590000Y-112843200D01*
X114350000Y-109800000D02*
X113717200Y-109800000D01*
G04 #@! TO.N,GND*
X105950000Y-110482800D02*
X105877400Y-110555400D01*
X105877400Y-110555400D02*
X105877400Y-113244600D01*
X105877400Y-113244600D02*
X105950000Y-113317200D01*
X105950000Y-107775000D02*
X106542000Y-107775000D01*
X105950000Y-107775000D02*
X105950000Y-109117200D01*
X105950000Y-105000000D02*
X105950000Y-107775000D01*
X101140400Y-115807600D02*
X101930000Y-116597200D01*
X100958200Y-114000000D02*
X100958200Y-115625400D01*
X100958200Y-115625400D02*
X101140400Y-115807600D01*
X101140400Y-115807600D02*
X99927100Y-117020900D01*
X99927100Y-117020900D02*
X99927100Y-121859900D01*
X99927100Y-121859900D02*
X100067200Y-122000000D01*
X100700000Y-122000000D02*
X100067200Y-122000000D01*
X100700000Y-122000000D02*
X101332800Y-122000000D01*
X106266400Y-122000000D02*
X105583500Y-122682900D01*
X105583500Y-122682900D02*
X102015700Y-122682900D01*
X102015700Y-122682900D02*
X101332800Y-122000000D01*
X106266400Y-122000000D02*
X106582800Y-122000000D01*
X105950000Y-122000000D02*
X106266400Y-122000000D01*
X97450000Y-88654200D02*
X97593200Y-88654200D01*
X97593200Y-88654200D02*
X97631000Y-88692000D01*
X126300000Y-82692800D02*
X125889700Y-83103100D01*
X125889700Y-83103100D02*
X125889700Y-84906900D01*
X125889700Y-84906900D02*
X126300000Y-85317200D01*
X112250000Y-110482800D02*
X112007200Y-110725600D01*
X112007200Y-110725600D02*
X112007200Y-113124400D01*
X112007200Y-113124400D02*
X112200000Y-113317200D01*
X112250000Y-109800000D02*
X112250000Y-110482800D01*
X112250000Y-109458600D02*
X112250000Y-109800000D01*
X112200000Y-114000000D02*
X112200000Y-113317200D01*
X110000000Y-81800000D02*
X110250000Y-82050000D01*
X110250000Y-82050000D02*
X111700000Y-82050000D01*
X109750000Y-80600000D02*
X109750000Y-81550000D01*
X109750000Y-81550000D02*
X110000000Y-81800000D01*
X105950000Y-114000000D02*
X105950000Y-114682800D01*
X105081300Y-115459500D02*
X105858000Y-114682800D01*
X105858000Y-114682800D02*
X105950000Y-114682800D01*
X97450000Y-88654200D02*
X97400000Y-88704200D01*
X97400000Y-88704200D02*
X97400000Y-91000000D01*
X97450000Y-86682800D02*
X97450000Y-88654200D01*
X101600000Y-86000000D02*
X101600000Y-85317200D01*
X104496300Y-83913500D02*
X103003700Y-83913500D01*
X103003700Y-83913500D02*
X101600000Y-85317200D01*
X97450000Y-86000000D02*
X97450000Y-85317200D01*
X100967200Y-86000000D02*
X99654800Y-84687600D01*
X99654800Y-84687600D02*
X98136200Y-84687600D01*
X98136200Y-84687600D02*
X97506600Y-85317200D01*
X97506600Y-85317200D02*
X97450000Y-85317200D01*
X98136200Y-84687600D02*
X98055600Y-84607000D01*
X98055600Y-84607000D02*
X98055600Y-79227200D01*
X98055600Y-79227200D02*
X98600000Y-78682800D01*
X97400000Y-91000000D02*
X96767200Y-91000000D01*
X96767200Y-91000000D02*
X95706600Y-92060600D01*
X95706600Y-92060600D02*
X93056100Y-92060600D01*
X93056100Y-92060600D02*
X92232800Y-91237300D01*
X92232800Y-91237300D02*
X92232800Y-91000000D01*
X91600000Y-91000000D02*
X92232800Y-91000000D01*
X97450000Y-86000000D02*
X97450000Y-86682800D01*
X121000000Y-91000000D02*
X121632800Y-91000000D01*
X126300000Y-91000000D02*
X125667200Y-91000000D01*
X125667200Y-91000000D02*
X124984300Y-91682900D01*
X124984300Y-91682900D02*
X122315700Y-91682900D01*
X122315700Y-91682900D02*
X121632800Y-91000000D01*
X126300000Y-86682800D02*
X126300000Y-91000000D01*
X119167200Y-116157700D02*
X117900000Y-114890500D01*
X117900000Y-114890500D02*
X117900000Y-114000000D01*
X119167200Y-116157700D02*
X119167200Y-118000000D01*
X112250000Y-86000000D02*
X112882800Y-86000000D01*
X112882800Y-86000000D02*
X113565700Y-85317100D01*
X113565700Y-85317100D02*
X115184300Y-85317100D01*
X115184300Y-85317100D02*
X115867200Y-86000000D01*
X112250000Y-86341400D02*
X112250000Y-86000000D01*
X116500000Y-86000000D02*
X115867200Y-86000000D01*
X119648800Y-85281600D02*
X119648800Y-84772400D01*
X120367200Y-86000000D02*
X119648800Y-85281600D01*
X119648800Y-85281600D02*
X117851200Y-85281600D01*
X117851200Y-85281600D02*
X117132800Y-86000000D01*
X116500000Y-86000000D02*
X117132800Y-86000000D01*
X112200000Y-105682800D02*
X112200000Y-109067200D01*
X112200000Y-109067200D02*
X112250000Y-109117200D01*
X112250000Y-109458600D02*
X112250000Y-109117200D01*
X112200000Y-90000000D02*
X112200000Y-90682800D01*
X112250000Y-95000000D02*
X112250000Y-90732800D01*
X112250000Y-90732800D02*
X112200000Y-90682800D01*
X112250000Y-100000000D02*
X112250000Y-95000000D01*
X126300000Y-86000000D02*
X126300000Y-86682800D01*
X121000000Y-86000000D02*
X121000000Y-91000000D01*
X106000000Y-95000000D02*
X106000000Y-94317200D01*
X105900000Y-90000000D02*
X105900000Y-94217200D01*
X105900000Y-94217200D02*
X106000000Y-94317200D01*
X105950000Y-100000000D02*
X105950000Y-99317200D01*
X105950000Y-99317200D02*
X106000000Y-99267200D01*
X106000000Y-99267200D02*
X106000000Y-95000000D01*
X105950000Y-100000000D02*
X105950000Y-105000000D01*
X101600000Y-86000000D02*
X100967200Y-86000000D01*
X104496300Y-83913500D02*
X105900000Y-85317200D01*
X106100000Y-78682800D02*
X104496300Y-80286500D01*
X104496300Y-80286500D02*
X104496300Y-83913500D01*
X101930000Y-117330000D02*
X101930000Y-116597200D01*
X100800000Y-114000000D02*
X100958200Y-114000000D01*
X98600000Y-78000000D02*
X98600000Y-78682800D01*
X106732800Y-78000000D02*
X106732800Y-77762700D01*
X106732800Y-77762700D02*
X107525900Y-76969600D01*
X107525900Y-76969600D02*
X108825900Y-76969600D01*
X108825900Y-76969600D02*
X109575000Y-77718700D01*
X109575000Y-77718700D02*
X109575000Y-79767200D01*
X109575000Y-79767200D02*
X109750000Y-79942200D01*
X113300000Y-78000000D02*
X113932800Y-78000000D01*
X113300000Y-78000000D02*
X113300000Y-81107800D01*
X113300000Y-81107800D02*
X112357800Y-82050000D01*
X111700000Y-82050000D02*
X112357800Y-82050000D01*
X125667200Y-78000000D02*
X124363600Y-76696400D01*
X124363600Y-76696400D02*
X114999100Y-76696400D01*
X114999100Y-76696400D02*
X113932800Y-77762700D01*
X113932800Y-77762700D02*
X113932800Y-78000000D01*
X120100000Y-78682800D02*
X119648800Y-79134000D01*
X119648800Y-79134000D02*
X119648800Y-84772400D01*
X105950000Y-114000000D02*
X105950000Y-113317200D01*
X106100000Y-78000000D02*
X106732800Y-78000000D01*
X109750000Y-80600000D02*
X109750000Y-79942200D01*
X106100000Y-78000000D02*
X106100000Y-78682800D01*
X105900000Y-86000000D02*
X105900000Y-85317200D01*
X105950000Y-109800000D02*
X105950000Y-109117200D01*
X105950000Y-109800000D02*
X105950000Y-110482800D01*
X112200000Y-105000000D02*
X112200000Y-105341400D01*
X112250000Y-100682800D02*
X112200000Y-100732800D01*
X112200000Y-100732800D02*
X112200000Y-105000000D01*
X112250000Y-86341400D02*
X112250000Y-86682800D01*
X112200000Y-122000000D02*
X111567200Y-122000000D01*
X106582800Y-122000000D02*
X107265700Y-122682900D01*
X107265700Y-122682900D02*
X110884300Y-122682900D01*
X110884300Y-122682900D02*
X111567200Y-122000000D01*
X126300000Y-78000000D02*
X125667200Y-78000000D01*
X117900000Y-122000000D02*
X118532800Y-122000000D01*
X119711200Y-118000000D02*
X120632900Y-118921700D01*
X120632900Y-118921700D02*
X120632900Y-122551900D01*
X120632900Y-122551900D02*
X120501900Y-122682900D01*
X120501900Y-122682900D02*
X119215700Y-122682900D01*
X119215700Y-122682900D02*
X118532800Y-122000000D01*
X119711200Y-118000000D02*
X119167200Y-118000000D01*
X119900000Y-118000000D02*
X119711200Y-118000000D01*
X112250000Y-100000000D02*
X112250000Y-100682800D01*
X91600000Y-86000000D02*
X91600000Y-91000000D01*
X91600000Y-82000000D02*
X91600000Y-86000000D01*
X91600000Y-78000000D02*
X91600000Y-82000000D01*
X126350000Y-82000000D02*
X126350000Y-82682800D01*
X126300000Y-82692800D02*
X126300000Y-78000000D01*
X126350000Y-82682800D02*
X126310000Y-82682800D01*
X126310000Y-82682800D02*
X126300000Y-82692800D01*
X126300000Y-86000000D02*
X126300000Y-85317200D01*
X120100000Y-78000000D02*
X120100000Y-78682800D01*
X121000000Y-86000000D02*
X120367200Y-86000000D01*
X112200000Y-90000000D02*
X112200000Y-86732800D01*
X112200000Y-86732800D02*
X112250000Y-86682800D01*
X112200000Y-105341400D02*
X112200000Y-105682800D01*
X112832800Y-122000000D02*
X113515700Y-122682900D01*
X113515700Y-122682900D02*
X116584300Y-122682900D01*
X116584300Y-122682900D02*
X117267200Y-122000000D01*
X117900000Y-122000000D02*
X117267200Y-122000000D01*
X112200000Y-122000000D02*
X112832800Y-122000000D01*
G04 #@! TO.N,VCC*
X107493200Y-81031300D02*
X108011900Y-81550000D01*
X108011900Y-81550000D02*
X108300000Y-81550000D01*
X111231200Y-106366100D02*
X111231200Y-107906200D01*
X115576900Y-79706500D02*
X115576900Y-81585900D01*
X115576900Y-81585900D02*
X112012200Y-85150600D01*
X112012200Y-85150600D02*
X111898700Y-85150600D01*
X111898700Y-85150600D02*
X111567100Y-85482200D01*
X111567100Y-85482200D02*
X111567100Y-106030200D01*
X111567100Y-106030200D02*
X111231200Y-106366100D01*
X111231200Y-106366100D02*
X110081100Y-106366100D01*
X110081100Y-106366100D02*
X109066400Y-107380800D01*
X109066400Y-107380800D02*
X109066400Y-115165600D01*
X109066400Y-115165600D02*
X107120000Y-117112000D01*
X107120000Y-117112000D02*
X105420800Y-117112000D01*
X105420800Y-117112000D02*
X105202800Y-117330000D01*
X104470000Y-117330000D02*
X105202800Y-117330000D01*
X115576900Y-79706500D02*
X115988300Y-79706500D01*
X115988300Y-79706500D02*
X118377800Y-77317000D01*
X118377800Y-77317000D02*
X120664900Y-77317000D01*
X120664900Y-77317000D02*
X121167000Y-77819100D01*
X121167000Y-77819100D02*
X121167000Y-80093300D01*
X112385900Y-115565400D02*
X112027300Y-115924000D01*
X112027300Y-115924000D02*
X112027300Y-116484900D01*
X115500000Y-117117200D02*
X115500000Y-116297800D01*
X115500000Y-116297800D02*
X114457400Y-115255200D01*
X114457400Y-115255200D02*
X112696100Y-115255200D01*
X112696100Y-115255200D02*
X112385900Y-115565400D01*
X112385900Y-115565400D02*
X111231200Y-114410800D01*
X111231200Y-114410800D02*
X111115700Y-114410800D01*
X111231200Y-114410800D02*
X111231200Y-107906200D01*
X96112800Y-90140100D02*
X96112800Y-90591000D01*
X96112800Y-90591000D02*
X94962800Y-91741000D01*
X94962800Y-91741000D02*
X93236000Y-91741000D01*
X93236000Y-91741000D02*
X92690300Y-91195300D01*
X92690300Y-91195300D02*
X92690300Y-81330600D01*
X92690300Y-81330600D02*
X96749000Y-77271900D01*
X96749000Y-77271900D02*
X101443500Y-77271900D01*
X101443500Y-77271900D02*
X103073100Y-78901500D01*
X101049800Y-81826100D02*
X103073100Y-79802800D01*
X103073100Y-79802800D02*
X103073100Y-78901500D01*
X121167000Y-83558900D02*
X121981300Y-84373200D01*
X121981300Y-84373200D02*
X121981300Y-88430100D01*
X121167000Y-81826100D02*
X121167000Y-83558900D01*
X99567000Y-81826100D02*
X101049800Y-81826100D01*
X111250000Y-79942200D02*
X111456000Y-79736200D01*
X111456000Y-79736200D02*
X111456000Y-78029900D01*
X111250000Y-80600000D02*
X111250000Y-79942200D01*
X117900000Y-118000000D02*
X115500000Y-118000000D01*
X115500000Y-118000000D02*
X115500000Y-117117200D01*
X121167000Y-81826100D02*
X121167000Y-80093300D01*
G04 #@! TO.N,CLK*
X101930000Y-118600000D02*
X103004900Y-119674900D01*
X103004900Y-119674900D02*
X105200500Y-119674900D01*
X105200500Y-119674900D02*
X106995200Y-117880200D01*
X106995200Y-117880200D02*
X107229400Y-117880200D01*
X107229400Y-117880200D02*
X109959600Y-115150000D01*
X109959600Y-115150000D02*
X109959600Y-114978500D01*
X110750000Y-80600000D02*
X110750000Y-79942200D01*
X109869800Y-77181500D02*
X110035700Y-77181500D01*
X110035700Y-77181500D02*
X110808500Y-77954300D01*
X110808500Y-77954300D02*
X110808500Y-79883700D01*
X110808500Y-79883700D02*
X110750000Y-79942200D01*
X107640600Y-88725500D02*
X107857100Y-88725500D01*
X107857100Y-88725500D02*
X108650400Y-87932200D01*
G04 #@! TO.N,Net-(D25-Pad2)*
X113667200Y-122000000D02*
X111857800Y-120190600D01*
X111857800Y-120190600D02*
X111857800Y-120170600D01*
X114300000Y-122000000D02*
X113667200Y-122000000D01*
G04 #@! TO.N,Net-(D26-Pad2)*
X108682800Y-122000000D02*
X109290200Y-121392600D01*
X109290200Y-121392600D02*
X109290200Y-120786200D01*
X108050000Y-122000000D02*
X108682800Y-122000000D01*
G04 #@! TO.N,Net-(D27-Pad2)*
X102800000Y-122000000D02*
X103432800Y-122000000D01*
X108468400Y-120179100D02*
X107843500Y-120804000D01*
X107843500Y-120804000D02*
X104628800Y-120804000D01*
X104628800Y-120804000D02*
X103432800Y-122000000D01*
G04 #@! TO.N,Net-(D28-Pad2)*
X102900000Y-114000000D02*
X102900000Y-116046100D01*
G04 #@! TO.N,Net-(D29-Pad2)*
X107417200Y-114000000D02*
X106953400Y-114463800D01*
X106953400Y-114463800D02*
X106953400Y-116438600D01*
X108050000Y-114000000D02*
X107417200Y-114000000D01*
G04 #@! TO.N,Net-(D30-Pad2)*
X108050000Y-109800000D02*
X108050000Y-112514800D01*
X108050000Y-112514800D02*
X106985700Y-113579100D01*
G04 #@! TO.N,Net-(D31-Pad2)*
X108682800Y-105000000D02*
X108682800Y-114715500D01*
X108682800Y-114715500D02*
X108204900Y-115193400D01*
X108050000Y-105000000D02*
X108682800Y-105000000D01*
G04 #@! TO.N,Net-(D32-Pad2)*
X107417200Y-100000000D02*
X107417200Y-106227500D01*
X107417200Y-106227500D02*
X107516000Y-106326300D01*
X107516000Y-106326300D02*
X107516000Y-108785000D01*
X107516000Y-108785000D02*
X107159000Y-109142000D01*
X107159000Y-109142000D02*
X107159000Y-112572600D01*
X108050000Y-100000000D02*
X107417200Y-100000000D01*
G04 #@! TO.N,Net-(D33-Pad2)*
X108100000Y-95000000D02*
X108732800Y-95000000D01*
X109259400Y-86976500D02*
X109259400Y-94473400D01*
X109259400Y-94473400D02*
X108732800Y-95000000D01*
G04 #@! TO.N,Net-(D34-Pad2)*
X108000000Y-90000000D02*
X107367200Y-90000000D01*
X106592500Y-84691500D02*
X106998400Y-85097400D01*
X106998400Y-85097400D02*
X106998400Y-89631200D01*
X106998400Y-89631200D02*
X107367200Y-90000000D01*
G04 #@! TO.N,Net-(D35-Pad2)*
X108067700Y-85030000D02*
X108000000Y-85097700D01*
X108000000Y-85097700D02*
X108000000Y-86000000D01*
G04 #@! TO.N,Net-(D36-Pad2)*
X103700000Y-86000000D02*
X103067200Y-86000000D01*
X102678800Y-85652800D02*
X102720000Y-85652800D01*
X102720000Y-85652800D02*
X103067200Y-86000000D01*
G04 #@! TO.N,Net-(D37-Pad2)*
X98917200Y-86000000D02*
X98917200Y-86004400D01*
X98917200Y-86004400D02*
X98644500Y-86277100D01*
X99550000Y-86000000D02*
X98917200Y-86000000D01*
G04 #@! TO.N,Net-(D38-Pad2)*
X99500000Y-90317200D02*
X99500000Y-88073600D01*
X99500000Y-88073600D02*
X98645100Y-87218700D01*
X99500000Y-91000000D02*
X99500000Y-90317200D01*
G04 #@! TO.N,SW1*
X103200000Y-118600000D02*
X103964600Y-119364600D01*
X103964600Y-119364600D02*
X104867400Y-119364600D01*
X104867400Y-119364600D02*
X106662100Y-117569900D01*
X106662100Y-117569900D02*
X107100900Y-117569900D01*
X107100900Y-117569900D02*
X109376700Y-115294100D01*
X109376700Y-115294100D02*
X109376700Y-107925500D01*
X109376700Y-107925500D02*
X110344300Y-106957900D01*
G04 #@! TO.N,RST*
X100660000Y-118600000D02*
X102045200Y-119985200D01*
X102045200Y-119985200D02*
X105563200Y-119985200D01*
X105563200Y-119985200D02*
X107548400Y-118000000D01*
X107548400Y-118000000D02*
X113600000Y-118000000D01*
X113600000Y-118000000D02*
X113600000Y-116840100D01*
G04 #@! TO.N,DATA*
X109250000Y-80600000D02*
X109250000Y-77832600D01*
X109250000Y-77832600D02*
X108697400Y-77280000D01*
X108697400Y-77280000D02*
X107672100Y-77280000D01*
X107672100Y-77280000D02*
X107273100Y-77679000D01*
X107273100Y-77679000D02*
X107273100Y-78049300D01*
X107273100Y-78049300D02*
X106565400Y-78757000D01*
X106565400Y-78757000D02*
X106473600Y-78757000D01*
X106473600Y-78757000D02*
X104806600Y-80424000D01*
X104806600Y-80424000D02*
X104806600Y-83729700D01*
X104806600Y-83729700D02*
X106351200Y-85274300D01*
X106351200Y-85274300D02*
X106375200Y-85274300D01*
X106375200Y-85274300D02*
X106540500Y-85439600D01*
X106540500Y-85439600D02*
X106540500Y-87116400D01*
X106540500Y-87116400D02*
X104814700Y-88842200D01*
X104814700Y-88842200D02*
X104814700Y-114902000D01*
X104814700Y-114902000D02*
X104498500Y-115218200D01*
X104498500Y-115218200D02*
X104498500Y-115298700D01*
X104498500Y-115298700D02*
X103200000Y-116597200D01*
X103200000Y-117330000D02*
X103200000Y-116597200D01*
G04 #@! TO.N,REG*
X106582900Y-108813400D02*
X106582900Y-111553900D01*
X106582900Y-111553900D02*
X106524000Y-111612800D01*
X110967100Y-92225200D02*
X110967100Y-94328100D01*
X110967100Y-94328100D02*
X107093300Y-98201900D01*
X107093300Y-98201900D02*
X107093300Y-106667300D01*
X107093300Y-106667300D02*
X107191900Y-106765900D01*
X107191900Y-106765900D02*
X107191900Y-108204400D01*
X107191900Y-108204400D02*
X106582900Y-108813400D01*
X110250000Y-80600000D02*
X110250000Y-79942200D01*
X110189100Y-78159300D02*
X110189100Y-79881300D01*
X110189100Y-79881300D02*
X110250000Y-79942200D01*
X113494100Y-82776200D02*
X114786000Y-81484300D01*
X114786000Y-81484300D02*
X114786000Y-79596600D01*
X114786000Y-79596600D02*
X115259000Y-79123600D01*
X115259000Y-79123600D02*
X115455500Y-79123600D01*
X115455500Y-79123600D02*
X116730100Y-77849000D01*
X110967100Y-92225200D02*
X110967100Y-85303200D01*
X110967100Y-85303200D02*
X113494100Y-82776200D01*
G04 #@! TO.N,Net-(U2-Pad9)*
X112357800Y-81550000D02*
X112357800Y-78715700D01*
X111700000Y-81550000D02*
X112357800Y-81550000D01*
G04 #@! TO.N,Net-(U4-Pad9)*
X112801600Y-118950000D02*
X113979200Y-118950000D01*
X113979200Y-118950000D02*
X114182900Y-118746300D01*
X114182900Y-118746300D02*
X114182900Y-115879300D01*
G04 #@! TO.N,Net-(U5-Pad9)*
X94129800Y-84691700D02*
X94983600Y-85545500D01*
X94983600Y-85545500D02*
X94983600Y-90847800D01*
G04 #@! TD*
M02*
