G04 #@! TF.GenerationSoftware,KiCad,Pcbnew,(5.0.0)*
G04 #@! TF.CreationDate,2019-06-08T12:39:54-04:00*
G04 #@! TF.ProjectId,Tiny-er T,54696E792D657220542E6B696361645F,rev?*
G04 #@! TF.SameCoordinates,Original*
G04 #@! TF.FileFunction,Copper,L2,Bot,Signal*
G04 #@! TF.FilePolarity,Positive*
%FSLAX46Y46*%
G04 Gerber Fmt 4.6, Leading zero omitted, Abs format (unit mm)*
G04 Created by KiCad (PCBNEW (5.0.0)) date 06/08/19 12:39:54*
%MOMM*%
%LPD*%
G01*
G04 APERTURE LIST*
G04 #@! TA.AperFunction,NonConductor*
%ADD10C,0.200000*%
G04 #@! TD*
G04 #@! TA.AperFunction,SMDPad,CuDef*
%ADD11R,0.600000X1.550000*%
G04 #@! TD*
G04 #@! TA.AperFunction,SMDPad,CuDef*
%ADD12R,1.000000X2.750000*%
G04 #@! TD*
G04 #@! TA.AperFunction,ComponentPad*
%ADD13O,2.500000X3.000000*%
G04 #@! TD*
G04 #@! TA.AperFunction,SMDPad,CuDef*
%ADD14R,4.500000X4.500000*%
G04 #@! TD*
G04 #@! TA.AperFunction,ComponentPad*
%ADD15R,1.000000X1.000000*%
G04 #@! TD*
G04 #@! TA.AperFunction,ComponentPad*
%ADD16O,1.000000X1.000000*%
G04 #@! TD*
G04 #@! TA.AperFunction,SMDPad,CuDef*
%ADD17R,1.000000X2.000000*%
G04 #@! TD*
G04 #@! TA.AperFunction,SMDPad,CuDef*
%ADD18R,0.300000X0.850000*%
G04 #@! TD*
G04 #@! TA.AperFunction,SMDPad,CuDef*
%ADD19R,0.850000X0.300000*%
G04 #@! TD*
G04 #@! TA.AperFunction,ViaPad*
%ADD20C,0.700000*%
G04 #@! TD*
G04 #@! TA.AperFunction,Conductor*
%ADD21C,0.155000*%
G04 #@! TD*
G04 APERTURE END LIST*
D10*
X129461904Y-77185714D02*
X129080952Y-76919047D01*
X129461904Y-76728571D02*
X128661904Y-76728571D01*
X128661904Y-77033333D01*
X128700000Y-77109523D01*
X128738095Y-77147619D01*
X128814285Y-77185714D01*
X128928571Y-77185714D01*
X129004761Y-77147619D01*
X129042857Y-77109523D01*
X129080952Y-77033333D01*
X129080952Y-76728571D01*
X129042857Y-77528571D02*
X129042857Y-77795238D01*
X129461904Y-77909523D02*
X129461904Y-77528571D01*
X128661904Y-77528571D01*
X128661904Y-77909523D01*
X128661904Y-78138095D02*
X129461904Y-78404761D01*
X128661904Y-78671428D01*
X129461904Y-79966666D02*
X129461904Y-79509523D01*
X129461904Y-79738095D02*
X128661904Y-79738095D01*
X128776190Y-79661904D01*
X128852380Y-79585714D01*
X128890476Y-79509523D01*
X129385714Y-80309523D02*
X129423809Y-80347619D01*
X129461904Y-80309523D01*
X129423809Y-80271428D01*
X129385714Y-80309523D01*
X129461904Y-80309523D01*
X129461904Y-81109523D02*
X129461904Y-80652380D01*
X129461904Y-80880952D02*
X128661904Y-80880952D01*
X128776190Y-80804761D01*
X128852380Y-80728571D01*
X128890476Y-80652380D01*
X90828571Y-76780952D02*
X90828571Y-77114285D01*
X91352380Y-77257142D02*
X91352380Y-76780952D01*
X90352380Y-76780952D01*
X90352380Y-77257142D01*
X91304761Y-77638095D02*
X91352380Y-77780952D01*
X91352380Y-78019047D01*
X91304761Y-78114285D01*
X91257142Y-78161904D01*
X91161904Y-78209523D01*
X91066666Y-78209523D01*
X90971428Y-78161904D01*
X90923809Y-78114285D01*
X90876190Y-78019047D01*
X90828571Y-77828571D01*
X90780952Y-77733333D01*
X90733333Y-77685714D01*
X90638095Y-77638095D01*
X90542857Y-77638095D01*
X90447619Y-77685714D01*
X90400000Y-77733333D01*
X90352380Y-77828571D01*
X90352380Y-78066666D01*
X90400000Y-78209523D01*
X91447619Y-79304761D02*
X91400000Y-79209523D01*
X91304761Y-79114285D01*
X91161904Y-78971428D01*
X91114285Y-78876190D01*
X91114285Y-78780952D01*
X91352380Y-78828571D02*
X91304761Y-78733333D01*
X91209523Y-78638095D01*
X91019047Y-78590476D01*
X90685714Y-78590476D01*
X90495238Y-78638095D01*
X90400000Y-78733333D01*
X90352380Y-78828571D01*
X90352380Y-79019047D01*
X90400000Y-79114285D01*
X90495238Y-79209523D01*
X90685714Y-79257142D01*
X91019047Y-79257142D01*
X91209523Y-79209523D01*
X91304761Y-79114285D01*
X91352380Y-79019047D01*
X91352380Y-78828571D01*
X90352380Y-79685714D02*
X91161904Y-79685714D01*
X91257142Y-79733333D01*
X91304761Y-79780952D01*
X91352380Y-79876190D01*
X91352380Y-80066666D01*
X91304761Y-80161904D01*
X91257142Y-80209523D01*
X91161904Y-80257142D01*
X90352380Y-80257142D01*
X91352380Y-80733333D02*
X90352380Y-80733333D01*
X91352380Y-81780952D02*
X90876190Y-81447619D01*
X91352380Y-81209523D02*
X90352380Y-81209523D01*
X90352380Y-81590476D01*
X90400000Y-81685714D01*
X90447619Y-81733333D01*
X90542857Y-81780952D01*
X90685714Y-81780952D01*
X90780952Y-81733333D01*
X90828571Y-81685714D01*
X90876190Y-81590476D01*
X90876190Y-81209523D01*
X90828571Y-82209523D02*
X90828571Y-82542857D01*
X91352380Y-82685714D02*
X91352380Y-82209523D01*
X90352380Y-82209523D01*
X90352380Y-82685714D01*
X90828571Y-83114285D02*
X90828571Y-83447619D01*
X91352380Y-83590476D02*
X91352380Y-83114285D01*
X90352380Y-83114285D01*
X90352380Y-83590476D01*
X91257142Y-84019047D02*
X91304761Y-84066666D01*
X91352380Y-84019047D01*
X91304761Y-83971428D01*
X91257142Y-84019047D01*
X91352380Y-84019047D01*
X91257142Y-85066666D02*
X91304761Y-85019047D01*
X91352380Y-84876190D01*
X91352380Y-84780952D01*
X91304761Y-84638095D01*
X91209523Y-84542857D01*
X91114285Y-84495238D01*
X90923809Y-84447619D01*
X90780952Y-84447619D01*
X90590476Y-84495238D01*
X90495238Y-84542857D01*
X90400000Y-84638095D01*
X90352380Y-84780952D01*
X90352380Y-84876190D01*
X90400000Y-85019047D01*
X90447619Y-85066666D01*
X90352380Y-85685714D02*
X90352380Y-85876190D01*
X90400000Y-85971428D01*
X90495238Y-86066666D01*
X90685714Y-86114285D01*
X91019047Y-86114285D01*
X91209523Y-86066666D01*
X91304761Y-85971428D01*
X91352380Y-85876190D01*
X91352380Y-85685714D01*
X91304761Y-85590476D01*
X91209523Y-85495238D01*
X91019047Y-85447619D01*
X90685714Y-85447619D01*
X90495238Y-85495238D01*
X90400000Y-85590476D01*
X90352380Y-85685714D01*
X91352380Y-86542857D02*
X90352380Y-86542857D01*
X91066666Y-86876190D01*
X90352380Y-87209523D01*
X91352380Y-87209523D01*
X90304761Y-88400000D02*
X91590476Y-87542857D01*
X90352380Y-88590476D02*
X90352380Y-89161904D01*
X91352380Y-88876190D02*
X90352380Y-88876190D01*
D11*
G04 #@! TO.P,U1,8*
G04 #@! TO.N,VCC*
X116195000Y-121500000D03*
G04 #@! TO.P,U1,7*
G04 #@! TO.N,PB2*
X117460000Y-121500000D03*
G04 #@! TO.P,U1,6*
G04 #@! TO.N,DATA*
X118730000Y-121500000D03*
G04 #@! TO.P,U1,5*
G04 #@! TO.N,SW1*
X120000000Y-121500000D03*
G04 #@! TO.P,U1,4*
G04 #@! TO.N,GND*
X120000000Y-114500000D03*
G04 #@! TO.P,U1,3*
G04 #@! TO.N,CLK*
X118730000Y-114500000D03*
G04 #@! TO.P,U1,2*
G04 #@! TO.N,REG*
X117460000Y-114500000D03*
G04 #@! TO.P,U1,1*
G04 #@! TO.N,RST*
X116190000Y-114500000D03*
G04 #@! TD*
D12*
G04 #@! TO.P,SW1,1*
G04 #@! TO.N,SW1*
X112000000Y-97620000D03*
X112000000Y-103380000D03*
G04 #@! TO.P,SW1,2*
G04 #@! TO.N,GND*
X108000000Y-103380000D03*
X108000000Y-97620000D03*
G04 #@! TD*
D13*
G04 #@! TO.P,J1,2*
G04 #@! TO.N,VCC*
X99567000Y-81826100D03*
X121167000Y-81826100D03*
D14*
G04 #@! TO.P,J1,1*
G04 #@! TO.N,GND*
X110367000Y-81826100D03*
G04 #@! TD*
D15*
G04 #@! TO.P,J2,1*
G04 #@! TO.N,RST*
X100660000Y-118600000D03*
D16*
G04 #@! TO.P,J2,2*
G04 #@! TO.N,REG*
X100660000Y-117330000D03*
G04 #@! TO.P,J2,3*
G04 #@! TO.N,CLK*
X101930000Y-118600000D03*
G04 #@! TO.P,J2,4*
G04 #@! TO.N,GND*
X101930000Y-117330000D03*
G04 #@! TO.P,J2,5*
G04 #@! TO.N,SW1*
X103200000Y-118600000D03*
G04 #@! TO.P,J2,6*
G04 #@! TO.N,DATA*
X103200000Y-117330000D03*
G04 #@! TO.P,J2,7*
G04 #@! TO.N,PB2*
X104470000Y-118600000D03*
G04 #@! TO.P,J2,8*
G04 #@! TO.N,VCC*
X104470000Y-117330000D03*
G04 #@! TD*
D17*
G04 #@! TO.P,U3,8*
G04 #@! TO.N,GND*
X124500000Y-87500000D03*
D18*
G04 #@! TO.P,U3,1*
G04 #@! TO.N,Net-(D10-Pad2)*
X124750000Y-85800000D03*
G04 #@! TO.P,U3,16*
G04 #@! TO.N,VCC*
X124250000Y-85800000D03*
D19*
G04 #@! TO.P,U3,15*
G04 #@! TO.N,Net-(D9-Pad2)*
X123300000Y-86250000D03*
G04 #@! TO.P,U3,14*
G04 #@! TO.N,Net-(U2-Pad9)*
X123300000Y-86750000D03*
G04 #@! TO.P,U3,13*
G04 #@! TO.N,GND*
X123300000Y-87250000D03*
G04 #@! TO.P,U3,12*
G04 #@! TO.N,REG*
X123300000Y-87750000D03*
G04 #@! TO.P,U3,11*
G04 #@! TO.N,CLK*
X123300000Y-88250000D03*
G04 #@! TO.P,U3,10*
G04 #@! TO.N,VCC*
X123300000Y-88750000D03*
D18*
G04 #@! TO.P,U3,9*
G04 #@! TO.N,Net-(U3-Pad9)*
X124250000Y-89200000D03*
G04 #@! TO.P,U3,8*
G04 #@! TO.N,GND*
X124750000Y-89200000D03*
D19*
G04 #@! TO.P,U3,7*
G04 #@! TO.N,Net-(D16-Pad2)*
X125700000Y-88750000D03*
G04 #@! TO.P,U3,6*
G04 #@! TO.N,Net-(D15-Pad2)*
X125700000Y-88250000D03*
G04 #@! TO.P,U3,5*
G04 #@! TO.N,Net-(D14-Pad2)*
X125700000Y-87750000D03*
G04 #@! TO.P,U3,4*
G04 #@! TO.N,Net-(D13-Pad2)*
X125700000Y-87250000D03*
G04 #@! TO.P,U3,3*
G04 #@! TO.N,Net-(D12-Pad2)*
X125700000Y-86750000D03*
G04 #@! TO.P,U3,2*
G04 #@! TO.N,Net-(D11-Pad2)*
X125700000Y-86250000D03*
G04 #@! TD*
D17*
G04 #@! TO.P,U4,8*
G04 #@! TO.N,GND*
X110000000Y-111000000D03*
D18*
G04 #@! TO.P,U4,1*
G04 #@! TO.N,Net-(D18-Pad2)*
X110250000Y-109300000D03*
G04 #@! TO.P,U4,16*
G04 #@! TO.N,VCC*
X109750000Y-109300000D03*
D19*
G04 #@! TO.P,U4,15*
G04 #@! TO.N,Net-(D17-Pad2)*
X108800000Y-109750000D03*
G04 #@! TO.P,U4,14*
G04 #@! TO.N,Net-(U3-Pad9)*
X108800000Y-110250000D03*
G04 #@! TO.P,U4,13*
G04 #@! TO.N,GND*
X108800000Y-110750000D03*
G04 #@! TO.P,U4,12*
G04 #@! TO.N,REG*
X108800000Y-111250000D03*
G04 #@! TO.P,U4,11*
G04 #@! TO.N,CLK*
X108800000Y-111750000D03*
G04 #@! TO.P,U4,10*
G04 #@! TO.N,VCC*
X108800000Y-112250000D03*
D18*
G04 #@! TO.P,U4,9*
G04 #@! TO.N,Net-(U4-Pad9)*
X109750000Y-112700000D03*
G04 #@! TO.P,U4,8*
G04 #@! TO.N,GND*
X110250000Y-112700000D03*
D19*
G04 #@! TO.P,U4,7*
G04 #@! TO.N,Net-(D24-Pad2)*
X111200000Y-112250000D03*
G04 #@! TO.P,U4,6*
G04 #@! TO.N,Net-(D23-Pad2)*
X111200000Y-111750000D03*
G04 #@! TO.P,U4,5*
G04 #@! TO.N,Net-(D22-Pad2)*
X111200000Y-111250000D03*
G04 #@! TO.P,U4,4*
G04 #@! TO.N,Net-(D21-Pad2)*
X111200000Y-110750000D03*
G04 #@! TO.P,U4,3*
G04 #@! TO.N,Net-(D20-Pad2)*
X111200000Y-110250000D03*
G04 #@! TO.P,U4,2*
G04 #@! TO.N,Net-(D19-Pad2)*
X111200000Y-109750000D03*
G04 #@! TD*
D17*
G04 #@! TO.P,U5,8*
G04 #@! TO.N,GND*
X110000000Y-118200000D03*
D18*
G04 #@! TO.P,U5,1*
G04 #@! TO.N,Net-(D26-Pad2)*
X109750000Y-119900000D03*
G04 #@! TO.P,U5,16*
G04 #@! TO.N,VCC*
X110250000Y-119900000D03*
D19*
G04 #@! TO.P,U5,15*
G04 #@! TO.N,Net-(D25-Pad2)*
X111200000Y-119450000D03*
G04 #@! TO.P,U5,14*
G04 #@! TO.N,Net-(U4-Pad9)*
X111200000Y-118950000D03*
G04 #@! TO.P,U5,13*
G04 #@! TO.N,GND*
X111200000Y-118450000D03*
G04 #@! TO.P,U5,12*
G04 #@! TO.N,REG*
X111200000Y-117950000D03*
G04 #@! TO.P,U5,11*
G04 #@! TO.N,CLK*
X111200000Y-117450000D03*
G04 #@! TO.P,U5,10*
G04 #@! TO.N,VCC*
X111200000Y-116950000D03*
D18*
G04 #@! TO.P,U5,9*
G04 #@! TO.N,Net-(U5-Pad9)*
X110250000Y-116500000D03*
G04 #@! TO.P,U5,8*
G04 #@! TO.N,GND*
X109750000Y-116500000D03*
D19*
G04 #@! TO.P,U5,7*
G04 #@! TO.N,Net-(D32-Pad2)*
X108800000Y-116950000D03*
G04 #@! TO.P,U5,6*
G04 #@! TO.N,Net-(D31-Pad2)*
X108800000Y-117450000D03*
G04 #@! TO.P,U5,5*
G04 #@! TO.N,Net-(D30-Pad2)*
X108800000Y-117950000D03*
G04 #@! TO.P,U5,4*
G04 #@! TO.N,Net-(D29-Pad2)*
X108800000Y-118450000D03*
G04 #@! TO.P,U5,3*
G04 #@! TO.N,Net-(D28-Pad2)*
X108800000Y-118950000D03*
G04 #@! TO.P,U5,2*
G04 #@! TO.N,Net-(D27-Pad2)*
X108800000Y-119450000D03*
G04 #@! TD*
D17*
G04 #@! TO.P,U6,8*
G04 #@! TO.N,GND*
X95500000Y-87500000D03*
D18*
G04 #@! TO.P,U6,1*
G04 #@! TO.N,Net-(D34-Pad2)*
X95750000Y-85800000D03*
G04 #@! TO.P,U6,16*
G04 #@! TO.N,VCC*
X95250000Y-85800000D03*
D19*
G04 #@! TO.P,U6,15*
G04 #@! TO.N,Net-(D33-Pad2)*
X94300000Y-86250000D03*
G04 #@! TO.P,U6,14*
G04 #@! TO.N,Net-(U5-Pad9)*
X94300000Y-86750000D03*
G04 #@! TO.P,U6,13*
G04 #@! TO.N,GND*
X94300000Y-87250000D03*
G04 #@! TO.P,U6,12*
G04 #@! TO.N,REG*
X94300000Y-87750000D03*
G04 #@! TO.P,U6,11*
G04 #@! TO.N,CLK*
X94300000Y-88250000D03*
G04 #@! TO.P,U6,10*
G04 #@! TO.N,VCC*
X94300000Y-88750000D03*
D18*
G04 #@! TO.P,U6,9*
G04 #@! TO.N,N/C*
X95250000Y-89200000D03*
G04 #@! TO.P,U6,8*
G04 #@! TO.N,GND*
X95750000Y-89200000D03*
D19*
G04 #@! TO.P,U6,7*
G04 #@! TO.N,N/C*
X96700000Y-88750000D03*
G04 #@! TO.P,U6,6*
X96700000Y-88250000D03*
G04 #@! TO.P,U6,5*
G04 #@! TO.N,Net-(D38-Pad2)*
X96700000Y-87750000D03*
G04 #@! TO.P,U6,4*
G04 #@! TO.N,Net-(D37-Pad2)*
X96700000Y-87250000D03*
G04 #@! TO.P,U6,3*
G04 #@! TO.N,Net-(D36-Pad2)*
X96700000Y-86750000D03*
G04 #@! TO.P,U6,2*
G04 #@! TO.N,Net-(D35-Pad2)*
X96700000Y-86250000D03*
G04 #@! TD*
D20*
G04 #@! TO.N,Net-(D1-Pad2)*
X95508600Y-83312900D03*
X106843400Y-79650100D03*
G04 #@! TO.N,Net-(D2-Pad2)*
X97334900Y-83315400D03*
X107362300Y-82022000D03*
G04 #@! TO.N,Net-(D3-Pad2)*
X96843500Y-84065200D03*
X107599100Y-83000000D03*
G04 #@! TO.N,Net-(D4-Pad2)*
X103904200Y-82698900D03*
X106696700Y-82698900D03*
G04 #@! TO.N,Net-(D5-Pad2)*
X100911800Y-80329500D03*
X105699700Y-81546000D03*
G04 #@! TO.N,Net-(D9-Pad2)*
X127400000Y-79038300D03*
G04 #@! TO.N,Net-(D10-Pad2)*
X126472500Y-84181400D03*
G04 #@! TO.N,Net-(D11-Pad2)*
X127491600Y-85960400D03*
G04 #@! TO.N,Net-(D12-Pad2)*
X127483500Y-89923600D03*
G04 #@! TO.N,Net-(D13-Pad2)*
X124011200Y-90968000D03*
G04 #@! TO.N,Net-(D14-Pad2)*
X124942600Y-90781900D03*
G04 #@! TO.N,Net-(D15-Pad2)*
X120283800Y-88871700D03*
G04 #@! TO.N,Net-(D16-Pad2)*
X114619700Y-88116000D03*
G04 #@! TO.N,Net-(D17-Pad2)*
X114300000Y-94027700D03*
G04 #@! TO.N,Net-(D18-Pad2)*
X112897300Y-107147400D03*
G04 #@! TO.N,Net-(D19-Pad2)*
X113427200Y-107853100D03*
G04 #@! TO.N,Net-(D20-Pad2)*
X114300000Y-107835500D03*
G04 #@! TO.N,Net-(D21-Pad2)*
X114217100Y-112195400D03*
G04 #@! TO.N,Net-(D22-Pad2)*
X112950700Y-111315900D03*
G04 #@! TO.N,Net-(D23-Pad2)*
X115295000Y-114054800D03*
G04 #@! TO.N,Net-(D24-Pad2)*
X112590000Y-112843200D03*
G04 #@! TO.N,GND*
X106542000Y-107775000D03*
X105081300Y-115459500D03*
X97631000Y-88692000D03*
X119167200Y-116157700D03*
X119648800Y-84772400D03*
G04 #@! TO.N,VCC*
X107493200Y-81031300D03*
X111231200Y-107906200D03*
X111115700Y-114410800D03*
X96112800Y-90140100D03*
X121981300Y-88430100D03*
X103073100Y-78901500D03*
X111456000Y-78029900D03*
X115576900Y-79706500D03*
X112027300Y-116484900D03*
G04 #@! TO.N,CLK*
X109869800Y-77181500D03*
X109959600Y-114978500D03*
X108650400Y-87932200D03*
X107640600Y-88725500D03*
G04 #@! TO.N,Net-(D25-Pad2)*
X111857800Y-120170600D03*
G04 #@! TO.N,Net-(D26-Pad2)*
X109290200Y-120786200D03*
G04 #@! TO.N,Net-(D27-Pad2)*
X108468400Y-120179100D03*
G04 #@! TO.N,Net-(D28-Pad2)*
X102900000Y-116046100D03*
G04 #@! TO.N,Net-(D29-Pad2)*
X106953400Y-116438600D03*
G04 #@! TO.N,Net-(D30-Pad2)*
X106985700Y-113579100D03*
G04 #@! TO.N,Net-(D31-Pad2)*
X108204900Y-115193400D03*
G04 #@! TO.N,Net-(D32-Pad2)*
X107159000Y-112572600D03*
G04 #@! TO.N,Net-(D33-Pad2)*
X109259400Y-86976500D03*
G04 #@! TO.N,Net-(D34-Pad2)*
X106592500Y-84691500D03*
G04 #@! TO.N,Net-(D35-Pad2)*
X108067700Y-85030000D03*
G04 #@! TO.N,Net-(D36-Pad2)*
X102678800Y-85652800D03*
G04 #@! TO.N,Net-(D37-Pad2)*
X98644500Y-86277100D03*
G04 #@! TO.N,Net-(D38-Pad2)*
X98645100Y-87218700D03*
G04 #@! TO.N,SW1*
X110344300Y-106957900D03*
G04 #@! TO.N,RST*
X113600000Y-116840100D03*
G04 #@! TO.N,REG*
X106524000Y-111612800D03*
X110189100Y-78159300D03*
X116730100Y-77849000D03*
X113494100Y-82776200D03*
X106582900Y-108813400D03*
X110967100Y-92225200D03*
G04 #@! TO.N,Net-(U2-Pad9)*
X112357800Y-78715700D03*
G04 #@! TO.N,Net-(U4-Pad9)*
X114182900Y-115879300D03*
X112801600Y-118950000D03*
G04 #@! TO.N,Net-(U5-Pad9)*
X94983600Y-90847800D03*
X94129800Y-84691700D03*
G04 #@! TD*
D21*
G04 #@! TO.N,Net-(D1-Pad2)*
X106843400Y-79650100D02*
X102718600Y-79650100D01*
X102718600Y-79650100D02*
X102084500Y-79016000D01*
X102084500Y-79016000D02*
X99516400Y-79016000D01*
X99516400Y-79016000D02*
X95508600Y-83023800D01*
X95508600Y-83023800D02*
X95508600Y-83312900D01*
G04 #@! TO.N,Net-(D2-Pad2)*
X97334900Y-83315400D02*
X97589300Y-83569800D01*
X97589300Y-83569800D02*
X100728500Y-83569800D01*
X100728500Y-83569800D02*
X102222900Y-82075400D01*
X102222900Y-82075400D02*
X105405000Y-82075400D01*
X105405000Y-82075400D02*
X105458400Y-82128800D01*
X105458400Y-82128800D02*
X105941100Y-82128800D01*
X105941100Y-82128800D02*
X106047900Y-82022000D01*
X106047900Y-82022000D02*
X107362300Y-82022000D01*
G04 #@! TO.N,Net-(D3-Pad2)*
X107599100Y-83000000D02*
X106533900Y-84065200D01*
X106533900Y-84065200D02*
X96843500Y-84065200D01*
G04 #@! TO.N,Net-(D4-Pad2)*
X106696700Y-82698900D02*
X103904200Y-82698900D01*
G04 #@! TO.N,Net-(D5-Pad2)*
X100911800Y-80329500D02*
X102128300Y-81546000D01*
X102128300Y-81546000D02*
X105699700Y-81546000D01*
G04 #@! TO.N,Net-(D9-Pad2)*
X123300000Y-86250000D02*
X122642200Y-86250000D01*
X122642200Y-86250000D02*
X119643500Y-83251300D01*
X119643500Y-83251300D02*
X119643500Y-80955300D01*
X119643500Y-80955300D02*
X121560500Y-79038300D01*
X121560500Y-79038300D02*
X127400000Y-79038300D01*
G04 #@! TO.N,Net-(D10-Pad2)*
X124750000Y-85800000D02*
X124750000Y-85142200D01*
X124750000Y-85142200D02*
X125511700Y-85142200D01*
X125511700Y-85142200D02*
X126472500Y-84181400D01*
G04 #@! TO.N,Net-(D11-Pad2)*
X125700000Y-86250000D02*
X126357800Y-86250000D01*
X126357800Y-86250000D02*
X126647400Y-85960400D01*
X126647400Y-85960400D02*
X127491600Y-85960400D01*
G04 #@! TO.N,Net-(D12-Pad2)*
X125700000Y-86750000D02*
X126357800Y-86750000D01*
X126357800Y-86750000D02*
X127483500Y-87875700D01*
X127483500Y-87875700D02*
X127483500Y-89923600D01*
G04 #@! TO.N,Net-(D13-Pad2)*
X125700000Y-87250000D02*
X126357800Y-87250000D01*
X126357800Y-87250000D02*
X126999500Y-87891700D01*
X126999500Y-87891700D02*
X126999500Y-89565100D01*
X126999500Y-89565100D02*
X125199800Y-91364800D01*
X125199800Y-91364800D02*
X124408000Y-91364800D01*
X124408000Y-91364800D02*
X124011200Y-90968000D01*
G04 #@! TO.N,Net-(D14-Pad2)*
X126357800Y-87750000D02*
X126675400Y-88067600D01*
X126675400Y-88067600D02*
X126675400Y-89216300D01*
X126675400Y-89216300D02*
X125109800Y-90781900D01*
X125109800Y-90781900D02*
X124942600Y-90781900D01*
X125700000Y-87750000D02*
X126357800Y-87750000D01*
G04 #@! TO.N,Net-(D15-Pad2)*
X125700000Y-88250000D02*
X126357800Y-88250000D01*
X126357800Y-88250000D02*
X126357800Y-89020200D01*
X126357800Y-89020200D02*
X125195100Y-90182900D01*
X125195100Y-90182900D02*
X121595000Y-90182900D01*
X121595000Y-90182900D02*
X120283800Y-88871700D01*
G04 #@! TO.N,Net-(D16-Pad2)*
X125700000Y-88750000D02*
X125700000Y-89154500D01*
X125700000Y-89154500D02*
X124982000Y-89872500D01*
X124982000Y-89872500D02*
X122122700Y-89872500D01*
X122122700Y-89872500D02*
X119602300Y-87352100D01*
X119602300Y-87352100D02*
X119602300Y-87242200D01*
X119602300Y-87242200D02*
X119317200Y-86957100D01*
X119317200Y-86957100D02*
X115387500Y-86957100D01*
X115387500Y-86957100D02*
X114619700Y-87724900D01*
X114619700Y-87724900D02*
X114619700Y-88116000D01*
G04 #@! TO.N,Net-(D17-Pad2)*
X108800000Y-109750000D02*
X108800000Y-109117000D01*
X108800000Y-109117000D02*
X110376300Y-107540700D01*
X110376300Y-107540700D02*
X110585700Y-107540700D01*
X110585700Y-107540700D02*
X114300000Y-103826400D01*
X114300000Y-103826400D02*
X114300000Y-94027700D01*
G04 #@! TO.N,Net-(D18-Pad2)*
X110250000Y-108642200D02*
X111402500Y-108642200D01*
X111402500Y-108642200D02*
X112897300Y-107147400D01*
X110250000Y-109300000D02*
X110250000Y-108642200D01*
G04 #@! TO.N,Net-(D19-Pad2)*
X111200000Y-109750000D02*
X111857800Y-109750000D01*
X111857800Y-109750000D02*
X111857800Y-109422500D01*
X111857800Y-109422500D02*
X113427200Y-107853100D01*
G04 #@! TO.N,Net-(D20-Pad2)*
X111200000Y-110250000D02*
X111885500Y-110250000D01*
X111885500Y-110250000D02*
X114300000Y-107835500D01*
G04 #@! TO.N,Net-(D21-Pad2)*
X111200000Y-110750000D02*
X111857800Y-110750000D01*
X111857800Y-110750000D02*
X111874800Y-110733000D01*
X111874800Y-110733000D02*
X113223000Y-110733000D01*
X113223000Y-110733000D02*
X114217100Y-111727100D01*
X114217100Y-111727100D02*
X114217100Y-112195400D01*
G04 #@! TO.N,Net-(D22-Pad2)*
X111200000Y-111250000D02*
X112884800Y-111250000D01*
X112884800Y-111250000D02*
X112950700Y-111315900D01*
G04 #@! TO.N,Net-(D23-Pad2)*
X111857800Y-111750000D02*
X112006500Y-111898700D01*
X112006500Y-111898700D02*
X113096300Y-111898700D01*
X113096300Y-111898700D02*
X115252400Y-114054800D01*
X115252400Y-114054800D02*
X115295000Y-114054800D01*
X111200000Y-111750000D02*
X111857800Y-111750000D01*
G04 #@! TO.N,Net-(D24-Pad2)*
X111200000Y-112250000D02*
X111857800Y-112250000D01*
X111857800Y-112250000D02*
X112451000Y-112843200D01*
X112451000Y-112843200D02*
X112590000Y-112843200D01*
G04 #@! TO.N,GND*
X107409800Y-107775000D02*
X107409800Y-105578000D01*
X107409800Y-105578000D02*
X108000000Y-104987800D01*
X108142200Y-110750000D02*
X107409800Y-110017600D01*
X107409800Y-110017600D02*
X107409800Y-107775000D01*
X107409800Y-107775000D02*
X106542000Y-107775000D01*
X95750000Y-89200000D02*
X95750000Y-87750000D01*
X95750000Y-87750000D02*
X95500000Y-87500000D01*
X97631000Y-88692000D02*
X97631000Y-88729800D01*
X97631000Y-88729800D02*
X97160800Y-89200000D01*
X97160800Y-89200000D02*
X95750000Y-89200000D01*
X107906600Y-86769300D02*
X107906500Y-86769300D01*
X107906500Y-86769300D02*
X105777700Y-86769300D01*
X105777700Y-86769300D02*
X105310500Y-86302100D01*
X105310500Y-86302100D02*
X100386000Y-86302100D01*
X100386000Y-86302100D02*
X97996100Y-88692000D01*
X97996100Y-88692000D02*
X97631000Y-88692000D01*
X101930000Y-117330000D02*
X101930000Y-116161800D01*
X101930000Y-116161800D02*
X102632300Y-115459500D01*
X102632300Y-115459500D02*
X105081300Y-115459500D01*
X119167200Y-116157700D02*
X116957700Y-118367200D01*
X116957700Y-118367200D02*
X111940600Y-118367200D01*
X111940600Y-118367200D02*
X111857800Y-118450000D01*
X108000000Y-96012200D02*
X108223400Y-95788800D01*
X108223400Y-95788800D02*
X108223400Y-88484100D01*
X108223400Y-88484100D02*
X108059800Y-88320500D01*
X108059800Y-88320500D02*
X108059800Y-86922600D01*
X108059800Y-86922600D02*
X107906600Y-86769300D01*
X108800000Y-110750000D02*
X108142200Y-110750000D01*
X107906600Y-86769300D02*
X110367000Y-84308900D01*
X120000000Y-115507800D02*
X119350100Y-116157700D01*
X119350100Y-116157700D02*
X119167200Y-116157700D01*
X110000000Y-111000000D02*
X110250000Y-111250000D01*
X110250000Y-111250000D02*
X110250000Y-112700000D01*
X122642200Y-87250000D02*
X120164600Y-84772400D01*
X120164600Y-84772400D02*
X119648800Y-84772400D01*
X108000000Y-97620000D02*
X108000000Y-96012200D01*
X123300000Y-87250000D02*
X122642200Y-87250000D01*
X124500000Y-87500000D02*
X124250000Y-87250000D01*
X124250000Y-87250000D02*
X123300000Y-87250000D01*
X120000000Y-114500000D02*
X120000000Y-115507800D01*
X111200000Y-118450000D02*
X111857800Y-118450000D01*
X110000000Y-118200000D02*
X109750000Y-117950000D01*
X109750000Y-117950000D02*
X109750000Y-116500000D01*
X110000000Y-118200000D02*
X110250000Y-118450000D01*
X110250000Y-118450000D02*
X111200000Y-118450000D01*
X108000000Y-103380000D02*
X108000000Y-104987800D01*
X108000000Y-97620000D02*
X108000000Y-103380000D01*
X124750000Y-89200000D02*
X124750000Y-87750000D01*
X124750000Y-87750000D02*
X124500000Y-87500000D01*
X108800000Y-110750000D02*
X109750000Y-110750000D01*
X109750000Y-110750000D02*
X110000000Y-111000000D01*
X110367000Y-81826100D02*
X110367000Y-84308900D01*
X94300000Y-87250000D02*
X95250000Y-87250000D01*
X95250000Y-87250000D02*
X95500000Y-87500000D01*
G04 #@! TO.N,VCC*
X99567000Y-81826100D02*
X99567000Y-80093300D01*
X99567000Y-80093300D02*
X99917500Y-79742800D01*
X99917500Y-79742800D02*
X101714300Y-79742800D01*
X101714300Y-79742800D02*
X102635400Y-80663900D01*
X102635400Y-80663900D02*
X107125800Y-80663900D01*
X107125800Y-80663900D02*
X107493200Y-81031300D01*
X95250000Y-85800000D02*
X95250000Y-84834400D01*
X95250000Y-84834400D02*
X96401700Y-83682700D01*
X96401700Y-83682700D02*
X96401700Y-83418300D01*
X96401700Y-83418300D02*
X97993900Y-81826100D01*
X97993900Y-81826100D02*
X99567000Y-81826100D01*
X110250000Y-120557800D02*
X110486500Y-120794300D01*
X110486500Y-120794300D02*
X114197600Y-120794300D01*
X114197600Y-120794300D02*
X115184200Y-119807700D01*
X115184200Y-119807700D02*
X118538000Y-119807700D01*
X118538000Y-119807700D02*
X119262800Y-120532500D01*
X119262800Y-120532500D02*
X119262800Y-122371400D01*
X119262800Y-122371400D02*
X119126400Y-122507800D01*
X119126400Y-122507800D02*
X118333600Y-122507800D01*
X118333600Y-122507800D02*
X118197200Y-122371400D01*
X118197200Y-122371400D02*
X118197200Y-120829600D01*
X118197200Y-120829600D02*
X117848600Y-120481000D01*
X117848600Y-120481000D02*
X116283800Y-120481000D01*
X116283800Y-120481000D02*
X116195000Y-120569800D01*
X109750000Y-109300000D02*
X109750000Y-108642200D01*
X111231200Y-107906200D02*
X110486000Y-107906200D01*
X110486000Y-107906200D02*
X109750000Y-108642200D01*
X111115700Y-114410800D02*
X110286600Y-114410800D01*
X110286600Y-114410800D02*
X108800000Y-112924200D01*
X108800000Y-112924200D02*
X108800000Y-112250000D01*
X103073100Y-78901500D02*
X110584400Y-78901500D01*
X110584400Y-78901500D02*
X111456000Y-78029900D01*
X104470000Y-117330000D02*
X107575300Y-120435300D01*
X107575300Y-120435300D02*
X107575300Y-120548900D01*
X107575300Y-120548900D02*
X108705700Y-121679300D01*
X108705700Y-121679300D02*
X116015700Y-121679300D01*
X116015700Y-121679300D02*
X116195000Y-121500000D01*
X96112800Y-90140100D02*
X95927400Y-89954700D01*
X95927400Y-89954700D02*
X95006700Y-89954700D01*
X95006700Y-89954700D02*
X94300000Y-89248000D01*
X94300000Y-89248000D02*
X94300000Y-88750000D01*
X116195000Y-121500000D02*
X116195000Y-121405400D01*
X123300000Y-88750000D02*
X122301200Y-88750000D01*
X122301200Y-88750000D02*
X121981300Y-88430100D01*
X111456000Y-78029900D02*
X113900300Y-78029900D01*
X113900300Y-78029900D02*
X115576900Y-79706500D01*
X116195000Y-121405400D02*
X116195000Y-120569800D01*
X111857800Y-116950000D02*
X112027300Y-116780500D01*
X112027300Y-116780500D02*
X112027300Y-116484900D01*
X111200000Y-116950000D02*
X111857800Y-116950000D01*
X121167000Y-81826100D02*
X121167000Y-83558900D01*
X124250000Y-85800000D02*
X124250000Y-85142200D01*
X124250000Y-85142200D02*
X122666700Y-83558900D01*
X122666700Y-83558900D02*
X121167000Y-83558900D01*
X110250000Y-119900000D02*
X110250000Y-120557800D01*
G04 #@! TO.N,CLK*
X112614400Y-116743600D02*
X111908000Y-117450000D01*
X111908000Y-117450000D02*
X111200000Y-117450000D01*
X109959600Y-114978500D02*
X110319100Y-115338000D01*
X110319100Y-115338000D02*
X111707100Y-115338000D01*
X111707100Y-115338000D02*
X112614400Y-116245300D01*
X112614400Y-116245300D02*
X112614400Y-116743600D01*
X112614400Y-116743600D02*
X113299800Y-117429000D01*
X113299800Y-117429000D02*
X116046800Y-117429000D01*
X116046800Y-117429000D02*
X118730000Y-114745800D01*
X118730000Y-114745800D02*
X118730000Y-114500000D01*
X108142200Y-111750000D02*
X108142200Y-112705300D01*
X108142200Y-112705300D02*
X109959600Y-114522700D01*
X109959600Y-114522700D02*
X109959600Y-114978500D01*
X93700900Y-88308600D02*
X93759500Y-88250000D01*
X93759500Y-88250000D02*
X93782600Y-88250000D01*
X106600100Y-88725500D02*
X106600100Y-88469500D01*
X106600100Y-88469500D02*
X104743000Y-86612400D01*
X104743000Y-86612400D02*
X100552400Y-86612400D01*
X100552400Y-86612400D02*
X96441900Y-90722900D01*
X96441900Y-90722900D02*
X95682900Y-90722900D01*
X95682900Y-90722900D02*
X95225000Y-90265000D01*
X95225000Y-90265000D02*
X94867400Y-90265000D01*
X94867400Y-90265000D02*
X93642200Y-89039800D01*
X93642200Y-89039800D02*
X93642200Y-88367300D01*
X93642200Y-88367300D02*
X93700900Y-88308600D01*
X93700900Y-88308600D02*
X92954800Y-87562600D01*
X92954800Y-87562600D02*
X92954800Y-84495800D01*
X92954800Y-84495800D02*
X100269100Y-77181500D01*
X100269100Y-77181500D02*
X109869800Y-77181500D01*
X108219800Y-111750000D02*
X108142200Y-111750000D01*
X108800000Y-111750000D02*
X108219800Y-111750000D01*
X106600100Y-88725500D02*
X105949400Y-89376200D01*
X105949400Y-89376200D02*
X105949400Y-109557200D01*
X105949400Y-109557200D02*
X108142200Y-111750000D01*
X106600100Y-88725500D02*
X107640600Y-88725500D01*
X122642200Y-88250000D02*
X120706400Y-86314200D01*
X120706400Y-86314200D02*
X111582400Y-86314200D01*
X111582400Y-86314200D02*
X109964400Y-87932200D01*
X109964400Y-87932200D02*
X108650400Y-87932200D01*
X123300000Y-88250000D02*
X122642200Y-88250000D01*
X94300000Y-88250000D02*
X93782600Y-88250000D01*
G04 #@! TO.N,Net-(D25-Pad2)*
X111857800Y-119450000D02*
X111857800Y-120170600D01*
X111200000Y-119450000D02*
X111857800Y-119450000D01*
G04 #@! TO.N,Net-(D26-Pad2)*
X109750000Y-120557800D02*
X109518600Y-120557800D01*
X109518600Y-120557800D02*
X109290200Y-120786200D01*
X109750000Y-119900000D02*
X109750000Y-120557800D01*
G04 #@! TO.N,Net-(D27-Pad2)*
X108800000Y-119450000D02*
X108468400Y-119781600D01*
X108468400Y-119781600D02*
X108468400Y-120179100D01*
G04 #@! TO.N,Net-(D28-Pad2)*
X102900000Y-116046100D02*
X105238300Y-116046100D01*
X105238300Y-116046100D02*
X108142200Y-118950000D01*
X108800000Y-118950000D02*
X108142200Y-118950000D01*
G04 #@! TO.N,Net-(D29-Pad2)*
X108142200Y-118450000D02*
X106953400Y-117261200D01*
X106953400Y-117261200D02*
X106953400Y-116438600D01*
X108800000Y-118450000D02*
X108142200Y-118450000D01*
G04 #@! TO.N,Net-(D30-Pad2)*
X108142200Y-117950000D02*
X107793900Y-117601700D01*
X107793900Y-117601700D02*
X107793900Y-116404200D01*
X107793900Y-116404200D02*
X106985700Y-115596000D01*
X106985700Y-115596000D02*
X106985700Y-113579100D01*
X108800000Y-117950000D02*
X108142200Y-117950000D01*
G04 #@! TO.N,Net-(D31-Pad2)*
X108142200Y-117450000D02*
X108142200Y-115256100D01*
X108142200Y-115256100D02*
X108204900Y-115193400D01*
X108800000Y-117450000D02*
X108142200Y-117450000D01*
G04 #@! TO.N,Net-(D32-Pad2)*
X108800000Y-116950000D02*
X108800000Y-114569200D01*
X108800000Y-114569200D02*
X107159000Y-112928200D01*
X107159000Y-112928200D02*
X107159000Y-112572600D01*
G04 #@! TO.N,Net-(D33-Pad2)*
X109259400Y-86976500D02*
X110067000Y-86976500D01*
X110067000Y-86976500D02*
X112849900Y-84193600D01*
X112849900Y-84193600D02*
X112849900Y-79450900D01*
X112849900Y-79450900D02*
X112742200Y-79343200D01*
X112742200Y-79343200D02*
X108019500Y-79343200D01*
X108019500Y-79343200D02*
X107126300Y-80236400D01*
X107126300Y-80236400D02*
X102866100Y-80236400D01*
X102866100Y-80236400D02*
X102020400Y-79390700D01*
X102020400Y-79390700D02*
X99645800Y-79390700D01*
X99645800Y-79390700D02*
X96091400Y-82945100D01*
X96091400Y-82945100D02*
X96091400Y-83554300D01*
X96091400Y-83554300D02*
X94300000Y-85345700D01*
X94300000Y-85345700D02*
X94300000Y-86250000D01*
G04 #@! TO.N,Net-(D34-Pad2)*
X95750000Y-85142200D02*
X96200700Y-84691500D01*
X96200700Y-84691500D02*
X106592500Y-84691500D01*
X95750000Y-85800000D02*
X95750000Y-85142200D01*
G04 #@! TO.N,Net-(D35-Pad2)*
X96700000Y-86250000D02*
X97357800Y-86250000D01*
X97357800Y-86250000D02*
X98537800Y-85070000D01*
X98537800Y-85070000D02*
X105509100Y-85070000D01*
X105509100Y-85070000D02*
X105724100Y-85285000D01*
X105724100Y-85285000D02*
X107812700Y-85285000D01*
X107812700Y-85285000D02*
X108067700Y-85030000D01*
G04 #@! TO.N,Net-(D36-Pad2)*
X96700000Y-86750000D02*
X97357800Y-86750000D01*
X97357800Y-86750000D02*
X97357800Y-86739600D01*
X97357800Y-86739600D02*
X98444600Y-85652800D01*
X98444600Y-85652800D02*
X102678800Y-85652800D01*
G04 #@! TO.N,Net-(D37-Pad2)*
X98644500Y-86277100D02*
X97671600Y-87250000D01*
X97671600Y-87250000D02*
X96700000Y-87250000D01*
G04 #@! TO.N,Net-(D38-Pad2)*
X97357800Y-87750000D02*
X98113800Y-87750000D01*
X98113800Y-87750000D02*
X98645100Y-87218700D01*
X96700000Y-87750000D02*
X97357800Y-87750000D01*
G04 #@! TO.N,SW1*
X112000000Y-103380000D02*
X112000000Y-104987800D01*
X110344300Y-106957900D02*
X110344300Y-106643500D01*
X110344300Y-106643500D02*
X112000000Y-104987800D01*
X120000000Y-121500000D02*
X120000000Y-122507800D01*
X103200000Y-118600000D02*
X107450400Y-122850400D01*
X107450400Y-122850400D02*
X119657400Y-122850400D01*
X119657400Y-122850400D02*
X120000000Y-122507800D01*
X112000000Y-97620000D02*
X112000000Y-103380000D01*
G04 #@! TO.N,RST*
X116190000Y-115507800D02*
X115141500Y-116556300D01*
X115141500Y-116556300D02*
X115114900Y-116529800D01*
X115114900Y-116529800D02*
X114076400Y-116529800D01*
X114076400Y-116529800D02*
X113894600Y-116711600D01*
X113894600Y-116711600D02*
X113894600Y-116840100D01*
X113894600Y-116840100D02*
X113600000Y-116840100D01*
X116190000Y-114500000D02*
X116190000Y-115507800D01*
G04 #@! TO.N,DATA*
X103200000Y-117330000D02*
X103982600Y-116547400D01*
X103982600Y-116547400D02*
X104738100Y-116547400D01*
X104738100Y-116547400D02*
X107885600Y-119694900D01*
X107885600Y-119694900D02*
X107885600Y-120420400D01*
X107885600Y-120420400D02*
X108834200Y-121369000D01*
X108834200Y-121369000D02*
X114889600Y-121369000D01*
X114889600Y-121369000D02*
X116096500Y-120162100D01*
X116096500Y-120162100D02*
X118399900Y-120162100D01*
X118399900Y-120162100D02*
X118730000Y-120492200D01*
X118730000Y-121500000D02*
X118730000Y-120492200D01*
G04 #@! TO.N,REG*
X100660000Y-117330000D02*
X100660000Y-116597200D01*
X100660000Y-116597200D02*
X101021500Y-116597200D01*
X101021500Y-116597200D02*
X106005900Y-111612800D01*
X106005900Y-111612800D02*
X106524000Y-111612800D01*
X117460000Y-113492200D02*
X115888400Y-113492200D01*
X115888400Y-113492200D02*
X115184900Y-112788700D01*
X115184900Y-112788700D02*
X115184900Y-94066000D01*
X115184900Y-94066000D02*
X113344100Y-92225200D01*
X113344100Y-92225200D02*
X110967100Y-92225200D01*
X110189100Y-78159300D02*
X110901400Y-77447000D01*
X110901400Y-77447000D02*
X116328100Y-77447000D01*
X116328100Y-77447000D02*
X116730100Y-77849000D01*
X93642200Y-87750000D02*
X93331800Y-87439600D01*
X93331800Y-87439600D02*
X93331800Y-84645700D01*
X93331800Y-84645700D02*
X99818200Y-78159300D01*
X99818200Y-78159300D02*
X110189100Y-78159300D01*
X94300000Y-87750000D02*
X93642200Y-87750000D01*
X108800000Y-111250000D02*
X108142200Y-111250000D01*
X108142200Y-111250000D02*
X106582900Y-109690700D01*
X106582900Y-109690700D02*
X106582900Y-108813400D01*
X123300000Y-87750000D02*
X122631000Y-87750000D01*
X122631000Y-87750000D02*
X120236300Y-85355300D01*
X120236300Y-85355300D02*
X116073200Y-85355300D01*
X116073200Y-85355300D02*
X113494100Y-82776200D01*
X117460000Y-113492200D02*
X119149200Y-113492200D01*
X119149200Y-113492200D02*
X119262900Y-113605900D01*
X119262900Y-113605900D02*
X119262900Y-115407100D01*
X119262900Y-115407100D02*
X119095100Y-115574900D01*
X119095100Y-115574900D02*
X118666000Y-115574900D01*
X118666000Y-115574900D02*
X116290900Y-117950000D01*
X116290900Y-117950000D02*
X111857800Y-117950000D01*
X117460000Y-114480100D02*
X117460000Y-114500000D01*
X117460000Y-114480100D02*
X117460000Y-113492200D01*
X111200000Y-117950000D02*
X111857800Y-117950000D01*
G04 #@! TO.N,Net-(U2-Pad9)*
X122642200Y-86750000D02*
X116705300Y-80813100D01*
X116705300Y-80813100D02*
X115042000Y-80813100D01*
X115042000Y-80813100D02*
X112944600Y-78715700D01*
X112944600Y-78715700D02*
X112357800Y-78715700D01*
X123300000Y-86750000D02*
X122642200Y-86750000D01*
G04 #@! TO.N,Net-(U3-Pad9)*
X124250000Y-89200000D02*
X121889100Y-89200000D01*
X121889100Y-89200000D02*
X121187700Y-88498600D01*
X121187700Y-88498600D02*
X121187700Y-88388900D01*
X121187700Y-88388900D02*
X119423300Y-86624500D01*
X119423300Y-86624500D02*
X115281200Y-86624500D01*
X115281200Y-86624500D02*
X109828700Y-92077000D01*
X109828700Y-92077000D02*
X109828700Y-105287000D01*
X109828700Y-105287000D02*
X108142200Y-106973500D01*
X108142200Y-106973500D02*
X108142200Y-110250000D01*
X108800000Y-110250000D02*
X108142200Y-110250000D01*
G04 #@! TO.N,Net-(U4-Pad9)*
X111200000Y-118950000D02*
X112801600Y-118950000D01*
X109750000Y-112700000D02*
X109750000Y-113357800D01*
X109750000Y-113357800D02*
X111661400Y-113357800D01*
X111661400Y-113357800D02*
X114182900Y-115879300D01*
G04 #@! TO.N,Net-(U5-Pad9)*
X110250000Y-115842200D02*
X109936500Y-115842200D01*
X109936500Y-115842200D02*
X109314100Y-115219800D01*
X109314100Y-115219800D02*
X109314100Y-114579000D01*
X109314100Y-114579000D02*
X107741800Y-113006700D01*
X107741800Y-113006700D02*
X107741800Y-111953800D01*
X107741800Y-111953800D02*
X104742900Y-108954900D01*
X104742900Y-108954900D02*
X104742900Y-87077800D01*
X104742900Y-87077800D02*
X104587800Y-86922700D01*
X104587800Y-86922700D02*
X100720600Y-86922700D01*
X100720600Y-86922700D02*
X96571000Y-91072300D01*
X96571000Y-91072300D02*
X95208100Y-91072300D01*
X95208100Y-91072300D02*
X94983600Y-90847800D01*
X93642200Y-86750000D02*
X93642200Y-85179300D01*
X93642200Y-85179300D02*
X94129800Y-84691700D01*
X94300000Y-86750000D02*
X93642200Y-86750000D01*
X110250000Y-116500000D02*
X110250000Y-115842200D01*
G04 #@! TO.N,PB2*
X105202800Y-118600000D02*
X105202800Y-118615200D01*
X105202800Y-118615200D02*
X109095400Y-122507800D01*
X109095400Y-122507800D02*
X117460000Y-122507800D01*
X117460000Y-121500000D02*
X117460000Y-122507800D01*
X104470000Y-118600000D02*
X105202800Y-118600000D01*
G04 #@! TD*
M02*
