M48
;DRILL file {KiCad (5.0.0)} date 06/08/19 12:39:57
;FORMAT={-:-/ absolute / metric / decimal}
FMAT,2
METRIC,TZ
T1C0.300
T2C0.650
T3C1.500
%
G90
G05
M71
T1
X94.13Y-84.692
X94.984Y-90.848
X95.509Y-83.313
X96.113Y-90.14
X96.843Y-84.065
X97.335Y-83.315
X97.631Y-88.692
X98.644Y-86.277
X98.645Y-87.219
X100.912Y-80.329
X102.679Y-85.653
X102.9Y-116.046
X103.073Y-78.901
X103.904Y-82.699
X105.081Y-115.459
X105.7Y-81.546
X106.524Y-111.613
X106.542Y-107.775
X106.583Y-108.813
X106.593Y-84.691
X106.697Y-82.699
X106.843Y-79.65
X106.953Y-116.439
X106.986Y-113.579
X107.159Y-112.573
X107.362Y-82.022
X107.493Y-81.031
X107.599Y-83.
X107.641Y-88.725
X108.068Y-85.03
X108.205Y-115.193
X108.468Y-120.179
X108.65Y-87.932
X109.259Y-86.977
X109.29Y-120.786
X109.87Y-77.181
X109.96Y-114.978
X110.189Y-78.159
X110.344Y-106.958
X110.967Y-92.225
X111.116Y-114.411
X111.231Y-107.906
X111.456Y-78.03
X111.858Y-120.171
X112.027Y-116.485
X112.358Y-78.716
X112.59Y-112.843
X112.802Y-118.95
X112.897Y-107.147
X112.951Y-111.316
X113.427Y-107.853
X113.494Y-82.776
X113.6Y-116.84
X114.183Y-115.879
X114.217Y-112.195
X114.3Y-94.028
X114.3Y-107.835
X114.62Y-88.116
X115.295Y-114.055
X115.577Y-79.706
X116.73Y-77.849
X119.167Y-116.158
X119.649Y-84.772
X120.284Y-88.872
X121.981Y-88.43
X124.011Y-90.968
X124.943Y-90.782
X126.472Y-84.181
X127.4Y-79.038
X127.483Y-89.924
X127.492Y-85.96
T2
X100.66Y-117.33
X100.66Y-118.6
X101.93Y-117.33
X101.93Y-118.6
X103.2Y-117.33
X103.2Y-118.6
X104.47Y-117.33
X104.47Y-118.6
T3
X99.567Y-81.576G85X99.567Y-82.076
G05
X121.167Y-81.576G85X121.167Y-82.076
G05
T0
M30
