G04 #@! TF.GenerationSoftware,KiCad,Pcbnew,(5.0.0)*
G04 #@! TF.CreationDate,2019-06-08T12:39:54-04:00*
G04 #@! TF.ProjectId,Tiny-er T,54696E792D657220542E6B696361645F,rev?*
G04 #@! TF.SameCoordinates,Original*
G04 #@! TF.FileFunction,Paste,Top*
G04 #@! TF.FilePolarity,Positive*
%FSLAX46Y46*%
G04 Gerber Fmt 4.6, Leading zero omitted, Abs format (unit mm)*
G04 Created by KiCad (PCBNEW (5.0.0)) date 06/08/19 12:39:54*
%MOMM*%
%LPD*%
G01*
G04 APERTURE LIST*
%ADD10C,0.150000*%
%ADD11C,0.100000*%
%ADD12R,0.800000X0.900000*%
%ADD13R,0.700000X1.300000*%
%ADD14R,2.000000X1.000000*%
%ADD15R,0.850000X0.300000*%
%ADD16R,0.300000X0.850000*%
%ADD17R,1.000000X1.250000*%
G04 APERTURE END LIST*
D10*
G04 #@! TO.C,U2*
G36*
X111325000Y-83325000D02*
X111175000Y-83325000D01*
X111175000Y-82675000D01*
X111325000Y-82675000D01*
X111325000Y-83325000D01*
G37*
X111325000Y-83325000D02*
X111175000Y-83325000D01*
X111175000Y-82675000D01*
X111325000Y-82675000D01*
X111325000Y-83325000D01*
G36*
X110825000Y-83325000D02*
X110675000Y-83325000D01*
X110675000Y-82675000D01*
X110825000Y-82675000D01*
X110825000Y-83325000D01*
G37*
X110825000Y-83325000D02*
X110675000Y-83325000D01*
X110675000Y-82675000D01*
X110825000Y-82675000D01*
X110825000Y-83325000D01*
G36*
X110325000Y-83325000D02*
X110175000Y-83325000D01*
X110175000Y-82675000D01*
X110325000Y-82675000D01*
X110325000Y-83325000D01*
G37*
X110325000Y-83325000D02*
X110175000Y-83325000D01*
X110175000Y-82675000D01*
X110325000Y-82675000D01*
X110325000Y-83325000D01*
G36*
X109825000Y-83325000D02*
X109675000Y-83325000D01*
X109675000Y-82675000D01*
X109825000Y-82675000D01*
X109825000Y-83325000D01*
G37*
X109825000Y-83325000D02*
X109675000Y-83325000D01*
X109675000Y-82675000D01*
X109825000Y-82675000D01*
X109825000Y-83325000D01*
G36*
X109325000Y-83325000D02*
X109175000Y-83325000D01*
X109175000Y-82675000D01*
X109325000Y-82675000D01*
X109325000Y-83325000D01*
G37*
X109325000Y-83325000D02*
X109175000Y-83325000D01*
X109175000Y-82675000D01*
X109325000Y-82675000D01*
X109325000Y-83325000D01*
G36*
X108825000Y-83325000D02*
X108675000Y-83325000D01*
X108675000Y-82675000D01*
X108825000Y-82675000D01*
X108825000Y-83325000D01*
G37*
X108825000Y-83325000D02*
X108675000Y-83325000D01*
X108675000Y-82675000D01*
X108825000Y-82675000D01*
X108825000Y-83325000D01*
G36*
X107975000Y-82125000D02*
X107975000Y-81975000D01*
X108625000Y-81975000D01*
X108625000Y-82125000D01*
X107975000Y-82125000D01*
G37*
X107975000Y-82125000D02*
X107975000Y-81975000D01*
X108625000Y-81975000D01*
X108625000Y-82125000D01*
X107975000Y-82125000D01*
G36*
X107975000Y-81625000D02*
X107975000Y-81475000D01*
X108625000Y-81475000D01*
X108625000Y-81625000D01*
X107975000Y-81625000D01*
G37*
X107975000Y-81625000D02*
X107975000Y-81475000D01*
X108625000Y-81475000D01*
X108625000Y-81625000D01*
X107975000Y-81625000D01*
G36*
X108825000Y-80925000D02*
X108675000Y-80925000D01*
X108675000Y-80275000D01*
X108825000Y-80275000D01*
X108825000Y-80925000D01*
G37*
X108825000Y-80925000D02*
X108675000Y-80925000D01*
X108675000Y-80275000D01*
X108825000Y-80275000D01*
X108825000Y-80925000D01*
G36*
X109325000Y-80925000D02*
X109175000Y-80925000D01*
X109175000Y-80275000D01*
X109325000Y-80275000D01*
X109325000Y-80925000D01*
G37*
X109325000Y-80925000D02*
X109175000Y-80925000D01*
X109175000Y-80275000D01*
X109325000Y-80275000D01*
X109325000Y-80925000D01*
G36*
X109825000Y-80925000D02*
X109675000Y-80925000D01*
X109675000Y-80275000D01*
X109825000Y-80275000D01*
X109825000Y-80925000D01*
G37*
X109825000Y-80925000D02*
X109675000Y-80925000D01*
X109675000Y-80275000D01*
X109825000Y-80275000D01*
X109825000Y-80925000D01*
G36*
X110325000Y-80925000D02*
X110175000Y-80925000D01*
X110175000Y-80275000D01*
X110325000Y-80275000D01*
X110325000Y-80925000D01*
G37*
X110325000Y-80925000D02*
X110175000Y-80925000D01*
X110175000Y-80275000D01*
X110325000Y-80275000D01*
X110325000Y-80925000D01*
G36*
X110825000Y-80925000D02*
X110675000Y-80925000D01*
X110675000Y-80275000D01*
X110825000Y-80275000D01*
X110825000Y-80925000D01*
G37*
X110825000Y-80925000D02*
X110675000Y-80925000D01*
X110675000Y-80275000D01*
X110825000Y-80275000D01*
X110825000Y-80925000D01*
G36*
X111325000Y-80925000D02*
X111175000Y-80925000D01*
X111175000Y-80275000D01*
X111325000Y-80275000D01*
X111325000Y-80925000D01*
G37*
X111325000Y-80925000D02*
X111175000Y-80925000D01*
X111175000Y-80275000D01*
X111325000Y-80275000D01*
X111325000Y-80925000D01*
G36*
X111375000Y-81625000D02*
X111375000Y-81475000D01*
X112025000Y-81475000D01*
X112025000Y-81625000D01*
X111375000Y-81625000D01*
G37*
X111375000Y-81625000D02*
X111375000Y-81475000D01*
X112025000Y-81475000D01*
X112025000Y-81625000D01*
X111375000Y-81625000D01*
G36*
X111375000Y-82125000D02*
X111375000Y-81975000D01*
X112025000Y-81975000D01*
X112025000Y-82125000D01*
X111375000Y-82125000D01*
G37*
X111375000Y-82125000D02*
X111375000Y-81975000D01*
X112025000Y-81975000D01*
X112025000Y-82125000D01*
X111375000Y-82125000D01*
D11*
G36*
X109400000Y-81600000D02*
X110600000Y-81600000D01*
X110600000Y-82000000D01*
X109400000Y-82000000D01*
X109400000Y-81600000D01*
G37*
G04 #@! TD*
D12*
G04 #@! TO.C,D1*
X91600000Y-91000000D03*
X93700000Y-91000000D03*
G04 #@! TD*
G04 #@! TO.C,D2*
X91600000Y-86000000D03*
X93700000Y-86000000D03*
G04 #@! TD*
G04 #@! TO.C,D3*
X91600000Y-82000000D03*
X93700000Y-82000000D03*
G04 #@! TD*
G04 #@! TO.C,D4*
X91600000Y-78000000D03*
X93700000Y-78000000D03*
G04 #@! TD*
G04 #@! TO.C,D5*
X98600000Y-78000000D03*
X100700000Y-78000000D03*
G04 #@! TD*
G04 #@! TO.C,D6*
X106100000Y-78000000D03*
X108200000Y-78000000D03*
G04 #@! TD*
G04 #@! TO.C,D7*
X113300000Y-78000000D03*
X115400000Y-78000000D03*
G04 #@! TD*
G04 #@! TO.C,D8*
X120100000Y-78000000D03*
X122200000Y-78000000D03*
G04 #@! TD*
G04 #@! TO.C,D9*
X126300000Y-78000000D03*
X128400000Y-78000000D03*
G04 #@! TD*
G04 #@! TO.C,D10*
X126350000Y-82000000D03*
X128450000Y-82000000D03*
G04 #@! TD*
G04 #@! TO.C,D11*
X126300000Y-86000000D03*
X128400000Y-86000000D03*
G04 #@! TD*
G04 #@! TO.C,D12*
X126300000Y-91000000D03*
X128400000Y-91000000D03*
G04 #@! TD*
G04 #@! TO.C,D13*
X121000000Y-91000000D03*
X123100000Y-91000000D03*
G04 #@! TD*
G04 #@! TO.C,D14*
X121000000Y-86000000D03*
X123100000Y-86000000D03*
G04 #@! TD*
G04 #@! TO.C,D15*
X116500000Y-86000000D03*
X118600000Y-86000000D03*
G04 #@! TD*
G04 #@! TO.C,D16*
X112250000Y-86000000D03*
X114350000Y-86000000D03*
G04 #@! TD*
G04 #@! TO.C,D17*
X112200000Y-90000000D03*
X114300000Y-90000000D03*
G04 #@! TD*
G04 #@! TO.C,D18*
X112250000Y-95000000D03*
X114350000Y-95000000D03*
G04 #@! TD*
G04 #@! TO.C,D19*
X112250000Y-100000000D03*
X114350000Y-100000000D03*
G04 #@! TD*
G04 #@! TO.C,D20*
X112200000Y-105000000D03*
X114300000Y-105000000D03*
G04 #@! TD*
G04 #@! TO.C,D21*
X112200000Y-114000000D03*
X114300000Y-114000000D03*
G04 #@! TD*
G04 #@! TO.C,D22*
X117900000Y-114000000D03*
X120000000Y-114000000D03*
G04 #@! TD*
G04 #@! TO.C,D23*
X117900000Y-122000000D03*
X120000000Y-122000000D03*
G04 #@! TD*
G04 #@! TO.C,D24*
X112250000Y-109800000D03*
X114350000Y-109800000D03*
G04 #@! TD*
G04 #@! TO.C,D25*
X112200000Y-122000000D03*
X114300000Y-122000000D03*
G04 #@! TD*
G04 #@! TO.C,D26*
X105950000Y-122000000D03*
X108050000Y-122000000D03*
G04 #@! TD*
G04 #@! TO.C,D27*
X100700000Y-122000000D03*
X102800000Y-122000000D03*
G04 #@! TD*
G04 #@! TO.C,D28*
X100800000Y-114000000D03*
X102900000Y-114000000D03*
G04 #@! TD*
G04 #@! TO.C,D29*
X105950000Y-114000000D03*
X108050000Y-114000000D03*
G04 #@! TD*
G04 #@! TO.C,D30*
X105950000Y-109800000D03*
X108050000Y-109800000D03*
G04 #@! TD*
G04 #@! TO.C,D31*
X105950000Y-105000000D03*
X108050000Y-105000000D03*
G04 #@! TD*
G04 #@! TO.C,D32*
X105950000Y-100000000D03*
X108050000Y-100000000D03*
G04 #@! TD*
G04 #@! TO.C,D33*
X106000000Y-95000000D03*
X108100000Y-95000000D03*
G04 #@! TD*
G04 #@! TO.C,D34*
X105900000Y-90000000D03*
X108000000Y-90000000D03*
G04 #@! TD*
G04 #@! TO.C,D35*
X105900000Y-86000000D03*
X108000000Y-86000000D03*
G04 #@! TD*
G04 #@! TO.C,D36*
X101600000Y-86000000D03*
X103700000Y-86000000D03*
G04 #@! TD*
G04 #@! TO.C,D37*
X97450000Y-86000000D03*
X99550000Y-86000000D03*
G04 #@! TD*
G04 #@! TO.C,D38*
X97400000Y-91000000D03*
X99500000Y-91000000D03*
G04 #@! TD*
D13*
G04 #@! TO.C,R1*
X115500000Y-118000000D03*
X113600000Y-118000000D03*
G04 #@! TD*
D14*
G04 #@! TO.C,U2*
X110000000Y-81800000D03*
D15*
X108300000Y-82050000D03*
X108300000Y-81550000D03*
D16*
X108750000Y-80600000D03*
X109250000Y-80600000D03*
X109750000Y-80600000D03*
X110250000Y-80600000D03*
X110750000Y-80600000D03*
X111250000Y-80600000D03*
D15*
X111700000Y-81550000D03*
X111700000Y-82050000D03*
D16*
X111250000Y-83000000D03*
X110750000Y-83000000D03*
X110250000Y-83000000D03*
X109750000Y-83000000D03*
X109250000Y-83000000D03*
X108750000Y-83000000D03*
G04 #@! TD*
D17*
G04 #@! TO.C,C1*
X119900000Y-118000000D03*
X117900000Y-118000000D03*
G04 #@! TD*
M02*
