G04 #@! TF.GenerationSoftware,KiCad,Pcbnew,(5.0.0)*
G04 #@! TF.CreationDate,2019-06-08T12:39:54-04:00*
G04 #@! TF.ProjectId,Tiny-er T,54696E792D657220542E6B696361645F,rev?*
G04 #@! TF.SameCoordinates,Original*
G04 #@! TF.FileFunction,Soldermask,Top*
G04 #@! TF.FilePolarity,Negative*
%FSLAX46Y46*%
G04 Gerber Fmt 4.6, Leading zero omitted, Abs format (unit mm)*
G04 Created by KiCad (PCBNEW (5.0.0)) date 06/08/19 12:39:54*
%MOMM*%
%LPD*%
G01*
G04 APERTURE LIST*
%ADD10R,1.200000X1.300000*%
%ADD11R,1.100000X1.700000*%
%ADD12O,2.900000X3.400000*%
%ADD13R,1.400000X1.400000*%
%ADD14O,1.400000X1.400000*%
%ADD15R,2.400000X1.400000*%
%ADD16R,1.250000X0.700000*%
%ADD17R,0.700000X1.250000*%
%ADD18R,1.400000X1.650000*%
G04 APERTURE END LIST*
D10*
G04 #@! TO.C,D1*
X91600000Y-91000000D03*
X93700000Y-91000000D03*
G04 #@! TD*
G04 #@! TO.C,D2*
X91600000Y-86000000D03*
X93700000Y-86000000D03*
G04 #@! TD*
G04 #@! TO.C,D3*
X91600000Y-82000000D03*
X93700000Y-82000000D03*
G04 #@! TD*
G04 #@! TO.C,D4*
X91600000Y-78000000D03*
X93700000Y-78000000D03*
G04 #@! TD*
G04 #@! TO.C,D5*
X98600000Y-78000000D03*
X100700000Y-78000000D03*
G04 #@! TD*
G04 #@! TO.C,D6*
X106100000Y-78000000D03*
X108200000Y-78000000D03*
G04 #@! TD*
G04 #@! TO.C,D7*
X113300000Y-78000000D03*
X115400000Y-78000000D03*
G04 #@! TD*
G04 #@! TO.C,D8*
X120100000Y-78000000D03*
X122200000Y-78000000D03*
G04 #@! TD*
G04 #@! TO.C,D9*
X126300000Y-78000000D03*
X128400000Y-78000000D03*
G04 #@! TD*
G04 #@! TO.C,D10*
X126350000Y-82000000D03*
X128450000Y-82000000D03*
G04 #@! TD*
G04 #@! TO.C,D11*
X126300000Y-86000000D03*
X128400000Y-86000000D03*
G04 #@! TD*
G04 #@! TO.C,D12*
X126300000Y-91000000D03*
X128400000Y-91000000D03*
G04 #@! TD*
G04 #@! TO.C,D13*
X121000000Y-91000000D03*
X123100000Y-91000000D03*
G04 #@! TD*
G04 #@! TO.C,D14*
X121000000Y-86000000D03*
X123100000Y-86000000D03*
G04 #@! TD*
G04 #@! TO.C,D15*
X116500000Y-86000000D03*
X118600000Y-86000000D03*
G04 #@! TD*
G04 #@! TO.C,D16*
X112250000Y-86000000D03*
X114350000Y-86000000D03*
G04 #@! TD*
G04 #@! TO.C,D17*
X112200000Y-90000000D03*
X114300000Y-90000000D03*
G04 #@! TD*
G04 #@! TO.C,D18*
X112250000Y-95000000D03*
X114350000Y-95000000D03*
G04 #@! TD*
G04 #@! TO.C,D19*
X112250000Y-100000000D03*
X114350000Y-100000000D03*
G04 #@! TD*
G04 #@! TO.C,D20*
X112200000Y-105000000D03*
X114300000Y-105000000D03*
G04 #@! TD*
G04 #@! TO.C,D21*
X112200000Y-114000000D03*
X114300000Y-114000000D03*
G04 #@! TD*
G04 #@! TO.C,D22*
X117900000Y-114000000D03*
X120000000Y-114000000D03*
G04 #@! TD*
G04 #@! TO.C,D23*
X117900000Y-122000000D03*
X120000000Y-122000000D03*
G04 #@! TD*
G04 #@! TO.C,D24*
X112250000Y-109800000D03*
X114350000Y-109800000D03*
G04 #@! TD*
G04 #@! TO.C,D25*
X112200000Y-122000000D03*
X114300000Y-122000000D03*
G04 #@! TD*
G04 #@! TO.C,D26*
X105950000Y-122000000D03*
X108050000Y-122000000D03*
G04 #@! TD*
G04 #@! TO.C,D27*
X100700000Y-122000000D03*
X102800000Y-122000000D03*
G04 #@! TD*
G04 #@! TO.C,D28*
X100800000Y-114000000D03*
X102900000Y-114000000D03*
G04 #@! TD*
G04 #@! TO.C,D29*
X105950000Y-114000000D03*
X108050000Y-114000000D03*
G04 #@! TD*
G04 #@! TO.C,D30*
X105950000Y-109800000D03*
X108050000Y-109800000D03*
G04 #@! TD*
G04 #@! TO.C,D31*
X105950000Y-105000000D03*
X108050000Y-105000000D03*
G04 #@! TD*
G04 #@! TO.C,D32*
X105950000Y-100000000D03*
X108050000Y-100000000D03*
G04 #@! TD*
G04 #@! TO.C,D33*
X106000000Y-95000000D03*
X108100000Y-95000000D03*
G04 #@! TD*
G04 #@! TO.C,D34*
X105900000Y-90000000D03*
X108000000Y-90000000D03*
G04 #@! TD*
G04 #@! TO.C,D35*
X105900000Y-86000000D03*
X108000000Y-86000000D03*
G04 #@! TD*
G04 #@! TO.C,D36*
X101600000Y-86000000D03*
X103700000Y-86000000D03*
G04 #@! TD*
G04 #@! TO.C,D37*
X97450000Y-86000000D03*
X99550000Y-86000000D03*
G04 #@! TD*
G04 #@! TO.C,D38*
X97400000Y-91000000D03*
X99500000Y-91000000D03*
G04 #@! TD*
D11*
G04 #@! TO.C,R1*
X115500000Y-118000000D03*
X113600000Y-118000000D03*
G04 #@! TD*
D12*
G04 #@! TO.C,J1*
X99567000Y-81826100D03*
X121167000Y-81826100D03*
G04 #@! TD*
D13*
G04 #@! TO.C,J2*
X100660000Y-118600000D03*
D14*
X100660000Y-117330000D03*
X101930000Y-118600000D03*
X101930000Y-117330000D03*
X103200000Y-118600000D03*
X103200000Y-117330000D03*
X104470000Y-118600000D03*
X104470000Y-117330000D03*
G04 #@! TD*
D15*
G04 #@! TO.C,U2*
X110000000Y-81800000D03*
D16*
X108300000Y-82050000D03*
X108300000Y-81550000D03*
D17*
X108750000Y-80600000D03*
X109250000Y-80600000D03*
X109750000Y-80600000D03*
X110250000Y-80600000D03*
X110750000Y-80600000D03*
X111250000Y-80600000D03*
D16*
X111700000Y-81550000D03*
X111700000Y-82050000D03*
D17*
X111250000Y-83000000D03*
X110750000Y-83000000D03*
X110250000Y-83000000D03*
X109750000Y-83000000D03*
X109250000Y-83000000D03*
X108750000Y-83000000D03*
G04 #@! TD*
D18*
G04 #@! TO.C,C1*
X119900000Y-118000000D03*
X117900000Y-118000000D03*
G04 #@! TD*
M02*
